<?xml version="1.0" standalone="no"?>
<!DOCTYPE svg PUBLIC "-//W3C//DTD SVG 20010904//EN" "http://www.w3.org/TR/2001/REC-SVG-20010904/DTD/svg10.dtd">
<svg id="ai-assist-icon" version="1.0" xmlns="http://www.w3.org/2000/svg" width="1024.000000pt" height="1024.000000pt"
        viewBox="0 0 1024.000000 1024.000000" preserveAspectRatio="xMidYMid meet">

        <g transform="translate(0.000000,1024.000000) scale(0.100000,-0.100000)" fill="#000000" stroke="none">
                <path d="M5090 8693 c-290 -198 -488 -443 -561 -708 -33 -121 -37 -311 -10
-434 25 -113 53 -176 115 -258 96 -126 227 -224 354 -263 l57 -18 3 -231 c1
-127 1 -336 0 -463 l-3 -233 -65 95 c-35 52 -101 131 -145 175 l-81 81 13 49
c39 154 36 324 -7 450 -49 142 -157 306 -263 398 -293 256 -699 345 -1137 250
-60 -13 -82 -23 -109 -50 l-34 -34 7 -107 c26 -408 124 -670 332 -892 216
-230 493 -342 766 -311 97 11 224 50 268 83 l29 21 81 -73 c45 -41 101 -99
124 -129 49 -64 156 -225 156 -235 0 -3 -376 -6 -836 -6 l-837 1 -2 -22 -24
-22 0 -457 c0 -350 3 -460 13 -472 33 -41 59 -48 178 -48 l117 0 6 -157 c4
-87 11 -257 16 -378 5 -121 14 -398 20 -615 19 -695 29 -904 51 -988 60 -234
247 -402 509 -458 53 -11 241 -14 986 -14 604 0 941 4 980 11 32 5 106 33 164
61 163 79 260 189 321 365 31 91 38 204 59 1078 11 451 23 882 27 958 l6 137
119 0 120 0 34 34 34 34 0 452 c0 275 -4 458 -10 470 -5 10 -22 22 -37 27 -17
5 -365 7 -848 4 -451 -3 -822 -5 -824 -4 -7 4 83 161 129 223 27 36 83 99 125
139 l77 73 78 -37 c148 -69 387 -84 560 -35 202 57 416 218 555 416 137 196
190 373 225 751 15 160 4 178 -124 208 -207 47 -457 42 -680 -14 -169 -43
-314 -118 -463 -239 -50 -40 -143 -154 -190 -230 -108 -180 -139 -417 -79
-615 l13 -45 -59 -59 c-72 -70 -185 -203 -217 -256 -13 -21 -25 -37 -26 -35
-2 2 -1 210 2 463 l6 461 50 12 c70 17 172 76 241 141 252 240 318 592 175
937 -73 174 -223 358 -433 528 -100 82 -129 91 -176 59z m93 -247 c26 -24 47
-50 48 -57 11 -159 5 -191 -27 -150 -29 37 -118 16 -140 -33 -7 -17 -13 -25
-14 -18 0 20 -28 14 -35 -9 -5 -15 -13 -19 -27 -16 -13 4 -22 -1 -28 -16 -5
-12 -9 -16 -9 -8 -1 20 -36 -18 -46 -50 -4 -13 -23 -47 -42 -75 -24 -36 -37
-71 -44 -115 -5 -35 -14 -91 -19 -124 -11 -72 -13 -228 -2 -222 4 3 8 -18 9
-45 0 -28 6 -53 11 -57 5 -3 11 -15 13 -26 3 -12 14 -21 27 -23 12 -2 22 -10
22 -19 0 -9 8 -23 18 -32 27 -26 54 -79 42 -86 -26 -16 -144 104 -189 192 -97
193 -85 455 33 673 57 106 170 234 268 302 32 23 58 45 58 49 0 20 28 6 73
-35z m51 -251 c-4 -8 -8 -15 -10 -15 -2 0 -4 7 -4 15 0 8 4 15 10 15 5 0 7 -7
4 -15z m166 -46 c6 -22 13 -48 16 -57 3 -9 -1 -6 -9 8 -16 27 -32 90 -23 90 3
0 10 -18 16 -41z m-137 -132 c9 -6 9 -10 0 -14 -18 -7 -16 -23 2 -23 10 0 15
-10 15 -30 0 -16 5 -30 11 -30 6 0 8 -7 5 -16 -8 -20 16 -44 43 -44 12 0 21
-4 21 -10 0 -5 5 -10 10 -10 6 0 10 16 10 36 0 19 7 43 16 51 12 13 15 28 10
67 -4 37 -3 45 4 29 12 -28 24 -30 15 -3 -3 11 -2 20 3 20 29 0 42 -254 21
-407 -14 -110 -79 -239 -159 -318 l-60 -59 2 455 c1 328 4 435 11 384 5 -38
14 -74 20 -78z m97 -92 c0 -28 -4 -35 -20 -35 -16 0 -20 7 -20 35 0 28 4 35
20 35 16 0 20 -7 20 -35z m-310 -442 c0 -97 -2 -174 -4 -172 -2 2 -7 82 -11
177 -4 118 -3 172 4 172 7 0 11 -60 11 -177z m-1137 -69 c91 -15 265 -78 320
-116 72 -50 205 -183 194 -195 -4 -3 -13 0 -22 7 -29 24 -27 1 3 -44 82 -121
114 -346 49 -346 -11 0 -82 46 -156 102 -75 56 -151 112 -169 126 -18 13 -31
26 -28 29 3 3 19 -5 35 -17 17 -11 46 -24 65 -27 20 -3 34 -10 33 -17 -1 -6 8
-12 21 -14 12 -2 22 -7 22 -11 0 -3 20 -13 46 -20 25 -7 50 -19 57 -25 23 -23
49 -33 73 -28 29 5 31 16 5 34 -25 18 -52 73 -45 92 4 11 1 16 -10 16 -15 0
-21 41 -19 117 0 7 -4 11 -10 10 -6 -1 -13 9 -16 23 -5 17 -34 44 -98 86 -162
108 -316 144 -618 144 l-160 0 1 -67 c2 -102 64 -360 97 -400 5 -7 18 -13 28
-13 12 0 19 -7 19 -19 0 -10 8 -22 17 -25 15 -6 15 -8 3 -17 -13 -7 -13 -10
-1 -18 7 -5 10 -14 7 -20 -4 -6 -3 -11 2 -11 6 0 9 -13 8 -30 -2 -30 8 -41 17
-17 2 7 10 1 17 -15 7 -14 21 -29 32 -31 13 -4 17 -10 12 -19 -4 -7 -3 -10 1
-5 13 11 45 -23 45 -48 0 -15 8 -25 21 -28 12 -3 18 -10 15 -16 -4 -6 5 -13
19 -17 14 -3 24 -9 21 -12 -3 -3 -1 -12 6 -19 6 -8 -4 -5 -24 6 -58 35 -221
210 -265 286 -49 85 -95 183 -116 250 -41 127 -63 370 -34 381 26 9 243 21
317 17 41 -3 114 -11 163 -19z m2851 6 c60 -10 93 -27 79 -41 -15 -15 -113
-29 -263 -39 -225 -14 -333 -45 -495 -141 -101 -60 -192 -144 -219 -204 -11
-22 -22 -42 -26 -45 -32 -23 -99 -191 -115 -290 -8 -49 -31 -100 -44 -100 -26
0 -20 203 9 312 51 186 188 344 390 447 167 85 269 109 480 110 80 0 171 -3
204 -9z m-3159 -99 c3 -5 1 -12 -5 -16 -5 -3 -10 1 -10 9 0 18 6 21 15 7z
m172 -1 c25 0 36 -5 40 -17 5 -19 87 -63 116 -63 20 0 37 -32 20 -37 -6 -2 2
-27 19 -59 17 -30 27 -58 24 -61 -3 -3 -1 -12 5 -20 21 -25 -6 -13 -41 18 -96
84 -212 159 -247 159 -2 0 -16 -25 -30 -55 -17 -38 -23 -65 -19 -83 4 -18 3
-22 -2 -13 -11 15 -27 -3 -17 -19 8 -13 -21 -13 -45 0 -19 10 -19 12 5 66 20
46 23 63 16 94 -7 31 -6 37 5 33 17 -6 18 9 2 25 -16 16 47 44 86 37 16 -3 44
-5 63 -5z m1250 -22 c-3 -7 -5 -2 -5 12 0 14 2 19 5 13 2 -7 2 -19 0 -25z
m1548 -30 c1 -24 -3 -28 -27 -28 -22 0 -28 4 -26 18 2 12 -5 18 -22 21 l-25 4
25 8 c14 4 36 7 50 6 20 -2 25 -7 25 -29z m-65 -32 c0 -11 -19 -15 -25 -6 -3
5 1 10 9 10 9 0 16 -2 16 -4z m-76 -74 c-23 -20 -80 -65 -125 -100 -46 -34
-99 -74 -116 -89 l-33 -26 0 24 c0 19 2 21 10 9 9 -14 14 -7 11 13 -1 5 3 6 7
3 5 -3 17 3 26 13 10 10 14 21 9 23 -4 3 -2 3 5 2 6 -2 12 3 12 12 0 8 7 17
15 20 8 4 13 10 10 14 -3 4 6 15 19 23 18 12 26 13 36 4 10 -9 11 -9 6 0 -3 6
6 21 20 32 29 22 49 28 39 10 -4 -6 2 -5 13 2 12 7 18 17 15 23 -4 5 1 7 10 3
9 -3 19 -2 22 3 3 4 -1 11 -7 13 -7 3 -2 6 12 6 24 0 23 -2 -16 -37z m317 28
c10 0 12 -38 3 -93 -6 -32 -9 -35 -22 -25 -13 11 -14 10 -3 -10 10 -18 10 -31
0 -60 -13 -39 -107 -232 -113 -232 -2 0 -6 7 -10 15 -3 8 0 14 6 12 14 -3 27
44 21 77 -3 14 -12 26 -19 26 -8 0 -14 10 -14 25 0 18 -7 26 -24 31 -14 3 -27
12 -30 20 -3 8 -13 14 -23 14 -14 0 -15 -2 -5 -9 10 -6 5 -11 -17 -21 -17 -7
-28 -16 -25 -21 3 -5 -3 -6 -13 -2 -10 3 -15 3 -11 -2 8 -9 -15 -35 -31 -35
-6 0 -11 -4 -11 -10 0 -6 -3 -9 -7 -8 -5 1 -22 -6 -40 -15 -21 -11 -30 -22
-27 -32 5 -11 2 -13 -10 -9 -8 3 -27 -3 -42 -15 -15 -12 -22 -21 -17 -21 5 0
10 -6 10 -14 0 -8 -8 -13 -19 -11 -13 3 -18 -2 -18 -16 0 -11 -4 -18 -9 -15
-14 9 -42 -5 -34 -18 3 -6 3 -8 -2 -4 -4 4 -16 -3 -26 -15 -10 -12 -18 -19
-19 -15 0 5 -19 -10 -42 -32 -24 -22 -47 -40 -52 -40 -5 0 -17 -7 -26 -15 -10
-9 -27 -17 -39 -20 -30 -6 -102 -67 -96 -83 3 -7 1 -10 -5 -7 -5 3 -14 -4 -20
-15 -6 -11 -18 -20 -26 -20 -8 0 -12 -4 -9 -10 3 -5 -3 -10 -14 -10 -12 0 -21
4 -21 9 0 10 95 86 270 216 58 43 130 99 160 125 30 26 100 80 155 120 55 40
117 88 137 106 21 19 43 32 50 30 7 -1 9 -1 5 2 -5 2 4 17 19 33 22 23 26 34
20 60 -5 25 -3 30 9 25 10 -4 15 1 15 14 0 17 3 18 26 8 22 -10 27 -9 36 6 6
10 16 15 25 12 8 -3 19 -6 24 -6z m-2681 -178 c35 -33 20 -34 -19 -2 -18 16
-27 28 -19 27 8 -2 25 -13 38 -25z m1807 -54 c-3 -8 -6 -5 -6 6 -1 11 2 17 5
13 3 -3 4 -12 1 -19z m273 -8 c0 -12 -270 -213 -287 -213 -6 0 -10 -4 -8 -8 3
-4 -12 -19 -33 -35 -23 -17 -31 -20 -19 -8 9 12 14 24 10 27 -3 4 1 7 11 7 10
0 17 7 15 18 -4 40 2 62 16 62 8 0 20 9 27 20 7 11 19 20 26 20 7 0 10 -4 7
-10 -3 -5 -2 -10 2 -10 5 0 14 15 21 33 10 26 14 29 22 17 9 -13 12 -13 21 3
11 18 49 24 49 7 0 -18 22 -10 27 9 3 13 10 18 21 14 10 -4 13 -2 8 5 -4 7 -1
12 9 12 19 0 47 25 38 34 -4 3 -1 6 5 6 7 0 12 -4 12 -10z m-2279 -27 c13 -16
12 -17 -3 -4 -10 7 -18 15 -18 17 0 8 8 3 21 -13z m80 -69 l24 -27 -27 18
c-16 9 -28 21 -28 26 0 14 5 11 31 -17z m110 -87 c14 -14 39 -32 55 -41 16 -8
40 -25 53 -36 24 -20 24 -21 6 -38 -12 -11 -15 -12 -8 -2 9 12 6 20 -13 37
-22 20 -28 20 -25 1 0 -4 -6 -5 -14 -2 -8 4 -15 15 -15 25 0 12 -5 16 -15 13
-8 -4 -15 -1 -15 5 0 6 -5 11 -11 11 -15 0 -39 26 -39 42 0 10 -3 9 -10 -2 -7
-12 -9 -10 -7 7 1 25 16 20 58 -20z m2544 -17 c-3 -5 -11 -10 -16 -10 -6 0 -7
5 -4 10 3 6 11 10 16 10 6 0 7 -4 4 -10z m-86 -110 c-17 -21 -49 -50 -70 -64
-64 -43 -290 -159 -296 -152 -3 3 3 9 13 12 28 10 126 85 120 91 -3 4 6 12 21
20 18 9 30 10 37 3 5 -5 17 -10 26 -10 9 0 11 3 5 8 -6 4 -2 15 12 29 13 12
23 17 23 10 0 -8 3 -8 9 2 5 7 13 11 18 8 5 -3 31 14 58 39 27 24 51 44 53 44
1 0 -11 -18 -29 -40z m-2269 -14 c24 -19 44 -43 46 -53 1 -10 5 -47 9 -83 9
-77 2 -86 -65 -94 -25 -3 -38 -3 -28 0 22 7 41 55 32 87 -4 17 -2 27 5 27 6 0
11 17 11 39 0 30 -7 46 -30 69 -27 28 -36 42 -26 42 2 0 23 -15 46 -34z m-194
-224 c-6 -6 -56 10 -56 18 0 5 13 3 30 -3 16 -6 28 -13 26 -15z m2078 19 c3
-5 -1 -11 -9 -14 -9 -4 -12 -1 -8 9 6 16 10 17 17 5z m-2037 -27 c-3 -3 -12
-4 -19 -1 -8 3 -5 6 6 6 11 1 17 -2 13 -5z m43 -4 c0 -5 -7 -10 -16 -10 -8 0
-12 5 -9 10 3 6 10 10 16 10 5 0 9 -4 9 -10z m2685 -741 c-3 -10 -7 -157 -8
-327 l-1 -309 -1683 -1 -1683 0 0 327 0 327 1690 0 c1600 0 1690 -1 1685 -17z
m-325 -886 c0 -38 -4 -180 -10 -318 -5 -137 -14 -533 -20 -880 -6 -346 -15
-675 -21 -730 -13 -134 -48 -212 -135 -295 -84 -81 -150 -109 -279 -121 -56
-6 -480 -8 -955 -7 l-855 3 -67 23 c-135 46 -267 179 -308 312 -24 76 -33 298
-50 1275 -6 330 -13 646 -17 703 l-6 102 1361 0 1362 0 0 -67z" />
                <path d="M4985 8228 l-40 -43 43 40 c23 21 42 40 42 42 0 8 -9 0 -45 -39z" />
                <path d="M5432 7930 c0 -19 2 -27 5 -17 2 9 2 25 0 35 -3 9 -5 1 -5 -18z" />
                <path d="M5390 7870 c0 -5 7 -10 15 -10 8 0 15 5 15 10 0 6 -7 10 -15 10 -8 0
-15 -4 -15 -10z" />
                <path d="M3645 7160 c-3 -5 -1 -10 4 -10 6 0 11 5 11 10 0 6 -2 10 -4 10 -3 0
-8 -4 -11 -10z" />
                <path d="M6007 6869 c7 -7 15 -10 18 -7 3 3 -2 9 -12 12 -14 6 -15 5 -6 -5z" />
                <path d="M5985 6841 c-11 -5 -24 -6 -29 -3 -5 3 -6 0 -2 -6 9 -16 18 -15 42 3
21 16 19 17 -11 6z" />
                <path d="M5079 5437 c-22 -14 -39 -38 -48 -64 -13 -37 -13 -45 3 -87 31 -82
117 -102 182 -43 67 61 53 162 -29 200 -47 23 -68 21 -108 -6z" />
                <path d="M4362 4570 c-43 -10 -131 -71 -176 -121 -20 -21 -47 -61 -61 -89 -36
-71 -44 -207 -45 -732 0 -385 2 -432 18 -485 35 -112 115 -207 211 -251 l56
-26 780 3 c445 1 799 7 823 12 67 15 115 43 165 99 84 93 82 75 82 735 l0 580
-36 76 c-43 89 -85 140 -148 177 l-46 27 -795 1 c-437 1 -810 -2 -828 -6z
m1551 -149 c43 -17 99 -74 123 -126 l24 -50 0 -551 0 -550 -29 -46 c-52 -82 7
-77 -867 -79 -685 -1 -784 0 -809 14 -39 20 -68 52 -95 104 -22 42 -22 46 -21
575 l1 533 26 53 c27 56 72 93 141 118 31 10 179 13 760 14 424 0 732 -4 746
-9z" />
                <path d="M5642 4303 c-60 -29 -82 -111 -39 -150 60 -55 114 -58 163 -9 56 56
37 129 -42 162 -41 17 -42 17 -82 -3z" />
                <path d="M4755 4073 c-59 -120 -132 -272 -162 -338 -30 -66 -88 -190 -128
-275 -69 -146 -115 -248 -115 -256 0 -2 47 -4 103 -4 l104 0 46 100 46 100
230 0 231 0 30 -52 c16 -29 37 -73 45 -98 l15 -45 110 0 c129 0 132 3 77 95
-18 30 -42 75 -54 100 -11 25 -109 223 -216 440 -184 372 -227 450 -247 450
-5 0 -56 -98 -115 -217z m224 -405 c23 -48 41 -89 41 -92 0 -3 -63 -6 -141 -6
l-141 0 7 33 c11 47 70 192 101 245 l27 46 33 -70 c18 -38 51 -108 73 -156z" />
                <path d="M5683 3962 l-103 -3 0 -378 0 -379 103 -4 c66 -3 105 -1 109 6 9 13
9 713 0 741 -7 19 -15 20 -109 17z" />
        </g>
</svg>