<svg xmlns="http://www.w3.org/2000/svg"  viewBox="0 0 31 33" fill="none">
<path d="M25.4806 0.850708C28.0119 0.850708 30.064 3.036 30.064 5.7317V27.918C30.064 30.6137 28.0119 32.799 25.4806 32.799H4.6473C2.11599 32.799 0.0639648 30.6137 0.0639648 27.918V5.7317C0.0639648 3.036 2.11599 0.850708 4.6473 0.850708H25.4806ZM25.4806 3.51307H4.6473C3.4967 3.51307 2.56396 4.50638 2.56396 5.7317V27.918C2.56396 29.1434 3.4967 30.1367 4.6473 30.1367H25.4806C26.6312 30.1367 27.564 29.1434 27.564 27.918V5.7317C27.564 4.50638 26.6312 3.51307 25.4806 3.51307ZM11.7306 21.1545L22.5134 9.67141C23.0016 9.15155 23.793 9.15155 24.2812 9.67141C24.725 10.144 24.7653 10.8835 24.4022 11.4047L24.2812 11.554L12.6145 23.9783C12.1707 24.4509 11.4763 24.4939 10.9869 24.1072L10.8467 23.9783L5.84675 18.6536C5.35859 18.1337 5.35859 17.2909 5.84675 16.771C6.29053 16.2984 6.98497 16.2555 7.47432 16.6421L7.61451 16.771L11.7306 21.1545Z" fill="#E8FCCF"/>
</svg>