<svg xmlns="http://www.w3.org/2000/svg"  viewBox="0 0 30 33" fill="none">
<path d="M4.58333 0.663147H25.4167C27.948 0.663147 30 2.84844 30 5.54414V27.7305C30 30.4262 27.948 32.6115 25.4167 32.6115H4.58333C2.05203 32.6115 0 30.4262 0 27.7305V5.54414C0 2.84844 2.05203 0.663147 4.58333 0.663147ZM4.58333 3.32551C3.43274 3.32551 2.5 4.31882 2.5 5.54414V27.7305C2.5 28.9558 3.43274 29.9491 4.58333 29.9491H25.4167C26.5673 29.9491 27.5 28.9558 27.5 27.7305V5.54414C27.5 4.31882 26.5673 3.32551 25.4167 3.32551H4.58333Z" fill="#E8FCCF"/>
</svg>