<svg viewBox="0 0 250 250" fill="none" xmlns="http://www.w3.org/2000/svg">
<path d="M249.123 96.1567C233.726 81.3578 212.944 73.2078 190.607 73.2078C179.997 73.2078 169.168 75.5108 158.991 79.6394C172.685 61.02 193.151 47.7183 216.517 42.559C217.933 42.2463 218.937 41.0974 218.955 39.768C218.974 38.4374 218.005 37.2646 216.599 36.9181C209.411 35.1461 201.977 34.2476 194.505 34.2476C174.577 34.2488 157.551 39.142 143.654 48.8281C140.926 15.5106 127.978 1.4629 127.407 0.860208C126.256 -0.355659 123.508 -0.218234 122.599 0.86836C122.599 0.86836 108.911 15.6742 106.292 49.4297C91.9416 39.6806 74.2834 34.2482 55.4948 34.2482C48.0212 34.2482 40.5877 35.1467 33.4014 36.9187C31.9957 37.2658 31.0258 38.438 31.0455 39.7685C31.064 41.098 32.0677 42.2469 33.4824 42.5596C56.9025 47.7305 78.4033 62.0874 92.0123 81.1185C81.722 75.94 70.6511 73.2084 59.3935 73.2084C37.0573 73.2084 16.276 81.3596 0.877552 96.1608C-0.0808694 97.082 -0.275229 98.4638 0.398342 99.576C1.07191 100.688 2.45729 101.274 3.81845 101.02C13.244 99.2791 22.1693 98.3951 30.3465 98.3951C52.466 98.3951 67.5522 104.851 77.9387 113.459C73.4627 113.703 67.7204 114.531 61.4525 116.979C49.0159 121.834 38.6804 131.426 30.732 145.485C30.075 146.647 30.3471 148.068 31.3986 148.957C32.4494 149.846 34.0196 149.987 35.238 149.297C53.8093 138.808 71.3903 141.048 80.2175 143.317C87.1992 145.111 93.3174 148.109 97.2715 151.505H55.3699C53.6105 151.505 52.1837 152.808 52.1837 154.416V178.362C52.1837 179.97 53.6105 181.273 55.3699 181.273H66.7907L77.5455 247.515C77.7775 248.942 79.1189 250 80.6973 250H169.304C170.883 250 172.224 248.943 172.455 247.515L183.211 181.273H194.631C196.391 181.273 197.817 179.97 197.817 178.362V154.416C197.817 152.808 196.391 151.505 194.631 151.505H153.439C160.29 145.538 168.49 142.036 177.914 141.107C195.317 139.385 211.413 146.8 214.419 149.05C215.565 149.908 217.207 149.929 218.382 149.103C219.557 148.277 219.951 146.82 219.335 145.587C218.936 144.788 218.535 143.963 218.123 143.115C212.777 132.131 204.974 116.103 178.879 113.716C193.11 105.91 214.242 101.075 246.815 101.075C248.088 101.075 249.241 100.382 249.742 99.3128C250.244 98.242 250 97.0011 249.123 96.1567ZM194.505 40.0708C197.204 40.0708 199.898 40.1983 202.575 40.4493C179.598 48.5434 160.19 64.2664 148.091 84.8983C138.103 90.5426 129.182 97.9991 122.313 106.745C120.522 104.385 118.614 102.095 116.585 99.8916C128.049 59.0512 158.726 40.0725 194.505 40.0708ZM125.011 7.92307C128.873 13.7963 136.132 28.7576 137.543 53.5781C134.473 56.2218 128.61 61.9564 125.047 67.1483C121.356 62.3011 117.13 57.9128 112.447 54.0439C113.832 29.2695 121.144 13.8475 125.011 7.92307ZM47.303 40.4609C50.0202 40.2018 52.7547 40.0708 55.4948 40.0708C82.5122 40.0708 106.993 52.1968 121.373 72.5917C116.071 81.1366 113.052 89.258 111.429 94.7073C108.98 92.4351 106.443 90.3342 103.831 88.4044C92.3233 66.6684 71.3712 49.0937 47.303 40.4609ZM30.3458 92.572C24.9305 92.572 19.2176 92.9371 13.272 93.6627C26.335 84.1692 42.3745 79.0309 59.3929 79.0309C99.3241 79.0309 130.71 116.68 133.535 151.505H107.13C107.082 151.335 98.9832 92.572 30.3458 92.572ZM81.9425 137.712C73.7239 135.598 58.697 133.507 41.9323 139.684C57.7443 118.827 76.756 119.012 83.9843 119.235C91.8352 127.878 96.0773 137.576 98.5569 144.929C94.084 141.893 88.3443 139.357 81.9425 137.712ZM166.556 244.177H83.4458L73.232 181.274H176.768L166.556 244.177ZM191.444 175.45H58.5555V157.328H191.444V175.45ZM209.609 140.139C201.661 137.068 189.718 134.085 177.229 135.317C167.729 136.255 159.322 139.442 152.107 144.8C156.003 135.282 161.36 126.454 170.473 119.258C195.074 118.79 203.928 129.542 209.609 140.139ZM142.942 151.505H139.924C138.927 137.98 134.051 124.252 126.052 112.038C140.537 92.2308 166.227 79.0309 190.607 79.0309C208.61 79.0309 225.516 84.7789 238.962 95.349C176.617 94.68 150.439 119.702 142.942 151.505Z" fill="#686A67"/>
</svg>
