<svg viewBox="0 0 134 51" fill="none" xmlns="http://www.w3.org/2000/svg">
<path d="M6.30609 0.983444C3.78365 2.1025 1.57652 4.30671 0.665642 6.64656C0.0350338 8.20646 0 9.39334 0 25.4332V42.5582L0.980947 44.4572C2.20713 46.8988 4.41426 48.8995 6.97173 49.8151C8.89859 50.4933 9.45913 50.5272 26.1002 50.5272C44.8783 50.5272 44.4579 50.5612 47.681 48.4587C49.3276 47.3735 51.1143 44.932 51.78 42.9312C52.3756 40.9305 52.3756 9.5629 51.78 7.59607C51.1494 5.62924 49.6779 3.62849 47.8212 2.23815C44.8083 -0.0338821 45.0885 3.05176e-05 25.7849 3.05176e-05L8.40812 0.0339394L6.30609 0.983444ZM33.4573 3.35721C36.3651 4.34062 40.1488 6.47701 42.1457 8.27429C46.7001 12.3097 49.9232 19.3292 49.9232 25.0941C49.9232 31.7745 46.2446 39.1671 40.9896 43.1686C36.5403 46.5597 31.7056 48.1535 25.9601 48.1535C19.1285 48.1535 14.1887 46.1527 9.28396 41.3713C4.5544 36.7933 2.73264 32.7579 2.3823 26.281C2.03196 19.3292 4.13399 14.107 9.24893 9.15597C12.5771 5.96835 15.2397 4.40845 19.4438 3.15374C23.0522 2.1025 29.9889 2.20424 33.4573 3.35721Z" fill="#134611"/>
<path d="M41.6902 11.8688C41.3048 12.4792 39.0627 13.2253 35.4192 13.9374C30.6896 14.853 27.992 16.1416 25.8199 18.4814L24.1383 20.3465L22.9471 19.1597C21.5458 17.7693 19.0584 16.7859 16.1155 16.4807C12.9975 16.1416 10.7904 15.599 10.2999 15.0564C9.56421 14.1748 9.28394 14.5817 9.28394 16.5824C9.28394 25.6366 14.0836 31.6389 21.7209 32.1814L24.5236 32.3849L24.6287 35.6743C24.7689 40.0488 25.3995 40.0149 25.3995 35.6403V32.3171L28.4825 32.1475C32.3011 31.9102 34.8236 30.8928 37.4511 28.4852C40.6392 25.5688 42.2508 21.33 42.7412 14.48C42.9164 12.0045 42.8814 11.5297 42.4259 11.5297C42.1456 11.5297 41.7953 11.6993 41.6902 11.8688ZM41.9705 15.1582C41.6201 21.6352 39.448 26.4844 35.6294 29.1973C33.7375 30.5537 30.3743 31.5371 27.6767 31.5371H25.3995L25.925 30.2824C26.7658 28.3156 28.4474 26.4505 31.4253 24.1106C33.8426 22.2116 34.6134 21.3639 33.9477 21.3639C33.6324 21.3639 28.8328 25.2297 27.5716 26.5522C26.9059 27.1965 26.0301 28.4852 25.5747 29.3668L24.7338 31.0285L24.3134 30.0111C24.0682 29.4347 23.858 27.7052 23.858 26.1114C23.823 22.822 24.6287 20.6856 26.5556 18.6849C28.7978 16.4468 31.11 15.4295 36.4351 14.4121C37.8015 14.1748 39.448 13.7339 40.1137 13.4626C42.0406 12.6488 42.0756 12.6827 41.9705 15.1582ZM11.2458 16.2772C11.7363 16.4807 13.6982 16.8198 15.555 17.0911C19.3036 17.5998 21.1604 18.3458 22.842 20.0753L23.9631 21.1943L23.4376 23.0594C23.1573 24.0767 22.9471 25.1958 22.9471 25.5349C22.9471 26.1453 22.8771 26.1453 21.756 25.4671C19.8992 24.348 19.8641 24.6193 21.6509 26.2131C22.842 27.2983 23.2975 27.9426 23.2975 28.6208C23.2975 29.1295 23.5427 29.9772 23.823 30.5198C24.4185 31.6728 24.3835 31.6728 21.3706 31.5371C17.7621 31.3676 13.5931 28.6208 11.9115 25.3314C10.9305 23.3307 9.98461 19.5666 9.98461 17.3624C9.98461 15.7686 9.94958 15.8025 11.2458 16.2772Z" fill="#134611"/>
<path d="M99.4608 7.90127C98.8652 8.40993 98.4448 9.18989 98.3047 10.0377C98.1295 11.1567 97.9544 11.3602 97.1135 11.4619C95.8874 11.5976 95.8874 12.4792 97.1486 12.6149L98.0945 12.7166L98.1996 17.0233C98.2697 20.5839 98.3748 21.3639 98.7952 21.3639C99.2156 21.3639 99.3207 20.6179 99.3207 16.9555V12.5471H100.897C102.053 12.5471 102.474 12.4114 102.474 12.0384C102.474 11.6654 102.053 11.5297 100.897 11.5297C99.4258 11.5297 99.3207 11.4619 99.3207 10.682C99.3207 10.2072 99.7411 9.42726 100.232 8.9186C101.037 8.13865 101.318 8.07083 102.859 8.24038C104.681 8.44385 105.382 8.07083 104.26 7.49434C102.999 6.81612 100.512 7.0535 99.4608 7.90127Z" fill="#134611"/>
<path d="M129.065 7.62998C128.154 8.10474 127.348 9.63073 127.348 10.8854C127.348 11.3602 127.103 11.5297 126.472 11.5297C125.911 11.5297 125.596 11.7332 125.596 12.0384C125.596 12.3436 125.911 12.5471 126.472 12.5471H127.348V16.9555C127.348 21.1265 127.383 21.3639 128.049 21.3639C128.714 21.3639 128.749 21.1265 128.749 16.9555V12.5471H130.326C131.482 12.5471 131.902 12.4114 131.902 12.0384C131.902 11.6654 131.482 11.5297 130.326 11.5297C128.819 11.5297 128.749 11.4958 128.749 10.5124C128.749 9.93592 129.065 9.18989 129.485 8.78295C130.116 8.17256 130.501 8.07083 131.937 8.24038C133.654 8.44385 134.565 8.003 133.619 7.42652C132.848 6.95177 130.081 7.08741 129.065 7.62998Z" fill="#134611"/>
<path d="M63.2361 14.9208V21.3639H67.0898C70.2428 21.3639 70.9435 21.2622 70.9435 20.8552C70.9435 20.4822 70.2779 20.3466 67.7204 20.2787L64.4623 20.177L64.3572 14.3104C64.2871 9.42726 64.182 8.47776 63.7616 8.47776C63.3062 8.47776 63.2361 9.46117 63.2361 14.9208Z" fill="#134611"/>
<path d="M113.86 8.95244C111.057 10.1393 109.446 13.4287 110.181 16.5485C111.723 23.2967 122.303 23.2967 123.845 16.5485C124.58 13.3948 122.934 10.1054 120.096 8.95244C118.66 8.34205 115.226 8.37596 113.86 8.95244ZM119.991 10.2411C122.548 11.9366 123.354 14.3782 122.268 17.125C121.427 19.3292 119.746 20.3465 117.048 20.3465C114.455 20.3465 112.809 19.4309 111.898 17.498C110.812 15.192 111.127 12.92 112.739 11.2245C114.49 9.39328 117.959 8.91853 119.991 10.2411Z" fill="#134611"/>
<path d="M75.4977 11.7671C74.692 12.0723 73.3957 13.2931 72.8352 14.3104C71.6791 16.4468 72.625 19.6344 74.762 20.8213C76.6188 21.8726 81.8038 21.6691 81.8038 20.55C81.8038 20.2109 81.2783 20.1431 79.3515 20.2787C76.4787 20.4822 74.9722 19.9735 74.2716 18.6171C73.2205 16.6842 73.3256 16.6164 78.1603 16.6164H82.6096L82.3994 15.0226C82.2593 13.7679 81.979 13.1914 81.1382 12.4792C80.1923 11.6654 79.7719 11.5297 78.0202 11.5636C76.9341 11.5636 75.778 11.6654 75.4977 11.7671ZM80.3324 13.2253C80.7528 13.6322 81.1032 14.3104 81.1032 14.7513C81.1032 15.599 81.1032 15.599 77.4246 15.599C73.6409 15.599 73.3957 15.4973 74.0964 14.2426C75.0423 12.5471 78.896 11.9367 80.3324 13.2253Z" fill="#134611"/>
<path d="M85.903 11.7672C85.5176 11.8689 85.3074 12.1741 85.4125 12.4793C85.4826 12.8184 85.7629 12.988 86.0432 12.9201C86.3234 12.8523 87.5146 12.7167 88.6707 12.615C90.5275 12.4793 90.9479 12.581 91.5785 13.1914C91.9989 13.5984 92.3142 14.2766 92.3142 14.7513C92.3142 15.4974 92.1741 15.5991 91.018 15.5991C90.3173 15.5991 88.7408 15.7687 87.4795 15.9721C85.4476 16.3112 85.2023 16.4469 84.7819 17.4642C83.9411 19.3971 84.852 21.1266 86.919 21.4996C88.2853 21.7709 90.8078 21.1944 91.7186 20.4145C92.0339 20.1432 92.3492 19.9736 92.4193 20.0414C92.4543 20.1093 92.6645 20.4823 92.8747 20.8553C93.3652 21.7031 94.5564 21.737 94.6965 20.9231C94.7666 20.584 94.5914 20.3466 94.3111 20.3466C93.6105 20.3466 93.3652 19.2954 93.3652 16.006C93.3652 13.4627 93.2952 13.1236 92.4894 12.3776C91.7537 11.6315 91.3683 11.5298 89.0911 11.5637C87.6897 11.5976 86.2534 11.6654 85.903 11.7672ZM92.3142 17.8033C92.3142 18.7867 92.104 19.1258 91.1931 19.6684C88.986 20.957 85.6578 20.3805 85.6578 18.685C85.6578 17.1929 86.7088 16.7521 90.3173 16.6503L92.3142 16.6164V17.8033Z" fill="#134611"/>
<path d="M63.2361 32.8936C63.2361 38.3872 63.3062 39.3367 63.7616 39.3367C64.182 39.3367 64.2871 38.7602 64.2871 36.2847V33.2327H68.316H72.3449V36.2847C72.3449 39.0993 72.3799 39.3367 73.0456 39.3367C73.7112 39.3367 73.7462 39.0993 73.7462 32.8936C73.7462 26.6879 73.7112 26.4505 73.0456 26.4505C72.4149 26.4505 72.3449 26.6879 72.3449 29.333V32.2493L68.4211 32.1476L64.4623 32.0458L64.3572 29.2312C64.2871 27.0609 64.147 26.4505 63.7616 26.4505C63.3062 26.4505 63.2361 27.4679 63.2361 32.8936Z" fill="#134611"/>
<path d="M80.0171 29.4686C76.9341 30.4181 75.3926 33.504 76.5137 36.3864C77.6698 39.3366 82.4344 40.4218 85.2721 38.3871C88.215 36.3186 87.9347 31.9101 84.7466 30.1129C83.4854 29.4007 81.2433 29.0955 80.0171 29.4686ZM82.9249 30.5198C84.8167 31.0285 86.0079 32.5884 86.0079 34.4874C86.0079 35.776 85.8327 36.1829 84.8167 37.1663C83.8007 38.1498 83.3803 38.3193 82.014 38.3193C79.0011 38.3193 77.5297 37.0307 77.5297 34.3517C77.5297 32.4527 78.4055 31.198 80.0871 30.6215C81.5936 30.1129 81.3834 30.1129 82.9249 30.5198Z" fill="#134611"/>
<path d="M92.6644 29.4008C89.1961 29.6381 89.5114 28.926 89.5114 36.7933C89.5114 43.5077 89.5464 43.7451 90.212 43.7451C90.8427 43.7451 90.9127 43.5077 90.9127 41.1678C90.9127 38.828 90.9828 38.6245 91.5433 38.828C93.9256 39.7775 95.327 39.7436 97.3239 38.7602C99.461 37.7089 100.302 33.5379 98.7953 31.3337C98.1998 30.452 95.7124 29.1295 94.7664 29.2312C94.4862 29.2651 93.5403 29.3329 92.6644 29.4008ZM96.5181 30.9946C97.6392 31.5032 98.2698 32.724 98.2698 34.5213C98.2698 35.776 98.0596 36.2168 97.0787 37.1663C95.7124 38.4889 94.1008 38.6923 92.1039 37.7767L90.8777 37.2003L90.9828 33.9448L91.0879 30.6894L92.3141 30.4859C93.7154 30.2485 95.2569 30.4181 96.5181 30.9946Z" fill="#134611"/>
<path d="M104.331 29.8077C102.019 30.8589 100.827 33.1988 101.388 35.7082C102.089 38.5567 105.031 40.0148 108.815 39.3366C110.952 38.9297 110.952 38.9297 110.672 38.2176C110.532 37.7767 110.287 37.7428 109.446 38.048C108.85 38.2515 107.519 38.3193 106.468 38.2515C104.296 38.0819 103.035 37.1663 102.649 35.5047L102.404 34.5891H106.818H111.232V33.097C111.232 31.2658 110.287 29.9772 108.5 29.5025C106.713 29.0277 106.012 29.0955 104.331 29.8077ZM109.586 31.571C109.901 31.9441 110.181 32.5884 110.181 32.9275C110.181 33.504 109.866 33.5718 106.328 33.5718C104.226 33.5718 102.474 33.504 102.474 33.4022C102.474 33.1648 103.49 31.198 103.63 31.198C103.665 31.198 104.296 30.9945 105.067 30.7233C106.748 30.1807 108.71 30.5198 109.586 31.571Z" fill="#134611"/>
</svg>
