<svg width="49" height="42" viewBox="0 0 49 42" fill="none" xmlns="http://www.w3.org/2000/svg">
<path d="M43.9353 25.2059L25.2121 8.36753C24.1734 7.43344 24.1734 5.90446 25.2121 4.97037L25.7205 4.51315C26.7591 3.57905 28.4593 3.57905 29.4979 4.51315L48.2211 21.3515C49.2597 22.2856 49.2597 23.8146 48.2211 24.7487L47.7127 25.2059C46.674 26.14 44.9739 26.14 43.9353 25.2059Z" fill="#FFB89A"/>
<path d="M6.82771 27.3643C6.53252 27.3643 6.23732 27.2955 5.96946 27.1431C5.19866 26.7154 4.95813 25.8059 5.43373 25.1127C5.64693 24.798 5.77812 24.3162 5.77812 23.8197C5.77812 22.9987 5.45559 22.5021 5.30253 22.3694C4.44974 22.3153 3.77734 21.6762 3.77734 20.8994C3.77734 20.0833 4.50987 19.4245 5.41733 19.4245C6.52705 19.4245 7.54931 19.9899 8.23263 20.983C8.76836 21.7647 9.06356 22.7725 9.06356 23.8246C9.06356 24.8767 8.76836 25.8845 8.23263 26.6662C7.91557 27.1136 7.37438 27.3594 6.82771 27.3643Z" fill="#33CC99"/>
<path d="M27.9454 37.8065H24.6654C24.6654 37.7574 24.5615 37.5902 24.2554 37.4132C23.7744 37.133 23.0801 36.9757 22.3476 36.9757C21.2925 36.9757 20.4889 37.3002 20.1555 37.6246L17.7556 35.6139C18.7833 34.6208 20.5053 34.0259 22.353 34.0259C25.4854 34.021 27.9454 35.6827 27.9454 37.8065Z" fill="#33CC99"/>
<path d="M8.50051 26.6957C8.07412 26.6957 7.65319 26.5482 7.33066 26.2532C6.69653 25.6731 6.70746 24.739 7.35252 24.1687L20.5599 12.5269C21.2049 11.9566 22.2436 11.9664 22.8777 12.5465C23.5118 13.1267 23.5009 14.0608 22.8558 14.6311L9.6485 26.2729C9.32597 26.5531 8.91051 26.6957 8.50051 26.6957ZM20.5708 35.8695C20.1499 35.8695 19.7289 35.7269 19.4119 35.4369C18.7723 34.8617 18.7723 33.9276 19.4119 33.3524L29.9023 23.9229C30.5419 23.3477 31.5806 23.3477 32.2201 23.9229C32.8597 24.4981 32.8597 25.4322 32.2201 26.0074L21.7297 35.4369C21.4127 35.7269 20.9917 35.8695 20.5708 35.8695ZM41.0214 25.9779C40.595 25.9779 40.1741 25.8304 39.8515 25.5354L38.1678 23.9966C37.5337 23.4165 37.5446 22.4824 38.1897 21.9121C38.8347 21.3418 39.8734 21.3516 40.5075 21.9318L42.1912 23.4706C42.8254 24.0507 42.8144 24.9848 42.1694 25.5551C41.8523 25.8353 41.4369 25.9779 41.0214 25.9779ZM35.2268 20.6732C34.8004 20.6732 34.3795 20.5257 34.0569 20.2307L19.7344 7.10911C19.1003 6.52899 19.1112 5.59489 19.7563 5.02459C20.4013 4.4543 21.44 4.46414 22.0741 5.04426L36.3966 18.1659C37.0308 18.746 37.0198 19.6801 36.3748 20.2504C36.0577 20.5306 35.6422 20.6732 35.2268 20.6732Z" fill="#33CC99"/>
<path d="M25.8188 11.2534C25.3814 11.2534 24.9496 11.096 24.627 10.7912C24.0039 10.1963 24.0367 9.26716 24.6926 8.7067L26.6934 7.01058C27.3549 6.45012 28.3881 6.47962 29.0113 7.06957C29.6345 7.66445 29.6017 8.59363 28.9457 9.15409L26.9449 10.8502C26.6278 11.1206 26.2233 11.2534 25.8188 11.2534ZM35.8883 21.5678C35.4673 21.5678 35.0464 21.4252 34.7293 21.1351C34.0898 20.5599 34.0898 19.6258 34.7293 19.0506L37.4463 16.6072C38.0859 16.032 39.1245 16.032 39.7641 16.6072C40.4037 17.1824 40.4037 18.1165 39.7641 18.6917L37.0472 21.1351C36.7301 21.4252 36.3092 21.5678 35.8883 21.5678Z" fill="#33CC99"/>
<path d="M18.9145 38.0572C18.4936 38.0572 18.0727 37.9146 17.7556 37.6245C17.116 37.0493 17.116 36.1152 17.7556 35.54C18.111 35.2205 18.6467 34.4634 18.3023 32.954C18.0016 31.6316 17.0887 30.2107 15.7931 29.0456C14.503 27.8853 12.9177 27.0594 11.4471 26.789C9.7689 26.4793 8.92704 26.966 8.57171 27.2806C7.93212 27.8558 6.89346 27.8558 6.25387 27.2806C5.61427 26.7054 5.61427 25.7713 6.25387 25.1961C7.64785 23.9425 9.77983 23.4705 12.1086 23.8982C14.2187 24.2866 16.3507 25.3731 18.111 26.9562C19.8712 28.5392 21.0793 30.4566 21.5112 32.3543C21.9868 34.4437 21.462 36.366 20.068 37.6196C19.7509 37.9146 19.33 38.0572 18.9145 38.0572Z" fill="#33CC99"/>
<path d="M45.8594 15.0095L31.0668 1.70596C29.804 0.570292 28.1367 0 26.4748 0C24.8075 0 23.1456 0.570292 21.8829 1.70596L1.66185 19.8865C1.46505 20.0634 1.12066 20.3388 1.28465 20.5305L0 42L25.2612 41.7984L45.8649 23.2689C48.385 21.0025 48.385 17.2808 45.8594 15.0095ZM43.5416 21.1893L23.8891 38.8634L7.41819 38.9912L3.77196 35.5793L4.85435 21.1893L24.2007 3.79047C24.802 3.24968 25.6111 2.94978 26.4748 2.94978C27.3385 2.94978 28.1476 3.24968 28.7489 3.79047L43.5416 17.0989C44.1429 17.6397 44.4764 18.3673 44.4764 19.1441C44.4764 19.9209 44.1429 20.6436 43.5416 21.1893Z" fill="#45484C"/>
</svg>
