<svg viewBox="0 0 184 248" fill="none" xmlns="http://www.w3.org/2000/svg">
    <path id="ProfileSVG"
        d="M92 106.286C102.918 106.286 113.59 103.169 122.667 97.3295C131.745 91.4901 138.82 83.1904 142.998 73.4798C147.176 63.7692 148.269 53.0839 146.139 42.7752C144.009 32.4665 138.752 22.9974 131.032 15.5652C123.312 8.13304 113.477 3.07168 102.769 1.02115C92.0612 -1.02938 80.9624 0.0230258 70.8759 4.04528C60.7894 8.06754 52.1683 14.879 46.1029 23.6183C40.0374 32.3576 36.8 42.6322 36.8 53.1429C36.8 67.2372 42.6157 80.7543 52.9677 90.7206C63.3197 100.687 77.36 106.286 92 106.286ZM92 17.7143C99.2784 17.7143 106.393 19.7922 112.445 23.6851C118.497 27.578 123.213 33.1112 125.999 39.585C128.784 46.0587 129.513 53.1822 128.093 60.0546C126.673 66.9271 123.168 73.2399 118.022 78.1947C112.875 83.1494 106.318 86.5237 99.1793 87.8907C92.0408 89.2577 84.6416 88.5561 77.9173 85.8746C71.1929 83.1931 65.4456 78.6521 61.4019 72.8259C57.3583 66.9997 55.2 60.15 55.2 53.1429C55.2 43.7466 59.0771 34.7352 65.9785 28.0911C72.8798 21.4469 82.24 17.7143 92 17.7143ZM92 124C67.6001 124 44.1995 133.332 26.9462 149.942C9.69283 166.552 0 189.081 0 212.571V239.143C0 241.492 0.969285 243.745 2.69462 245.406C4.41995 247.067 6.76001 248 9.2 248C11.64 248 13.98 247.067 15.7054 245.406C17.4307 243.745 18.4 241.492 18.4 239.143V212.571C18.4 193.779 26.1543 175.756 39.9569 162.468C53.7596 149.18 72.4801 141.714 92 141.714C111.52 141.714 130.24 149.18 144.043 162.468C157.846 175.756 165.6 193.779 165.6 212.571V239.143C165.6 241.492 166.569 243.745 168.295 245.406C170.02 247.067 172.36 248 174.8 248C177.24 248 179.58 247.067 181.305 245.406C183.031 243.745 184 241.492 184 239.143V212.571C184 189.081 174.307 166.552 157.054 149.942C139.8 133.332 116.4 124 92 124Z"
        fill="#6A6E6A" />
</svg>