<svg width="40" height="40" viewBox="0 0 40 40" fill="none" xmlns="http://www.w3.org/2000/svg">
<path d="M6.11111 0H33.8889C37.264 0 40 2.73604 40 6.11111V33.8889C40 37.264 37.264 40 33.8889 40H6.11111C2.73604 40 0 37.264 0 33.8889V6.11111C0 2.73604 2.73604 0 6.11111 0ZM6.11111 3.33333C4.57699 3.33333 3.33333 4.57699 3.33333 6.11111V33.8889C3.33333 35.423 4.57699 36.6667 6.11111 36.6667H33.8889C35.423 36.6667 36.6667 35.423 36.6667 33.8889V6.11111C36.6667 4.57699 35.423 3.33333 33.8889 3.33333H6.11111Z" fill="#173414"/>
<path d="M33.8889 0C37.264 0 40 2.73604 40 6.11111V33.8889C40 37.264 37.264 40 33.8889 40H6.11111C2.73604 40 0 37.264 0 33.8889V6.11111C0 2.73604 2.73604 0 6.11111 0H33.8889ZM33.8889 3.33333H6.11111C4.57699 3.33333 3.33333 4.57699 3.33333 6.11111V33.8889C3.33333 35.423 4.57699 36.6667 6.11111 36.6667H33.8889C35.423 36.6667 36.6667 35.423 36.6667 33.8889V6.11111C36.6667 4.57699 35.423 3.33333 33.8889 3.33333ZM15.5556 25.4208L29.9326 11.0437C30.5835 10.3928 31.6388 10.3928 32.2896 11.0437C32.8813 11.6354 32.9351 12.5613 32.451 13.2138L32.2896 13.4007L16.7341 28.9563C16.1424 29.548 15.2164 29.6018 14.564 29.1177L14.377 28.9563L7.71038 22.2896C7.0595 21.6387 7.0595 20.5835 7.71038 19.9326C8.30208 19.3409 9.228 19.2871 9.88047 19.7712L10.0674 19.9326L15.5556 25.4208Z" fill="#173414"/>
</svg>
