<svg width="40" height="40" viewBox="0 0 40 40" fill="none" xmlns="http://www.w3.org/2000/svg">
<path d="M6.11111 0H33.8889C37.264 0 40 2.73604 40 6.11111V33.8889C40 37.264 37.264 40 33.8889 40H6.11111C2.73604 40 0 37.264 0 33.8889V6.11111C0 2.73604 2.73604 0 6.11111 0ZM6.11111 3.33333C4.57699 3.33333 3.33333 4.57699 3.33333 6.11111V33.8889C3.33333 35.423 4.57699 36.6667 6.11111 36.6667H33.8889C35.423 36.6667 36.6667 35.423 36.6667 33.8889V6.11111C36.6667 4.57699 35.423 3.33333 33.8889 3.33333H6.11111Z" fill="#173414"/>
</svg>
