<svg id="defoult-plant" xmlns="http://www.w3.org/2000/svg" xmlns:xlink="http://www.w3.org/1999/xlink" version="1.1" x="0px" y="0px"
    viewBox="0 0 81.7096786 125" style="enable-background:new 0 0 81.7096786 100;" xml:space="preserve">
    <path
        d="M75.7519073,44.9874763c-0.0493164-0.7111168-0.5625153-1.3126793-1.3151169-1.3151207  c-2.998703-0.0095024-5.9968948,0.0267143-8.9953384,0.0439224c3.6479111-4.0705757,5.6235504-9.5591469,5.2571411-15.0523376  c-0.0917053-1.3749676-2.3532181-1.9069233-2.5832367-0.3497143c-0.0707626,0.4792995-0.1903305,0.9210968-0.3314743,1.345686  c0.8238754-5.449398,0.1815948-11.0981178-1.9615097-16.2017841c-0.5733109-1.3652067-2.42976-1.1873322-2.5832329,0.3497143  c-0.2774086,2.7779331-1.2831421,5.4415627-2.5823364,7.9334831c-0.173893-0.9109516-0.3751411-1.8226738-0.6228828-2.7352943  c-0.3756561-1.3838291-2.7345238-1.1653709-2.5832329,0.3497143c0.0955505,0.9573154,0.0006409,1.8281956-0.2173042,2.6392288  c-0.2697029-3.0451946-0.539402-6.0903902-0.8092346-9.135457c-0.0516281-0.5835838-0.3727036-1.1052656-0.9654045-1.2681141  c-0.5101242-0.1401167-1.262722,0.0774431-1.4852905,0.6043901c-0.6171036,1.4612722-1.3810043,2.8489542-2.1497841,4.2341957  c-0.0733337-1.8574772-0.3075867-3.7242022-0.7202339-5.5927248c-0.322998-1.4629421-2.587471-1.1169519-2.5832329,0.3497143  c0.0106621,3.6499701-0.8820534,7.2918501-2.6229172,10.4916735c-0.7333336-5.6099339-2.410881-11.1854506-5.288475-16.0299454  c-0.812191-1.3672619-2.6127739-0.3892703-2.4036903,1.0134382c0.671814,4.5073667,0.2401619,9.1607571-0.7552948,13.6238155  c-1.1901588-3.3473892-1.89151-6.8664904-2.039978-10.455842c-0.0565071-1.3648214-1.7024612-1.7087564-2.4506912-0.6637249  c-1.959837,2.7369642-3.1049156,5.9326792-3.5259094,9.2218904c-2.0078678-2.837781-3.3211899-6.1054163-3.8229637-9.5802088  c-0.1995811-1.3819027-2.174057-1.1104026-2.5362282,0c-1.5290852,4.6875534-1.9843674,9.5965204-1.2731247,14.4194384  c-1.984623-2.1276951-3.624155-4.5577106-5.1418076-7.0355053c-0.5445423-0.8891172-2.1969185-0.8534145-2.4036894,0.3141403  c-0.8085938,4.5676003,0.5623932,9.393856,3.1336832,13.2733307c-2.5336599-0.7448921-4.8410273-2.2186222-6.4368944-4.3407936  c-0.7212601-0.9591122-2.4914064-0.7656975-2.4506941,0.6637249c0.1178989,4.1435261,1.8084183,8.0095158,4.6397781,10.9005947  c-2.1695623-0.3343048-4.1267014-1.2092934-5.5752597-3.0902748c-0.8127027-1.0553055-2.9876585-0.5221939-2.4036889,1.0134392  c0.0407124,0.1069794,0.0976067,0.2049713,0.1399884,0.3110542c-0.0024405,0.00103-0.0050087,0.0020561-0.0074492,0.0030823  c0.0052657,0.0068092,0.0116873,0.0111732,0.016953,0.0179825c1.7205715,4.2916031,4.8275414,7.8326645,8.7771378,10.0602798  c-1.5917568,0.0906677-3.1846695,0.157711-4.776041,0.2559586c-0.644331,0.039814-1.0387392,0.4516869-1.190671,0.9375381  c-0.340981,0.2888374-0.5703564,0.718689-0.478529,1.2678566c0.6750259,4.0356445,1.3499241,8.0711594,2.0248213,12.1066742  c0.0874605,0.5228386,0.7409105,1.0115128,1.268115,0.9655342c1.0044479-0.0875893,2.0100517-0.1579666,3.0148849-0.2397766  c2.9192057,11.1431999,5.8385401,22.2865257,8.7578745,33.4297218c0.1421719,0.5424881,0.6992989,0.9842834,1.2682419,0.9654083  c13.1275635-0.4338379,26.2547417-0.1455154,39.384491,0c0.7714767,0.0085983,1.2330551-0.614151,1.3151169-1.3151245  c1.3723984-11.711113,4.1106491-23.2878876,7.2695084-34.6382408c1.1270981,0.0306931,2.2543259,0.0503426,3.3812943,0.0881004  c0.6752777,0.0226059,1.3632813-0.621727,1.3151169-1.3151207C76.3461533,53.547184,76.0489655,49.267395,75.7519073,44.9874763z   M44.7975426,44.033371c3.4089088-3.8395309,9.5459175-4.1563683,14.2827873-5.248661  c2.9314079-0.6759262,6.0499344-1.9710083,8.3367538-4.0290947c-0.9672012,3.4645195-2.9536285,6.5875397-5.7563438,8.9791565  C56.0387306,43.7880707,50.4174957,43.885807,44.7975426,44.033371z M40.5683556,44.1434364  c-1.5213776-4.9712563,2.9984436-8.3435593,7.1173134-10.6766129c0.1426849-0.0407104,0.2770233-0.1118622,0.3972321-0.2221832  c0.8792305-0.4879036,1.7320023-0.9323997,2.4880676-1.3315582c2.9154816-1.5393581,6.0869217-3.6734734,7.9444008-6.5009804  c0.3209457,3.7718506-0.115715,7.5332985-1.6725388,11.1534729c-0.6145363,0.1274033-1.2177696,0.2437592-1.7935219,0.3518982  c-5.0831146,0.9541016-10.7283707,2.4256477-13.5120811,7.1898766  C41.2142258,44.1168518,40.8913536,44.1335487,40.5683556,44.1434364z M51.4370956,22.7516823  c0.1205978-0.0960655,0.227066-0.2098541,0.2898674-0.358448c0.7075195-1.6754932,1.601902-3.2572327,2.4821587-4.846035  c0.240551,2.7147465,0.4810982,5.4296207,0.7215195,8.1444931c0.0015411,0.0173397,0.010273,0.0321083,0.0123291,0.0493183  c-1.4384117,1.4308338-3.3091202,2.5914536-5.1761017,3.6106701C50.5274315,27.1884117,51.0926476,24.9848156,51.4370956,22.7516823  z M64.7732315,18.7770405c1.13134,4.8908577,0.9523087,10.0107059-0.5991211,14.8603382  c-0.0448227,0.1401176-0.0398178,0.2630234-0.0419998,0.3883705c-1.2727394,0.7800827-2.7361946,1.3479958-4.2332993,1.7887688  c1.0667381-3.2017517,1.4603729-6.4588547,1.2934151-9.7437C62.6368027,23.7825871,63.9082565,21.3446064,64.7732315,18.7770405z   M49.0190239,21.2669067c-0.4001846,3.4152012-1.3619957,6.7675991-2.7937279,9.9675522  c-0.1311302,0.0716648-0.2679062,0.1440983-0.3947945,0.2153778c-1.7996864,1.0103569-3.6468887,2.3731232-5.1332054,3.9996834  c-0.2772789-1.6987381,0.4260025-3.288311,1.4177361-4.672142c0.046875-0.0494442,0.0800133-0.103899,0.1176414-0.1592522  c0.2648201-0.357933,0.5405617-0.7063637,0.8254166-1.0336018c1.5329361-1.7610283,3.1481972-3.4065971,4.4020538-5.3917332  C48.0522041,23.2553825,48.5674667,22.2746944,49.0190239,21.2669067z M39.1635895,24.2469883  c1.0615997-3.7009563,1.7688637-7.5452423,1.9256744-11.4027538c1.4349442,3.9167175,2.2521439,8.0877285,2.5165787,12.1991463  c-0.7663383,0.9243069-1.6125603,1.846817-2.4158897,2.7982254c-0.7470741-1.1558666-1.4278793-2.3471813-2.0374069-3.5734272  C39.1551132,24.2597027,39.1611519,24.2555923,39.1635895,24.2469883z M33.2336082,14.2016068  c0.8829536,5.6718388,3.0085945,11.1086502,6.2766151,15.8537407c-0.657177,1.0136948-1.1611328,2.0836411-1.3948746,3.2375832  c-0.5636787-0.7839355-1.159462-1.5408993-1.8606911-2.2035961c-0.7350006-0.6946754-1.530365-1.2162285-2.3697815-1.6006184  C31.3747177,24.7512035,31.2456455,19.08951,33.2336082,14.2016068z M29.2736092,22.3991432  c0.1284294,2.0801735,0.5540447,4.1391582,1.2941856,6.0975819c-1.9734497-0.4701805-3.8203964-1.2429428-5.4826622-2.3717098  c-1.0477276-3.8105087-1.2294559-7.6861286-0.6647511-11.5098648  C25.5264187,17.4800301,27.1767387,20.1263237,29.2736092,22.3991432z M25.5795879,29.4567356  c-1.5062237,0.3698788-2.9980621,0.737957-4.5374203,0.81707c-2.1732864-2.4402905-3.8180847-5.7598114-4.2804298-9.1321182  c1.3540325,1.9362049,2.8316154,3.7863636,4.5772324,5.3692589C22.6321278,27.6837654,24.0598793,28.6630421,25.5795879,29.4567356z   M11.8102608,29.8872318c3.4317684,2.5661526,7.814558,3.609129,12.1824493,2.7048588  c3.1077404-0.6433048,6.6797543-2.3474388,9.6094933-0.2971878c2.1980705,1.5383301,3.4894333,4.1697235,4.8677368,6.4322701  c-0.1708107,0.371418-0.3236427,0.748745-0.4453926,1.1355743c-2.6904716-3.2247391-7.5737514-4.2966118-11.733717-3.9716873  c-2.5815639,0.2016373-5.7866535,0.9555168-8.920723,1.2054405C14.6999273,35.3986626,12.7679605,32.8259583,11.8102608,29.8872318z   M19.680172,44.7523193c-3.6606293-0.9109497-6.9010382-3.0097466-9.2509155-5.8780937  c3.173625,1.0863876,6.8333569,0.9302139,10.2341728,0.4281845c5.2247753-0.7712212,14.7450066-2.5033493,16.555481,4.6476097  c0.0319786,0.1261177,0.0961914,0.2135811,0.1509018,0.3127289c-5.7310429,0.1930275-11.460289,0.4379425-17.1877365,0.7292213  C20.0481224,44.8865318,19.8827057,44.8026657,19.680172,44.7523193z M10.3587494,48.1487732  c17.106699-1.0386124,34.2352333-1.6227112,51.3708267-1.7840195c0.2329712,0.058567,0.4755745,0.0699959,0.7215195-0.0035934  c3.5872955-0.031208,7.1745911-0.0597191,10.7622757-0.0525284c0.2351532,3.3888741,0.4705658,6.7777443,0.705719,10.1666183  c-20.6454506-0.6385536-41.3087502-0.0914421-61.8902435,1.6598244  C11.4722338,54.8063087,10.9153633,51.4775391,10.3587494,48.1487732z M62.2215919,92.3631134  c-12.4129829-0.1446075-24.8233948-0.3822021-37.2341919-0.0066757c-2.7906475-10.6519547-5.581295-21.304039-8.3719425-31.955864  c17.5077858-1.3369522,35.0688705-1.8073921,52.6231461-1.4170914  C66.2111282,69.9364777,63.6377831,81.0809555,62.2215919,92.3631134z" />
    <path
        d="M24.3647709,71.1512909c-0.4129009-1.640564-2.9501572-0.9455032-2.5362282,0.699173  c0.9079971,3.6079712,1.8159962,7.2159424,2.7239933,10.8239212c0.4129009,1.6405563,2.9501572,0.9454956,2.5362282-0.699173  C26.1807671,78.3672409,25.2727699,74.7592621,24.3647709,71.1512909z" />
    <path
        d="M62.9431076,50.4508743c2.2617722-0.0409698,4.5235519-0.0820694,6.7854538-0.1231651  c0.687355-0.0124588,1.3473511-0.5959129,1.3151169-1.3151207c-0.0314636-0.7018661-0.578186-1.328476-1.3151169-1.3151207  c-2.2619019,0.0410995-4.5236816,0.0821953-6.7854538,0.1231651c-0.6874809,0.0125885-1.3473549,0.5960426-1.3151169,1.3151207  C61.6593246,49.8376198,62.2060509,50.4643593,62.9431076,50.4508743z" />
</svg>