<svg xmlns="http://www.w3.org/2000/svg" data-name="Layer 1" viewBox="0 0 32 40" x="0px" y="0px">
    <title>Artboard 12Indoor plant</title>
    <path
        d="M16.728,7.87994a12.07343,12.07343,0,0,0-1.90854-1.51321,23.861,23.861,0,0,1,.47008,3.048c.40862-.48336.88367-.9933,1.43846-1.5348Zm-4.20078,8.48627c1.22585-5.29541-1.779-10.129-4.73563-13.9129-.94347,5.33527.05315,9.86992,3.79382,13.82652A50.60011,50.60011,0,0,0,8.90447,8.61578a.43865.43865,0,1,1,.78567-.39034,53.89392,53.89392,0,0,1,2.83706,8.14077Zm-.05481-8.01786a15.458,15.458,0,0,1,1.06639,3.6626,11.3048,11.3048,0,0,1,.92022-1.52982c.01-.01495.02159-.03156.03322-.04651a24.40543,24.40543,0,0,0-.76574-4.84194.43882.43882,0,0,1,.62455-.51825,12.942,12.942,0,0,1,3.01147,2.2042Q18.09,6.60841,18.977,5.8734a.44.44,0,0,1,.74581.35214c-.07143.81557-.093,1.60457-.11461,2.3836-.01495.55478-.0299,1.10625-.0598,1.64609a9.87786,9.87786,0,0,1,.43021,1.00161,10.86534,10.86534,0,0,1,3.89182-3.17093c.50994-.30563,1.0531-.62954,1.63945-1.00825a.439.439,0,0,1,.67438.3455,8.94729,8.94729,0,0,1-1.80721,6.12925,23.73855,23.73855,0,0,1,4.435.56143.43987.43987,0,0,1,.24417.71425,10.63071,10.63071,0,0,1-4.94493,3.64433,8.44647,8.44647,0,0,1-3.66426.14783c-.186.49665-.36211.93683-.55313,1.38863h.3837a.43913.43913,0,0,1,.31394.13288A8.00724,8.00724,0,0,1,22.73432,23.713a16.27271,16.27271,0,0,1,.47174,4.48814.43612.43612,0,0,1-.13787.31892L20.99853,30.8505a.43387.43387,0,0,1-.32723.14783V31H19.26772a.43935.43935,0,0,1,0-.87869H20.4753l1.8504-2.08461a15.03544,15.03544,0,0,0-.43519-4.08284,7.06591,7.06591,0,0,0-.51659-1.30724H10.62531a7.06035,7.06035,0,0,0-.51492,1.30724,15.09642,15.09642,0,0,0-.43685,4.08284l1.8504,2.08461h5.9864a.43935.43935,0,0,1,0,.87869H11.32959a.43961.43961,0,0,1-.3538-.17773L8.90613,28.49182a.44377.44377,0,0,1-.10963-.29068H8.79484c0-3.38189.35546-5.802,2.61614-8.0627.15448-.15448.32058-.12956.51991-.12956-.14949-.56143-.2857-1.11456-.42024-1.72915a8.41634,8.41634,0,0,1-4.58116-1.00991c-1.3986-.89032-2.35536-2.46-3.161-5.18079a.43888.43888,0,1,1,.84215-.2475c.73916,2.50153,1.583,3.92338,2.78889,4.69079a7.59675,7.59675,0,0,0,4.05793.872,18.69561,18.69561,0,0,1-2.04641-2.36865A8.02276,8.02276,0,0,1,6.1488,12.501a.43818.43818,0,1,1,.72089-.49831A5.78837,5.78837,0,0,0,8.42443,13.481a14.50425,14.50425,0,0,1-1.26571-3.08622C6.09565,9.87983,4.9678,9.433,3.88812,8.91809l.28072,1.24578a.43956.43956,0,0,1-.85544.20265c-.17109-.71923-.309-1.3986-.46343-2.14773a.43921.43921,0,0,1,.63286-.48835c1.13948.60462,2.28393,1.05974,3.41344,1.573a19.36547,19.36547,0,0,1,.21926-7.95806v.00166a.439.439,0,0,1,.77072-.18271,31.39136,31.39136,0,0,1,4.58614,7.184Zm1.2109,5.80867c-.005.23255-.01661.46509-.03488.6993L15.76956,12.3a.43886.43886,0,1,1,.676.55977L13.386,16.54726q-.07724.33387-.17441.66774c5.95982-1.64942,5.37181-5.78043,5.56782-10.02772-2.166,1.87366-4.38681,4.10444-5.09608,6.96974ZM12.6767,18.25315a1.09954,1.09954,0,0,1-.26909.01993c.13454.59964.27906,1.17436.43353,1.73579h.76242c-.2558-.58469-.48336-1.15941-.70262-1.80888-.07475.01827-.14949.03488-.22424.05315Zm-1.50823,3.51477h9.66395a8.19771,8.19771,0,0,0-.73916-.87869H11.906a7.98781,7.98781,0,0,0-.7375.87869Zm8.18064-9.61578a7.83677,7.83677,0,0,1-.74747,2.31882l.985,1.10127a8.34721,8.34721,0,0,0-.23753-3.42009Zm-1.23083,3.0912a5.92516,5.92516,0,0,1-.58469.67272,16.4131,16.4131,0,0,0,1.64609,1.382l.19268-.64947Zm-1.25077,1.24744a9.713,9.713,0,0,1-3.11944,1.48331c.24583.72089.5116,1.36372.81557,2.03478h2.53974a22.08868,22.08868,0,0,0,1.27568-2.21749,15.99,15.99,0,0,1-1.51155-1.3006ZM19.982,17.65684a8.39009,8.39009,0,0,0,3.88518-.02658,9.04848,9.04848,0,0,0,4.01806-2.8055,17.4468,17.4468,0,0,0-4.51139-.36045,3.92565,3.92565,0,0,0-2.9251,1.2707c-.02325.17109-.05315.34384-.08637.51825l2.98655-.31892a.4385.4385,0,1,1,.093.872l-3.30049.35214q-.07226.24667-.15946.49831Zm.55977-3.20581a5.56666,5.56666,0,0,1,2.671-.85378,8.04314,8.04314,0,0,0,2.10952-5.36517c-.34218.211-.67771.41194-1.00161.60628-1.84376,1.10459-3.26229,1.95338-3.99315,3.61277.04485.20763.08471.41692.11627.62954l.93517-1.06639a.43791.43791,0,1,1,.65943.57638l-1.4966,1.70589V14.451Zm-1.42351,3.88684-.02325-.01661c-.30729.6096-.61625,1.14778-.95178,1.68762h.799c.20929-.49.42191-1.00825.62289-1.53647a1.00809,1.00809,0,0,1-.44682-.13454Z" />
</svg>