<?xml version="1.0" encoding="UTF-8"?>
<!DOCTYPE svg PUBLIC "-//W3C//DTD SVG 1.1//EN" "http://www.w3.org/Graphics/SVG/1.1/DTD/svg11.dtd">
<svg xmlns="http://www.w3.org/2000/svg" version="1.1" width="500px" height="500px" style="shape-rendering:geometricPrecision; text-rendering:geometricPrecision; image-rendering:optimizeQuality; fill-rule:evenodd; clip-rule:evenodd" xmlns:xlink="http://www.w3.org/1999/xlink">
<g><path style="opacity:0.265" fill="#817d7f" d="M 294.5,77.5 C 289.016,78.5175 283.349,79.1842 277.5,79.5C 278.609,78.71 279.942,78.21 281.5,78C 285.821,77.501 290.154,77.3343 294.5,77.5 Z"/></g>
<g><path style="opacity:0.992" fill="#0f0e0f" d="M 341.5,81.5 C 343.597,83.4824 346.264,84.4824 349.5,84.5C 353.533,85.0249 357.2,86.3582 360.5,88.5C 361.514,89.6737 362.847,90.3404 364.5,90.5C 368.117,91.6417 371.45,93.3084 374.5,95.5C 374.973,96.9063 375.973,97.573 377.5,97.5C 386.728,102.769 394.728,109.435 401.5,117.5C 401.427,119.027 402.094,120.027 403.5,120.5C 407.238,123.91 410.238,127.91 412.5,132.5C 412.427,134.027 413.094,135.027 414.5,135.5C 416.346,137.03 417.346,139.03 417.5,141.5C 417.427,143.027 418.094,144.027 419.5,144.5C 422.295,149.104 424.295,154.104 425.5,159.5C 425.402,161.553 426.069,163.22 427.5,164.5C 433.015,183.663 434.848,203.33 433,223.5C 433.086,242.882 429.919,261.549 423.5,279.5C 421.896,280.287 421.229,281.62 421.5,283.5C 421.737,284.791 421.404,285.791 420.5,286.5C 419.094,286.973 418.427,287.973 418.5,289.5C 418.275,292.546 416.942,294.879 414.5,296.5C 411.903,292.359 411.069,292.692 412,297.5C 411.086,296.346 410.253,296.513 409.5,298C 409.957,298.414 410.291,298.914 410.5,299.5C 406.648,301.605 405.315,304.605 406.5,308.5C 402.16,317.522 398.827,326.855 396.5,336.5C 394.986,342.595 394.32,348.928 394.5,355.5C 394.667,359.833 394.833,364.167 395,368.5C 395.374,370.491 396.207,372.158 397.5,373.5C 400.303,379.577 402.303,385.91 403.5,392.5C 403.707,395.241 404.707,397.574 406.5,399.5C 409.789,405.081 410.955,411.081 410,417.5C 409.535,418.931 408.701,420.097 407.5,421C 404.167,421.667 400.833,421.667 397.5,421C 394.055,417.175 392.055,412.675 391.5,407.5C 390.964,404.154 390.297,400.82 389.5,397.5C 389.253,396.287 388.586,395.62 387.5,395.5C 385.416,392.199 384.082,388.532 383.5,384.5C 383.564,379.656 382.231,375.322 379.5,371.5C 376.91,352.198 378.743,333.198 385,314.5C 387.003,309.16 389.503,304.16 392.5,299.5C 393.643,299.092 394.643,298.425 395.5,297.5C 396.453,294.574 397.787,291.907 399.5,289.5C 399.427,287.973 400.094,286.973 401.5,286.5C 404.415,284.349 406.082,281.349 406.5,277.5C 406.595,275.214 407.262,273.214 408.5,271.5C 410.163,269.562 410.829,267.228 410.5,264.5C 411.055,260.603 412.055,256.937 413.5,253.5C 415.26,248.447 415.927,243.114 415.5,237.5C 415.19,234.287 415.523,231.287 416.5,228.5C 417.661,215.006 417.827,201.34 417,187.5C 416.617,186.944 416.117,186.611 415.5,186.5C 413.954,182.07 412.954,177.404 412.5,172.5C 412.976,168.622 411.976,165.288 409.5,162.5C 408.662,162.158 408.328,161.492 408.5,160.5C 408.614,157.784 407.614,155.784 405.5,154.5C 405.5,154.167 405.5,153.833 405.5,153.5C 405.573,151.973 404.906,150.973 403.5,150.5C 403.5,150.167 403.5,149.833 403.5,149.5C 403.727,147.067 402.727,145.401 400.5,144.5C 396.581,138.573 392.248,132.906 387.5,127.5C 386.833,124.833 385.167,123.167 382.5,122.5C 381.5,122.167 380.833,121.5 380.5,120.5C 380.027,119.094 379.027,118.427 377.5,118.5C 376.306,117.728 375.306,116.728 374.5,115.5C 371.164,113.16 368.497,110.16 366.5,106.5C 365.833,106.833 365.167,107.167 364.5,107.5C 362.255,105.377 359.588,104.377 356.5,104.5C 356.167,104.5 355.833,104.5 355.5,104.5C 353.824,102.166 351.491,101.166 348.5,101.5C 346.716,101.107 345.05,100.441 343.5,99.5C 338.034,96.303 332.034,94.9697 325.5,95.5C 298.678,91.4717 273.011,95.1383 248.5,106.5C 246.94,106.519 245.44,106.852 244,107.5C 242.848,105.488 241.682,105.322 240.5,107C 240.957,107.414 241.291,107.914 241.5,108.5C 240.311,109.429 238.978,109.762 237.5,109.5C 237.5,110.5 237.5,111.5 237.5,112.5C 235.049,115.277 232.049,117.277 228.5,118.5C 226.688,117.652 225.188,117.652 224,118.5C 224.123,120.45 223.123,122.117 221,123.5C 220.107,122.289 219.274,122.289 218.5,123.5C 217.902,124.795 217.402,126.128 217,127.5C 216.586,127.043 216.086,126.709 215.5,126.5C 211.708,128.75 210.042,132.083 210.5,136.5C 210.672,137.492 210.338,138.158 209.5,138.5C 208.25,138.423 207.417,137.756 207,136.5C 205.716,137.572 205.383,138.905 206,140.5C 205.667,140.167 205.333,139.833 205,139.5C 203.706,140.854 203.54,142.188 204.5,143.5C 203.167,143.833 201.833,144.167 200.5,144.5C 199.305,145.967 199.305,147.467 200.5,149C 200.2,151.024 199.367,151.524 198,150.5C 196.741,155.984 195.241,161.317 193.5,166.5C 193.371,168.216 193.038,169.883 192.5,171.5C 191.351,171.791 190.684,172.624 190.5,174C 189.744,177.125 189.411,180.291 189.5,183.5C 189.5,183.833 189.5,184.167 189.5,184.5C 188.721,200.342 188.054,216.342 187.5,232.5C 186.579,236.299 184.912,239.632 182.5,242.5C 180.146,243.013 178.146,244.179 176.5,246C 176.833,246.333 177.167,246.667 177.5,247C 175.277,247.652 174.11,249.152 174,251.5C 169.832,250.158 168.999,251.158 171.5,254.5C 170.271,255.281 168.938,255.781 167.5,256C 168.731,257.183 168.731,258.349 167.5,259.5C 166.094,258.332 164.928,258.665 164,260.5C 163.654,262.218 163.154,263.885 162.5,265.5C 162.624,266.107 162.957,266.44 163.5,266.5C 164.167,266.833 164.833,267.167 165.5,267.5C 166.895,269.379 168.895,270.379 171.5,270.5C 174.495,272.243 177.829,273.243 181.5,273.5C 183.5,273.833 185.5,274.167 187.5,274.5C 189.181,276.008 191.181,277.008 193.5,277.5C 194.242,279.594 194.909,281.761 195.5,284C 194.035,287.281 193.368,290.781 193.5,294.5C 192.61,296.782 192.444,299.115 193,301.5C 196.201,302.185 199.035,303.519 201.5,305.5C 201.461,306.756 201.961,307.756 203,308.5C 205.394,307.864 207.894,307.864 210.5,308.5C 213.109,309.443 215.109,311.11 216.5,313.5C 216.884,318.01 217.551,322.343 218.5,326.5C 216.468,331.865 212.801,335.532 207.5,337.5C 203.137,337.003 199.971,338.669 198,342.5C 197.257,340.355 196.424,340.189 195.5,342C 198.055,344.385 200.388,346.885 202.5,349.5C 205.98,356.147 210.98,361.314 217.5,365C 227.32,365.932 236.987,367.099 246.5,368.5C 248.963,370.084 251.13,372.084 253,374.5C 253.308,373.692 253.808,373.025 254.5,372.5C 255.417,373.127 256.417,373.461 257.5,373.5C 264.634,377.641 269.634,383.641 272.5,391.5C 272.229,393.38 272.896,394.713 274.5,395.5C 275.5,398.167 276.5,400.833 277.5,403.5C 278.095,407.615 279.095,411.615 280.5,415.5C 279.726,419.938 277.06,422.271 272.5,422.5C 268.421,422.253 265.588,420.253 264,416.5C 261.542,410.96 259.375,405.294 257.5,399.5C 258.056,395.104 256.39,392.104 252.5,390.5C 250.05,389.223 247.717,387.723 245.5,386C 235.5,385 225.5,384 215.5,383C 209.542,381.178 204.209,378.345 199.5,374.5C 198.067,372.442 197.4,370.108 197.5,367.5C 193.794,367.23 192.461,365.397 193.5,362C 190.396,360.587 188.063,358.42 186.5,355.5C 184.926,353.898 184.259,351.898 184.5,349.5C 184.408,347.152 183.408,345.486 181.5,344.5C 178.797,340.038 178.963,335.704 182,331.5C 182.816,330.177 183.983,329.511 185.5,329.5C 187.027,329.573 188.027,328.906 188.5,327.5C 191.378,325.895 194.378,324.561 197.5,323.5C 198.675,323.719 199.675,323.386 200.5,322.5C 197.141,320.32 193.474,318.987 189.5,318.5C 188.391,318.443 187.391,318.11 186.5,317.5C 184.316,315.415 181.649,314.415 178.5,314.5C 178.167,314.5 177.833,314.5 177.5,314.5C 177.027,313.094 176.027,312.427 174.5,312.5C 174.167,311.833 173.833,311.167 173.5,310.5C 173.5,307.833 173.5,305.167 173.5,302.5C 174.019,298.066 175.353,293.899 177.5,290C 172.719,288.772 168.053,287.272 163.5,285.5C 162.713,283.896 161.38,283.229 159.5,283.5C 158.508,283.672 157.842,283.338 157.5,282.5C 157.649,281.448 157.483,280.448 157,279.5C 156.086,280.654 155.253,280.487 154.5,279C 155.711,278.107 155.711,277.274 154.5,276.5C 152.899,275.835 151.399,275.501 150,275.5C 146.991,269.248 146.824,262.915 149.5,256.5C 149.5,256.167 149.5,255.833 149.5,255.5C 150.833,254.833 151.833,253.833 152.5,252.5C 153.833,251.833 154.833,250.833 155.5,249.5C 155.957,247.227 157.29,245.894 159.5,245.5C 160.397,244.402 161.23,244.402 162,245.5C 163.655,241.697 165.489,238.03 167.5,234.5C 170.741,232.017 172.408,228.684 172.5,224.5C 172.333,209.496 172.5,194.496 173,179.5C 173.705,175.335 174.539,171.335 175.5,167.5C 176.931,166.22 177.598,164.553 177.5,162.5C 177.824,157.539 179.491,153.206 182.5,149.5C 184.402,146.147 187.069,143.314 190.5,141C 190.043,140.586 189.709,140.086 189.5,139.5C 190.456,137.925 191.123,136.258 191.5,134.5C 192.723,131.726 194.223,129.059 196,126.5C 199.396,122.935 202.896,119.602 206.5,116.5C 207.833,115.833 208.833,114.833 209.5,113.5C 210.167,112.167 211.167,111.167 212.5,110.5C 214.749,109.92 216.415,108.587 217.5,106.5C 227.215,98.1304 238.215,91.797 250.5,87.5C 254.163,87.0482 257.83,86.5482 261.5,86C 264.099,84.205 266.766,82.705 269.5,81.5C 272.228,81.8294 274.562,81.1628 276.5,79.5C 276.833,79.5 277.167,79.5 277.5,79.5C 283.349,79.1842 289.016,78.5175 294.5,77.5C 310.256,76.1754 325.922,77.5087 341.5,81.5 Z"/></g>
<g><path style="opacity:0.51" fill="#676067" d="M 276.5,79.5 C 274.562,81.1628 272.228,81.8294 269.5,81.5C 271.515,80.0762 273.848,79.4095 276.5,79.5 Z"/></g>
<g><path style="opacity:0.09" fill="#817e7f" d="M 341.5,81.5 C 344.542,81.7329 347.208,82.7329 349.5,84.5C 346.264,84.4824 343.597,83.4824 341.5,81.5 Z"/></g>
<g><path style="opacity:0.959" fill="#3e393c" d="M 269.5,81.5 C 266.766,82.705 264.099,84.205 261.5,86C 257.83,86.5482 254.163,87.0482 250.5,87.5C 256.374,84.3211 262.707,82.3211 269.5,81.5 Z"/></g>
<g><path style="opacity:0.031" fill="#b6b3b6" d="M 360.5,88.5 C 362.38,88.2291 363.713,88.8958 364.5,90.5C 362.847,90.3404 361.514,89.6737 360.5,88.5 Z"/></g>
<g><path style="opacity:0.459" fill="#514e53" d="M 325.5,95.5 C 332.034,94.9697 338.034,96.303 343.5,99.5C 337.388,98.1356 331.388,96.8023 325.5,95.5 Z"/></g>
<g><path style="opacity:0.016" fill="#c2c0c2" d="M 374.5,95.5 C 376.027,95.427 377.027,96.0937 377.5,97.5C 375.973,97.573 374.973,96.9063 374.5,95.5 Z"/></g>
<g><path style="opacity:0.416" fill="#746f74" d="M 348.5,101.5 C 351.491,101.166 353.824,102.166 355.5,104.5C 352.843,104.065 350.509,103.065 348.5,101.5 Z"/></g>
<g><path style="opacity:0.971" fill="#4c494e" d="M 248.5,106.5 C 245.001,108.75 241.335,110.75 237.5,112.5C 237.5,111.5 237.5,110.5 237.5,109.5C 238.978,109.762 240.311,109.429 241.5,108.5C 241.291,107.914 240.957,107.414 240.5,107C 241.682,105.322 242.848,105.488 244,107.5C 245.44,106.852 246.94,106.519 248.5,106.5 Z"/></g>
<g><path style="opacity:0.09" fill="#9f9ea3" d="M 217.5,106.5 C 216.415,108.587 214.749,109.92 212.5,110.5C 213.585,108.413 215.251,107.08 217.5,106.5 Z"/></g>
<g><path style="opacity:0.959" fill="#3e3b40" d="M 356.5,104.5 C 359.588,104.377 362.255,105.377 364.5,107.5C 365.167,107.167 365.833,106.833 366.5,106.5C 368.497,110.16 371.164,113.16 374.5,115.5C 368.264,112.201 362.264,108.535 356.5,104.5 Z"/></g>
<g><path style="opacity:0.098" fill="#aca4ac" d="M 209.5,113.5 C 208.833,114.833 207.833,115.833 206.5,116.5C 206.5,114.5 207.5,113.5 209.5,113.5 Z"/></g>
<g><path style="opacity:0.114" fill="#aeaaae" d="M 377.5,118.5 C 379.027,118.427 380.027,119.094 380.5,120.5C 378.973,120.573 377.973,119.906 377.5,118.5 Z"/></g>
<g><path style="opacity:0.118" fill="#aba7ab" d="M 401.5,117.5 C 402.906,117.973 403.573,118.973 403.5,120.5C 402.094,120.027 401.427,119.027 401.5,117.5 Z"/></g>
<g><path style="opacity:0.004" fill="#d8d8d8" d="M 228.5,119.5 C 228.027,120.906 227.027,121.573 225.5,121.5C 225.973,120.094 226.973,119.427 228.5,119.5 Z"/></g>
<g><path style="opacity:0.267" fill="#626067" d="M 382.5,122.5 C 385.167,123.167 386.833,124.833 387.5,127.5C 385.5,126.167 383.833,124.5 382.5,122.5 Z"/></g>
<g><path style="opacity:0.949" fill="#343235" d="M 228.5,118.5 C 228.5,118.833 228.5,119.167 228.5,119.5C 226.973,119.427 225.973,120.094 225.5,121.5C 220.5,126.5 215.5,131.5 210.5,136.5C 210.042,132.083 211.708,128.75 215.5,126.5C 216.086,126.709 216.586,127.043 217,127.5C 217.402,126.128 217.902,124.795 218.5,123.5C 219.274,122.289 220.107,122.289 221,123.5C 223.123,122.117 224.123,120.45 224,118.5C 225.188,117.652 226.688,117.652 228.5,118.5 Z"/></g>
<g><path style="opacity:0.188" fill="#958e95" d="M 412.5,132.5 C 413.906,132.973 414.573,133.973 414.5,135.5C 413.094,135.027 412.427,134.027 412.5,132.5 Z"/></g>
<g><path style="opacity:0.992" fill="#403d40" d="M 191.5,134.5 C 191.123,136.258 190.456,137.925 189.5,139.5C 189.709,140.086 190.043,140.586 190.5,141C 187.069,143.314 184.402,146.147 182.5,149.5C 184.246,143.662 187.246,138.662 191.5,134.5 Z"/></g>
<g><path style="opacity:0.996" fill="#413e42" d="M 209.5,138.5 C 203.126,147.249 197.793,156.583 193.5,166.5C 195.241,161.317 196.741,155.984 198,150.5C 199.367,151.524 200.2,151.024 200.5,149C 199.305,147.467 199.305,145.967 200.5,144.5C 201.833,144.167 203.167,143.833 204.5,143.5C 203.54,142.188 203.706,140.854 205,139.5C 205.333,139.833 205.667,140.167 206,140.5C 205.383,138.905 205.716,137.572 207,136.5C 207.417,137.756 208.25,138.423 209.5,138.5 Z"/></g>
<g><path style="opacity:0.063" fill="#959494" d="M 417.5,141.5 C 418.906,141.973 419.573,142.973 419.5,144.5C 418.094,144.027 417.427,143.027 417.5,141.5 Z"/></g>
<g><path style="opacity:0.031" fill="#9f909f" d="M 400.5,144.5 C 402.727,145.401 403.727,147.067 403.5,149.5C 402.11,148.101 401.11,146.434 400.5,144.5 Z"/></g>
<g><path style="opacity:0.031" fill="#aeacae" d="M 403.5,150.5 C 404.906,150.973 405.573,151.973 405.5,153.5C 404.094,153.027 403.427,152.027 403.5,150.5 Z"/></g>
<g><path style="opacity:0.412" fill="#80717f" d="M 405.5,154.5 C 407.614,155.784 408.614,157.784 408.5,160.5C 407.13,158.75 406.13,156.75 405.5,154.5 Z"/></g>
<g><path style="opacity:0.031" fill="#b0adb0" d="M 425.5,159.5 C 426.931,160.78 427.598,162.447 427.5,164.5C 426.069,163.22 425.402,161.553 425.5,159.5 Z"/></g>
<g><path style="opacity:0.043" fill="#aea9ae" d="M 177.5,162.5 C 177.598,164.553 176.931,166.22 175.5,167.5C 175.402,165.447 176.069,163.78 177.5,162.5 Z"/></g>
<g><path style="opacity:0.51" fill="#676668" d="M 409.5,162.5 C 411.976,165.288 412.976,168.622 412.5,172.5C 410.723,169.495 409.723,166.162 409.5,162.5 Z"/></g>
<g><path style="opacity:0.275" fill="#7c787c" d="M 192.5,171.5 C 191.868,175.702 190.868,179.702 189.5,183.5C 189.411,180.291 189.744,177.125 190.5,174C 190.684,172.624 191.351,171.791 192.5,171.5 Z"/></g>
<g><path style="opacity:0.404" fill="#736e70" d="M 213.5,184.5 C 210.659,184.56 207.993,185.226 205.5,186.5C 205.881,185.069 206.881,184.236 208.5,184C 210.387,183.22 212.054,183.387 213.5,184.5 Z"/></g>
<g><path style="opacity:0.995" fill="#0b090a" d="M 213.5,184.5 C 214.167,184.5 214.833,184.5 215.5,184.5C 216.082,185.931 216.915,187.264 218,188.5C 220.432,187.55 222.932,187.55 225.5,188.5C 226.167,188.5 226.833,188.5 227.5,188.5C 228.78,189.931 230.447,190.598 232.5,190.5C 236.272,190.884 239.272,192.55 241.5,195.5C 241.808,197.924 241.474,200.257 240.5,202.5C 239.604,201.494 238.938,201.494 238.5,202.5C 239.246,203.736 239.579,205.07 239.5,206.5C 236.96,208.413 234.293,208.746 231.5,207.5C 228.495,205.723 225.162,204.723 221.5,204.5C 217.183,202.06 212.517,200.393 207.5,199.5C 207.25,198.078 206.417,197.078 205,196.5C 204.341,193.112 204.508,189.779 205.5,186.5C 207.993,185.226 210.659,184.56 213.5,184.5 Z"/></g>
<g><path style="opacity:0.984" fill="#4f494c" d="M 215.5,184.5 C 219.149,185.267 222.482,186.6 225.5,188.5C 222.932,187.55 220.432,187.55 218,188.5C 216.915,187.264 216.082,185.931 215.5,184.5 Z"/></g>
<g><path style="opacity:0.049" fill="#c1bfc1" d="M 227.5,188.5 C 229.553,188.402 231.22,189.069 232.5,190.5C 230.447,190.598 228.78,189.931 227.5,188.5 Z"/></g>
<g><path style="opacity:0.559" fill="#615b60" d="M 205.5,186.5 C 204.508,189.779 204.341,193.112 205,196.5C 206.417,197.078 207.25,198.078 207.5,199.5C 205.248,199.084 203.748,197.751 203,195.5C 202.333,193.167 202.333,190.833 203,188.5C 203.417,187.244 204.25,186.577 205.5,186.5 Z"/></g>
<g><path style="opacity:0.616" fill="#7c777a" d="M 207.5,199.5 C 212.517,200.393 217.183,202.06 221.5,204.5C 216.356,203.917 211.69,202.25 207.5,199.5 Z"/></g>
<g><path style="opacity:0.937" fill="#555356" d="M 241.5,195.5 C 242.638,198.304 242.805,201.304 242,204.5C 241.292,205.381 240.458,206.047 239.5,206.5C 239.579,205.07 239.246,203.736 238.5,202.5C 238.938,201.494 239.604,201.494 240.5,202.5C 241.474,200.257 241.808,197.924 241.5,195.5 Z"/></g>
<g><path style="opacity:0.333" fill="#7f7a7e" d="M 221.5,204.5 C 225.162,204.723 228.495,205.723 231.5,207.5C 227.786,207.41 224.452,206.41 221.5,204.5 Z"/></g>
<g><path style="opacity:0.051" fill="#6e6a6e" d="M 189.5,184.5 C 189.667,199.504 189.5,214.504 189,229.5C 188.768,230.737 188.268,231.737 187.5,232.5C 188.054,216.342 188.721,200.342 189.5,184.5 Z"/></g>
<g><path style="opacity:0.91" fill="#6a656a" d="M 217.5,217.5 C 215.843,216.425 214.009,215.758 212,215.5C 209.73,216.86 207.23,217.527 204.5,217.5C 208.96,212.283 213.293,212.283 217.5,217.5 Z"/></g>
<g><path style="opacity:0.993" fill="#181718" d="M 217.5,217.5 C 218.966,218.347 219.8,219.68 220,221.5C 221.224,226.957 220.391,231.957 217.5,236.5C 213.5,237.833 209.5,237.833 205.5,236.5C 204.542,236.047 203.708,235.381 203,234.5C 202.333,229.5 202.333,224.5 203,219.5C 203.278,218.584 203.778,217.918 204.5,217.5C 207.23,217.527 209.73,216.86 212,215.5C 214.009,215.758 215.843,216.425 217.5,217.5 Z"/></g>
<g><path style="opacity:0.143" fill="#535052" d="M 415.5,186.5 C 416.117,186.611 416.617,186.944 417,187.5C 417.827,201.34 417.661,215.006 416.5,228.5C 416.722,214.478 416.388,200.478 415.5,186.5 Z"/></g>
<g><path style="opacity:0.482" fill="#6a6868" d="M 172.5,224.5 C 172.408,228.684 170.741,232.017 167.5,234.5C 169.175,231.123 170.842,227.789 172.5,224.5 Z"/></g>
<g><path style="opacity:0.418" fill="#8c878c" d="M 205.5,236.5 C 209.5,237.833 213.5,237.833 217.5,236.5C 216.102,238.533 214.102,239.533 211.5,239.5C 208.898,239.533 206.898,238.533 205.5,236.5 Z"/></g>
<g><path style="opacity:0.969" fill="#4b484b" d="M 167.5,234.5 C 165.489,238.03 163.655,241.697 162,245.5C 161.23,244.402 160.397,244.402 159.5,245.5C 161.435,241.293 164.102,237.627 167.5,234.5 Z"/></g>
<g><path style="opacity:0.449" fill="#6c666a" d="M 415.5,237.5 C 415.927,243.114 415.26,248.447 413.5,253.5C 413.376,247.931 414.043,242.598 415.5,237.5 Z"/></g>
<g><path style="opacity:0.133" fill="#b2acad" d="M 155.5,249.5 C 154.833,250.833 153.833,251.833 152.5,252.5C 152.5,250.5 153.5,249.5 155.5,249.5 Z"/></g>
<g><path style="opacity:0.106" fill="#b6b5b5" d="M 152.5,252.5 C 151.833,253.833 150.833,254.833 149.5,255.5C 149.5,253.5 150.5,252.5 152.5,252.5 Z"/></g>
<g><path style="opacity:0.957" fill="#454346" d="M 182.5,242.5 C 176.898,251.1 170.564,259.1 163.5,266.5C 162.957,266.44 162.624,266.107 162.5,265.5C 163.154,263.885 163.654,262.218 164,260.5C 164.928,258.665 166.094,258.332 167.5,259.5C 168.731,258.349 168.731,257.183 167.5,256C 168.938,255.781 170.271,255.281 171.5,254.5C 168.999,251.158 169.832,250.158 174,251.5C 174.11,249.152 175.277,247.652 177.5,247C 177.167,246.667 176.833,246.333 176.5,246C 178.146,244.179 180.146,243.013 182.5,242.5 Z"/></g>
<g><path style="opacity:0.106" fill="#918f8f" d="M 410.5,264.5 C 410.829,267.228 410.163,269.562 408.5,271.5C 408.721,268.933 409.388,266.599 410.5,264.5 Z"/></g>
<g><path style="opacity:0.082" fill="#827f81" d="M 165.5,267.5 C 167.967,267.755 169.967,268.755 171.5,270.5C 168.895,270.379 166.895,269.379 165.5,267.5 Z"/></g>
<g><path style="opacity:0.416" fill="#6a6669" d="M 171.5,270.5 C 175.286,270.32 178.619,271.32 181.5,273.5C 177.829,273.243 174.495,272.243 171.5,270.5 Z"/></g>
<g><path style="opacity:0.063" fill="#b1b0b1" d="M 187.5,274.5 C 190.089,274.461 192.089,275.461 193.5,277.5C 191.181,277.008 189.181,276.008 187.5,274.5 Z"/></g>
<g><path style="opacity:0.925" fill="#4b484b" d="M 149.5,256.5 C 146.824,262.915 146.991,269.248 150,275.5C 151.399,275.501 152.899,275.835 154.5,276.5C 155.711,277.274 155.711,278.107 154.5,279C 155.253,280.487 156.086,280.654 157,279.5C 157.483,280.448 157.649,281.448 157.5,282.5C 148.77,278.713 144.937,272.046 146,262.5C 146.353,259.848 147.52,257.848 149.5,256.5 Z"/></g>
<g><path style="opacity:0.071" fill="#999898" d="M 423.5,279.5 C 423.34,281.153 422.674,282.486 421.5,283.5C 421.229,281.62 421.896,280.287 423.5,279.5 Z"/></g>
<g><path style="opacity:0.302" fill="#5c5a5c" d="M 193.5,277.5 C 194.75,277.577 195.583,278.244 196,279.5C 197.129,284.96 196.296,289.96 193.5,294.5C 193.368,290.781 194.035,287.281 195.5,284C 194.909,281.761 194.242,279.594 193.5,277.5 Z"/></g>
<g><path style="opacity:0.012" fill="#e3e3e3" d="M 159.5,283.5 C 161.38,283.229 162.713,283.896 163.5,285.5C 161.847,285.34 160.514,284.674 159.5,283.5 Z"/></g>
<g><path style="opacity:0.639" fill="#5c595c" d="M 406.5,277.5 C 406.082,281.349 404.415,284.349 401.5,286.5C 402.41,283.008 404.076,280.008 406.5,277.5 Z"/></g>
<g><path style="opacity:0.051" fill="#a6a4a4" d="M 420.5,286.5 C 420.573,288.027 419.906,289.027 418.5,289.5C 418.427,287.973 419.094,286.973 420.5,286.5 Z"/></g>
<g><path style="opacity:0.995" fill="#060406" d="M 103.5,294.5 C 104.167,294.5 104.833,294.5 105.5,294.5C 110.305,295.487 115.305,295.821 120.5,295.5C 122.099,295.232 123.432,295.566 124.5,296.5C 125.615,298.307 126.281,300.307 126.5,302.5C 126.291,303.994 125.624,305.161 124.5,306C 125.731,307.183 125.731,308.349 124.5,309.5C 122.995,306.869 122.329,307.203 122.5,310.5C 114.5,310.5 106.5,310.5 98.5,310.5C 94.8333,310.5 91.1667,310.5 87.5,310.5C 82.0709,308.988 76.4042,308.321 70.5,308.5C 68.9731,308.573 67.9731,307.906 67.5,306.5C 66.7929,303.214 66.4595,299.881 66.5,296.5C 66.8333,295.5 67.5,294.833 68.5,294.5C 80.1027,294.264 91.7694,294.264 103.5,294.5 Z"/></g>
<g><path style="opacity:0.365" fill="#595258" d="M 103.5,294.5 C 91.7694,294.264 80.1027,294.264 68.5,294.5C 68.6107,293.883 68.944,293.383 69.5,293C 81.0294,292.371 92.3627,292.871 103.5,294.5 Z"/></g>
<g><path style="opacity:0.125" fill="#828182" d="M 120.5,295.5 C 115.305,295.821 110.305,295.487 105.5,294.5C 105.56,293.957 105.893,293.624 106.5,293.5C 111.299,294.117 115.966,294.784 120.5,295.5 Z"/></g>
<g><path style="opacity:0.063" fill="#b5b3b5" d="M 152.5,297.5 C 150.097,297.448 147.764,297.781 145.5,298.5C 146.312,297.007 147.645,296.34 149.5,296.5C 150.726,296.52 151.726,296.853 152.5,297.5 Z"/></g>
<g><path style="opacity:0.686" fill="#656465" d="M 399.5,289.5 C 397.787,291.907 396.453,294.574 395.5,297.5C 394.643,298.425 393.643,299.092 392.5,299.5C 393.845,297.303 395.011,294.97 396,292.5C 397.039,291.29 398.206,290.29 399.5,289.5 Z"/></g>
<g><path style="opacity:0.973" fill="#3a3739" d="M 414.5,296.5 C 412.327,300.852 409.66,304.852 406.5,308.5C 405.315,304.605 406.648,301.605 410.5,299.5C 410.291,298.914 409.957,298.414 409.5,298C 410.253,296.513 411.086,296.346 412,297.5C 411.069,292.692 411.903,292.359 414.5,296.5 Z"/></g>
<g><path style="opacity:0.981" fill="#1b1a1c" d="M 152.5,297.5 C 154.632,297.554 155.965,298.554 156.5,300.5C 157.265,303.096 157.599,305.763 157.5,308.5C 153.66,315.565 148.827,316.231 143,310.5C 140.383,305.578 141.217,301.578 145.5,298.5C 147.764,297.781 150.097,297.448 152.5,297.5 Z"/></g>
<g><path style="opacity:0.141" fill="#8c8a8c" d="M 66.5,296.5 C 66.4595,299.881 66.7929,303.214 67.5,306.5C 66.0277,304.883 65.361,302.883 65.5,300.5C 65.5108,298.955 65.8442,297.622 66.5,296.5 Z"/></g>
<g><path style="opacity:0.112" fill="#8c8a8c" d="M 156.5,300.5 C 158.026,301.492 158.693,302.992 158.5,305C 158.486,306.385 158.152,307.551 157.5,308.5C 157.599,305.763 157.265,303.096 156.5,300.5 Z"/></g>
<g><path style="opacity:0.282" fill="#7a7578" d="M 173.5,302.5 C 173.5,305.167 173.5,307.833 173.5,310.5C 171.286,307.956 171.286,305.289 173.5,302.5 Z"/></g>
<g><path style="opacity:0.78" fill="#4d4b4e" d="M 201.5,305.5 C 204.854,305.747 207.854,306.747 210.5,308.5C 207.894,307.864 205.394,307.864 203,308.5C 201.961,307.756 201.461,306.756 201.5,305.5 Z"/></g>
<g><path style="opacity:0.98" fill="#625f62" d="M 124.5,296.5 C 129.419,300.722 129.752,305.388 125.5,310.5C 122.164,311.951 118.664,312.617 115,312.5C 109.303,312.25 103.803,311.583 98.5,310.5C 106.5,310.5 114.5,310.5 122.5,310.5C 122.329,307.203 122.995,306.869 124.5,309.5C 125.731,308.349 125.731,307.183 124.5,306C 125.624,305.161 126.291,303.994 126.5,302.5C 126.281,300.307 125.615,298.307 124.5,296.5 Z"/></g>
<g><path style="opacity:0.078" fill="#6f6e72" d="M 70.5,308.5 C 76.4042,308.321 82.0709,308.988 87.5,310.5C 82.7884,310.381 78.2884,310.381 74,310.5C 72.6976,309.915 71.531,309.249 70.5,308.5 Z"/></g>
<g><path style="opacity:0.063" fill="#999299" d="M 174.5,312.5 C 176.027,312.427 177.027,313.094 177.5,314.5C 175.973,314.573 174.973,313.906 174.5,312.5 Z"/></g>
<g><path style="opacity:0.557" fill="#656265" d="M 178.5,314.5 C 181.649,314.415 184.316,315.415 186.5,317.5C 183.351,317.585 180.684,316.585 178.5,314.5 Z"/></g>
<g><path style="opacity:0.549" fill="#726c72" d="M 189.5,318.5 C 193.474,318.987 197.141,320.32 200.5,322.5C 199.675,323.386 198.675,323.719 197.5,323.5C 195.146,321.475 192.479,319.808 189.5,318.5 Z"/></g>
<g><path style="opacity:0.202" fill="#676669" d="M 216.5,313.5 C 217.268,314.263 217.768,315.263 218,316.5C 218.498,319.817 218.665,323.15 218.5,326.5C 217.551,322.343 216.884,318.01 216.5,313.5 Z"/></g>
<g><path style="opacity:0.153" fill="#b9b6b9" d="M 188.5,327.5 C 188.027,328.906 187.027,329.573 185.5,329.5C 185.973,328.094 186.973,327.427 188.5,327.5 Z"/></g>
<g><path style="opacity:0.082" fill="#979096" d="M 139.5,330.5 C 136.763,330.401 134.096,330.735 131.5,331.5C 132.492,329.974 133.992,329.307 136,329.5C 137.385,329.514 138.551,329.848 139.5,330.5 Z"/></g>
<g><path style="opacity:0.991" fill="#0e0c0e" d="M 139.5,330.5 C 140.492,330.328 141.158,330.662 141.5,331.5C 143.22,334.889 143.887,338.556 143.5,342.5C 142.9,343.9 141.9,344.9 140.5,345.5C 137.098,345.658 133.764,345.324 130.5,344.5C 130.167,343.833 129.833,343.167 129.5,342.5C 129.01,338.513 129.676,334.846 131.5,331.5C 134.096,330.735 136.763,330.401 139.5,330.5 Z"/></g>
<g><path style="opacity:0.439" fill="#565256" d="M 107.5,334.5 C 105.629,334.859 104.129,335.859 103,337.5C 101.855,336.316 100.688,336.316 99.5,337.5C 101.413,334.201 104.08,333.201 107.5,334.5 Z"/></g>
<g><path style="opacity:0.988" fill="#1a191b" d="M 107.5,334.5 C 110.561,334.444 112.728,335.778 114,338.5C 116.179,346.146 113.346,350.479 105.5,351.5C 101.891,350.877 99.5577,348.877 98.5,345.5C 98.4013,342.763 98.7347,340.096 99.5,337.5C 100.688,336.316 101.855,336.316 103,337.5C 104.129,335.859 105.629,334.859 107.5,334.5 Z"/></g>
<g><path style="opacity:0.694" fill="#5a555b" d="M 131.5,331.5 C 129.676,334.846 129.01,338.513 129.5,342.5C 128.883,342.389 128.383,342.056 128,341.5C 127.333,339.167 127.333,336.833 128,334.5C 128.422,332.574 129.589,331.574 131.5,331.5 Z"/></g>
<g><path style="opacity:0.985" fill="#131214" d="M 71.5,339.5 C 76.2709,338.742 80.2709,340.075 83.5,343.5C 84.6291,345.628 84.7958,347.961 84,350.5C 83.5776,352.426 82.4109,353.426 80.5,353.5C 77.2234,353.784 74.0567,353.451 71,352.5C 70.3828,351.551 70.5494,350.718 71.5,350C 68.3778,348.579 68.0444,346.913 70.5,345C 70.0426,344.586 69.7093,344.086 69.5,343.5C 70.6302,342.378 71.2969,341.044 71.5,339.5 Z"/></g>
<g><path style="opacity:0.188" fill="#636166" d="M 71.5,339.5 C 74.3035,338.362 77.3035,338.195 80.5,339C 82.1412,340.129 83.1412,341.629 83.5,343.5C 80.2709,340.075 76.2709,338.742 71.5,339.5 Z"/></g>
<g><path style="opacity:0.192" fill="#6d686e" d="M 141.5,331.5 C 145.73,334.656 146.397,338.322 143.5,342.5C 143.887,338.556 143.22,334.889 141.5,331.5 Z"/></g>
<g><path style="opacity:1" fill="#363336" d="M 207.5,337.5 C 204.451,338.696 201.785,340.529 199.5,343C 200.906,344.978 201.906,347.145 202.5,349.5C 200.388,346.885 198.055,344.385 195.5,342C 196.424,340.189 197.257,340.355 198,342.5C 199.971,338.669 203.137,337.003 207.5,337.5 Z"/></g>
<g><path style="opacity:0.792" fill="#413e43" d="M 71.5,339.5 C 71.2969,341.044 70.6302,342.378 69.5,343.5C 69.7093,344.086 70.0426,344.586 70.5,345C 68.0444,346.913 68.3778,348.579 71.5,350C 70.5494,350.718 70.3828,351.551 71,352.5C 74.0567,353.451 77.2234,353.784 80.5,353.5C 70.5504,357.07 66.3837,353.404 68,342.5C 68.7589,340.937 69.9256,339.937 71.5,339.5 Z"/></g>
<g><path style="opacity:0.047" fill="#949393" d="M 99.5,337.5 C 98.7347,340.096 98.4013,342.763 98.5,345.5C 97.8476,344.551 97.5143,343.385 97.5,342C 97.3068,339.992 97.9735,338.492 99.5,337.5 Z"/></g>
<g><path style="opacity:0.196" fill="#807d80" d="M 130.5,344.5 C 133.764,345.324 137.098,345.658 140.5,345.5C 137.696,346.638 134.696,346.805 131.5,346C 130.944,345.617 130.611,345.117 130.5,344.5 Z"/></g>
<g><path style="opacity:0.247" fill="#6e6b6e" d="M 181.5,344.5 C 183.408,345.486 184.408,347.152 184.5,349.5C 182.75,348.341 181.75,346.674 181.5,344.5 Z"/></g>
<g><path style="opacity:0.184" fill="#575257" d="M 396.5,336.5 C 395.034,348.915 395.367,361.248 397.5,373.5C 396.207,372.158 395.374,370.491 395,368.5C 394.833,364.167 394.667,359.833 394.5,355.5C 394.32,348.928 394.986,342.595 396.5,336.5 Z"/></g>
<g><path style="opacity:0.994" fill="#0b0a0c" d="M 160.5,359.5 C 163.344,359.343 165.011,360.676 165.5,363.5C 165.336,366.748 164.336,369.748 162.5,372.5C 161.555,370.483 160.055,370.15 158,371.5C 153.435,370.611 151.101,367.945 151,363.5C 152.079,361.606 153.413,361.273 155,362.5C 155.928,359.965 157.762,358.965 160.5,359.5 Z"/></g>
<g><path style="opacity:0.939" fill="#49454a" d="M 186.5,355.5 C 188.063,358.42 190.396,360.587 193.5,362C 192.461,365.397 193.794,367.23 197.5,367.5C 197.4,370.108 198.067,372.442 199.5,374.5C 196.198,371.026 193.032,367.359 190,363.5C 188.546,360.929 187.38,358.262 186.5,355.5 Z"/></g>
<g><path style="opacity:0.475" fill="#747274" d="M 131.5,368.5 C 128.545,369.159 125.545,369.492 122.5,369.5C 125.373,367.518 128.373,367.185 131.5,368.5 Z"/></g>
<g><path style="opacity:0.995" fill="#0e0d0e" d="M 131.5,368.5 C 135.397,369.587 137.397,372.254 137.5,376.5C 137.241,378.987 136.241,380.987 134.5,382.5C 132.973,382.427 131.973,383.094 131.5,384.5C 127.082,382.238 123.748,383.238 121.5,387.5C 120.791,388.404 119.791,388.737 118.5,388.5C 115.772,388.171 113.438,388.837 111.5,390.5C 107.723,392.201 103.723,393.534 99.5,394.5C 97.0799,394.708 94.7466,394.374 92.5,393.5C 91.8333,394.5 91.1667,395.5 90.5,396.5C 87.6156,397.209 84.949,398.209 82.5,399.5C 78.5245,402.23 74.6911,401.897 71,398.5C 69.5167,395.298 69.1834,391.964 70,388.5C 70.4224,386.574 71.5891,385.574 73.5,385.5C 77.7843,384.739 81.7843,383.405 85.5,381.5C 89.0845,379.194 93.0845,377.861 97.5,377.5C 100.636,377.397 103.302,376.397 105.5,374.5C 106.167,374.5 106.833,374.5 107.5,374.5C 112.395,374.534 116.728,373.2 120.5,370.5C 120.842,369.662 121.508,369.328 122.5,369.5C 125.545,369.492 128.545,369.159 131.5,368.5 Z"/></g>
<g><path style="opacity:0.31" fill="#7b767a" d="M 149.5,369.5 C 151.408,370.486 152.408,372.152 152.5,374.5C 150.75,373.341 149.75,371.674 149.5,369.5 Z"/></g>
<g><path style="opacity:0.995" fill="#2f2c2f" d="M 160.5,359.5 C 157.762,358.965 155.928,359.965 155,362.5C 153.413,361.273 152.079,361.606 151,363.5C 151.101,367.945 153.435,370.611 158,371.5C 160.055,370.15 161.555,370.483 162.5,372.5C 164.336,369.748 165.336,366.748 165.5,363.5C 167.289,373.691 162.955,377.358 152.5,374.5C 152.408,372.152 151.408,370.486 149.5,369.5C 148.904,361.085 152.57,357.752 160.5,359.5 Z"/></g>
<g><path style="opacity:0.944" fill="#555455" d="M 246.5,368.5 C 250.689,369.221 254.355,370.887 257.5,373.5C 256.417,373.461 255.417,373.127 254.5,372.5C 253.808,373.025 253.308,373.692 253,374.5C 251.13,372.084 248.963,370.084 246.5,368.5 Z"/></g>
<g><path style="opacity:0.741" fill="#4b474a" d="M 120.5,370.5 C 116.728,373.2 112.395,374.534 107.5,374.5C 111.378,371.987 115.711,370.654 120.5,370.5 Z"/></g>
<g><path style="opacity:0.027" fill="#949293" d="M 105.5,374.5 C 103.302,376.397 100.636,377.397 97.5,377.5C 99.7916,375.733 102.458,374.733 105.5,374.5 Z"/></g>
<g><path style="opacity:0.447" fill="#727172" d="M 379.5,371.5 C 382.231,375.322 383.564,379.656 383.5,384.5C 381.721,380.405 380.388,376.072 379.5,371.5 Z"/></g>
<g><path style="opacity:0.365" fill="#665f65" d="M 85.5,381.5 C 81.7843,383.405 77.7843,384.739 73.5,385.5C 77.0845,383.194 81.0845,381.861 85.5,381.5 Z"/></g>
<g><path style="opacity:0.907" fill="#4a484b" d="M 131.5,384.5 C 128.381,385.87 125.048,386.87 121.5,387.5C 123.748,383.238 127.082,382.238 131.5,384.5 Z"/></g>
<g><path style="opacity:0.016" fill="#a5a5a5" d="M 134.5,382.5 C 134.027,383.906 133.027,384.573 131.5,384.5C 131.973,383.094 132.973,382.427 134.5,382.5 Z"/></g>
<g><path style="opacity:0.094" fill="#7c757d" d="M 118.5,388.5 C 116.401,389.612 114.067,390.279 111.5,390.5C 113.438,388.837 115.772,388.171 118.5,388.5 Z"/></g>
<g><path style="opacity:0.802" fill="#4a464b" d="M 252.5,390.5 C 256.39,392.104 258.056,395.104 257.5,399.5C 256.117,396.406 254.45,393.406 252.5,390.5 Z"/></g>
<g><path style="opacity:0.922" fill="#4b484c" d="M 99.5,394.5 C 94.1715,396.979 88.5049,398.646 82.5,399.5C 84.949,398.209 87.6156,397.209 90.5,396.5C 91.1667,395.5 91.8333,394.5 92.5,393.5C 94.7466,394.374 97.0799,394.708 99.5,394.5 Z"/></g>
<g><path style="opacity:0.035" fill="#cbbecb" d="M 272.5,391.5 C 273.674,392.514 274.34,393.847 274.5,395.5C 272.896,394.713 272.229,393.38 272.5,391.5 Z"/></g>
<g><path style="opacity:0.059" fill="#959596" d="M 403.5,392.5 C 405.293,394.426 406.293,396.759 406.5,399.5C 404.707,397.574 403.707,395.241 403.5,392.5 Z"/></g>
<g><path style="opacity:0.702" fill="#5d585b" d="M 387.5,395.5 C 388.586,395.62 389.253,396.287 389.5,397.5C 390.297,400.82 390.964,404.154 391.5,407.5C 389.299,403.886 387.966,399.886 387.5,395.5 Z"/></g>
<g><path style="opacity:0.306" fill="#848284" d="M 277.5,403.5 C 278.74,406.024 279.907,408.691 281,411.5C 281.765,413.066 281.598,414.399 280.5,415.5C 279.095,411.615 278.095,407.615 277.5,403.5 Z"/></g>
</svg>
