<?xml version="1.0" encoding="UTF-8"?>
<!DOCTYPE svg PUBLIC "-//W3C//DTD SVG 1.1//EN" "http://www.w3.org/Graphics/SVG/1.1/DTD/svg11.dtd">
<svg xmlns="http://www.w3.org/2000/svg" version="1.1" width="500px" height="500px" style="shape-rendering:geometricPrecision; text-rendering:geometricPrecision; image-rendering:optimizeQuality; fill-rule:evenodd; clip-rule:evenodd" xmlns:xlink="http://www.w3.org/1999/xlink">
<g><path style="opacity:0.991" fill="#080606" d="M 15.5,-0.5 C 43.1667,-0.5 70.8333,-0.5 98.5,-0.5C 100.964,0.56651 103.297,1.89984 105.5,3.5C 107.5,6.16667 109.833,8.5 112.5,10.5C 113.674,11.5137 114.34,12.847 114.5,14.5C 133.822,15.833 153.488,16.4997 173.5,16.5C 193.336,16.5 213.003,16.1666 232.5,15.5C 305.501,15.3333 378.501,15.5 451.5,16C 460.78,18.4557 467.446,23.9557 471.5,32.5C 473.032,39.743 473.698,47.0763 473.5,54.5C 473.076,57.354 472.076,60.0207 470.5,62.5C 471.949,63.1719 473.282,63.8386 474.5,64.5C 477.632,65.2745 480.298,66.9412 482.5,69.5C 485.01,68.9016 487.344,69.5682 489.5,71.5C 494.316,75.1416 497.65,79.8082 499.5,85.5C 499.5,91.5 499.5,97.5 499.5,103.5C 498.833,104.5 498.167,105.5 497.5,106.5C 496.234,107.09 494.901,107.59 493.5,108C 494.833,109.333 494.833,110.667 493.5,112C 491.82,112.034 490.32,112.201 489,112.5C 489.019,114.107 489.185,115.774 489.5,117.5C 489.5,118.167 489.167,118.5 488.5,118.5C 486.973,118.427 485.973,119.094 485.5,120.5C 482.813,120.336 480.146,120.503 477.5,121C 479.619,121.342 479.953,122.175 478.5,123.5C 471.214,124.265 463.881,124.765 456.5,125C 459.02,126.697 461.353,128.53 463.5,130.5C 463.892,132.179 464.392,133.846 465,135.5C 465.333,135.167 465.667,134.833 466,134.5C 471.239,139.198 476.739,143.531 482.5,147.5C 483.08,149.749 484.413,151.415 486.5,152.5C 486.427,154.027 487.094,155.027 488.5,155.5C 491.693,161.468 492.693,167.801 491.5,174.5C 488.925,176.845 487.925,179.845 488.5,183.5C 488.5,183.833 488.5,184.167 488.5,184.5C 486.018,185.663 484.684,187.663 484.5,190.5C 484.167,191.5 483.5,192.167 482.5,192.5C 480.596,192.738 479.262,193.738 478.5,195.5C 475.753,198.207 472.42,199.873 468.5,200.5C 462.833,200.5 457.167,200.5 451.5,200.5C 447.418,199.624 443.751,197.957 440.5,195.5C 440.027,194.094 439.027,193.427 437.5,193.5C 437.167,193.5 436.833,193.5 436.5,193.5C 436.631,192.624 436.298,191.957 435.5,191.5C 433.338,189.98 431.005,188.98 428.5,188.5C 425.948,186.057 422.948,184.39 419.5,183.5C 405.637,176.071 391.97,168.405 378.5,160.5C 378.027,159.094 377.027,158.427 375.5,158.5C 374.486,157.326 373.153,156.66 371.5,156.5C 370.656,154.241 368.989,153.241 366.5,153.5C 364.847,153.34 363.514,152.674 362.5,151.5C 362.027,150.094 361.027,149.427 359.5,149.5C 358.508,149.672 357.842,149.338 357.5,148.5C 355.215,146.882 353.215,144.882 351.5,142.5C 348.87,141.619 346.203,140.952 343.5,140.5C 334.555,135.357 325.555,130.19 316.5,125C 312.846,123.726 309.18,122.56 305.5,121.5C 300.985,120.188 296.318,120.188 291.5,121.5C 291.137,122.183 290.804,122.85 290.5,123.5C 283.38,128.113 276.38,132.946 269.5,138C 263.947,142.618 262.114,148.451 264,155.5C 266.476,162.427 268.643,169.427 270.5,176.5C 270.733,179.542 271.733,182.208 273.5,184.5C 273.054,187.01 273.72,189.01 275.5,190.5C 275.054,193.01 275.72,195.01 277.5,196.5C 278.618,202.084 278.785,207.751 278,213.5C 277.626,215.491 276.793,217.158 275.5,218.5C 271.541,219.962 269.208,222.795 268.5,227C 267.551,227.617 266.718,227.451 266,226.5C 265.634,228.452 264.801,230.118 263.5,231.5C 261.574,233.293 259.241,234.293 256.5,234.5C 249.798,234.664 243.131,234.331 236.5,233.5C 233.674,233.002 231.34,231.669 229.5,229.5C 226.425,225.758 223.091,222.425 219.5,219.5C 219.715,217.821 219.048,216.821 217.5,216.5C 208.777,205.414 200.277,194.08 192,182.5C 188.703,179.433 184.869,177.267 180.5,176C 158.876,175.397 137.876,171.563 117.5,164.5C 114.705,169.888 111.039,174.721 106.5,179C 103.439,181.035 100.105,182.201 96.5,182.5C 70.8312,182.667 45.1645,182.5 19.5,182C 17.26,181.023 14.9267,180.523 12.5,180.5C 11.0077,177.677 8.67435,176.01 5.5,175.5C 2.96887,172.43 0.968869,169.096 -0.5,165.5C -0.5,115.833 -0.5,66.1667 -0.5,16.5C 0.312714,14.7392 1.31271,13.0725 2.5,11.5C 3.90632,11.0269 4.57298,10.0269 4.5,8.5C 7.29577,4.36483 10.9624,1.36483 15.5,-0.5 Z"/></g>
<g><path style="opacity:0.004" fill="#c0bfc1" d="M 105.5,3.5 C 108.833,4.83333 111.167,7.16667 112.5,10.5C 109.833,8.5 107.5,6.16667 105.5,3.5 Z"/></g>
<g><path style="opacity:0.059" fill="#bbbbbb" d="M 4.5,8.5 C 4.57298,10.0269 3.90632,11.0269 2.5,11.5C 2.42702,9.97306 3.09368,8.97306 4.5,8.5 Z"/></g>
<g><path style="opacity:0.211" fill="#989898" d="M 114.5,14.5 C 153.761,15.4937 193.094,15.827 232.5,15.5C 213.003,16.1666 193.336,16.5 173.5,16.5C 153.488,16.4997 133.822,15.833 114.5,14.5 Z"/></g>
<g><path style="opacity:1" fill="#2699cd" d="M 22.5,16.5 C 42.2426,16.1795 61.9093,16.5128 81.5,17.5C 81.5,17.8333 81.5,18.1667 81.5,18.5C 62.1638,18.3334 42.8305,18.5 23.5,19C 23.2072,22.0944 21.5406,23.5944 18.5,23.5C 17.5153,68.8033 17.1819,114.137 17.5,159.5C 18.8333,159.5 20.1667,159.5 21.5,159.5C 21.5,160.833 21.5,162.167 21.5,163.5C 41.1504,164.395 60.8171,164.728 80.5,164.5C 61.674,165.497 42.674,165.83 23.5,165.5C 20.7374,165.256 18.5707,163.923 17,161.5C 16.3333,114.5 16.3333,67.5 17,20.5C 18.0183,18.0718 19.8517,16.7385 22.5,16.5 Z"/></g>
<g><path style="opacity:1" fill="#061d30" d="M 22.5,15.5 C 22.5,15.8333 22.5,16.1667 22.5,16.5C 19.8517,16.7385 18.0183,18.0718 17,20.5C 16.3333,67.5 16.3333,114.5 17,161.5C 18.5707,163.923 20.7374,165.256 23.5,165.5C 47.3725,166.818 71.3725,166.818 95.5,165.5C 95.3893,166.117 95.056,166.617 94.5,167C 70.1667,167.667 45.8333,167.667 21.5,167C 19.3225,165.798 16.9892,165.298 14.5,165.5C 14.5,116.167 14.5,66.8333 14.5,17.5C 17.0037,16.3608 19.6703,15.6941 22.5,15.5 Z"/></g>
<g><path style="opacity:1" fill="#928674" d="M 447.5,33.5 C 414.662,33.1684 381.996,33.5017 349.5,34.5C 348.957,34.44 348.624,34.1067 348.5,33.5C 381.664,32.17 414.664,32.17 447.5,33.5 Z"/></g>
<g><path style="opacity:1" fill="#05050a" d="M 49.5,34.5 C 55.5362,34.3599 61.5362,34.6932 67.5,35.5C 69.7837,35.9752 71.7837,36.9752 73.5,38.5C 83.0876,47.9183 85.0876,58.9183 79.5,71.5C 76.0183,75.1291 72.0183,78.2958 67.5,81C 52.7933,85.4681 42.1266,80.9681 35.5,67.5C 34.1667,60.8333 34.1667,54.1667 35.5,47.5C 38.2643,41.0673 42.931,36.734 49.5,34.5 Z"/></g>
<g><path style="opacity:1" fill="#fddfb1" d="M 308.5,33.5 C 308.833,33.5 309.167,33.5 309.5,33.5C 335.528,56.0027 361.862,78.5027 388.5,101C 389.938,101.219 391.271,101.719 392.5,102.5C 394.787,107.288 398.453,110.455 403.5,112C 408.902,118.399 415.235,123.732 422.5,128C 423.603,131.436 425.936,133.436 429.5,134C 437.511,142.521 445.844,150.354 454.5,157.5C 458.046,164.285 458.379,171.285 455.5,178.5C 453.505,179.295 451.505,179.961 449.5,180.5C 394.027,149.597 338.694,118.43 283.5,87C 274.486,83.3299 265.153,81.9965 255.5,83C 248.866,86.8382 247.866,91.8382 252.5,98C 259.146,98.7447 265.48,99.9114 271.5,101.5C 274.049,103.169 276.716,104.835 279.5,106.5C 275.428,110.613 270.428,112.78 264.5,113C 256.088,117.589 248.088,122.755 240.5,128.5C 231.013,135.778 227.513,145.445 230,157.5C 233.678,171.311 238.345,184.644 244,197.5C 244.898,203.659 244.398,209.659 242.5,215.5C 241.5,215.5 240.5,215.5 239.5,215.5C 229.111,202.415 218.944,189.082 209,175.5C 195.829,160.899 179.329,154.566 159.5,156.5C 159.389,155.883 159.056,155.383 158.5,155C 154.781,154.612 151.114,153.945 147.5,153C 146.845,151.513 145.845,150.347 144.5,149.5C 139.44,151.11 134.94,150.11 131,146.5C 130.667,146.833 130.333,147.167 130,147.5C 126.075,146.37 122.408,144.704 119,142.5C 117.546,106.198 117.046,69.8643 117.5,33.5C 181.167,33.5 244.833,33.5 308.5,33.5 Z"/></g>
<g><path style="opacity:1" fill="#04a8f2" d="M 81.5,18.5 C 82.6569,26.9901 82.8236,35.6567 82,44.5C 81.6667,44.8333 81.3333,45.1667 81,45.5C 80.2249,41.2222 77.7249,38.8889 73.5,38.5C 71.7837,36.9752 69.7837,35.9752 67.5,35.5C 61.7296,31.9163 55.7296,31.5829 49.5,34.5C 42.931,36.734 38.2643,41.0673 35.5,47.5C 31.5,54.1667 31.5,60.8333 35.5,67.5C 42.1266,80.9681 52.7933,85.4681 67.5,81C 72.0183,78.2958 76.0183,75.1291 79.5,71.5C 80.4959,71.5858 81.3292,71.2524 82,70.5C 82.6667,100.5 82.6667,130.5 82,160.5C 81.79,162.058 81.29,163.391 80.5,164.5C 60.8171,164.728 41.1504,164.395 21.5,163.5C 21.5,162.167 21.5,160.833 21.5,159.5C 20.1667,159.5 18.8333,159.5 17.5,159.5C 17.1819,114.137 17.5153,68.8033 18.5,23.5C 21.5406,23.5944 23.2072,22.0944 23.5,19C 42.8305,18.5 62.1638,18.3334 81.5,18.5 Z"/></g>
<g><path style="opacity:1" fill="#02253f" d="M 67.5,35.5 C 61.5362,34.6932 55.5362,34.3599 49.5,34.5C 55.7296,31.5829 61.7296,31.9163 67.5,35.5 Z"/></g>
<g><path style="opacity:1" fill="#cab79b" d="M 447.5,33.5 C 457.736,37.5155 460.236,44.5155 455,54.5C 452.448,57.3593 449.281,59.026 445.5,59.5C 437.48,59.052 429.48,58.3854 421.5,57.5C 403.114,55.4358 384.78,52.9358 366.5,50C 360.638,44.9675 354.971,39.8008 349.5,34.5C 381.996,33.5017 414.662,33.1684 447.5,33.5 Z"/></g>
<g><path style="opacity:1" fill="#dfc49a" d="M 383.5,34.5 C 405.185,34.2557 426.852,34.7557 448.5,36C 454.291,40.0969 455.958,45.5969 453.5,52.5C 447.364,57.2914 440.364,58.7914 432.5,57C 411.321,53.2128 389.988,50.5461 368.5,49C 365.206,46.219 362.539,43.0524 360.5,39.5C 357.5,39.8333 356.167,38.5 356.5,35.5C 365.648,36.2798 374.648,35.9464 383.5,34.5 Z"/></g>
<g><path style="opacity:0.459" fill="#474244" d="M 471.5,32.5 C 475.766,39.5505 476.432,46.8838 473.5,54.5C 473.698,47.0763 473.032,39.743 471.5,32.5 Z"/></g>
<g><path style="opacity:1" fill="#0d527e" d="M 22.5,16.5 C 22.5,16.1667 22.5,15.8333 22.5,15.5C 46.169,15.3334 69.8357,15.5 93.5,16C 95.9393,16.7739 97.7727,18.2739 99,20.5C 99.8316,67.6685 99.6649,114.668 98.5,161.5C 98.6667,114.832 98.5,68.1655 98,21.5C 93.0723,18.1105 87.5723,16.7772 81.5,17.5C 61.9093,16.5128 42.2426,16.1795 22.5,16.5 Z"/></g>
<g><path style="opacity:1" fill="#6b5b4c" d="M 116.5,32.5 C 116.173,70.2394 116.507,107.906 117.5,145.5C 116.167,127.012 115.5,108.179 115.5,89C 115.5,69.997 115.833,51.1637 116.5,32.5 Z"/></g>
<g><path style="opacity:1" fill="#f0d418" d="M 64.5,52.5 C 65.2653,55.0961 65.5987,57.7628 65.5,60.5C 64.8333,63.1667 63.1667,64.8333 60.5,65.5C 57.7628,65.5987 55.0961,65.2653 52.5,64.5C 48.6245,59.9262 48.6245,55.4262 52.5,51C 56.8678,48.7844 60.8678,49.2844 64.5,52.5 Z"/></g>
<g><path style="opacity:1" fill="#012542" d="M 35.5,47.5 C 34.1667,54.1667 34.1667,60.8333 35.5,67.5C 31.5,60.8333 31.5,54.1667 35.5,47.5 Z"/></g>
<g><path style="opacity:1" fill="#6d5f0a" d="M 64.5,52.5 C 66.0265,53.4919 66.6932,54.9919 66.5,57C 66.4857,58.3847 66.1524,59.5514 65.5,60.5C 65.5987,57.7628 65.2653,55.0961 64.5,52.5 Z"/></g>
<g><path style="opacity:1" fill="#6e614f" d="M 421.5,57.5 C 429.48,58.3854 437.48,59.052 445.5,59.5C 437.397,60.6308 429.397,59.9641 421.5,57.5 Z"/></g>
<g><path style="opacity:1" fill="#6c5f07" d="M 52.5,64.5 C 55.0961,65.2653 57.7628,65.5987 60.5,65.5C 59.5514,66.1524 58.3847,66.4857 57,66.5C 54.9919,66.6932 53.4919,66.0265 52.5,64.5 Z"/></g>
<g><path style="opacity:0.89" fill="#4e494a" d="M 474.5,64.5 C 480.429,64.9661 485.429,67.2994 489.5,71.5C 487.344,69.5682 485.01,68.9016 482.5,69.5C 480.298,66.9412 477.632,65.2745 474.5,64.5 Z"/></g>
<g><path style="opacity:1" fill="#0675b8" d="M 81.5,18.5 C 81.5,18.1667 81.5,17.8333 81.5,17.5C 87.5723,16.7772 93.0723,18.1105 98,21.5C 98.5,68.1655 98.6667,114.832 98.5,161.5C 97.1224,162.545 96.1224,163.878 95.5,165.5C 71.3725,166.818 47.3725,166.818 23.5,165.5C 42.674,165.83 61.674,165.497 80.5,164.5C 81.29,163.391 81.79,162.058 82,160.5C 82.6667,130.5 82.6667,100.5 82,70.5C 81.3292,71.2524 80.4959,71.5858 79.5,71.5C 85.0876,58.9183 83.0876,47.9183 73.5,38.5C 77.7249,38.8889 80.2249,41.2222 81,45.5C 81.3333,45.1667 81.6667,44.8333 82,44.5C 82.8236,35.6567 82.6569,26.9901 81.5,18.5 Z"/></g>
<g><path style="opacity:1" fill="#c6b49c" d="M 439.5,77.5 C 426.035,76.9936 412.702,75.8269 399.5,74C 400.834,76.0871 402.667,77.5871 405,78.5C 405.785,80.249 406.618,81.9157 407.5,83.5C 401.792,80.2948 396.792,76.1281 392.5,71C 408.402,72.1901 424.069,74.3568 439.5,77.5 Z"/></g>
<g><path style="opacity:1" fill="#dec39b" d="M 439.5,77.5 C 443.603,79.1456 447.936,80.4789 452.5,81.5C 461.513,81.2876 470.18,83.2876 478.5,87.5C 479.473,89.3921 480.14,91.3921 480.5,93.5C 479.622,96.1298 478.955,98.7965 478.5,101.5C 475.562,102.628 472.562,103.795 469.5,105C 456.806,105.263 444.139,104.763 431.5,103.5C 430.269,98.5144 426.936,95.8478 421.5,95.5C 416.421,91.9635 411.754,87.9635 407.5,83.5C 406.618,81.9157 405.785,80.249 405,78.5C 402.667,77.5871 400.834,76.0871 399.5,74C 412.702,75.8269 426.035,76.9936 439.5,77.5 Z"/></g>
<g><path style="opacity:1" fill="#e1c49b" d="M 309.5,33.5 C 315.775,34.4025 321.775,36.2358 327.5,39C 335.979,44.9854 343.979,51.4854 351.5,58.5C 351.338,60.5273 351.505,62.5273 352,64.5C 352.333,64.1667 352.667,63.8333 353,63.5C 352.975,67.4755 354.975,69.4755 359,69.5C 366.056,73.552 372.556,78.3853 378.5,84C 377.549,84.7175 377.383,85.5509 378,86.5C 383.657,89.238 388.157,93.238 391.5,98.5C 393.49,99.4981 395.49,100.498 397.5,101.5C 398.386,102.325 398.719,103.325 398.5,104.5C 401.757,104.764 403.757,106.43 404.5,109.5C 405.833,109.5 407.167,109.5 408.5,109.5C 408.67,110.822 408.337,111.989 407.5,113C 410.762,115.355 414.429,116.522 418.5,116.5C 419.713,119.553 421.88,121.887 425,123.5C 425.617,124.449 425.451,125.282 424.5,126C 426.5,127.333 428.167,129 429.5,131C 437.16,133.349 442.994,137.849 447,144.5C 449.5,146.333 452,148.167 454.5,150C 454.167,150.333 453.833,150.667 453.5,151C 456.644,151.919 457.644,153.752 456.5,156.5C 455.056,155.019 454.389,155.352 454.5,157.5C 445.844,150.354 437.511,142.521 429.5,134C 425.936,133.436 423.603,131.436 422.5,128C 415.235,123.732 408.902,118.399 403.5,112C 398.453,110.455 394.787,107.288 392.5,102.5C 391.271,101.719 389.938,101.219 388.5,101C 361.862,78.5027 335.528,56.0027 309.5,33.5 Z"/></g>
<g><path style="opacity:1" fill="#7e7260" d="M 431.5,104.5 C 442.293,105.504 452.959,106.504 463.5,107.5C 453.133,107.681 442.8,107.181 432.5,106C 431.944,105.617 431.611,105.117 431.5,104.5 Z"/></g>
<g><path style="opacity:1" fill="#cebca1" d="M 439.5,77.5 C 451.249,78.2974 462.916,79.7974 474.5,82C 482.962,86.9387 484.796,93.772 480,102.5C 475.516,107.096 470.016,108.763 463.5,107.5C 452.959,106.504 442.293,105.504 431.5,104.5C 427.748,101.959 424.415,98.9587 421.5,95.5C 426.936,95.8478 430.269,98.5144 431.5,103.5C 444.139,104.763 456.806,105.263 469.5,105C 472.562,103.795 475.562,102.628 478.5,101.5C 478.955,98.7965 479.622,96.1298 480.5,93.5C 480.14,91.3921 479.473,89.3921 478.5,87.5C 470.18,83.2876 461.513,81.2876 452.5,81.5C 447.936,80.4789 443.603,79.1456 439.5,77.5 Z"/></g>
<g><path style="opacity:0.896" fill="#413e40" d="M 497.5,106.5 C 496.373,111.292 493.707,114.959 489.5,117.5C 489.185,115.774 489.019,114.107 489,112.5C 490.32,112.201 491.82,112.034 493.5,112C 494.833,110.667 494.833,109.333 493.5,108C 494.901,107.59 496.234,107.09 497.5,106.5 Z"/></g>
<g><path style="opacity:0.004" fill="#dfdedf" d="M 488.5,118.5 C 488.027,119.906 487.027,120.573 485.5,120.5C 485.973,119.094 486.973,118.427 488.5,118.5 Z"/></g>
<g><path style="opacity:0.588" fill="#9f999b" d="M 305.5,121.5 C 300.341,121.182 295.341,121.848 290.5,123.5C 290.804,122.85 291.137,122.183 291.5,121.5C 296.318,120.188 300.985,120.188 305.5,121.5 Z"/></g>
<g><path style="opacity:0.844" fill="#5c5b5b" d="M 485.5,120.5 C 483.574,122.293 481.241,123.293 478.5,123.5C 479.953,122.175 479.619,121.342 477.5,121C 480.146,120.503 482.813,120.336 485.5,120.5 Z"/></g>
<g><path style="opacity:1" fill="#dec39b" d="M 271.5,101.5 C 276.019,102.004 280.019,103.671 283.5,106.5C 273.243,113.256 263.41,120.589 254,128.5C 246.31,137.615 243.977,147.948 247,159.5C 251.819,173.106 256.486,186.773 261,200.5C 262.269,214.124 256.103,219.957 242.5,218C 241.058,217.623 240.058,216.79 239.5,215.5C 240.5,215.5 241.5,215.5 242.5,215.5C 244.398,209.659 244.898,203.659 244,197.5C 238.345,184.644 233.678,171.311 230,157.5C 227.513,145.445 231.013,135.778 240.5,128.5C 248.088,122.755 256.088,117.589 264.5,113C 270.428,112.78 275.428,110.613 279.5,106.5C 276.716,104.835 274.049,103.169 271.5,101.5 Z"/></g>
<g><path style="opacity:0.133" fill="#7e7b7c" d="M 463.5,130.5 C 470.157,135.825 476.49,141.491 482.5,147.5C 476.739,143.531 471.239,139.198 466,134.5C 465.667,134.833 465.333,135.167 465,135.5C 464.392,133.846 463.892,132.179 463.5,130.5 Z"/></g>
<g><path style="opacity:0.852" fill="#544f52" d="M 343.5,140.5 C 346.203,140.952 348.87,141.619 351.5,142.5C 353.215,144.882 355.215,146.882 357.5,148.5C 352.5,146.336 347.833,143.669 343.5,140.5 Z"/></g>
<g><path style="opacity:0.267" fill="#888787" d="M 482.5,147.5 C 484.587,148.585 485.92,150.251 486.5,152.5C 484.413,151.415 483.08,149.749 482.5,147.5 Z"/></g>
<g><path style="opacity:1" fill="#d5c2a7" d="M 116.5,32.5 C 180.669,32.1675 244.669,32.5009 308.5,33.5C 244.833,33.5 181.167,33.5 117.5,33.5C 117.046,69.8643 117.546,106.198 119,142.5C 122.408,144.704 126.075,146.37 130,147.5C 130.333,147.167 130.667,146.833 131,146.5C 134.94,150.11 139.44,151.11 144.5,149.5C 145.845,150.347 146.845,151.513 147.5,153C 151.114,153.945 154.781,154.612 158.5,155C 159.056,155.383 159.389,155.883 159.5,156.5C 144.609,155.612 130.609,151.946 117.5,145.5C 116.507,107.906 116.173,70.2394 116.5,32.5 Z"/></g>
<g><path style="opacity:0.051" fill="#9a9a9a" d="M 359.5,149.5 C 361.027,149.427 362.027,150.094 362.5,151.5C 360.973,151.573 359.973,150.906 359.5,149.5 Z"/></g>
<g><path style="opacity:0.6" fill="#6d6d6c" d="M 366.5,153.5 C 368.989,153.241 370.656,154.241 371.5,156.5C 369.566,155.89 367.899,154.89 366.5,153.5 Z"/></g>
<g><path style="opacity:0.047" fill="#b2b2b2" d="M 486.5,152.5 C 487.906,152.973 488.573,153.973 488.5,155.5C 487.094,155.027 486.427,154.027 486.5,152.5 Z"/></g>
<g><path style="opacity:0.024" fill="#c1bec1" d="M 371.5,156.5 C 373.153,156.66 374.486,157.326 375.5,158.5C 373.62,158.771 372.287,158.104 371.5,156.5 Z"/></g>
<g><path style="opacity:0.035" fill="#b3b3b3" d="M 375.5,158.5 C 377.027,158.427 378.027,159.094 378.5,160.5C 376.973,160.573 375.973,159.906 375.5,158.5 Z"/></g>
<g><path style="opacity:1" fill="#d8bf9c" d="M 351.5,58.5 C 392.447,92.6115 432.947,127.278 473,162.5C 476.484,177.395 470.651,184.562 455.5,184C 453.382,182.918 451.382,181.751 449.5,180.5C 451.505,179.961 453.505,179.295 455.5,178.5C 458.379,171.285 458.046,164.285 454.5,157.5C 454.389,155.352 455.056,155.019 456.5,156.5C 457.644,153.752 456.644,151.919 453.5,151C 453.833,150.667 454.167,150.333 454.5,150C 452,148.167 449.5,146.333 447,144.5C 442.994,137.849 437.16,133.349 429.5,131C 428.167,129 426.5,127.333 424.5,126C 425.451,125.282 425.617,124.449 425,123.5C 421.88,121.887 419.713,119.553 418.5,116.5C 414.429,116.522 410.762,115.355 407.5,113C 408.337,111.989 408.67,110.822 408.5,109.5C 407.167,109.5 405.833,109.5 404.5,109.5C 403.757,106.43 401.757,104.764 398.5,104.5C 398.719,103.325 398.386,102.325 397.5,101.5C 395.49,100.498 393.49,99.4981 391.5,98.5C 388.157,93.238 383.657,89.238 378,86.5C 377.383,85.5509 377.549,84.7175 378.5,84C 372.556,78.3853 366.056,73.552 359,69.5C 354.975,69.4755 352.975,67.4755 353,63.5C 352.667,63.8333 352.333,64.1667 352,64.5C 351.505,62.5273 351.338,60.5273 351.5,58.5 Z"/></g>
<g><path style="opacity:0.991" fill="#0d0a0a" d="M 350.5,168.5 C 351.473,171.135 353.14,173.135 355.5,174.5C 355.427,176.027 356.094,177.027 357.5,177.5C 357.427,179.027 358.094,180.027 359.5,180.5C 359.427,182.027 360.094,183.027 361.5,183.5C 361.427,185.027 362.094,186.027 363.5,186.5C 363.273,188.933 364.273,190.599 366.5,191.5C 367.674,192.514 368.34,193.847 368.5,195.5C 368.92,197.674 368.92,199.674 368.5,201.5C 369.849,202.909 371.182,204.243 372.5,205.5C 374.509,214.349 375.009,223.349 374,232.5C 373.109,237.288 370.942,241.288 367.5,244.5C 366.5,244.5 365.5,244.5 364.5,244.5C 364.371,246.216 364.038,247.883 363.5,249.5C 347.212,261.824 331.378,261.157 316,247.5C 313.046,243.925 310.879,239.925 309.5,235.5C 308.398,229.552 307.731,223.552 307.5,217.5C 309.021,203.908 314.021,191.908 322.5,181.5C 323.5,181.5 324.5,181.5 325.5,181.5C 326.184,175.985 329.184,172.485 334.5,171C 333.316,169.855 333.316,168.688 334.5,167.5C 339.878,164.892 345.211,165.225 350.5,168.5 Z"/></g>
<g><path style="opacity:0.09" fill="#b1b0b1" d="M 350.5,168.5 C 352.89,169.891 354.557,171.891 355.5,174.5C 353.14,173.135 351.473,171.135 350.5,168.5 Z"/></g>
<g><path style="opacity:0.92" fill="#413c3f" d="M 334.5,167.5 C 333.316,168.688 333.316,169.855 334.5,171C 329.184,172.485 326.184,175.985 325.5,181.5C 324.5,181.5 323.5,181.5 322.5,181.5C 324.716,175.285 328.716,170.619 334.5,167.5 Z"/></g>
<g><path style="opacity:0.133" fill="#a8a8a8" d="M 355.5,174.5 C 356.906,174.973 357.573,175.973 357.5,177.5C 356.094,177.027 355.427,176.027 355.5,174.5 Z"/></g>
<g><path style="opacity:0.239" fill="#828080" d="M 5.5,175.5 C 8.67435,176.01 11.0077,177.677 12.5,180.5C 9.88297,179.214 7.54964,177.547 5.5,175.5 Z"/></g>
<g><path style="opacity:0.622" fill="#73696c" d="M 491.5,174.5 C 491.472,177.916 490.472,180.916 488.5,183.5C 487.925,179.845 488.925,176.845 491.5,174.5 Z"/></g>
<g><path style="opacity:0.133" fill="#aba5ab" d="M 357.5,177.5 C 358.906,177.973 359.573,178.973 359.5,180.5C 358.094,180.027 357.427,179.027 357.5,177.5 Z"/></g>
<g><path style="opacity:0.024" fill="#aca8a7" d="M 270.5,176.5 C 272.267,178.792 273.267,181.458 273.5,184.5C 271.733,182.208 270.733,179.542 270.5,176.5 Z"/></g>
<g><path style="opacity:0.173" fill="#757171" d="M 12.5,180.5 C 14.9267,180.523 17.26,181.023 19.5,182C 45.1645,182.5 70.8312,182.667 96.5,182.5C 70.6699,183.663 44.6699,183.83 18.5,183C 16.2774,182.434 14.2774,181.6 12.5,180.5 Z"/></g>
<g><path style="opacity:0.055" fill="#b7b7b7" d="M 359.5,180.5 C 360.906,180.973 361.573,181.973 361.5,183.5C 360.094,183.027 359.427,182.027 359.5,180.5 Z"/></g>
<g><path style="opacity:0.086" fill="#aea7a8" d="M 419.5,183.5 C 422.948,184.39 425.948,186.057 428.5,188.5C 425.008,187.59 422.008,185.924 419.5,183.5 Z"/></g>
<g><path style="opacity:0.133" fill="#acacac" d="M 361.5,183.5 C 362.906,183.973 363.573,184.973 363.5,186.5C 362.094,186.027 361.427,185.027 361.5,183.5 Z"/></g>
<g><path style="opacity:0.071" fill="#b1b1b1" d="M 363.5,186.5 C 364.89,187.899 365.89,189.566 366.5,191.5C 364.273,190.599 363.273,188.933 363.5,186.5 Z"/></g>
<g><path style="opacity:0.02" fill="#b4b4b4" d="M 488.5,184.5 C 487.525,186.795 486.192,188.795 484.5,190.5C 484.684,187.663 486.018,185.663 488.5,184.5 Z"/></g>
<g><path style="opacity:0.337" fill="#81787e" d="M 273.5,184.5 C 274.738,186.214 275.405,188.214 275.5,190.5C 273.72,189.01 273.054,187.01 273.5,184.5 Z"/></g>
<g><path style="opacity:0.055" fill="#a8a0a8" d="M 428.5,188.5 C 431.005,188.98 433.338,189.98 435.5,191.5C 436.298,191.957 436.631,192.624 436.5,193.5C 433.46,192.32 430.794,190.653 428.5,188.5 Z"/></g>
<g><path style="opacity:0.008" fill="#d1d1d1" d="M 482.5,192.5 C 481.738,194.262 480.404,195.262 478.5,195.5C 479.262,193.738 480.596,192.738 482.5,192.5 Z"/></g>
<g><path style="opacity:0.329" fill="#837f81" d="M 275.5,190.5 C 276.738,192.214 277.405,194.214 277.5,196.5C 275.72,195.01 275.054,193.01 275.5,190.5 Z"/></g>
<g><path style="opacity:0.039" fill="#bfbdbd" d="M 437.5,193.5 C 439.027,193.427 440.027,194.094 440.5,195.5C 438.973,195.573 437.973,194.906 437.5,193.5 Z"/></g>
<g><path style="opacity:0.118" fill="#959292" d="M 451.5,200.5 C 457.167,200.5 462.833,200.5 468.5,200.5C 465.829,201.298 462.996,201.965 460,202.5C 457.004,201.965 454.171,201.298 451.5,200.5 Z"/></g>
<g><path style="opacity:0.918" fill="#545153" d="M 368.5,195.5 C 370.403,198.53 371.737,201.863 372.5,205.5C 371.182,204.243 369.849,202.909 368.5,201.5C 368.92,199.674 368.92,197.674 368.5,195.5 Z"/></g>
<g><path style="opacity:1" fill="#eab91d" d="M 327.5,233.5 C 326.543,229.906 325.876,226.24 325.5,222.5C 325.507,220.631 325.84,218.964 326.5,217.5C 326.095,221.048 326.595,224.381 328,227.5C 328.333,226.167 328.667,224.833 329,223.5C 329.923,227.24 331.423,231.073 333.5,235C 337.5,235.667 341.5,235.667 345.5,235C 345.963,232.415 347.13,230.248 349,228.5C 350.019,229.687 351.186,230.687 352.5,231.5C 356.628,222.361 356.128,213.361 351,204.5C 348.159,202.157 346.325,199.157 345.5,195.5C 343.232,194.456 340.899,194.289 338.5,195C 337.782,196.987 336.782,198.821 335.5,200.5C 338.987,201.509 340.32,203.842 339.5,207.5C 336.828,209.05 334.495,208.55 332.5,206C 335.079,204.388 335.079,202.888 332.5,201.5C 331.644,207.09 329.644,212.09 326.5,216.5C 326.833,213.833 327.167,211.167 327.5,208.5C 330.06,200.212 334.06,192.712 339.5,186C 342.28,185.731 344.446,186.898 346,189.5C 348.956,194.415 351.622,199.415 354,204.5C 357.484,212.91 358.317,221.577 356.5,230.5C 351.719,238.557 344.719,241.724 335.5,240C 332.645,237.969 329.978,235.803 327.5,233.5 Z"/></g>
<g><path style="opacity:1" fill="#fcc008" d="M 326.5,217.5 C 326.5,217.167 326.5,216.833 326.5,216.5C 329.644,212.09 331.644,207.09 332.5,201.5C 335.079,202.888 335.079,204.388 332.5,206C 334.495,208.55 336.828,209.05 339.5,207.5C 340.32,203.842 338.987,201.509 335.5,200.5C 336.782,198.821 337.782,196.987 338.5,195C 340.899,194.289 343.232,194.456 345.5,195.5C 346.325,199.157 348.159,202.157 351,204.5C 356.128,213.361 356.628,222.361 352.5,231.5C 351.186,230.687 350.019,229.687 349,228.5C 347.13,230.248 345.963,232.415 345.5,235C 341.5,235.667 337.5,235.667 333.5,235C 331.423,231.073 329.923,227.24 329,223.5C 328.667,224.833 328.333,226.167 328,227.5C 326.595,224.381 326.095,221.048 326.5,217.5 Z"/></g>
<g><path style="opacity:0.004" fill="#c2c2c2" d="M 217.5,216.5 C 219.048,216.821 219.715,217.821 219.5,219.5C 218.599,218.71 217.932,217.71 217.5,216.5 Z"/></g>
<g><path style="opacity:0.216" fill="#918e8e" d="M 219.5,219.5 C 223.091,222.425 226.425,225.758 229.5,229.5C 225.188,227.188 221.855,223.855 219.5,219.5 Z"/></g>
<g><path style="opacity:0.855" fill="#4c4649" d="M 275.5,218.5 C 273.547,224.751 269.547,229.084 263.5,231.5C 264.801,230.118 265.634,228.452 266,226.5C 266.718,227.451 267.551,227.617 268.5,227C 269.208,222.795 271.541,219.962 275.5,218.5 Z"/></g>
<g><path style="opacity:1" fill="#a07f2d" d="M 327.5,208.5 C 327.167,211.167 326.833,213.833 326.5,216.5C 326.5,216.833 326.5,217.167 326.5,217.5C 325.84,218.964 325.507,220.631 325.5,222.5C 325.876,226.24 326.543,229.906 327.5,233.5C 325.107,230.149 324.107,226.316 324.5,222C 324.347,217.124 325.347,212.624 327.5,208.5 Z"/></g>
<g><path style="opacity:0.086" fill="#aba8a8" d="M 307.5,217.5 C 307.731,223.552 308.398,229.552 309.5,235.5C 306.859,229.671 306.193,223.671 307.5,217.5 Z"/></g>
<g><path style="opacity:0.298" fill="#726c6e" d="M 236.5,233.5 C 243.131,234.331 249.798,234.664 256.5,234.5C 249.696,237.196 243.029,236.862 236.5,233.5 Z"/></g>
<g><path style="opacity:0.631" fill="#777477" d="M 367.5,244.5 C 366.92,246.749 365.587,248.415 363.5,249.5C 364.038,247.883 364.371,246.216 364.5,244.5C 365.5,244.5 366.5,244.5 367.5,244.5 Z"/></g>
<g><path style="opacity:0.173" fill="#9c9999" d="M 293.5,257.5 C 290.873,258.092 288.206,258.425 285.5,258.5C 288.089,256.843 290.756,256.509 293.5,257.5 Z"/></g>
<g><path style="opacity:0.991" fill="#120f10" d="M 293.5,257.5 C 298.076,257.568 301.576,259.568 304,263.5C 311.391,272.947 317.224,283.281 321.5,294.5C 321.054,297.01 321.72,299.01 323.5,300.5C 329.192,318.886 324.192,333.719 308.5,345C 292.233,353.261 277.733,350.761 265,337.5C 257.843,328.52 255.343,318.52 257.5,307.5C 259.027,303.733 260.027,299.733 260.5,295.5C 264.654,282.862 271.154,271.529 280,261.5C 281.488,259.84 283.321,258.84 285.5,258.5C 288.206,258.425 290.873,258.092 293.5,257.5 Z"/></g>
<g><path style="opacity:0.988" fill="#0e0c0c" d="M 398.5,306.5 C 399.133,312.165 401.466,316.832 405.5,320.5C 409.29,329.667 409.956,339 407.5,348.5C 406.069,349.78 405.402,351.447 405.5,353.5C 404.326,354.514 403.66,355.847 403.5,357.5C 403.573,359.027 402.906,360.027 401.5,360.5C 398.5,362.833 395.833,365.5 393.5,368.5C 391.181,368.992 389.181,369.992 387.5,371.5C 386.158,372.793 384.491,373.626 382.5,374C 377.167,374.667 371.833,374.667 366.5,374C 363.524,373.295 360.858,372.129 358.5,370.5C 358.027,369.094 357.027,368.427 355.5,368.5C 354.415,366.413 352.749,365.08 350.5,364.5C 349.92,362.251 348.587,360.585 346.5,359.5C 345.662,359.158 345.328,358.492 345.5,357.5C 345.34,355.847 344.674,354.514 343.5,353.5C 342.662,353.158 342.328,352.492 342.5,351.5C 342.841,347.84 342.175,344.507 340.5,341.5C 339.781,334.247 340.781,327.247 343.5,320.5C 346.889,316.388 349.223,311.721 350.5,306.5C 354.349,297.638 360.016,290.138 367.5,284C 372.984,281.852 378.317,282.185 383.5,285C 389.628,291.439 394.628,298.605 398.5,306.5 Z"/></g>
<g><path style="opacity:1" fill="#cca534" d="M 301.5,292.5 C 299.926,292.063 298.759,291.063 298,289.5C 296.134,286.313 294.301,283.147 292.5,280C 290.505,279.387 288.838,279.887 287.5,281.5C 288.031,279.456 289.198,277.789 291,276.5C 295.764,281.035 299.264,286.368 301.5,292.5 Z"/></g>
<g><path style="opacity:1" fill="#c59f2b" d="M 287.5,281.5 C 285.985,284.702 284.652,288.035 283.5,291.5C 282.181,293.786 280.515,295.786 278.5,297.5C 280.01,291.277 283.01,285.944 287.5,281.5 Z"/></g>
<g><path style="opacity:1" fill="#fbc00c" d="M 301.5,292.5 C 301.46,295.425 302.293,298.091 304,300.5C 305.291,306.784 306.124,313.118 306.5,319.5C 306.567,320.959 306.234,322.292 305.5,323.5C 301.82,324.679 298.82,326.846 296.5,330C 291.283,330.812 286.283,330.312 281.5,328.5C 279.413,327.415 278.08,325.749 277.5,323.5C 276.067,320.357 275.401,317.024 275.5,313.5C 276.085,308.081 277.085,302.747 278.5,297.5C 280.515,295.786 282.181,293.786 283.5,291.5C 284.652,288.035 285.985,284.702 287.5,281.5C 288.838,279.887 290.505,279.387 292.5,280C 294.301,283.147 296.134,286.313 298,289.5C 298.759,291.063 299.926,292.063 301.5,292.5 Z"/></g>
<g><path style="opacity:0.353" fill="#767171" d="M 321.5,294.5 C 322.738,296.214 323.405,298.214 323.5,300.5C 321.72,299.01 321.054,297.01 321.5,294.5 Z"/></g>
<g><path style="opacity:0.149" fill="#aca2a7" d="M 260.5,295.5 C 260.027,299.733 259.027,303.733 257.5,307.5C 257.308,303.098 258.308,299.098 260.5,295.5 Z"/></g>
<g><path style="opacity:1" fill="#e1b428" d="M 389.5,329.5 C 390.597,334.321 390.597,338.987 389.5,343.5C 389.15,334.781 387.15,326.448 383.5,318.5C 380.06,317.079 378.56,314.413 379,310.5C 377.972,308.639 376.472,307.305 374.5,306.5C 373.614,307.325 373.281,308.325 373.5,309.5C 369.71,310.645 367.71,313.312 367.5,317.5C 366.833,317.833 366.167,318.167 365.5,318.5C 364.572,323.025 363.072,327.358 361,331.5C 359.671,337.825 360.838,343.491 364.5,348.5C 363.754,349.736 363.421,351.07 363.5,352.5C 361.926,351.016 360.593,349.349 359.5,347.5C 358.705,342.851 358.539,338.184 359,333.5C 360.816,328.554 362.316,323.554 363.5,318.5C 365.914,312.002 369.58,306.335 374.5,301.5C 382.102,309.367 387.102,318.7 389.5,329.5 Z"/></g>
<g><path style="opacity:1" fill="#c59d26" d="M 301.5,292.5 C 307.16,300.814 308.827,309.814 306.5,319.5C 306.124,313.118 305.291,306.784 304,300.5C 302.293,298.091 301.46,295.425 301.5,292.5 Z"/></g>
<g><path style="opacity:0.357" fill="#7e7b7c" d="M 350.5,306.5 C 349.223,311.721 346.889,316.388 343.5,320.5C 344.799,315.236 347.132,310.569 350.5,306.5 Z"/></g>
<g><path style="opacity:0.812" fill="#5f5b5d" d="M 398.5,306.5 C 401.634,310.671 403.967,315.338 405.5,320.5C 401.466,316.832 399.133,312.165 398.5,306.5 Z"/></g>
<g><path style="opacity:1" fill="#fbc00a" d="M 389.5,343.5 C 388.962,345.117 388.629,346.784 388.5,348.5C 387.18,350.817 385.514,352.817 383.5,354.5C 380.334,354.766 377.167,355.099 374,355.5C 370.447,354.803 366.947,353.803 363.5,352.5C 363.421,351.07 363.754,349.736 364.5,348.5C 360.838,343.491 359.671,337.825 361,331.5C 363.072,327.358 364.572,323.025 365.5,318.5C 366.167,318.167 366.833,317.833 367.5,317.5C 367.71,313.312 369.71,310.645 373.5,309.5C 373.281,308.325 373.614,307.325 374.5,306.5C 376.472,307.305 377.972,308.639 379,310.5C 378.56,314.413 380.06,317.079 383.5,318.5C 387.15,326.448 389.15,334.781 389.5,343.5 Z"/></g>
<g><path style="opacity:1" fill="#9e7e24" d="M 278.5,297.5 C 277.085,302.747 276.085,308.081 275.5,313.5C 275.401,317.024 276.067,320.357 277.5,323.5C 276.21,322.942 275.377,321.942 275,320.5C 273.622,312.314 274.789,304.648 278.5,297.5 Z"/></g>
<g><path style="opacity:1" fill="#d4b038" d="M 305.5,323.5 C 301.246,330.622 294.913,333.455 286.5,332C 284.416,331.303 282.749,330.136 281.5,328.5C 286.283,330.312 291.283,330.812 296.5,330C 298.82,326.846 301.82,324.679 305.5,323.5 Z"/></g>
<g><path style="opacity:1" fill="#907120" d="M 363.5,318.5 C 362.316,323.554 360.816,328.554 359,333.5C 358.539,338.184 358.705,342.851 359.5,347.5C 357.599,342.775 357.099,337.775 358,332.5C 359.371,327.536 361.204,322.869 363.5,318.5 Z"/></g>
<g><path style="opacity:1" fill="#876c1b" d="M 389.5,329.5 C 390.991,332.186 391.657,335.186 391.5,338.5C 391.92,342.374 390.92,345.707 388.5,348.5C 388.629,346.784 388.962,345.117 389.5,343.5C 390.597,338.987 390.597,334.321 389.5,329.5 Z"/></g>
<g><path style="opacity:0.263" fill="#857c82" d="M 340.5,341.5 C 342.175,344.507 342.841,347.84 342.5,351.5C 340.989,348.456 340.322,345.122 340.5,341.5 Z"/></g>
<g><path style="opacity:0.051" fill="#c6b6b6" d="M 407.5,348.5 C 407.598,350.553 406.931,352.22 405.5,353.5C 405.402,351.447 406.069,349.78 407.5,348.5 Z"/></g>
<g><path style="opacity:0.027" fill="#b1a8b1" d="M 343.5,353.5 C 344.674,354.514 345.34,355.847 345.5,357.5C 343.896,356.713 343.229,355.38 343.5,353.5 Z"/></g>
<g><path style="opacity:1" fill="#c19e2b" d="M 363.5,352.5 C 366.947,353.803 370.447,354.803 374,355.5C 377.167,355.099 380.334,354.766 383.5,354.5C 382.4,355.558 381.066,356.392 379.5,357C 375.833,357.667 372.167,357.667 368.5,357C 366.34,356.004 364.673,354.504 363.5,352.5 Z"/></g>
<g><path style="opacity:0.016" fill="#b4b2b4" d="M 405.5,353.5 C 405.771,355.38 405.104,356.713 403.5,357.5C 403.66,355.847 404.326,354.514 405.5,353.5 Z"/></g>
<g><path style="opacity:0.004" fill="#c5c4c4" d="M 346.5,359.5 C 348.587,360.585 349.92,362.251 350.5,364.5C 348.413,363.415 347.08,361.749 346.5,359.5 Z"/></g>
<g><path style="opacity:0.008" fill="#d2d1d0" d="M 401.5,360.5 C 399.833,364.167 397.167,366.833 393.5,368.5C 395.833,365.5 398.5,362.833 401.5,360.5 Z"/></g>
<g><path style="opacity:0.153" fill="#afacaf" d="M 350.5,364.5 C 352.749,365.08 354.415,366.413 355.5,368.5C 353.251,367.92 351.585,366.587 350.5,364.5 Z"/></g>
<g><path style="opacity:0.035" fill="#d3d3d3" d="M 355.5,368.5 C 357.027,368.427 358.027,369.094 358.5,370.5C 356.973,370.573 355.973,369.906 355.5,368.5 Z"/></g>
<g><path style="opacity:0.02" fill="#c2c0c0" d="M 393.5,368.5 C 392.089,370.539 390.089,371.539 387.5,371.5C 389.181,369.992 391.181,368.992 393.5,368.5 Z"/></g>
<g><path style="opacity:0.035" fill="#888888" d="M 442.5,399.5 C 437.155,399.687 431.822,400.02 426.5,400.5C 431.767,398.572 437.1,398.239 442.5,399.5 Z"/></g>
<g><path style="opacity:0.11" fill="#7a7778" d="M 442.5,399.5 C 446.458,399.251 450.124,399.918 453.5,401.5C 449.613,401.354 445.946,400.687 442.5,399.5 Z"/></g>
<g><path style="opacity:0.995" fill="#090505" d="M 315.5,401.5 C 324.482,400.782 333.482,400.448 342.5,400.5C 352.673,402.752 362.006,406.919 370.5,413C 379.833,416.333 389.167,416.333 398.5,413C 404.5,409.667 410.5,406.333 416.5,403C 419.618,401.273 422.951,400.439 426.5,400.5C 431.822,400.02 437.155,399.687 442.5,399.5C 445.946,400.687 449.613,401.354 453.5,401.5C 462.499,404.832 471.166,408.999 479.5,414C 488.556,414.041 495.223,417.875 499.5,425.5C 499.5,446.833 499.5,468.167 499.5,489.5C 497.083,494.252 493.417,497.585 488.5,499.5C 328.833,499.5 169.167,499.5 9.5,499.5C 5.16667,497.167 1.83333,493.833 -0.5,489.5C -0.5,462.833 -0.5,436.167 -0.5,409.5C 2.14364,404.034 6.47697,400.534 12.5,399C 85.1667,398.333 157.833,398.333 230.5,399C 235.99,399.706 241.323,401.039 246.5,403C 252.002,406.585 257.669,409.919 263.5,413C 278.208,418.093 291.542,415.76 303.5,406C 307.203,403.646 311.203,402.146 315.5,401.5 Z"/></g>
<g><path style="opacity:0.557" fill="#464346" d="M 342.5,400.5 C 333.482,400.448 324.482,400.782 315.5,401.5C 324.422,398.257 333.422,397.924 342.5,400.5 Z"/></g>
<g><path style="opacity:1" fill="#784834" d="M 345.5,419.5 C 340.524,418.726 335.524,418.06 330.5,417.5C 324.726,418.679 319.059,420.179 313.5,422C 301.113,432.008 287.113,435.508 271.5,432.5C 277.865,432.706 284.198,432.373 290.5,431.5C 301.168,427.163 311.501,422.33 321.5,417C 326.833,416.333 332.167,416.333 337.5,417C 340.522,417.098 343.189,417.932 345.5,419.5 Z"/></g>
<g><path style="opacity:1" fill="#9e522c" d="M 31.5,418.5 C 99.3604,417.175 167.36,417.175 235.5,418.5C 237.927,418.523 240.26,419.023 242.5,420C 250.857,427.186 260.523,431.353 271.5,432.5C 287.113,435.508 301.113,432.008 313.5,422C 319.059,420.179 324.726,418.679 330.5,417.5C 335.524,418.06 340.524,418.726 345.5,419.5C 345.833,419.5 346.167,419.5 346.5,419.5C 359.836,431.9 375.836,436.733 394.5,434C 400.281,432.971 405.948,431.471 411.5,429.5C 415.177,425.826 419.177,422.493 423.5,419.5C 430.841,419.334 438.174,419.5 445.5,420C 451.576,423.028 457.243,426.528 462.5,430.5C 461.675,431.386 460.675,431.719 459.5,431.5C 459.5,433.5 459.5,435.5 459.5,437.5C 460.5,437.5 461.5,437.5 462.5,437.5C 463.275,450.856 463.608,464.19 463.5,477.5C 318.393,477.17 173.06,477.17 27.5,477.5C 27.33,476.178 27.6634,475.011 28.5,474C 39.6667,473.833 50.8333,473.667 62,473.5C 177.718,473.572 294.051,473.906 411,474.5C 425.82,473.742 440.654,473.242 455.5,473C 456.833,472 456.833,471 455.5,470C 448.833,469.833 442.167,469.667 435.5,469.5C 427.911,469.586 420.411,470.253 413,471.5C 408.46,471.147 404.127,470.147 400,468.5C 392.066,469.817 383.9,470.484 375.5,470.5C 360.907,470.562 346.407,469.895 332,468.5C 326.194,469.389 320.361,470.389 314.5,471.5C 280.032,471.914 245.365,471.247 210.5,469.5C 192.675,469.857 175.008,469.857 157.5,469.5C 154.465,470.061 151.465,470.727 148.5,471.5C 107.363,469.851 66.0296,469.351 24.5,470C 23.6456,471.881 23.9789,473.714 25.5,475.5C 24.5,477.167 23.1667,478.5 21.5,479.5C 21.7724,462.973 21.4391,446.306 20.5,429.5C 21.9778,429.238 23.3112,429.571 24.5,430.5C 24.1667,432.5 23.8333,434.5 23.5,436.5C 25.8811,445.931 25.8811,455.264 23.5,464.5C 24.1667,464.833 24.8333,465.167 25.5,465.5C 48.733,465.457 72.0664,465.457 95.5,465.5C 95.5,466.5 95.5,467.5 95.5,468.5C 96.675,468.719 97.675,468.386 98.5,467.5C 96.3424,464.257 96.0091,460.924 97.5,457.5C 97.3367,459.857 97.5034,462.19 98,464.5C 99.8161,465.329 101.649,466.163 103.5,467C 111.833,467.167 120.167,467.333 128.5,467.5C 137.904,467.626 147.237,467.126 156.5,466C 162.606,455.908 159.939,449.908 148.5,448C 133.833,447.333 119.167,447.333 104.5,448C 102.655,449.128 100.655,449.628 98.5,449.5C 101.198,447.828 104.198,446.661 107.5,446C 104.362,445.012 101.195,444.178 98,443.5C 96.8333,443.833 95.6667,444.167 94.5,444.5C 92.811,447.891 90.6443,450.891 88,453.5C 87.224,450.351 85.724,449.851 83.5,452C 83.8333,452.333 84.1667,452.667 84.5,453C 83.2161,453.684 82.0495,453.517 81,452.5C 80.5034,454.81 80.3367,457.143 80.5,459.5C 81.675,459.281 82.675,459.614 83.5,460.5C 82.5,461.333 81.5,462.167 80.5,463C 75.628,463.246 70.7946,463.746 66,464.5C 64.8288,463.66 63.6621,462.827 62.5,462C 52.8392,462.029 45.5058,461.862 40.5,461.5C 40.5,462.5 40.5,463.5 40.5,464.5C 36.5403,464.207 32.8736,463.874 29.5,463.5C 29.1675,449.817 29.5008,436.15 30.5,422.5C 31.2868,423.242 31.9535,424.075 32.5,425C 31.269,426.183 31.269,427.349 32.5,428.5C 35.0205,429.785 37.6872,430.452 40.5,430.5C 39.0484,431.302 37.3817,431.802 35.5,432C 30.8441,435.407 29.5108,439.907 31.5,445.5C 33.5075,447.008 35.1741,448.842 36.5,451C 50.8333,451.667 65.1667,451.667 79.5,451C 80.1258,450.25 80.6258,449.416 81,448.5C 81.3333,448.833 81.6667,449.167 82,449.5C 85.1726,444.977 86.1726,439.977 85,434.5C 83.7582,432.459 81.9249,431.293 79.5,431C 67.1712,430.5 54.8378,430.333 42.5,430.5C 42.5,429.167 42.5,427.833 42.5,426.5C 41.448,426.649 40.448,426.483 39.5,426C 41.8333,425 43.5,423.333 44.5,421C 40.5761,420.201 40.5761,419.701 44.5,419.5C 74.7722,420.81 105.106,421.477 135.5,421.5C 164.833,421.333 194.167,421.167 223.5,421C 222.167,420.333 222.167,419.667 223.5,419C 159.501,418.5 95.5009,418.333 31.5,418.5 Z"/></g>
<g><path style="opacity:1" fill="#854c36" d="M 346.5,419.5 C 352.574,423.469 358.908,426.969 365.5,430C 385.323,435.745 403.323,432.411 419.5,420C 420.793,419.51 422.127,419.343 423.5,419.5C 419.177,422.493 415.177,425.826 411.5,429.5C 405.948,431.471 400.281,432.971 394.5,434C 375.836,436.733 359.836,431.9 346.5,419.5 Z"/></g>
<g><path style="opacity:1" fill="#563221" d="M 461.5,424.5 C 464.516,425.343 467.183,426.843 469.5,429C 473.84,430.282 478.173,431.449 482.5,432.5C 482.5,449.5 482.5,466.5 482.5,483.5C 326.999,483.833 171.666,483.5 16.5,482.5C 166.668,482.833 316.668,482.5 466.5,481.5C 471.038,480.922 475.538,480.255 480,479.5C 480.667,464.833 480.667,450.167 480,435.5C 479.667,435.833 479.333,436.167 479,436.5C 477.833,435 476.667,433.5 475.5,432C 472.189,431.943 469.189,431.11 466.5,429.5C 463.833,428.833 462.167,427.167 461.5,424.5 Z"/></g>
<g><path style="opacity:1" fill="#875137" d="M 414.5,463.5 C 413.547,465.61 411.881,466.777 409.5,467C 393.5,467.667 377.5,467.667 361.5,467C 358.953,466.564 357.62,465.064 357.5,462.5C 356.585,458.856 356.419,455.19 357,451.5C 358.771,450.696 360.271,449.529 361.5,448C 378.167,447.333 394.833,447.333 411.5,448C 418.236,452.178 419.236,457.345 414.5,463.5 Z"/></g>
<g><path style="opacity:1" fill="#763e20" d="M 466.5,429.5 C 469.189,431.11 472.189,431.943 475.5,432C 476.667,433.5 477.833,435 479,436.5C 479.333,436.167 479.667,435.833 480,435.5C 480.667,450.167 480.667,464.833 480,479.5C 475.538,480.255 471.038,480.922 466.5,481.5C 466.5,464.167 466.5,446.833 466.5,429.5 Z"/></g>
<g><path style="opacity:1" fill="#8b4e34" d="M 178.5,449.5 C 174.299,448.37 172.299,445.537 172.5,441C 172.145,435.69 174.479,432.357 179.5,431C 193.408,430.824 207.242,430.324 221,429.5C 233.425,429.969 237.758,436.303 234,448.5C 233.167,449.333 232.333,450.167 231.5,451C 214.167,451.667 196.833,451.667 179.5,451C 178.944,450.617 178.611,450.117 178.5,449.5 Z"/></g>
<g><path style="opacity:1" fill="#1f0a04" d="M 178.5,449.5 C 176.378,446.916 175.044,443.916 174.5,440.5C 174.265,437.952 175.265,436.286 177.5,435.5C 177.953,434.542 178.619,433.708 179.5,433C 195.51,432.167 211.51,432.334 227.5,433.5C 234.469,439.129 234.135,444.295 226.5,449C 210.503,449.5 194.503,449.667 178.5,449.5 Z"/></g>
<g><path style="opacity:1" fill="#020002" d="M 177.5,435.5 C 192.455,434.366 207.455,434.199 222.5,435C 227.02,435.116 229.353,437.449 229.5,442C 228.704,445.07 226.704,446.737 223.5,447C 209.833,447.667 196.167,447.667 182.5,447C 177.113,444.825 175.447,440.992 177.5,435.5 Z"/></g>
<g><path style="opacity:1" fill="#8b4f35" d="M 40.5,430.5 C 41.1667,430.5 41.8333,430.5 42.5,430.5C 54.8378,430.333 67.1712,430.5 79.5,431C 81.9249,431.293 83.7582,432.459 85,434.5C 86.1726,439.977 85.1726,444.977 82,449.5C 81.6667,449.167 81.3333,448.833 81,448.5C 80.6258,449.416 80.1258,450.25 79.5,451C 65.1667,451.667 50.8333,451.667 36.5,451C 35.1741,448.842 33.5075,447.008 31.5,445.5C 29.5108,439.907 30.8441,435.407 35.5,432C 37.3817,431.802 39.0484,431.302 40.5,430.5 Z"/></g>
<g><path style="opacity:1" fill="#080102" d="M 76.5,433.5 C 84.1049,437.766 84.4383,442.933 77.5,449C 64.1667,449.667 50.8333,449.667 37.5,449C 33.9527,445.51 32.786,441.343 34,436.5C 34.7083,435.619 35.5416,434.953 36.5,434.5C 49.7841,433.536 63.1175,433.203 76.5,433.5 Z"/></g>
<g><path style="opacity:1" fill="#482314" d="M 76.5,433.5 C 63.1175,433.203 49.7841,433.536 36.5,434.5C 36.6107,433.883 36.944,433.383 37.5,433C 50.6732,432.173 63.6732,432.34 76.5,433.5 Z"/></g>
<g><path style="opacity:1" fill="#070101" d="M 414.5,463.5 C 412.685,464.63 410.685,465.296 408.5,465.5C 392.786,465.803 377.119,465.469 361.5,464.5C 357.533,459.95 357.533,455.284 361.5,450.5C 378.132,449.182 394.799,449.182 411.5,450.5C 415.535,454.029 416.535,458.363 414.5,463.5 Z"/></g>
<g><path style="opacity:1" fill="#3c1708" d="M 361.5,464.5 C 377.119,465.469 392.786,465.803 408.5,465.5C 393.339,466.661 378.006,466.828 362.5,466C 361.944,465.617 361.611,465.117 361.5,464.5 Z"/></g>
<g><path style="opacity:1" fill="#875137" d="M 97.5,457.5 C 97.2786,454.721 97.612,452.054 98.5,449.5C 100.655,449.628 102.655,449.128 104.5,448C 119.167,447.333 133.833,447.333 148.5,448C 159.939,449.908 162.606,455.908 156.5,466C 147.237,467.126 137.904,467.626 128.5,467.5C 120.167,467.333 111.833,467.167 103.5,467C 101.649,466.163 99.8161,465.329 98,464.5C 97.5034,462.19 97.3367,459.857 97.5,457.5 Z"/></g>
<g><path style="opacity:1" fill="#3c1707" d="M 102.5,463.5 C 103.756,463.461 104.756,463.961 105.5,465C 120.83,465.5 136.163,465.667 151.5,465.5C 136.005,466.661 120.339,466.828 104.5,466C 103.619,465.292 102.953,464.458 102.5,463.5 Z"/></g>
<g><path style="opacity:1" fill="#030001" d="M 156.5,459.5 C 156.228,462.732 154.562,464.732 151.5,465.5C 136.163,465.667 120.83,465.5 105.5,465C 104.756,463.961 103.756,463.461 102.5,463.5C 100.735,460.877 100.068,457.877 100.5,454.5C 101.962,453.542 103.295,452.376 104.5,451C 119.5,450.333 134.5,450.333 149.5,451C 151.746,452.039 153.913,453.206 156,454.5C 156.494,456.134 156.66,457.801 156.5,459.5 Z"/></g>
<g><path style="opacity:1" fill="#280f05" d="M 156.5,459.5 C 156.66,457.801 156.494,456.134 156,454.5C 153.913,453.206 151.746,452.039 149.5,451C 134.5,450.333 119.5,450.333 104.5,451C 103.295,452.376 101.962,453.542 100.5,454.5C 100.859,452.629 101.859,451.129 103.5,450C 119.833,449.333 136.167,449.333 152.5,450C 157.213,451.93 158.547,455.097 156.5,459.5 Z"/></g>
<g><path style="opacity:1" fill="#885136" d="M 262.5,449.5 C 262.611,448.883 262.944,448.383 263.5,448C 282.258,446.946 300.924,447.446 319.5,449.5C 318.348,453.165 318.181,456.831 319,460.5C 317.285,462.759 315.452,464.926 313.5,467C 295.833,467.667 278.167,467.667 260.5,467C 257.295,465.585 255.628,463.085 255.5,459.5C 256.139,456.525 256.639,453.525 257,450.5C 258.699,449.594 260.533,449.261 262.5,449.5 Z"/></g>
<g><path style="opacity:1" fill="#3d1707" d="M 261.5,464.5 C 277.452,465.47 293.452,465.803 309.5,465.5C 294.005,466.661 278.339,466.828 262.5,466C 261.944,465.617 261.611,465.117 261.5,464.5 Z"/></g>
<g><path style="opacity:1" fill="#060101" d="M 262.5,449.5 C 278.847,449.167 295.18,449.501 311.5,450.5C 314.952,453.359 316.119,457.026 315,461.5C 313.549,463.464 311.716,464.797 309.5,465.5C 293.452,465.803 277.452,465.47 261.5,464.5C 257.382,459.293 257.715,454.293 262.5,449.5 Z"/></g>
<g><path style="opacity:1" fill="#a1502d" d="M 31.5,418.5 C 95.5009,418.333 159.501,418.5 223.5,419C 222.167,419.667 222.167,420.333 223.5,421C 194.167,421.167 164.833,421.333 135.5,421.5C 105.106,421.477 74.7722,420.81 44.5,419.5C 40.5761,419.701 40.5761,420.201 44.5,421C 43.5,423.333 41.8333,425 39.5,426C 40.448,426.483 41.448,426.649 42.5,426.5C 42.5,427.833 42.5,429.167 42.5,430.5C 41.8333,430.5 41.1667,430.5 40.5,430.5C 37.6872,430.452 35.0205,429.785 32.5,428.5C 31.269,427.349 31.269,426.183 32.5,425C 31.9535,424.075 31.2868,423.242 30.5,422.5C 29.5008,436.15 29.1675,449.817 29.5,463.5C 32.8736,463.874 36.5403,464.207 40.5,464.5C 40.5,463.5 40.5,462.5 40.5,461.5C 45.5058,461.862 52.8392,462.029 62.5,462C 63.6621,462.827 64.8288,463.66 66,464.5C 70.7946,463.746 75.628,463.246 80.5,463C 81.5,462.167 82.5,461.333 83.5,460.5C 82.675,459.614 81.675,459.281 80.5,459.5C 80.3367,457.143 80.5034,454.81 81,452.5C 82.0495,453.517 83.2161,453.684 84.5,453C 84.1667,452.667 83.8333,452.333 83.5,452C 85.724,449.851 87.224,450.351 88,453.5C 90.6443,450.891 92.811,447.891 94.5,444.5C 95.6667,444.167 96.8333,443.833 98,443.5C 101.195,444.178 104.362,445.012 107.5,446C 104.198,446.661 101.198,447.828 98.5,449.5C 97.612,452.054 97.2786,454.721 97.5,457.5C 96.0091,460.924 96.3424,464.257 98.5,467.5C 97.675,468.386 96.675,468.719 95.5,468.5C 95.5,467.5 95.5,466.5 95.5,465.5C 72.0664,465.457 48.733,465.457 25.5,465.5C 24.8333,465.167 24.1667,464.833 23.5,464.5C 25.8811,455.264 25.8811,445.931 23.5,436.5C 23.8333,434.5 24.1667,432.5 24.5,430.5C 23.3112,429.571 21.9778,429.238 20.5,429.5C 21.4391,446.306 21.7724,462.973 21.5,479.5C 23.1667,478.5 24.5,477.167 25.5,475.5C 23.9789,473.714 23.6456,471.881 24.5,470C 66.0296,469.351 107.363,469.851 148.5,471.5C 151.465,470.727 154.465,470.061 157.5,469.5C 175.008,469.857 192.675,469.857 210.5,469.5C 245.365,471.247 280.032,471.914 314.5,471.5C 320.361,470.389 326.194,469.389 332,468.5C 346.407,469.895 360.907,470.562 375.5,470.5C 383.9,470.484 392.066,469.817 400,468.5C 404.127,470.147 408.46,471.147 413,471.5C 420.411,470.253 427.911,469.586 435.5,469.5C 442.167,469.667 448.833,469.833 455.5,470C 456.833,471 456.833,472 455.5,473C 440.654,473.242 425.82,473.742 411,474.5C 294.051,473.906 177.718,473.572 62,473.5C 50.8333,473.667 39.6667,473.833 28.5,474C 27.6634,475.011 27.33,476.178 27.5,477.5C 173.06,477.17 318.393,477.17 463.5,477.5C 463.5,478.5 463.5,479.5 463.5,480.5C 315.5,480.5 167.5,480.5 19.5,480.5C 17.5115,460.194 16.8449,439.527 17.5,418.5C 22.1667,418.5 26.8333,418.5 31.5,418.5 Z"/></g>
<g><path style="opacity:1" fill="#975236" d="M 461.5,424.5 C 462.167,427.167 463.833,428.833 466.5,429.5C 466.5,446.833 466.5,464.167 466.5,481.5C 317.332,481.833 168.332,481.5 19.5,480.5C 167.5,480.5 315.5,480.5 463.5,480.5C 463.5,479.5 463.5,478.5 463.5,477.5C 463.608,464.19 463.275,450.856 462.5,437.5C 461.5,437.5 460.5,437.5 459.5,437.5C 459.5,435.5 459.5,433.5 459.5,431.5C 460.675,431.719 461.675,431.386 462.5,430.5C 457.243,426.528 451.576,423.028 445.5,420C 438.174,419.5 430.841,419.334 423.5,419.5C 436.974,414.469 449.641,416.136 461.5,424.5 Z"/></g>
<g><path style="opacity:1" fill="#82513a" d="M 235.5,418.5 C 167.36,417.175 99.3604,417.175 31.5,418.5C 26.8333,418.5 22.1667,418.5 17.5,418.5C 16.8449,439.527 17.5115,460.194 19.5,480.5C 168.332,481.5 317.332,481.833 466.5,481.5C 316.668,482.5 166.668,482.833 16.5,482.5C 15.5026,460.673 15.1693,438.673 15.5,416.5C 88.1674,416.333 160.834,416.5 233.5,417C 234.416,417.278 235.082,417.778 235.5,418.5 Z"/></g>
</svg>
