<?xml version="1.0" standalone="no"?>
<!DOCTYPE svg PUBLIC "-//W3C//DTD SVG 20010904//EN"
 "http://www.w3.org/TR/2001/REC-SVG-20010904/DTD/svg10.dtd">
<svg version="1.0" xmlns="http://www.w3.org/2000/svg"
 width="500.000000pt" height="500.000000pt" viewBox="0 0 500.000000 500.000000"
 preserveAspectRatio="xMidYMid meet">

<g transform="translate(0.000000,500.000000) scale(0.100000,-0.100000)"
fill="#000000" stroke="none">
<path d="M3446 4975 c-52 -18 -105 -63 -139 -116 -47 -73 -417 -710 -448 -770
-24 -47 -29 -69 -29 -128 0 -86 15 -125 72 -187 52 -57 109 -84 197 -92 l66
-7 3 -112 c1 -64 -1 -113 -6 -113 -6 0 -40 11 -76 25 -273 103 -630 127 -939
64 -117 -23 -286 -79 -369 -120 -32 -16 -60 -29 -62 -29 -6 0 -70 109 -262
445 -82 143 -165 278 -186 301 -21 23 -66 56 -100 75 -55 29 -74 34 -153 37
-124 5 -184 -18 -269 -102 -48 -48 -88 -108 -190 -286 -438 -760 -511 -890
-529 -935 -66 -171 36 -384 221 -459 31 -12 82 -20 150 -24 96 -4 102 -6 102
-26 0 -11 1 -509 3 -1106 2 -822 6 -1094 15 -1121 20 -59 65 -112 123 -144
l54 -30 300 0 c331 0 335 1 409 65 66 58 79 97 84 245 2 72 5 136 7 142 3 8
34 -6 87 -39 175 -109 398 -193 623 -235 153 -28 461 -25 615 5 205 42 402
116 589 224 46 26 87 48 91 48 5 0 10 -62 12 -137 3 -117 7 -144 25 -178 27
-51 67 -91 118 -119 38 -20 52 -21 340 -21 l300 0 57 28 c60 29 103 77 124
136 9 24 14 101 15 226 1 105 4 260 8 345 l6 155 106 5 c93 5 114 10 171 38
80 39 139 101 180 189 26 54 31 79 31 137 0 103 -4 112 -269 571 -61 105 -179
311 -264 458 -213 369 -225 380 -465 423 -12 2 -34 26 -52 58 l-33 54 0 415 0
416 58 6 c131 15 212 67 261 167 27 56 32 157 11 209 -26 64 -214 380 -231
390 -10 5 -37 6 -59 3 -32 -5 -44 -13 -51 -32 -5 -14 -12 -22 -16 -19 -3 4 2
19 12 34 12 18 14 28 6 31 -6 2 -9 8 -5 13 3 5 -2 9 -10 9 -9 0 -16 5 -16 10
0 6 5 10 11 10 5 0 7 5 4 10 -4 6 -11 8 -16 4 -5 -3 -8 0 -7 8 2 7 -5 12 -14
12 -10 -1 -15 3 -12 8 6 10 -46 5 -64 -6 -5 -3 -9 2 -9 10 0 11 11 14 47 11
43 -4 48 -2 68 27 12 18 22 40 22 50 0 27 -133 246 -172 283 -70 68 -188 92
-282 58z m87 -142 c-7 -2 -19 -2 -25 0 -7 3 -2 5 12 5 14 0 19 -2 13 -5z m42
-3 c3 -5 14 -10 24 -10 22 0 46 -26 33 -34 -6 -3 -12 1 -16 9 -3 8 -11 15 -18
14 -10 0 -10 -2 0 -6 6 -2 9 -9 6 -15 -4 -6 0 -15 7 -20 12 -8 11 -9 -1 -5 -8
2 -20 13 -25 24 -6 12 -17 28 -24 37 -8 10 -9 16 -3 16 6 0 14 -4 17 -10z
m-75 -19 c0 -5 -9 -7 -20 -4 -11 3 -20 7 -20 9 0 2 9 4 20 4 11 0 20 -4 20 -9z
m-15 -29 c-3 -3 -11 0 -18 7 -9 10 -8 11 6 5 10 -3 15 -9 12 -12z m-35 -2 c0
-5 -4 -10 -9 -10 -5 0 -13 -9 -16 -21 -4 -11 -9 -18 -11 -16 -7 7 18 57 28 57
4 0 8 -4 8 -10z m269 -113 c22 -40 32 -61 21 -48 -11 13 -20 18 -20 11 0 -7
-9 -3 -20 10 -11 13 -20 27 -20 33 0 5 9 -1 20 -14 25 -30 26 -19 2 21 -10 16
-22 27 -26 23 -4 -4 -4 0 0 10 3 9 2 17 -4 17 -5 0 -13 7 -16 16 -15 38 23
-10 63 -79z m-59 41 c0 -5 -7 -3 -15 6 -8 8 -15 18 -15 22 0 3 7 1 15 -6 8 -7
15 -17 15 -22z m-232 -33 c-2 -12 -7 -7 -15 16 -12 30 -11 32 3 17 9 -8 14
-23 12 -33z m-35 21 c3 -8 -6 -24 -19 -37 -19 -18 -23 -19 -18 -6 3 9 10 17
15 17 5 0 9 9 9 20 0 23 6 26 13 6z m1 -61 c-10 -8 -23 -14 -29 -14 -5 -1 1 8
15 19 14 10 27 17 29 14 3 -2 -4 -11 -15 -19z m36 -9 c0 -3 -4 -8 -10 -11 -5
-3 -10 -1 -10 4 0 6 5 11 10 11 6 0 10 -2 10 -4z m-89 -33 c-12 -20 -14 -14
-5 12 4 9 9 14 11 11 3 -2 0 -13 -6 -23z m434 -13 c8 -13 -5 -13 -25 0 -13 8
-13 10 2 10 9 0 20 -4 23 -10z m-422 -37 c-3 -7 -6 -13 -8 -13 -2 0 -5 6 -8
13 -3 8 1 14 8 14 7 0 11 -6 8 -14z m518 -180 c8 -9 9 -14 2 -10 -6 4 -14 1
-16 -5 -3 -7 -6 -3 -6 10 -1 26 2 27 20 5z m6 -45 c-3 -8 -6 -5 -6 6 -1 11 2
17 5 13 3 -3 4 -12 1 -19z m42 -27 c0 -14 -1 -14 -6 -1 -3 8 -10 24 -15 35 -9
20 -9 20 6 1 9 -11 16 -27 15 -35z m60 -94 c-1 -18 -2 -19 -6 -4 -4 15 -7 16
-19 6 -12 -10 -17 -10 -27 0 -9 10 -8 11 5 6 12 -5 20 -1 24 9 8 22 24 10 23
-17z m26 -27 c3 -5 1 -10 -4 -10 -6 0 -11 5 -11 10 0 6 2 10 4 10 3 0 8 -4 11
-10z m29 -49 c3 -4 -4 -17 -17 -27 -22 -19 -22 -19 -4 2 9 11 14 24 10 27 -3
4 -4 7 0 7 3 0 8 -4 11 -9z m-860 -17 c5 -14 4 -15 -9 -4 -17 14 -19 20 -6 20
5 0 12 -7 15 -16z m-2101 -10 c32 -11 60 -31 89 -64 36 -39 408 -672 415 -705
2 -5 -17 -23 -42 -38 -264 -167 -517 -486 -636 -803 -104 -275 -141 -551 -109
-814 27 -218 162 -604 231 -662 44 -37 119 -8 119 46 0 12 -22 70 -49 127
-273 581 -186 1233 228 1716 175 204 436 376 698 462 372 122 782 98 1130 -64
259 -121 466 -291 628 -516 59 -81 59 -82 38 -98 -12 -9 -38 -29 -58 -45 -20
-16 -50 -48 -65 -72 l-28 -44 -58 87 c-120 182 -339 371 -538 464 -399 186
-878 162 -1247 -62 -521 -317 -763 -932 -594 -1514 67 -233 216 -466 397 -623
236 -206 503 -313 814 -329 339 -16 655 88 907 299 61 51 74 58 113 58 l44 0
0 -119 0 -120 -42 -34 c-170 -138 -442 -260 -678 -304 -133 -24 -428 -24 -560
1 -210 39 -444 138 -621 261 -46 32 -139 113 -206 179 -67 66 -129 124 -139
129 -25 14 -82 -16 -90 -48 -11 -43 3 -67 96 -165 l90 -95 0 -170 c0 -153 -2
-173 -20 -203 -37 -60 -64 -65 -346 -60 -239 4 -253 6 -282 27 -19 13 -35 36
-42 59 -6 24 -10 419 -10 1154 0 797 -3 1124 -11 1141 -17 38 -50 47 -172 47
-136 0 -176 10 -228 57 -68 62 -95 136 -78 213 5 25 46 108 91 185 45 77 93
160 106 185 14 25 65 113 113 195 223 383 264 455 301 525 46 86 71 115 113
137 68 36 119 41 188 17z m2980 -7 c3 -8 -1 -14 -9 -14 -15 0 -18 9 -7 20 9 9
10 9 16 -6z m38 -69 c17 -32 21 -76 8 -101 -20 -39 -61 -76 -77 -70 -10 4 -13
2 -8 -5 4 -7 2 -12 -3 -12 -6 0 -11 7 -11 15 0 9 9 15 24 15 26 0 58 40 61 75
1 11 5 29 9 40 8 20 7 20 -8 1 -17 -21 -22 -11 -7 13 6 9 6 22 0 33 -5 10 -7
18 -5 18 3 0 11 -10 17 -22z m-824 -144 c-3 -3 -12 -4 -19 -1 -8 3 -5 6 6 6
11 1 17 -2 13 -5z m770 0 c-3 -3 -12 -4 -19 -1 -8 3 -5 6 6 6 11 1 17 -2 13
-5z m-779 -15 c14 0 13 -2 -3 -10 -17 -8 -16 -9 7 -6 15 2 25 0 22 -5 -3 -4 2
-11 11 -15 10 -3 21 0 26 8 7 12 9 12 9 0 0 -8 7 -19 16 -26 15 -11 15 -12 0
-12 -9 0 -16 3 -16 7 0 4 -6 7 -12 8 -25 1 -93 30 -90 37 2 4 -2 12 -10 17 -9
7 -8 8 5 4 10 -3 26 -6 35 -7z m542 1 c8 -5 11 -10 5 -10 -5 0 -17 5 -25 10
-8 5 -10 10 -5 10 6 0 17 -5 25 -10z m150 0 c0 -5 -2 -10 -4 -10 -3 0 -8 5
-11 10 -3 6 -1 10 4 10 6 0 11 -4 11 -10z m-140 -38 c-8 -2 -23 -14 -32 -26
-19 -24 -33 -17 -23 13 4 13 11 18 22 14 10 -4 14 -2 10 4 -5 7 1 9 15 5 16
-4 18 -7 8 -10z m158 11 c-10 -2 -26 -2 -35 0 -10 3 -2 5 17 5 19 0 27 -2 18
-5z m-626 -57 c3 2 8 -1 11 -8 3 -8 -2 -14 -14 -14 -10 0 -20 9 -23 19 -3 14
-1 16 8 8 7 -6 15 -8 18 -5z m88 -87 c0 -5 -4 -9 -10 -9 -5 0 -10 7 -10 16 0
8 5 12 10 9 6 -3 10 -10 10 -16z m5 -309 c-3 -5 -1 -10 5 -10 6 0 8 -5 4 -11
-4 -7 -10 -7 -16 -1 -9 9 -3 32 8 32 3 0 2 -4 -1 -10z m55 -25 c-7 -8 -17 -15
-22 -15 -6 0 -5 7 2 15 7 8 17 15 22 15 6 0 5 -7 -2 -15z m-39 -20 c19 -8 28
-14 20 -15 -11 0 -9 -5 5 -22 18 -21 18 -22 0 -8 -10 8 -27 19 -39 25 -11 5
-22 16 -25 23 -5 15 -2 15 39 -3z m64 5 c-3 -5 -12 -10 -18 -10 -7 0 -6 4 3
10 19 12 23 12 15 0z m0 -42 c-1 -13 3 -27 9 -31 7 -6 6 -7 -4 -4 -8 2 -15 8
-15 13 0 5 -4 14 -8 21 -4 6 -1 14 5 16 7 3 13 6 14 6 0 1 0 -9 -1 -21z m65
-33 c19 -23 8 -25 -14 -4 -11 11 -15 19 -9 19 6 0 16 -7 23 -15z m-4 -43 c-6
-5 -36 23 -36 34 0 4 9 -1 20 -11 11 -10 18 -20 16 -23z m51 -22 c-1 -12 -5
-16 -10 -11 -5 5 -6 14 -3 20 11 16 15 13 13 -9z m38 -1 c-5 -16 -4 -19 5 -14
8 5 11 4 6 -3 -6 -10 -36 -6 -36 4 0 6 23 33 28 34 2 0 0 -10 -3 -21z m87 -66
c-5 -24 -6 -25 -12 -8 -6 16 2 33 16 35 1 0 -1 -12 -4 -27z m-33 -19 c6 4 11
0 11 -9 0 -13 -4 -14 -20 -5 -11 6 -20 16 -20 23 0 8 3 8 9 -2 5 -7 14 -10 20
-7z m32 -51 c13 -16 12 -17 -3 -4 -17 13 -22 21 -14 21 2 0 10 -8 17 -17z
m-974 -49 c95 -22 217 -65 236 -84 5 -4 -1 -26 -13 -50 -27 -53 -23 -97 11
-122 39 -29 75 -15 112 43 l30 49 29 -18 c46 -26 204 -178 255 -245 l46 -60
-24 -18 c-76 -57 -79 -60 -79 -94 0 -24 7 -39 26 -54 34 -27 49 -26 103 4 32
19 47 23 55 15 12 -12 16 -5 -126 -250 -330 -571 -399 -695 -414 -740 -23 -69
-16 -197 14 -264 30 -68 84 -131 139 -163 l46 -27 -29 -23 c-16 -12 -32 -23
-36 -23 -3 0 -16 16 -28 35 -32 52 -48 65 -81 65 -65 0 -88 -68 -46 -141 26
-47 28 -45 -93 -90 -94 -35 -297 -76 -323 -66 -14 5 -17 22 -17 112 0 117 -13
145 -68 145 -57 0 -66 -17 -73 -139 -3 -61 -8 -113 -11 -117 -9 -8 -145 14
-236 37 -65 17 -202 72 -202 81 0 2 11 25 25 52 36 71 14 126 -52 126 -36 0
-63 -21 -88 -69 -8 -17 -18 -31 -21 -31 -25 0 -213 176 -281 264 -49 62 -49
60 8 91 38 20 52 42 51 76 -1 36 -17 57 -51 70 -19 8 -35 4 -74 -16 -27 -15
-53 -23 -58 -18 -30 31 -100 273 -113 391 l-4 42 103 0 c88 0 106 3 129 21 20
16 26 29 26 59 0 59 -23 70 -147 70 -56 0 -104 3 -106 8 -7 11 20 179 39 242
9 30 29 88 46 128 l30 73 43 -26 c24 -14 55 -25 69 -25 36 0 66 33 66 73 0 39
-12 56 -62 86 -45 27 -46 27 49 136 65 76 212 205 233 205 5 0 21 -18 35 -40
14 -23 37 -46 50 -52 35 -16 81 6 94 45 10 26 7 38 -15 80 -14 27 -24 50 -22
52 48 41 307 115 403 115 40 0 45 -13 45 -132 0 -82 2 -88 26 -107 15 -12 34
-21 44 -21 10 0 29 9 44 21 25 20 26 24 26 128 0 59 3 111 6 114 10 9 85 -2
201 -29z m1343 -468 c61 -40 30 10 563 -916 78 -134 147 -260 154 -280 29 -82
9 -165 -57 -230 -58 -59 -98 -70 -251 -70 -129 -1 -145 -5 -167 -47 -9 -15
-12 -130 -12 -393 0 -317 -2 -375 -16 -401 -27 -54 -57 -59 -329 -59 -274 0
-300 5 -335 62 -19 32 -20 50 -20 411 l0 378 -25 24 c-23 24 -30 25 -148 25
-142 0 -193 13 -246 63 -46 44 -71 101 -71 165 0 69 5 79 161 348 73 126 200
346 282 489 82 143 169 292 193 332 63 102 122 136 227 129 41 -3 70 -12 97
-30z"/>
<path d="M3427 3329 c7 -7 15 -10 18 -7 3 3 -2 9 -12 12 -14 6 -15 5 -6 -5z"/>
<path d="M2410 2490 c-25 -12 -58 -33 -73 -48 -53 -50 -61 -78 -67 -212 l-5
-125 -210 -5 c-233 -6 -241 -8 -309 -77 -95 -98 -79 -260 34 -342 23 -16 64
-34 91 -40 65 -14 612 -14 676 0 69 15 122 55 155 118 l28 53 0 259 c0 280 -2
295 -55 357 -61 73 -181 101 -265 62z"/>
</g>
</svg>
