<?xml version="1.0" standalone="no"?>
<!DOCTYPE svg PUBLIC "-//W3C//DTD SVG 20010904//EN" "http://www.w3.org/TR/2001/REC-SVG-20010904/DTD/svg10.dtd">
<svg version="1.0" xmlns="http://www.w3.org/2000/svg" width="500.000000pt" height="500.000000pt"
    viewBox="0 0 500.000000 500.000000" preserveAspectRatio="xMidYMid meet">

    <g transform="translate(0.000000,500.000000) scale(0.100000,-0.100000)" fill="#000000" stroke="none">
        <path d="M3155 4978 c-31 -18 -44 -40 -45 -75 0 -48 35 -83 100 -97 29 -7 55
-17 57 -22 2 -6 -173 -104 -389 -219 -519 -275 -1259 -669 -1533 -815 -121
-65 -330 -176 -465 -248 -547 -289 -816 -435 -839 -455 -35 -33 -43 -63 -27
-102 26 -62 82 -71 167 -26 30 15 176 92 324 171 149 78 394 209 545 290 151
81 493 263 760 405 267 142 609 324 760 405 151 81 349 187 440 235 91 48 213
114 272 146 59 33 113 59 121 59 13 0 12 -11 -3 -81 -21 -93 -14 -138 25 -159
54 -29 112 -8 134 48 17 45 81 346 81 384 0 61 -34 80 -230 127 -178 43 -222
48 -255 29z" />
        <path d="M2370 3906 c-98 -21 -149 -44 -165 -77 -33 -63 -48 -171 -49 -344 0
-188 13 -262 74 -409 136 -325 459 -591 786 -646 88 -14 283 -18 387 -7 l77 9
0 -411 c0 -226 -3 -411 -7 -411 -5 1 -19 7 -33 15 -66 38 -140 0 -140 -71 0
-33 10 -46 90 -129 l90 -91 -2 -570 -3 -569 -115 -5 c-88 -4 -123 -9 -143 -23
-53 -34 -47 -104 12 -144 l34 -23 818 0 c742 0 822 2 853 17 64 30 78 99 29
145 l-25 23 -636 5 -637 5 -3 193 -2 193 99 96 c127 121 144 164 90 221 -35
38 -123 23 -152 -25 -4 -7 -15 -13 -22 -13 -13 0 -15 70 -15 498 l0 497 105
105 c112 111 129 143 101 185 -42 63 -99 68 -162 13 -25 -23 -35 -27 -39 -16
-3 8 -4 75 -3 149 l3 134 60 -5 c33 -3 128 -4 210 -4 127 1 165 5 249 28 303
79 573 306 707 591 102 217 128 475 73 716 -22 98 -46 121 -150 145 -63 15
-117 19 -264 18 -172 0 -192 -2 -275 -27 -188 -57 -375 -174 -509 -318 -66
-71 -141 -178 -173 -244 -9 -19 -19 -35 -22 -35 -3 0 -19 26 -36 58 -133 253
-404 466 -693 544 -100 26 -373 34 -472 14z m363 -191 c15 -6 17 -22 17 -122
0 -91 -3 -113 -12 -105 -36 31 -238 231 -238 236 0 7 211 0 233 -9z m1901 8
c7 -7 -222 -243 -237 -243 -4 0 -6 53 -5 118 l3 117 45 6 c66 9 186 10 194 2z
m-1574 -141 c30 -19 101 -81 157 -138 87 -89 108 -117 151 -202 66 -131 94
-252 90 -382 l-3 -95 -247 249 -248 250 0 188 0 189 22 -12 c12 -7 47 -28 78
-47z m1122 -134 l3 -183 -253 -255 -254 -255 5 125 c10 237 79 396 248 571 72
75 209 179 235 179 10 0 14 -41 16 -182z m-1434 -486 c-117 -1 -217 -1 -224 2
-18 7 -95 143 -121 214 -35 95 -53 199 -53 305 l0 91 305 -304 305 -305 -212
-3z m2046 488 c-7 -95 -26 -195 -50 -255 -27 -67 -86 -185 -94 -185 -4 0 -12
-11 -18 -25 l-12 -25 -219 0 -220 0 301 301 c221 220 303 297 310 287 5 -7 6
-51 2 -98z m-1552 -767 l69 -68 -28 -8 c-70 -20 -285 19 -400 73 -154 72 -156
70 81 70 l208 0 70 -67z m1106 42 c-49 -33 -169 -81 -252 -100 -69 -16 -239
-25 -251 -13 -4 3 24 36 62 72 l68 66 205 0 205 0 -37 -25z" />
        <path d="M1420 2270 c-154 -16 -349 -92 -394 -153 -43 -59 -18 -296 46 -435
48 -104 148 -222 245 -290 54 -38 165 -88 238 -108 126 -34 341 -24 458 21 16
7 17 -15 17 -379 l0 -386 -36 0 c-26 0 -43 -8 -65 -29 -47 -48 -36 -92 46
-171 54 -52 68 -82 60 -122 l-7 -28 -624 0 -624 0 0 175 0 175 68 -6 c188 -17
379 95 469 274 36 73 38 82 38 172 0 110 -18 161 -80 222 -133 131 -359 113
-528 -43 l-62 -56 -62 56 c-103 95 -217 138 -338 129 -231 -19 -342 -250 -232
-482 84 -177 284 -291 474 -271 l63 7 0 -176 0 -176 -252 0 c-231 0 -256 -2
-284 -19 -65 -39 -60 -122 9 -154 32 -16 135 -17 1241 -17 1292 0 1259 -1
1285 48 23 43 9 102 -32 134 -1 1 -76 4 -167 7 l-165 6 -3 259 -2 259 65 68
c54 56 65 73 65 101 0 53 -30 79 -105 90 -19 3 -20 12 -23 158 -1 85 -1 159 2
165 3 8 31 5 93 -11 106 -28 265 -31 361 -9 215 51 404 197 491 377 51 107 81
235 84 353 2 109 -5 122 -104 175 -116 61 -193 82 -327 87 -177 8 -285 -19
-434 -107 -76 -46 -180 -145 -224 -214 -16 -25 -32 -46 -35 -46 -4 0 -15 12
-24 28 -94 146 -226 250 -393 306 -65 22 -105 30 -197 40 -16 2 -59 0 -95 -4z
m200 -205 c160 -46 284 -150 350 -290 15 -33 31 -75 35 -93 6 -31 5 -33 -12
-24 -10 6 -92 54 -183 106 -126 74 -173 96 -201 96 -74 0 -119 -73 -85 -138
12 -23 59 -55 196 -134 99 -56 180 -106 180 -109 0 -14 -83 -29 -157 -29 -284
0 -516 210 -548 497 l-7 59 58 26 c126 57 254 68 374 33z m1295 3 c22 -5 66
-21 98 -35 l57 -26 -6 -51 c-16 -141 -70 -254 -163 -346 -73 -72 -156 -121
-246 -145 -69 -18 -213 -19 -270 -1 l-40 12 175 101 c96 56 183 108 193 115
43 32 35 132 -12 157 -46 25 -84 13 -235 -73 -81 -47 -162 -95 -181 -106 -43
-26 -45 -17 -14 64 69 185 249 324 454 349 40 5 141 -3 190 -15z m-2492 -998
c111 -56 189 -199 154 -282 -8 -18 -23 -41 -34 -51 -103 -91 -344 78 -343 240
1 88 41 126 125 120 28 -2 72 -14 98 -27z m691 19 c35 -16 59 -72 54 -123 -18
-153 -201 -293 -319 -243 -38 15 -69 65 -69 109 0 83 86 203 175 244 54 26
119 31 159 13z" />
        <path d="M2864 180 c-30 -12 -54 -49 -54 -81 0 -32 34 -77 67 -90 30 -11 87
11 102 39 40 75 -38 165 -115 132z" />
    </g>
</svg>