<?xml version="1.0" encoding="UTF-8"?>
<!DOCTYPE svg PUBLIC "-//W3C//DTD SVG 1.1//EN" "http://www.w3.org/Graphics/SVG/1.1/DTD/svg11.dtd">
<svg xmlns="http://www.w3.org/2000/svg" version="1.1" width="521px" height="479px" style="shape-rendering:geometricPrecision; text-rendering:geometricPrecision; image-rendering:optimizeQuality; fill-rule:evenodd; clip-rule:evenodd" xmlns:xlink="http://www.w3.org/1999/xlink">
<g><path style="opacity:0.995" fill="#090606" d="M 202.5,-0.5 C 213.833,-0.5 225.167,-0.5 236.5,-0.5C 241.825,1.27821 247.158,3.27821 252.5,5.5C 253.183,7.17649 254.517,7.84316 256.5,7.5C 256.973,8.90632 257.973,9.57298 259.5,9.5C 261.153,9.6596 262.486,10.3263 263.5,11.5C 264.035,13.4456 265.368,14.4456 267.5,14.5C 267.833,14.5 268.167,14.5 268.5,14.5C 268.694,16.9118 270.027,17.9118 272.5,17.5C 273.5,18.1667 274.5,18.8333 275.5,19.5C 275.738,21.4044 276.738,22.7377 278.5,23.5C 278.833,23.5 279.167,23.5 279.5,23.5C 280.167,26.1667 281.833,27.8333 284.5,28.5C 284.833,29.5 285.5,30.1667 286.5,30.5C 286.738,32.4044 287.738,33.7377 289.5,34.5C 291.262,35.2623 292.262,36.5956 292.5,38.5C 292.427,40.0269 293.094,41.0269 294.5,41.5C 294.427,43.0269 295.094,44.0269 296.5,44.5C 297.89,45.8993 298.89,47.5659 299.5,49.5C 299.427,51.0269 300.094,52.0269 301.5,52.5C 303.065,54.5093 304.065,56.8427 304.5,59.5C 304.229,61.3797 304.896,62.713 306.5,63.5C 306.054,66.0101 306.72,68.0101 308.5,69.5C 309.451,70.9187 309.784,72.5853 309.5,74.5C 308.966,79.3604 309.966,83.6937 312.5,87.5C 313.934,93.7747 314.6,100.275 314.5,107C 314.499,111.015 314.165,114.849 313.5,118.5C 311.969,125.673 310.636,133.007 309.5,140.5C 308.322,143.372 306.655,146.038 304.5,148.5C 304.987,149.446 305.32,150.446 305.5,151.5C 304.008,153.972 303.342,156.639 303.5,159.5C 303.5,160.167 303.5,160.833 303.5,161.5C 301.896,162.287 301.229,163.62 301.5,165.5C 301.5,165.833 301.5,166.167 301.5,166.5C 299.75,167.659 298.75,169.326 298.5,171.5C 298.672,172.492 298.338,173.158 297.5,173.5C 293.758,175.689 292.092,179.022 292.5,183.5C 292.5,184.167 292.167,184.5 291.5,184.5C 290.448,184.351 289.448,184.517 288.5,185C 288.833,185.333 289.167,185.667 289.5,186C 287.808,187.401 287.141,189.234 287.5,191.5C 286.529,193.483 285.529,195.483 284.5,197.5C 283.167,197.5 282.5,198.167 282.5,199.5C 281.206,200.29 280.039,201.29 279,202.5C 278.667,202.167 278.333,201.833 278,201.5C 277.506,203.134 277.34,204.801 277.5,206.5C 271.299,214.909 264.633,222.909 257.5,230.5C 256.167,230.5 254.833,230.5 253.5,230.5C 253.5,231.5 253.5,232.5 253.5,233.5C 247.863,240.804 241.53,247.471 234.5,253.5C 232.5,253.5 231.5,254.5 231.5,256.5C 228.859,258.804 226.192,261.138 223.5,263.5C 221.876,263.64 220.71,262.973 220,261.5C 219.506,263.134 219.34,264.801 219.5,266.5C 218.5,268.167 217.167,269.5 215.5,270.5C 213.5,270.5 212.5,271.5 212.5,273.5C 207.001,278.017 201.334,278.35 195.5,274.5C 194.089,272.086 192.089,270.419 189.5,269.5C 188.5,267.833 187.167,266.5 185.5,265.5C 181.833,263.833 179.167,261.167 177.5,257.5C 176.738,255.738 175.404,254.738 173.5,254.5C 173.5,254.167 173.5,253.833 173.5,253.5C 171.854,250.19 169.52,247.523 166.5,245.5C 165.588,243.405 164.421,241.405 163,239.5C 162.329,238.748 161.496,238.414 160.5,238.5C 159.075,237.078 158.075,235.411 157.5,233.5C 157.13,230.733 155.796,228.733 153.5,227.5C 152.094,227.027 151.427,226.027 151.5,224.5C 151.446,222.368 150.446,221.035 148.5,220.5C 147.559,218.95 146.893,217.284 146.5,215.5C 146.039,213.45 145.372,211.45 144.5,209.5C 145.263,207.273 144.263,205.94 141.5,205.5C 140.326,204.486 139.66,203.153 139.5,201.5C 139.573,199.973 138.906,198.973 137.5,198.5C 136.042,195.673 135.042,192.673 134.5,189.5C 134.482,186.264 133.482,183.597 131.5,181.5C 131.238,176.112 129.905,171.112 127.5,166.5C 127.435,163.572 126.768,160.905 125.5,158.5C 120.229,133.92 120.229,109.253 125.5,84.5C 127.308,83.0821 127.975,81.0821 127.5,78.5C 128.409,75.703 130.076,73.3697 132.5,71.5C 132.154,70.3044 131.654,70.3044 131,71.5C 130.51,70.2068 130.343,68.8734 130.5,67.5C 133.126,65.2364 134.459,62.2364 134.5,58.5C 136.491,52.5106 139.491,47.1773 143.5,42.5C 145.822,41.1979 147.155,39.1979 147.5,36.5C 149.117,33.2157 151.45,30.5491 154.5,28.5C 156.167,27.5 157.5,26.1667 158.5,24.5C 163.132,21.2022 167.466,17.5355 171.5,13.5C 173.027,13.573 174.027,12.9063 174.5,11.5C 176.38,11.7709 177.713,11.1042 178.5,9.5C 180.027,9.57298 181.027,8.90632 181.5,7.5C 186.703,6.99058 191.37,5.32391 195.5,2.5C 198.228,2.82943 200.562,2.16276 202.5,0.5C 202.5,0.166667 202.5,-0.166667 202.5,-0.5 Z"/></g>
<g><path style="opacity:0.306" fill="#837f81" d="M 202.5,0.5 C 200.562,2.16276 198.228,2.82943 195.5,2.5C 197.515,1.07619 199.848,0.409526 202.5,0.5 Z"/></g>
<g><path style="opacity:0.514" fill="#666165" d="M 195.5,2.5 C 191.37,5.32391 186.703,6.99058 181.5,7.5C 185.885,5.31948 190.552,3.65282 195.5,2.5 Z"/></g>
<g><path style="opacity:0.169" fill="#9b9395" d="M 252.5,5.5 C 254.153,5.6596 255.486,6.32627 256.5,7.5C 254.517,7.84316 253.183,7.17649 252.5,5.5 Z"/></g>
<g><path style="opacity:0.114" fill="#aaaaaa" d="M 181.5,7.5 C 181.027,8.90632 180.027,9.57298 178.5,9.5C 178.973,8.09368 179.973,7.42702 181.5,7.5 Z"/></g>
<g><path style="opacity:0.039" fill="#aaaaaa" d="M 256.5,7.5 C 258.027,7.42702 259.027,8.09368 259.5,9.5C 257.973,9.57298 256.973,8.90632 256.5,7.5 Z"/></g>
<g><path style="opacity:0.047" fill="#9d9c9d" d="M 178.5,9.5 C 177.713,11.1042 176.38,11.7709 174.5,11.5C 175.514,10.3263 176.847,9.6596 178.5,9.5 Z"/></g>
<g><path style="opacity:0.09" fill="#aba3a3" d="M 174.5,11.5 C 174.027,12.9063 173.027,13.573 171.5,13.5C 171.973,12.0937 172.973,11.427 174.5,11.5 Z"/></g>
<g><path style="opacity:0.11" fill="#807f7f" d="M 263.5,11.5 C 265.404,11.7376 266.738,12.7376 267.5,14.5C 265.368,14.4456 264.035,13.4456 263.5,11.5 Z"/></g>
<g><path style="opacity:0.055" fill="#878687" d="M 268.5,14.5 C 269.872,15.5116 271.205,16.5116 272.5,17.5C 270.027,17.9118 268.694,16.9118 268.5,14.5 Z"/></g>
<g><path style="opacity:0.102" fill="#a3a3a3" d="M 275.5,19.5 C 277.262,20.2623 278.262,21.5956 278.5,23.5C 276.738,22.7377 275.738,21.4044 275.5,19.5 Z"/></g>
<g><path style="opacity:0.282" fill="#5f5c5e" d="M 171.5,13.5 C 167.466,17.5355 163.132,21.2022 158.5,24.5C 161.948,19.7131 166.281,16.0464 171.5,13.5 Z"/></g>
<g><path style="opacity:1" fill="#aa9370" d="M 237.5,25.5 C 224.786,22.7238 212.12,23.0572 199.5,26.5C 191.695,29.9584 184.361,34.2918 177.5,39.5C 174.323,43.0299 170.989,46.5299 167.5,50C 168,50.5 168.5,51 169,51.5C 172.199,49.117 175.699,47.4503 179.5,46.5C 169.569,53.2634 161.069,61.5967 154,71.5C 163.562,45.6083 181.728,29.1083 208.5,22C 214.5,21.3333 220.5,21.3333 226.5,22C 230.491,22.4985 234.158,23.6652 237.5,25.5 Z"/></g>
<g><path style="opacity:1" fill="#c6a16b" d="M 237.5,25.5 C 238.167,25.5 238.833,25.5 239.5,25.5C 239.414,26.4959 239.748,27.3292 240.5,28C 244.199,30.4295 248.199,32.2628 252.5,33.5C 254.886,36.4703 257.886,38.637 261.5,40C 264.297,43.1344 267.131,46.301 270,49.5C 270.383,48.944 270.883,48.6107 271.5,48.5C 272.172,51.6437 273.172,54.6437 274.5,57.5C 273.448,57.6495 272.448,57.4828 271.5,57C 268.786,54.6228 266.453,51.9561 264.5,49C 258.856,45.3671 253.189,41.7004 247.5,38C 243.152,37.5355 238.819,37.0355 234.5,36.5C 233.833,36.5 233.167,36.5 232.5,36.5C 230.438,35.2237 228.104,34.3903 225.5,34C 214.948,32.8266 204.615,33.8266 194.5,37C 192.574,37.4224 191.574,38.5891 191.5,40.5C 187.5,42.5 183.5,44.5 179.5,46.5C 175.699,47.4503 172.199,49.117 169,51.5C 168.5,51 168,50.5 167.5,50C 170.989,46.5299 174.323,43.0299 177.5,39.5C 184.361,34.2918 191.695,29.9584 199.5,26.5C 212.12,23.0572 224.786,22.7238 237.5,25.5 Z"/></g>
<g><path style="opacity:0.149" fill="#a0a0a0" d="M 279.5,23.5 C 281.5,24.8333 283.167,26.5 284.5,28.5C 281.833,27.8333 280.167,26.1667 279.5,23.5 Z"/></g>
<g><path style="opacity:0.114" fill="#a6a0a0" d="M 158.5,24.5 C 157.5,26.1667 156.167,27.5 154.5,28.5C 154.833,26.1667 156.167,24.8333 158.5,24.5 Z"/></g>
<g><path style="opacity:1" fill="#af9876" d="M 239.5,25.5 C 252.258,30.2163 262.924,37.883 271.5,48.5C 270.883,48.6107 270.383,48.944 270,49.5C 267.131,46.301 264.297,43.1344 261.5,40C 257.886,38.637 254.886,36.4703 252.5,33.5C 248.199,32.2628 244.199,30.4295 240.5,28C 239.748,27.3292 239.414,26.4959 239.5,25.5 Z"/></g>
<g><path style="opacity:0.102" fill="#afa9ac" d="M 286.5,30.5 C 288.262,31.2623 289.262,32.5956 289.5,34.5C 287.738,33.7377 286.738,32.4044 286.5,30.5 Z"/></g>
<g><path style="opacity:1" fill="#a78e70" d="M 232.5,36.5 C 218.408,34.1383 204.742,35.4716 191.5,40.5C 191.574,38.5891 192.574,37.4224 194.5,37C 204.615,33.8266 214.948,32.8266 225.5,34C 228.104,34.3903 230.438,35.2237 232.5,36.5 Z"/></g>
<g><path style="opacity:0.09" fill="#989797" d="M 147.5,36.5 C 147.155,39.1979 145.822,41.1979 143.5,42.5C 144.34,40.1475 145.674,38.1475 147.5,36.5 Z"/></g>
<g><path style="opacity:0.075" fill="#8a8888" d="M 292.5,38.5 C 293.906,38.9731 294.573,39.9731 294.5,41.5C 293.094,41.0269 292.427,40.0269 292.5,38.5 Z"/></g>
<g><path style="opacity:0.094" fill="#848383" d="M 294.5,41.5 C 295.906,41.9731 296.573,42.9731 296.5,44.5C 295.094,44.0269 294.427,43.0269 294.5,41.5 Z"/></g>
<g><path style="opacity:1" fill="#ab9470" d="M 249.5,55.5 C 245.505,56.1173 242.172,54.9506 239.5,52C 229.174,48.209 218.508,46.709 207.5,47.5C 222.58,44.0995 236.58,46.7661 249.5,55.5 Z"/></g>
<g><path style="opacity:0.039" fill="#ad9fa1" d="M 299.5,49.5 C 300.906,49.9731 301.573,50.9731 301.5,52.5C 300.094,52.0269 299.427,51.0269 299.5,49.5 Z"/></g>
<g><path style="opacity:1" fill="#c6a16b" d="M 207.5,47.5 C 218.508,46.709 229.174,48.209 239.5,52C 242.172,54.9506 245.505,56.1173 249.5,55.5C 250.684,57.8471 252.351,59.8471 254.5,61.5C 255.452,63.0453 255.785,64.712 255.5,66.5C 256.552,66.3505 257.552,66.5172 258.5,67C 258.167,67.3333 257.833,67.6667 257.5,68C 259.061,68.3176 260.228,69.1509 261,70.5C 261.333,70.1667 261.667,69.8333 262,69.5C 262.71,70.9733 263.876,71.6399 265.5,71.5C 266.641,75.4009 267.474,79.4009 268,83.5C 268.465,84.9308 269.299,86.0975 270.5,87C 269.424,88.7261 269.257,90.5594 270,92.5C 271.673,90.0834 273.506,90.0834 275.5,92.5C 280.618,108.825 281.951,125.491 279.5,142.5C 274.743,162.275 266.243,180.275 254,196.5C 238.685,215.649 221.518,232.982 202.5,248.5C 180.668,223.516 164.502,195.182 154,163.5C 152.251,156.924 151.084,150.257 150.5,143.5C 149.319,125.932 151.486,108.932 157,92.5C 158.524,89.7644 160.691,87.7644 163.5,86.5C 164.667,83.5 165.833,80.5 167,77.5C 170.61,74.2169 173.943,70.5502 177,66.5C 178,67.5 179,68.5 180,69.5C 181.194,67.3766 181.86,65.0432 182,62.5C 185.046,61.0347 187.879,59.2013 190.5,57C 191.337,55.9887 191.67,54.8221 191.5,53.5C 196.21,50.1481 201.543,48.1481 207.5,47.5 Z"/></g>
<g><path style="opacity:1" fill="#b09672" d="M 234.5,36.5 C 238.819,37.0355 243.152,37.5355 247.5,38C 253.189,41.7004 258.856,45.3671 264.5,49C 266.453,51.9561 268.786,54.6228 271.5,57C 272.448,57.4828 273.448,57.6495 274.5,57.5C 273.172,54.6437 272.172,51.6437 271.5,48.5C 282.863,60.9027 289.03,75.5694 290,92.5C 281.291,63.9579 262.791,45.2913 234.5,36.5 Z"/></g>
<g><path style="opacity:0.047" fill="#a5989b" d="M 304.5,59.5 C 305.674,60.5137 306.34,61.847 306.5,63.5C 304.896,62.713 304.229,61.3797 304.5,59.5 Z"/></g>
<g><path style="opacity:0.212" fill="#666263" d="M 134.5,58.5 C 134.459,62.2364 133.126,65.2364 130.5,67.5C 131.075,64.0884 132.408,61.0884 134.5,58.5 Z"/></g>
<g><path style="opacity:0.349" fill="#767273" d="M 306.5,63.5 C 307.738,65.2143 308.405,67.2143 308.5,69.5C 306.72,68.0101 306.054,66.0101 306.5,63.5 Z"/></g>
<g><path style="opacity:1" fill="#b39770" d="M 191.5,53.5 C 191.67,54.8221 191.337,55.9887 190.5,57C 187.879,59.2013 185.046,61.0347 182,62.5C 181.86,65.0432 181.194,67.3766 180,69.5C 179,68.5 178,67.5 177,66.5C 173.943,70.5502 170.61,74.2169 167,77.5C 165.833,80.5 164.667,83.5 163.5,86.5C 160.691,87.7644 158.524,89.7644 157,92.5C 151.486,108.932 149.319,125.932 150.5,143.5C 144.66,108.857 155.327,80.3567 182.5,58C 185.243,55.9617 188.243,54.4617 191.5,53.5 Z"/></g>
<g><path style="opacity:0.969" fill="#413f3f" d="M 130.5,67.5 C 130.343,68.8734 130.51,70.2068 131,71.5C 131.654,70.3044 132.154,70.3044 132.5,71.5C 130.076,73.3697 128.409,75.703 127.5,78.5C 128.267,74.6731 129.267,71.0064 130.5,67.5 Z"/></g>
<g><path style="opacity:0.769" fill="#413d3e" d="M 309.5,74.5 C 311.26,78.5465 312.26,82.8799 312.5,87.5C 309.966,83.6937 308.966,79.3604 309.5,74.5 Z"/></g>
<g><path style="opacity:0.286" fill="#595858" d="M 127.5,78.5 C 127.975,81.0821 127.308,83.0821 125.5,84.5C 125.595,82.2143 126.262,80.2143 127.5,78.5 Z"/></g>
<g><path style="opacity:1" fill="#ba9d71" d="M 249.5,55.5 C 266.034,66.238 276.368,81.238 280.5,100.5C 282.729,111.427 283.063,122.427 281.5,133.5C 281.785,136.829 281.118,139.829 279.5,142.5C 281.951,125.491 280.618,108.825 275.5,92.5C 273.506,90.0834 271.673,90.0834 270,92.5C 269.257,90.5594 269.424,88.7261 270.5,87C 269.299,86.0975 268.465,84.9308 268,83.5C 267.474,79.4009 266.641,75.4009 265.5,71.5C 263.876,71.6399 262.71,70.9733 262,69.5C 261.667,69.8333 261.333,70.1667 261,70.5C 260.228,69.1509 259.061,68.3176 257.5,68C 257.833,67.6667 258.167,67.3333 258.5,67C 257.552,66.5172 256.552,66.3505 255.5,66.5C 255.785,64.712 255.452,63.0453 254.5,61.5C 252.351,59.8471 250.684,57.8471 249.5,55.5 Z"/></g>
<g><path style="opacity:1" fill="#473622" d="M 280.5,100.5 C 281.776,102.562 282.61,104.896 283,107.5C 283.167,111.167 283.333,114.833 283.5,118.5C 283.713,123.767 283.046,128.767 281.5,133.5C 283.063,122.427 282.729,111.427 280.5,100.5 Z"/></g>
<g><path style="opacity:0.041" fill="#757275" d="M 313.5,118.5 C 313.443,126.187 312.11,133.521 309.5,140.5C 310.636,133.007 311.969,125.673 313.5,118.5 Z"/></g>
<g><path style="opacity:0.949" fill="#3f3b3e" d="M 309.5,140.5 C 309.082,147.417 307.082,153.75 303.5,159.5C 303.342,156.639 304.008,153.972 305.5,151.5C 305.32,150.446 304.987,149.446 304.5,148.5C 306.655,146.038 308.322,143.372 309.5,140.5 Z"/></g>
<g><path style="opacity:0.082" fill="#8d8c8d" d="M 303.5,161.5 C 303.34,163.153 302.674,164.486 301.5,165.5C 301.229,163.62 301.896,162.287 303.5,161.5 Z"/></g>
<g><path style="opacity:0.024" fill="#a9a2a3" d="M 125.5,158.5 C 126.768,160.905 127.435,163.572 127.5,166.5C 125.96,164.162 125.294,161.495 125.5,158.5 Z"/></g>
<g><path style="opacity:0.055" fill="#9b9a9b" d="M 301.5,166.5 C 301.25,168.674 300.25,170.341 298.5,171.5C 298.75,169.326 299.75,167.659 301.5,166.5 Z"/></g>
<g><path style="opacity:0.182" fill="#746f71" d="M 127.5,166.5 C 129.905,171.112 131.238,176.112 131.5,181.5C 129.674,176.739 128.341,171.739 127.5,166.5 Z"/></g>
<g><path style="opacity:0.871" fill="#423c42" d="M 297.5,173.5 C 296.873,177.42 295.207,180.753 292.5,183.5C 292.092,179.022 293.758,175.689 297.5,173.5 Z"/></g>
<g><path style="opacity:0.865" fill="#413c41" d="M 291.5,184.5 C 290.921,187.331 289.588,189.664 287.5,191.5C 287.141,189.234 287.808,187.401 289.5,186C 289.167,185.667 288.833,185.333 288.5,185C 289.448,184.517 290.448,184.351 291.5,184.5 Z"/></g>
<g><path style="opacity:0.075" fill="#827778" d="M 131.5,181.5 C 133.482,183.597 134.482,186.264 134.5,189.5C 132.733,187.208 131.733,184.542 131.5,181.5 Z"/></g>
<g><path style="opacity:0.424" fill="#6c696b" d="M 451.5,192.5 C 435.558,190.805 419.558,190.138 403.5,190.5C 410.006,189.719 416.673,189.052 423.5,188.5C 430.147,189.215 436.813,189.715 443.5,190C 446.379,190.546 449.046,191.379 451.5,192.5 Z"/></g>
<g><path style="opacity:0.994" fill="#080606" d="M 403.5,190.5 C 419.558,190.138 435.558,190.805 451.5,192.5C 456.801,195.269 462.468,197.269 468.5,198.5C 470.153,198.66 471.486,199.326 472.5,200.5C 475.008,202.924 478.008,204.59 481.5,205.5C 485.603,207.216 488.936,209.883 491.5,213.5C 492.539,215.531 494.205,216.864 496.5,217.5C 496.427,219.027 497.094,220.027 498.5,220.5C 499.167,221.833 500.167,222.833 501.5,223.5C 502.488,224.795 503.488,226.128 504.5,227.5C 504.738,229.404 505.738,230.738 507.5,231.5C 508.674,232.514 509.34,233.847 509.5,235.5C 509.427,237.027 510.094,238.027 511.5,238.5C 511.031,241.393 512.031,243.393 514.5,244.5C 515.167,246.833 515.833,249.167 516.5,251.5C 516.41,254.152 517.076,256.485 518.5,258.5C 519.167,260.167 519.833,261.833 520.5,263.5C 520.5,271.833 520.5,280.167 520.5,288.5C 518.675,295.452 516.675,302.452 514.5,309.5C 511.846,311.834 510.512,314.834 510.5,318.5C 509.579,322.299 507.912,325.632 505.5,328.5C 504.094,328.973 503.427,329.973 503.5,331.5C 502.334,334.503 500.667,337.17 498.5,339.5C 496.801,339.34 495.134,339.506 493.5,340C 494.863,342.129 494.529,342.629 492.5,341.5C 491.534,343.396 491.201,345.396 491.5,347.5C 484.859,354.143 477.525,359.81 469.5,364.5C 468.167,364.5 466.833,364.5 465.5,364.5C 465.5,365.5 465.5,366.5 465.5,367.5C 463.287,368.773 460.954,369.773 458.5,370.5C 451.893,372.025 445.56,373.859 439.5,376C 440.598,376.77 440.598,377.603 439.5,378.5C 438.791,379.404 437.791,379.737 436.5,379.5C 433.171,379.215 430.171,379.882 427.5,381.5C 408.139,386.759 388.472,387.759 368.5,384.5C 368.082,383.778 367.416,383.278 366.5,383C 363.183,382.502 359.85,382.335 356.5,382.5C 351.087,381.75 345.754,380.75 340.5,379.5C 338.155,376.925 335.155,375.925 331.5,376.5C 321.785,374.64 312.452,371.64 303.5,367.5C 302.365,365.787 300.698,365.12 298.5,365.5C 293.084,363.695 287.751,361.695 282.5,359.5C 281.713,357.896 280.38,357.229 278.5,357.5C 275.743,356.488 273.076,355.488 270.5,354.5C 269.713,352.896 268.38,352.229 266.5,352.5C 264.046,351.773 261.713,350.773 259.5,349.5C 255.017,345.528 253.017,340.528 253.5,334.5C 255.118,331.829 255.785,328.829 255.5,325.5C 256.931,324.22 257.598,322.553 257.5,320.5C 257.402,318.447 258.069,316.78 259.5,315.5C 260.727,312.286 262.394,309.286 264.5,306.5C 265.156,304.547 265.489,302.547 265.5,300.5C 266.659,296.849 268.326,293.515 270.5,290.5C 271.906,290.027 272.573,289.027 272.5,287.5C 272.5,287.167 272.5,286.833 272.5,286.5C 273.906,286.027 274.573,285.027 274.5,283.5C 275.906,283.027 276.573,282.027 276.5,280.5C 277.906,280.027 278.573,279.027 278.5,277.5C 278.328,276.508 278.662,275.842 279.5,275.5C 280.906,275.027 281.573,274.027 281.5,272.5C 283.262,271.738 284.262,270.404 284.5,268.5C 285.906,268.027 286.573,267.027 286.5,265.5C 288.587,264.415 289.92,262.749 290.5,260.5C 291.419,257.911 293.086,255.911 295.5,254.5C 296.906,254.027 297.573,253.027 297.5,251.5C 298.239,251.631 298.906,251.464 299.5,251C 303.75,245.927 308.084,241.094 312.5,236.5C 315.135,235.527 317.135,233.86 318.5,231.5C 321.089,230.581 323.089,228.914 324.5,226.5C 326.027,226.573 327.027,225.906 327.5,224.5C 329.749,223.92 331.415,222.587 332.5,220.5C 332.833,220.5 333.167,220.5 333.5,220.5C 335.749,219.92 337.415,218.587 338.5,216.5C 345.075,215.55 350.408,212.55 354.5,207.5C 356.027,207.573 357.027,206.906 357.5,205.5C 360.407,203.195 363.741,201.862 367.5,201.5C 375.28,199.798 382.613,197.131 389.5,193.5C 393.889,191.754 398.556,190.754 403.5,190.5 Z"/></g>
<g><path style="opacity:0.035" fill="#8b8187" d="M 451.5,192.5 C 456.894,193.692 462.227,195.192 467.5,197C 468.056,197.383 468.389,197.883 468.5,198.5C 462.468,197.269 456.801,195.269 451.5,192.5 Z"/></g>
<g><path style="opacity:0.016" fill="#b9b9b9" d="M 284.5,197.5 C 284.167,198.5 283.5,199.167 282.5,199.5C 282.5,198.167 283.167,197.5 284.5,197.5 Z"/></g>
<g><path style="opacity:0.384" fill="#6a6469" d="M 389.5,193.5 C 382.613,197.131 375.28,199.798 367.5,201.5C 374.211,197.482 381.545,194.815 389.5,193.5 Z"/></g>
<g><path style="opacity:0.043" fill="#b1afb1" d="M 137.5,198.5 C 138.906,198.973 139.573,199.973 139.5,201.5C 138.094,201.027 137.427,200.027 137.5,198.5 Z"/></g>
<g><path style="opacity:0.88" fill="#6e6d6d" d="M 282.5,199.5 C 281.214,202.117 279.547,204.45 277.5,206.5C 277.34,204.801 277.506,203.134 278,201.5C 278.333,201.833 278.667,202.167 279,202.5C 280.039,201.29 281.206,200.29 282.5,199.5 Z"/></g>
<g><path style="opacity:0.173" fill="#949292" d="M 472.5,200.5 C 475.992,201.41 478.992,203.076 481.5,205.5C 478.008,204.59 475.008,202.924 472.5,200.5 Z"/></g>
<g><path style="opacity:0.204" fill="#878487" d="M 357.5,205.5 C 357.027,206.906 356.027,207.573 354.5,207.5C 354.973,206.094 355.973,205.427 357.5,205.5 Z"/></g>
<g><path style="opacity:0.184" fill="#625b60" d="M 141.5,205.5 C 144.263,205.94 145.263,207.273 144.5,209.5C 145.372,211.45 146.039,213.45 146.5,215.5C 143.793,212.753 142.127,209.42 141.5,205.5 Z"/></g>
<g><path style="opacity:0.855" fill="#4d4949" d="M 354.5,207.5 C 350.408,212.55 345.075,215.55 338.5,216.5C 343.21,212.476 348.543,209.476 354.5,207.5 Z"/></g>
<g><path style="opacity:1" fill="#9d8b70" d="M 451.5,216.5 C 445.95,215.418 440.283,214.418 434.5,213.5C 432.197,213.876 431.863,214.876 433.5,216.5C 427.29,214.826 420.956,213.659 414.5,213C 414.167,212.667 413.833,212.333 413.5,212C 426.632,210.726 439.299,212.226 451.5,216.5 Z"/></g>
<g><path style="opacity:0.467" fill="#777476" d="M 491.5,213.5 C 493.754,214.124 495.421,215.457 496.5,217.5C 494.205,216.864 492.539,215.531 491.5,213.5 Z"/></g>
<g><path style="opacity:0.427" fill="#5b5355" d="M 338.5,216.5 C 337.415,218.587 335.749,219.92 333.5,220.5C 334.585,218.413 336.251,217.08 338.5,216.5 Z"/></g>
<g><path style="opacity:1" fill="#ba9c73" d="M 451.5,216.5 C 463.12,220.308 473.12,226.642 481.5,235.5C 476.306,232.489 470.973,229.656 465.5,227C 462.455,222.979 458.455,220.812 453.5,220.5C 453.5,221.5 453.5,222.5 453.5,223.5C 458.955,224.944 462.955,228.277 465.5,233.5C 467.422,234.711 469.255,236.044 471,237.5C 472.569,241.072 474.902,244.072 478,246.5C 479.411,248.65 480.245,250.984 480.5,253.5C 469.254,235.692 453.587,223.358 433.5,216.5C 431.863,214.876 432.197,213.876 434.5,213.5C 440.283,214.418 445.95,215.418 451.5,216.5 Z"/></g>
<g><path style="opacity:0.075" fill="#8a8a8a" d="M 496.5,217.5 C 497.906,217.973 498.573,218.973 498.5,220.5C 497.094,220.027 496.427,219.027 496.5,217.5 Z"/></g>
<g><path style="opacity:0.004" fill="#c3c3c3" d="M 498.5,220.5 C 500.5,220.5 501.5,221.5 501.5,223.5C 500.167,222.833 499.167,221.833 498.5,220.5 Z"/></g>
<g><path style="opacity:0.004" fill="#bebdbd" d="M 148.5,220.5 C 150.446,221.035 151.446,222.368 151.5,224.5C 150.026,223.564 149.026,222.23 148.5,220.5 Z"/></g>
<g><path style="opacity:0.325" fill="#726f70" d="M 332.5,220.5 C 331.415,222.587 329.749,223.92 327.5,224.5C 328.585,222.413 330.251,221.08 332.5,220.5 Z"/></g>
<g><path style="opacity:1" fill="#8d755b" d="M 417.5,224.5 C 407.482,224.41 397.482,224.743 387.5,225.5C 393.26,224 399.26,223.333 405.5,223.5C 409.681,223.501 413.681,223.834 417.5,224.5 Z"/></g>
<g><path style="opacity:0.161" fill="#838080" d="M 327.5,224.5 C 327.027,225.906 326.027,226.573 324.5,226.5C 324.973,225.094 325.973,224.427 327.5,224.5 Z"/></g>
<g><path style="opacity:0.482" fill="#706a6b" d="M 153.5,227.5 C 155.796,228.733 157.13,230.733 157.5,233.5C 155.684,231.882 154.351,229.882 153.5,227.5 Z"/></g>
<g><path style="opacity:0.176" fill="#a2a0a2" d="M 504.5,227.5 C 506.262,228.262 507.262,229.596 507.5,231.5C 505.738,230.738 504.738,229.404 504.5,227.5 Z"/></g>
<g><path style="opacity:0.227" fill="#746f72" d="M 324.5,226.5 C 323.089,228.914 321.089,230.581 318.5,231.5C 319.911,229.086 321.911,227.419 324.5,226.5 Z"/></g>
<g><path style="opacity:0.561" fill="#565456" d="M 257.5,230.5 C 256.564,231.974 255.23,232.974 253.5,233.5C 253.5,232.5 253.5,231.5 253.5,230.5C 254.833,230.5 256.167,230.5 257.5,230.5 Z"/></g>
<g><path style="opacity:0.196" fill="#737071" d="M 318.5,231.5 C 317.135,233.86 315.135,235.527 312.5,236.5C 313.911,234.086 315.911,232.419 318.5,231.5 Z"/></g>
<g><path style="opacity:1" fill="#c6a16b" d="M 417.5,224.5 C 445.737,229.232 465.237,244.899 476,271.5C 480.574,289.458 477.408,305.791 466.5,320.5C 465.883,320.389 465.383,320.056 465,319.5C 460.412,322.582 456.245,326.249 452.5,330.5C 451.833,331.833 451.167,333.167 450.5,334.5C 445.482,336.88 440.815,339.713 436.5,343C 425.326,345.447 414.66,348.947 404.5,353.5C 381.38,356.495 358.38,355.995 335.5,352C 328.451,348.459 321.118,346.126 313.5,345C 308.823,342.994 304.157,340.994 299.5,339C 298.5,338 297.5,337 296.5,336C 291.679,335.271 287.012,334.105 282.5,332.5C 282.38,330.801 282.046,329.135 281.5,327.5C 283.026,324.346 283.693,321.013 283.5,317.5C 284.922,317.291 286.255,316.791 287.5,316C 288.573,313.343 290.24,311.177 292.5,309.5C 294.14,302.691 297.64,297.025 303,292.5C 303.081,289.19 304.581,286.857 307.5,285.5C 308.409,281.347 310.576,278.014 314,275.5C 314.608,273.846 315.108,272.179 315.5,270.5C 320.936,267.897 325.269,264.064 328.5,259C 329.5,258.667 330.5,258.333 331.5,258C 334.881,254.676 337.881,251.176 340.5,247.5C 354.291,236.338 369.958,229.005 387.5,225.5C 397.482,224.743 407.482,224.41 417.5,224.5 Z"/></g>
<g><path style="opacity:0.047" fill="#9a9898" d="M 509.5,235.5 C 510.906,235.973 511.573,236.973 511.5,238.5C 510.094,238.027 509.427,237.027 509.5,235.5 Z"/></g>
<g><path style="opacity:0.153" fill="#a5a4a6" d="M 160.5,238.5 C 161.496,238.414 162.329,238.748 163,239.5C 164.421,241.405 165.588,243.405 166.5,245.5C 163.8,243.766 161.8,241.432 160.5,238.5 Z"/></g>
<g><path style="opacity:0.286" fill="#5e5a5a" d="M 312.5,236.5 C 308.084,241.094 303.75,245.927 299.5,251C 298.906,251.464 298.239,251.631 297.5,251.5C 301.842,245.79 306.842,240.79 312.5,236.5 Z"/></g>
<g><path style="opacity:0.412" fill="#6a6868" d="M 511.5,238.5 C 513.008,240.181 514.008,242.181 514.5,244.5C 512.031,243.393 511.031,241.393 511.5,238.5 Z"/></g>
<g><path style="opacity:0.994" fill="#090707" d="M 74.5,245.5 C 81.8409,245.334 89.1742,245.5 96.5,246C 103.47,247.161 110.47,247.995 117.5,248.5C 118.791,248.263 119.791,248.596 120.5,249.5C 126.43,252.961 132.764,255.627 139.5,257.5C 143.647,258.738 147.314,260.738 150.5,263.5C 150.525,266.179 151.858,267.512 154.5,267.5C 162.067,272.396 168.734,278.396 174.5,285.5C 174.427,287.027 175.094,288.027 176.5,288.5C 179.2,290.234 181.2,292.568 182.5,295.5C 182.738,297.404 183.738,298.738 185.5,299.5C 186.925,300.922 187.925,302.589 188.5,304.5C 188.427,306.027 189.094,307.027 190.5,307.5C 191.674,308.514 192.34,309.847 192.5,311.5C 192.241,313.989 193.241,315.656 195.5,316.5C 199.581,323.337 202.581,330.67 204.5,338.5C 204.01,342.951 205.344,346.617 208.5,349.5C 208.025,352.082 208.692,354.082 210.5,355.5C 215.397,373.825 217.897,392.492 218,411.5C 218.667,430.5 218.667,449.5 218,468.5C 217.303,470.584 216.136,472.251 214.5,473.5C 213.417,473.461 212.417,473.127 211.5,472.5C 210.304,472.846 210.304,473.346 211.5,474C 208.428,474.578 205.761,475.745 203.5,477.5C 203.5,477.833 203.5,478.167 203.5,478.5C 188.5,478.5 173.5,478.5 158.5,478.5C 158.5,477.833 158.167,477.5 157.5,477.5C 152.052,475.98 146.386,474.98 140.5,474.5C 127.413,473.023 115.079,469.357 103.5,463.5C 102.486,462.326 101.153,461.66 99.5,461.5C 95.8733,460.679 92.54,459.346 89.5,457.5C 89.0269,456.094 88.0269,455.427 86.5,455.5C 80.6495,453.293 75.3162,450.293 70.5,446.5C 70.0269,445.094 69.0269,444.427 67.5,444.5C 64.9528,443.066 62.6195,441.4 60.5,439.5C 59.7298,437.065 58.0632,435.731 55.5,435.5C 54.0892,433.086 52.0892,431.419 49.5,430.5C 48.8333,430.5 48.5,430.167 48.5,429.5C 47.0892,427.086 45.0892,425.419 42.5,424.5C 42.5,424.167 42.5,423.833 42.5,423.5C 41.0892,421.086 39.0892,419.419 36.5,418.5C 36.1667,417.833 35.8333,417.167 35.5,416.5C 34.7377,414.738 33.4044,413.738 31.5,413.5C 28.8154,410.81 26.4821,407.81 24.5,404.5C 24.7593,402.011 23.7593,400.344 21.5,399.5C 16.2829,393.604 12.2829,386.938 9.5,379.5C 9.44836,376.654 8.44836,374.32 6.5,372.5C 3.76527,365.296 1.43194,357.962 -0.5,350.5C -0.5,338.833 -0.5,327.167 -0.5,315.5C 0.166667,315.5 0.5,315.167 0.5,314.5C 2.16276,312.562 2.82943,310.228 2.5,307.5C 3.90246,301.849 5.90246,296.516 8.5,291.5C 9.90632,291.027 10.573,290.027 10.5,288.5C 11.0787,285.669 12.412,283.336 14.5,281.5C 16.5311,280.461 17.8645,278.795 18.5,276.5C 18.5,276.167 18.5,275.833 18.5,275.5C 23.5,272.5 27.5,268.5 30.5,263.5C 34.3424,259.982 38.6758,257.315 43.5,255.5C 49.7639,253.696 55.7639,251.362 61.5,248.5C 64.1522,248.59 66.4855,247.924 68.5,246.5C 70.2646,245.539 72.2646,245.205 74.5,245.5 Z"/></g>
<g><path style="opacity:0.371" fill="#807b7d" d="M 74.5,245.5 C 84.3247,244.342 94.3247,244.175 104.5,245C 109.157,245.412 113.491,246.579 117.5,248.5C 110.47,247.995 103.47,247.161 96.5,246C 89.1742,245.5 81.8409,245.334 74.5,245.5 Z"/></g>
<g><path style="opacity:0.294" fill="#7a7577" d="M 68.5,246.5 C 66.4855,247.924 64.1522,248.59 61.5,248.5C 63.4385,246.837 65.7718,246.171 68.5,246.5 Z"/></g>
<g><path style="opacity:0.102" fill="#9b999a" d="M 166.5,245.5 C 169.52,247.523 171.854,250.19 173.5,253.5C 170.45,251.451 168.117,248.784 166.5,245.5 Z"/></g>
<g><path style="opacity:0.118" fill="#827d7f" d="M 120.5,249.5 C 127.467,250.821 133.8,253.488 139.5,257.5C 132.764,255.627 126.43,252.961 120.5,249.5 Z"/></g>
<g><path style="opacity:0.102" fill="#979797" d="M 297.5,251.5 C 297.573,253.027 296.906,254.027 295.5,254.5C 295.427,252.973 296.094,251.973 297.5,251.5 Z"/></g>
<g><path style="opacity:0.537" fill="#615d60" d="M 61.5,248.5 C 55.7639,251.362 49.7639,253.696 43.5,255.5C 48.7887,251.621 54.7887,249.287 61.5,248.5 Z"/></g>
<g><path style="opacity:0.078" fill="#bfb7bb" d="M 173.5,254.5 C 175.404,254.738 176.738,255.738 177.5,257.5C 175.596,257.262 174.262,256.262 173.5,254.5 Z"/></g>
<g><path style="opacity:0.016" fill="#bbb9cf" d="M 234.5,253.5 C 233.833,254.833 232.833,255.833 231.5,256.5C 231.5,254.5 232.5,253.5 234.5,253.5 Z"/></g>
<g><path style="opacity:0.02" fill="#918e8e" d="M 516.5,251.5 C 517.924,253.515 518.59,255.848 518.5,258.5C 517.076,256.485 516.41,254.152 516.5,251.5 Z"/></g>
<g><path style="opacity:0.963" fill="#5c525c" d="M 223.5,263.5 C 222.738,265.262 221.404,266.262 219.5,266.5C 219.34,264.801 219.506,263.134 220,261.5C 220.71,262.973 221.876,263.64 223.5,263.5 Z"/></g>
<g><path style="opacity:0.235" fill="#7a7979" d="M 290.5,260.5 C 289.92,262.749 288.587,264.415 286.5,265.5C 287.08,263.251 288.413,261.585 290.5,260.5 Z"/></g>
<g><path style="opacity:1" fill="#1b0f07" d="M 442.5,255.5 C 448.643,256.026 449.976,258.86 446.5,264C 444.888,264.72 443.388,264.554 442,263.5C 441.398,260.779 441.565,258.113 442.5,255.5 Z"/></g>
<g><path style="opacity:1" fill="#c5a16c" d="M 481.5,235.5 C 486.645,239.782 490.312,245.115 492.5,251.5C 493.271,258.067 494.271,264.567 495.5,271C 494.668,277.829 493.835,284.662 493,291.5C 492.052,285.569 491.385,279.569 491,273.5C 487.906,268.235 485.573,262.569 484,256.5C 483.241,254.937 482.074,253.937 480.5,253.5C 480.245,250.984 479.411,248.65 478,246.5C 474.902,244.072 472.569,241.072 471,237.5C 469.255,236.044 467.422,234.711 465.5,233.5C 462.955,228.277 458.955,224.944 453.5,223.5C 453.5,222.5 453.5,221.5 453.5,220.5C 458.455,220.812 462.455,222.979 465.5,227C 470.973,229.656 476.306,232.489 481.5,235.5 Z"/></g>
<g><path style="opacity:0.686" fill="#636163" d="M 150.5,263.5 C 152.341,264.402 153.674,265.736 154.5,267.5C 151.858,267.512 150.525,266.179 150.5,263.5 Z"/></g>
<g><path style="opacity:0.004" fill="#cac7c7" d="M 185.5,265.5 C 187.167,266.5 188.5,267.833 189.5,269.5C 187.167,269.167 185.833,267.833 185.5,265.5 Z"/></g>
<g><path style="opacity:0.082" fill="#908a8a" d="M 286.5,265.5 C 286.573,267.027 285.906,268.027 284.5,268.5C 284.427,266.973 285.094,265.973 286.5,265.5 Z"/></g>
<g><path style="opacity:1" fill="#b29a76" d="M 340.5,247.5 C 337.881,251.176 334.881,254.676 331.5,258C 330.5,258.333 329.5,258.667 328.5,259C 325.269,264.064 320.936,267.897 315.5,270.5C 322.907,261.757 331.24,254.09 340.5,247.5 Z"/></g>
<g><path style="opacity:0.224" fill="#6b6767" d="M 30.5,263.5 C 27.5,268.5 23.5,272.5 18.5,275.5C 22.1667,271.167 26.1667,267.167 30.5,263.5 Z"/></g>
<g><path style="opacity:0.114" fill="#939292" d="M 284.5,268.5 C 284.262,270.404 283.262,271.738 281.5,272.5C 281.738,270.596 282.738,269.262 284.5,268.5 Z"/></g>
<g><path style="opacity:0.016" fill="#b2b2b2" d="M 215.5,270.5 C 214.833,271.833 213.833,272.833 212.5,273.5C 212.5,271.5 213.5,270.5 215.5,270.5 Z"/></g>
<g><path style="opacity:0.09" fill="#a39ca0" d="M 189.5,269.5 C 192.089,270.419 194.089,272.086 195.5,274.5C 192.911,273.581 190.911,271.914 189.5,269.5 Z"/></g>
<g><path style="opacity:0.165" fill="#8e7c8b" d="M 281.5,272.5 C 281.573,274.027 280.906,275.027 279.5,275.5C 279.427,273.973 280.094,272.973 281.5,272.5 Z"/></g>
<g><path style="opacity:0.216" fill="#746d6f" d="M 18.5,276.5 C 17.8645,278.795 16.5311,280.461 14.5,281.5C 15.1237,279.246 16.457,277.579 18.5,276.5 Z"/></g>
<g><path style="opacity:0.075" fill="#797979" d="M 278.5,277.5 C 278.573,279.027 277.906,280.027 276.5,280.5C 276.427,278.973 277.094,277.973 278.5,277.5 Z"/></g>
<g><path style="opacity:1" fill="#aa906f" d="M 131.5,287.5 C 120.423,284.209 109.089,282.209 97.5,281.5C 89.8371,280.998 82.8371,282.832 76.5,287C 73.854,287.497 71.1873,287.664 68.5,287.5C 77.3735,281.82 87.2069,279.154 98,279.5C 110.023,279.244 121.19,281.91 131.5,287.5 Z"/></g>
<g><path style="opacity:0.067" fill="#9b767c" d="M 276.5,280.5 C 276.573,282.027 275.906,283.027 274.5,283.5C 274.427,281.973 275.094,280.973 276.5,280.5 Z"/></g>
<g><path style="opacity:1" fill="#b99c73" d="M 27.5,329.5 C 26.5385,333.769 25.3718,338.103 24,342.5C 22.2745,333.868 22.1078,325.201 23.5,316.5C 29.9179,291.1 45.9179,275.267 71.5,269C 79.4524,267.558 87.4524,267.225 95.5,268C 58.0578,272.213 35.3911,292.713 27.5,329.5 Z"/></g>
<g><path style="opacity:0.098" fill="#a4a4a4" d="M 274.5,283.5 C 274.573,285.027 273.906,286.027 272.5,286.5C 272.427,284.973 273.094,283.973 274.5,283.5 Z"/></g>
<g><path style="opacity:1" fill="#bc9e72" d="M 492.5,251.5 C 496.431,259.079 498.098,267.246 497.5,276C 497.944,285.278 496.277,294.112 492.5,302.5C 491.85,302.804 491.183,303.137 490.5,303.5C 489.516,300.572 489.183,297.572 489.5,294.5C 490.42,279.938 487.42,266.272 480.5,253.5C 482.074,253.937 483.241,254.937 484,256.5C 485.573,262.569 487.906,268.235 491,273.5C 491.385,279.569 492.052,285.569 493,291.5C 493.835,284.662 494.668,277.829 495.5,271C 494.271,264.567 493.271,258.067 492.5,251.5 Z"/></g>
<g><path style="opacity:1" fill="#c6a16b" d="M 131.5,287.5 C 132.492,287.328 133.158,287.662 133.5,288.5C 135.996,291.134 138.996,293.3 142.5,295C 144.833,298 147.167,301 149.5,304C 150.793,304.49 152.127,304.657 153.5,304.5C 154.274,308.272 156.607,310.272 160.5,310.5C 160.032,313.9 161.365,316.233 164.5,317.5C 165.298,319.078 165.798,320.744 166,322.5C 168.667,323.833 170.667,325.833 172,328.5C 174.128,332.217 175.461,336.217 176,340.5C 180.614,345.934 182.948,352.268 183,359.5C 187.192,368.676 189.359,378.343 189.5,388.5C 189.868,390.175 190.868,391.175 192.5,391.5C 192.833,396.833 193.167,402.167 193.5,407.5C 193.816,421.549 193.483,435.549 192.5,449.5C 190.5,449.833 188.5,450.167 186.5,450.5C 178.84,449.902 171.173,449.402 163.5,449C 157.68,447.073 151.68,446.073 145.5,446C 145.833,445.667 146.167,445.333 146.5,445C 143.361,444.246 140.361,443.246 137.5,442C 134.183,441.502 130.85,441.335 127.5,441.5C 127.5,440.167 127.5,438.833 127.5,437.5C 120.43,436.982 113.43,435.982 106.5,434.5C 105.609,433.89 104.609,433.557 103.5,433.5C 103.586,432.504 103.252,431.671 102.5,431C 99.1667,429.333 95.8333,427.667 92.5,426C 89.4287,424.131 86.762,421.797 84.5,419C 81.0378,417.996 77.7044,416.83 74.5,415.5C 63.3345,406.667 54.3345,396.001 47.5,383.5C 44.6884,372.92 42.1884,362.253 40,351.5C 39.1043,340.904 40.1043,330.571 43,320.5C 46.9924,316.526 49.9924,311.859 52,306.5C 53.8082,306.112 55.4748,306.112 57,306.5C 57.4828,305.552 57.6495,304.552 57.5,303.5C 58.675,303.719 59.675,303.386 60.5,302.5C 60.4165,300.264 60.7498,297.93 61.5,295.5C 63.6869,292.605 66.0203,289.938 68.5,287.5C 71.1873,287.664 73.854,287.497 76.5,287C 82.8371,282.832 89.8371,280.998 97.5,281.5C 109.089,282.209 120.423,284.209 131.5,287.5 Z"/></g>
<g><path style="opacity:0.078" fill="#807b7b" d="M 174.5,285.5 C 175.906,285.973 176.573,286.973 176.5,288.5C 175.094,288.027 174.427,287.027 174.5,285.5 Z"/></g>
<g><path style="opacity:1" fill="#1c110b" d="M 460.5,283.5 C 466.488,283.664 467.821,286.164 464.5,291C 462.888,291.72 461.388,291.554 460,290.5C 459.297,288.071 459.463,285.738 460.5,283.5 Z"/></g>
<g><path style="opacity:0.047" fill="#8f8d8d" d="M 272.5,287.5 C 272.573,289.027 271.906,290.027 270.5,290.5C 270.427,288.973 271.094,287.973 272.5,287.5 Z"/></g>
<g><path style="opacity:1" fill="#1b0d04" d="M 429.5,286.5 C 435.158,285.679 436.825,287.846 434.5,293C 429.262,293.594 427.595,291.427 429.5,286.5 Z"/></g>
<g><path style="opacity:0.043" fill="#a29fa1" d="M 10.5,288.5 C 10.573,290.027 9.90632,291.027 8.5,291.5C 8.42702,289.973 9.09368,288.973 10.5,288.5 Z"/></g>
<g><path style="opacity:0.137" fill="#9a9a9a" d="M 182.5,295.5 C 184.262,296.262 185.262,297.596 185.5,299.5C 183.738,298.738 182.738,297.404 182.5,295.5 Z"/></g>
<g><path style="opacity:0.051" fill="#a79ca7" d="M 188.5,304.5 C 189.906,304.973 190.573,305.973 190.5,307.5C 189.094,307.027 188.427,306.027 188.5,304.5 Z"/></g>
<g><path style="opacity:0.816" fill="#4e494a" d="M 265.5,300.5 C 265.489,302.547 265.156,304.547 264.5,306.5C 262.394,309.286 260.727,312.286 259.5,315.5C 260.584,310.1 262.584,305.1 265.5,300.5 Z"/></g>
<g><path style="opacity:1" fill="#a99476" d="M 489.5,294.5 C 489.183,297.572 489.516,300.572 490.5,303.5C 491.183,303.137 491.85,302.804 492.5,302.5C 487.815,315.361 480.481,326.528 470.5,336C 469.833,336.667 469.167,336.667 468.5,336C 479.418,323.995 486.418,310.162 489.5,294.5 Z"/></g>
<g><path style="opacity:0.263" fill="#7f7c7f" d="M 2.5,307.5 C 2.82943,310.228 2.16276,312.562 0.5,314.5C 0.409526,311.848 1.07619,309.515 2.5,307.5 Z"/></g>
<g><path style="opacity:0.702" fill="#515050" d="M 192.5,311.5 C 193.89,312.899 194.89,314.566 195.5,316.5C 193.241,315.656 192.241,313.989 192.5,311.5 Z"/></g>
<g><path style="opacity:0.502" fill="#454242" d="M 514.5,309.5 C 513.941,312.943 512.607,315.943 510.5,318.5C 510.512,314.834 511.846,311.834 514.5,309.5 Z"/></g>
<g><path style="opacity:1" fill="#b69a73" d="M 315.5,270.5 C 315.108,272.179 314.608,273.846 314,275.5C 310.576,278.014 308.409,281.347 307.5,285.5C 304.581,286.857 303.081,289.19 303,292.5C 297.64,297.025 294.14,302.691 292.5,309.5C 290.24,311.177 288.573,313.343 287.5,316C 286.255,316.791 284.922,317.291 283.5,317.5C 292.438,300.612 303.105,284.945 315.5,270.5 Z"/></g>
<g><path style="opacity:1" fill="#b69a73" d="M 133.5,288.5 C 149.666,296.829 162.499,308.829 172,324.5C 183.633,345.365 190.466,367.699 192.5,391.5C 190.868,391.175 189.868,390.175 189.5,388.5C 189.359,378.343 187.192,368.676 183,359.5C 182.948,352.268 180.614,345.934 176,340.5C 175.461,336.217 174.128,332.217 172,328.5C 170.667,325.833 168.667,323.833 166,322.5C 165.798,320.744 165.298,319.078 164.5,317.5C 161.365,316.233 160.032,313.9 160.5,310.5C 156.607,310.272 154.274,308.272 153.5,304.5C 152.127,304.657 150.793,304.49 149.5,304C 147.167,301 144.833,298 142.5,295C 138.996,293.3 135.996,291.134 133.5,288.5 Z"/></g>
<g><path style="opacity:0.031" fill="#b6b3b6" d="M 257.5,320.5 C 257.598,322.553 256.931,324.22 255.5,325.5C 255.402,323.447 256.069,321.78 257.5,320.5 Z"/></g>
<g><path style="opacity:0.267" fill="#817e7e" d="M 255.5,325.5 C 255.785,328.829 255.118,331.829 253.5,334.5C 253.215,331.171 253.882,328.171 255.5,325.5 Z"/></g>
<g><path style="opacity:0.031" fill="#a19191" d="M 505.5,328.5 C 505.573,330.027 504.906,331.027 503.5,331.5C 503.427,329.973 504.094,328.973 505.5,328.5 Z"/></g>
<g><path style="opacity:0.525" fill="#5d5858" d="M 204.5,338.5 C 206.601,341.797 207.935,345.463 208.5,349.5C 205.344,346.617 204.01,342.951 204.5,338.5 Z"/></g>
<g><path style="opacity:0.847" fill="#473f40" d="M 498.5,339.5 C 496.138,342.192 493.804,344.859 491.5,347.5C 491.201,345.396 491.534,343.396 492.5,341.5C 494.529,342.629 494.863,342.129 493.5,340C 495.134,339.506 496.801,339.34 498.5,339.5 Z"/></g>
<g><path style="opacity:1" fill="#a08a6e" d="M 23.5,316.5 C 22.1078,325.201 22.2745,333.868 24,342.5C 25.3718,338.103 26.5385,333.769 27.5,329.5C 26.8345,337.483 26.5012,345.483 26.5,353.5C 26.7845,355.415 26.4511,357.081 25.5,358.5C 21.1382,344.537 20.4716,330.537 23.5,316.5 Z"/></g>
<g><path style="opacity:1" fill="#bd9e72" d="M 101.5,360.5 C 105.07,354.756 109.237,349.422 114,344.5C 116.951,339.064 115.451,336.897 109.5,338C 104.69,344.444 99.5236,350.611 94,356.5C 90.4542,351.906 87.2875,347.073 84.5,342C 86.3208,338.846 88.8208,336.346 92,334.5C 93.5,329.333 91.6667,327.5 86.5,329C 84.6499,331.018 82.6499,332.851 80.5,334.5C 78.4525,332.45 76.7859,330.117 75.5,327.5C 76.1174,327.389 76.6174,327.056 77,326.5C 77.5717,329.707 79.405,331.374 82.5,331.5C 82.4208,330.07 82.7542,328.736 83.5,327.5C 86.8333,326.167 90.1667,326.167 93.5,327.5C 95.5091,330.839 97.5091,334.172 99.5,337.5C 98.7884,339.046 97.6217,340.046 96,340.5C 93.6629,340.101 91.1629,340.101 88.5,340.5C 88.0217,343.278 89.0217,345.278 91.5,346.5C 92.9905,344.874 94.4905,343.208 96,341.5C 96.9234,342.759 97.7568,344.092 98.5,345.5C 101.717,341.092 105.551,337.759 110,335.5C 114.455,334.801 116.955,336.634 117.5,341C 116.771,343.248 115.771,345.415 114.5,347.5C 111.824,350.404 109.324,353.404 107,356.5C 105.27,358.076 103.437,359.41 101.5,360.5 Z"/></g>
<g><path style="opacity:0.133" fill="#918d8e" d="M 253.5,334.5 C 253.017,340.528 255.017,345.528 259.5,349.5C 254.432,347.69 252.099,344.023 252.5,338.5C 252.511,336.955 252.844,335.622 253.5,334.5 Z"/></g>
<g><path style="opacity:1" fill="#b79a72" d="M 68.5,287.5 C 66.0203,289.938 63.6869,292.605 61.5,295.5C 60.7498,297.93 60.4165,300.264 60.5,302.5C 59.675,303.386 58.675,303.719 57.5,303.5C 57.6495,304.552 57.4828,305.552 57,306.5C 55.4748,306.112 53.8082,306.112 52,306.5C 49.9924,311.859 46.9924,316.526 43,320.5C 40.1043,330.571 39.1043,340.904 40,351.5C 42.1884,362.253 44.6884,372.92 47.5,383.5C 35.6144,360.836 34.4478,337.503 44,313.5C 49.3026,302.034 57.4692,293.367 68.5,287.5 Z"/></g>
<g><path style="opacity:1" fill="#ba9d76" d="M 466.5,320.5 C 460.62,328.879 453.287,335.712 444.5,341C 435.064,345.749 425.397,349.583 415.5,352.5C 411.846,352.942 408.179,353.276 404.5,353.5C 414.66,348.947 425.326,345.447 436.5,343C 440.815,339.713 445.482,336.88 450.5,334.5C 451.167,333.167 451.833,331.833 452.5,330.5C 456.245,326.249 460.412,322.582 465,319.5C 465.383,320.056 465.883,320.389 466.5,320.5 Z"/></g>
<g><path style="opacity:0.196" fill="#898587" d="M 208.5,349.5 C 209.738,351.214 210.405,353.214 210.5,355.5C 208.692,354.082 208.025,352.082 208.5,349.5 Z"/></g>
<g><path style="opacity:0.039" fill="#c9bbc5" d="M 266.5,352.5 C 268.38,352.229 269.713,352.896 270.5,354.5C 268.847,354.34 267.514,353.674 266.5,352.5 Z"/></g>
<g><path style="opacity:1" fill="#493726" d="M 415.5,352.5 C 411.117,354.23 406.45,355.23 401.5,355.5C 402.5,354.833 403.5,354.167 404.5,353.5C 408.179,353.276 411.846,352.942 415.5,352.5 Z"/></g>
<g><path style="opacity:1" fill="#0f0805" d="M 75.5,327.5 C 76.7859,330.117 78.4525,332.45 80.5,334.5C 82.6499,332.851 84.6499,331.018 86.5,329C 91.6667,327.5 93.5,329.333 92,334.5C 88.8208,336.346 86.3208,338.846 84.5,342C 87.2875,347.073 90.4542,351.906 94,356.5C 99.5236,350.611 104.69,344.444 109.5,338C 115.451,336.897 116.951,339.064 114,344.5C 109.237,349.422 105.07,354.756 101.5,360.5C 99.5541,361.254 98.7207,362.588 99,364.5C 105,372.5 111,380.5 117,388.5C 118.916,394.389 117.082,396.389 111.5,394.5C 105.975,386.637 100.308,378.804 94.5,371C 93.0039,370.493 91.8373,370.993 91,372.5C 89.2502,374.734 87.7502,377.068 86.5,379.5C 84.385,382.362 81.7183,383.029 78.5,381.5C 77.3691,379.926 77.2025,378.259 78,376.5C 79.3756,375.295 80.5423,373.962 81.5,372.5C 84.3702,369.787 86.7035,366.62 88.5,363C 85.9097,358.075 82.9097,353.408 79.5,349C 78.0039,348.493 76.8373,348.993 76,350.5C 74.204,353.927 72.0373,357.094 69.5,360C 67.8659,360.494 66.1992,360.66 64.5,360.5C 64.4765,355.217 66.1432,350.55 69.5,346.5C 71.1482,344.571 72.8149,342.571 74.5,340.5C 69.0351,332.566 64.3685,324.233 60.5,315.5C 60.8167,312.345 62.4834,311.178 65.5,312C 68.9821,317.146 72.3155,322.313 75.5,327.5 Z"/></g>
<g><path style="opacity:1" fill="#b39873" d="M 283.5,317.5 C 283.693,321.013 283.026,324.346 281.5,327.5C 282.046,329.135 282.38,330.801 282.5,332.5C 287.012,334.105 291.679,335.271 296.5,336C 297.5,337 298.5,338 299.5,339C 304.157,340.994 308.823,342.994 313.5,345C 321.118,346.126 328.451,348.459 335.5,352C 358.38,355.995 381.38,356.495 404.5,353.5C 403.5,354.167 402.5,354.833 401.5,355.5C 365.061,360.647 330.061,355.814 296.5,341C 290.919,338.14 285.252,335.474 279.5,333C 278.424,331.274 278.257,329.441 279,327.5C 280.212,323.882 281.712,320.548 283.5,317.5 Z"/></g>
<g><path style="opacity:0.043" fill="#a6a6a6" d="M 278.5,357.5 C 280.38,357.229 281.713,357.896 282.5,359.5C 280.847,359.34 279.514,358.674 278.5,357.5 Z"/></g>
<g><path style="opacity:1" fill="#58514a" d="M 26.5,353.5 C 28.1522,357.244 28.6522,361.244 28,365.5C 26.7114,363.355 25.8781,361.022 25.5,358.5C 26.4511,357.081 26.7845,355.415 26.5,353.5 Z"/></g>
<g><path style="opacity:0.412" fill="#6c686a" d="M 469.5,364.5 C 468.564,365.974 467.23,366.974 465.5,367.5C 465.5,366.5 465.5,365.5 465.5,364.5C 466.833,364.5 468.167,364.5 469.5,364.5 Z"/></g>
<g><path style="opacity:0.212" fill="#847980" d="M 298.5,365.5 C 300.698,365.12 302.365,365.787 303.5,367.5C 301.597,367.204 299.93,366.537 298.5,365.5 Z"/></g>
<g><path style="opacity:1" fill="#b49874" d="M 69.5,346.5 C 66.1432,350.55 64.4765,355.217 64.5,360.5C 66.1992,360.66 67.8659,360.494 69.5,360C 72.0373,357.094 74.204,353.927 76,350.5C 76.8373,348.993 78.0039,348.493 79.5,349C 82.9097,353.408 85.9097,358.075 88.5,363C 86.7035,366.62 84.3702,369.787 81.5,372.5C 80.962,370.883 80.6287,369.216 80.5,367.5C 83.026,367.313 84.6927,365.98 85.5,363.5C 81.0649,351.761 76.3982,351.595 71.5,363C 68.4124,363.847 65.5791,363.347 63,361.5C 62.5017,358.183 62.335,354.85 62.5,351.5C 65.4701,351.254 66.8034,349.588 66.5,346.5C 67.5,346.5 68.5,346.5 69.5,346.5 Z"/></g>
<g><path style="opacity:0.806" fill="#4e4c4d" d="M 458.5,370.5 C 457.942,371.79 456.942,372.623 455.5,373C 450.241,375.134 444.908,376.967 439.5,378.5C 440.598,377.603 440.598,376.77 439.5,376C 445.56,373.859 451.893,372.025 458.5,370.5 Z"/></g>
<g><path style="opacity:0.455" fill="#706a6d" d="M 331.5,376.5 C 335.155,375.925 338.155,376.925 340.5,379.5C 337.215,379.072 334.215,378.072 331.5,376.5 Z"/></g>
<g><path style="opacity:0.075" fill="#8d888a" d="M 6.5,372.5 C 8.44836,374.32 9.44836,376.654 9.5,379.5C 7.70732,377.574 6.70732,375.241 6.5,372.5 Z"/></g>
<g><path style="opacity:0.082" fill="#6c6869" d="M 436.5,379.5 C 433.727,380.657 430.727,381.324 427.5,381.5C 430.171,379.882 433.171,379.215 436.5,379.5 Z"/></g>
<g><path style="opacity:1" fill="#aa9271" d="M 111.5,394.5 C 110.099,394.029 108.766,393.362 107.5,392.5C 102.741,385.972 98.2405,379.306 94,372.5C 91.61,375.06 89.11,377.394 86.5,379.5C 87.7502,377.068 89.2502,374.734 91,372.5C 91.8373,370.993 93.0039,370.493 94.5,371C 100.308,378.804 105.975,386.637 111.5,394.5 Z"/></g>
<g><path style="opacity:0.442" fill="#6b6768" d="M 356.5,382.5 C 359.85,382.335 363.183,382.502 366.5,383C 367.416,383.278 368.082,383.778 368.5,384.5C 364.267,384.461 360.267,383.795 356.5,382.5 Z"/></g>
<g><path style="opacity:0.192" fill="#685f67" d="M 21.5,399.5 C 23.7593,400.344 24.7593,402.011 24.5,404.5C 23.1103,403.101 22.1103,401.434 21.5,399.5 Z"/></g>
<g><path style="opacity:1" fill="#5e4b34" d="M 192.5,391.5 C 194.078,396.583 194.745,401.916 194.5,407.5C 194.167,407.5 193.833,407.5 193.5,407.5C 193.167,402.167 192.833,396.833 192.5,391.5 Z"/></g>
<g><path style="opacity:0.067" fill="#aba2a7" d="M 31.5,413.5 C 33.4044,413.738 34.7377,414.738 35.5,416.5C 33.5956,416.262 32.2623,415.262 31.5,413.5 Z"/></g>
<g><path style="opacity:0.125" fill="#908f90" d="M 36.5,418.5 C 39.0892,419.419 41.0892,421.086 42.5,423.5C 39.9108,422.581 37.9108,420.914 36.5,418.5 Z"/></g>
<g><path style="opacity:1" fill="#aa916f" d="M 74.5,415.5 C 77.7044,416.83 81.0378,417.996 84.5,419C 86.762,421.797 89.4287,424.131 92.5,426C 95.8333,427.667 99.1667,429.333 102.5,431C 103.252,431.671 103.586,432.504 103.5,433.5C 92.7669,429.076 83.1002,423.076 74.5,415.5 Z"/></g>
<g><path style="opacity:0.141" fill="#a6a4a6" d="M 42.5,424.5 C 45.0892,425.419 47.0892,427.086 48.5,429.5C 45.9108,428.581 43.9108,426.914 42.5,424.5 Z"/></g>
<g><path style="opacity:0.255" fill="#848182" d="M 49.5,430.5 C 52.0892,431.419 54.0892,433.086 55.5,435.5C 52.9108,434.581 50.9108,432.914 49.5,430.5 Z"/></g>
<g><path style="opacity:0.478" fill="#6b5d62" d="M 55.5,435.5 C 58.0632,435.731 59.7298,437.065 60.5,439.5C 58.2512,438.92 56.5846,437.587 55.5,435.5 Z"/></g>
<g><path style="opacity:1" fill="#b09671" d="M 193.5,407.5 C 193.833,407.5 194.167,407.5 194.5,407.5C 194.5,422.5 194.5,437.5 194.5,452.5C 172.022,452.429 150.022,449.263 128.5,443C 120.941,440.457 113.608,437.624 106.5,434.5C 113.43,435.982 120.43,436.982 127.5,437.5C 127.5,438.833 127.5,440.167 127.5,441.5C 130.85,441.335 134.183,441.502 137.5,442C 140.361,443.246 143.361,444.246 146.5,445C 146.167,445.333 145.833,445.667 145.5,446C 151.68,446.073 157.68,447.073 163.5,449C 171.173,449.402 178.84,449.902 186.5,450.5C 188.5,450.167 190.5,449.833 192.5,449.5C 193.483,435.549 193.816,421.549 193.5,407.5 Z"/></g>
<g><path style="opacity:0.118" fill="#a39ca0" d="M 67.5,444.5 C 69.0269,444.427 70.0269,445.094 70.5,446.5C 68.9731,446.573 67.9731,445.906 67.5,444.5 Z"/></g>
<g><path style="opacity:0.035" fill="#a79b9a" d="M 86.5,455.5 C 88.0269,455.427 89.0269,456.094 89.5,457.5C 87.9731,457.573 86.9731,456.906 86.5,455.5 Z"/></g>
<g><path style="opacity:0.031" fill="#9b9898" d="M 99.5,461.5 C 101.153,461.66 102.486,462.326 103.5,463.5C 101.62,463.771 100.287,463.104 99.5,461.5 Z"/></g>
<g><path style="opacity:0.047" fill="#a9a7a9" d="M 140.5,474.5 C 146.386,474.98 152.052,475.98 157.5,477.5C 151.54,477.452 145.873,476.452 140.5,474.5 Z"/></g>
<g><path style="opacity:0.145" fill="#5e575c" d="M 214.5,473.5 C 211.631,476.758 207.964,478.091 203.5,477.5C 205.761,475.745 208.428,474.578 211.5,474C 210.304,473.346 210.304,472.846 211.5,472.5C 212.417,473.127 213.417,473.461 214.5,473.5 Z"/></g>
</svg>
