<?xml version="1.0" encoding="UTF-8"?>
<!DOCTYPE svg PUBLIC "-//W3C//DTD SVG 1.1//EN" "http://www.w3.org/Graphics/SVG/1.1/DTD/svg11.dtd">
<svg xmlns="http://www.w3.org/2000/svg" version="1.1" width="500px" height="500px" style="shape-rendering:geometricPrecision; text-rendering:geometricPrecision; image-rendering:optimizeQuality; fill-rule:evenodd; clip-rule:evenodd" xmlns:xlink="http://www.w3.org/1999/xlink">
<g><path style="opacity:0.157" fill="#746c6f" d="M 186.5,82.5 C 182.363,84.8547 178.53,84.1881 175,80.5C 174.806,71.4524 174.306,62.4524 173.5,53.5C 174.163,44.6575 178.83,41.4909 187.5,44C 189.487,45.3189 190.654,47.1523 191,49.5C 191.667,59.1667 191.667,68.8333 191,78.5C 190.252,80.751 188.752,82.0844 186.5,82.5 Z"/></g>
<g><path style="opacity:0.986" fill="#030101" d="M 186.5,82.5 C 181.513,83.6509 178.013,81.9842 176,77.5C 175.333,68.1667 175.333,58.8333 176,49.5C 179.508,43.7085 183.841,43.0418 189,47.5C 189.667,58.1667 189.667,68.8333 189,79.5C 187.955,80.3734 187.122,81.3734 186.5,82.5 Z"/></g>
<g><path style="opacity:0.208" fill="#666161" d="M 102.5,72.5 C 99.2709,69.0751 95.2709,67.7418 90.5,68.5C 93.2265,66.13 96.2265,65.9633 99.5,68C 101.141,69.129 102.141,70.629 102.5,72.5 Z"/></g>
<g><path style="opacity:0.992" fill="#0c090a" d="M 90.5,68.5 C 95.2709,67.7418 99.2709,69.0751 102.5,72.5C 106.082,77.9942 109.415,83.6608 112.5,89.5C 114.423,94.6196 113.756,99.2863 110.5,103.5C 108.143,103.663 105.81,103.497 103.5,103C 99.6413,98.7999 96.6413,93.9666 94.5,88.5C 94.0431,87.7025 93.3764,87.3691 92.5,87.5C 90.4763,83.6034 89.1429,79.4368 88.5,75C 88.3384,72.498 89.0051,70.3313 90.5,68.5 Z"/></g>
<g><path style="opacity:0.99" fill="#0e0c0c" d="M 277.5,80.5 C 275.86,83.7868 273.86,86.7868 271.5,89.5C 269.841,91.4691 268.175,93.4691 266.5,95.5C 265.548,97.0453 265.215,98.712 265.5,100.5C 264.538,103.26 262.538,104.594 259.5,104.5C 257.117,104.639 255.117,103.972 253.5,102.5C 251.707,99.7413 251.207,96.7413 252,93.5C 256.42,86.3291 260.586,78.9958 264.5,71.5C 273.805,67.3192 278.139,70.3192 277.5,80.5 Z"/></g>
<g><path style="opacity:0.208" fill="#6d6368" d="M 90.5,68.5 C 89.0051,70.3313 88.3384,72.498 88.5,75C 89.1429,79.4368 90.4763,83.6034 92.5,87.5C 89.4404,84.0475 87.4404,80.0475 86.5,75.5C 86.081,71.9877 87.4144,69.6544 90.5,68.5 Z"/></g>
<g><path style="opacity:0.388" fill="#5e575a" d="M 277.5,80.5 C 278.139,70.3192 273.805,67.3192 264.5,71.5C 260.586,78.9958 256.42,86.3291 252,93.5C 251.207,96.7413 251.707,99.7413 253.5,102.5C 252.25,102.423 251.417,101.756 251,100.5C 250.333,97.5 250.333,94.5 251,91.5C 255.457,83.4156 260.291,75.5822 265.5,68C 272.282,64.8826 276.949,67.0493 279.5,74.5C 279.122,76.7165 278.455,78.7165 277.5,80.5 Z"/></g>
<g><path style="opacity:0.196" fill="#6c6668" d="M 92.5,87.5 C 93.3764,87.3691 94.0431,87.7025 94.5,88.5C 96.6413,93.9666 99.6413,98.7999 103.5,103C 105.81,103.497 108.143,103.663 110.5,103.5C 108.147,105.793 105.48,105.959 102.5,104C 98.2648,99.0265 94.9314,93.5265 92.5,87.5 Z"/></g>
<g><path style="opacity:0.275" fill="#84797a" d="M 112.5,89.5 C 115.833,93.01 116.333,97.01 114,101.5C 113.184,102.823 112.017,103.489 110.5,103.5C 113.756,99.2863 114.423,94.6196 112.5,89.5 Z"/></g>
<g><path style="opacity:0.616" fill="#554e53" d="M 271.5,89.5 C 270.258,93.6553 268.258,97.322 265.5,100.5C 265.215,98.712 265.548,97.0453 266.5,95.5C 268.175,93.4691 269.841,91.4691 271.5,89.5 Z"/></g>
<g><path style="opacity:0.467" fill="#585657" d="M 199.5,108.5 C 191.316,108.826 183.316,108.492 175.5,107.5C 180.612,106.607 185.946,106.274 191.5,106.5C 194.311,107.08 196.977,107.746 199.5,108.5 Z"/></g>
<g><path style="opacity:0.557" fill="#5a5657" d="M 174.5,107.5 C 173.737,108.268 172.737,108.768 171.5,109C 167.848,109.499 164.182,109.665 160.5,109.5C 164.919,108.028 169.586,107.362 174.5,107.5 Z"/></g>
<g><path style="opacity:0.979" fill="#0a0909" d="M 174.5,107.5 C 174.833,107.5 175.167,107.5 175.5,107.5C 183.316,108.492 191.316,108.826 199.5,108.5C 199.833,108.5 200.167,108.5 200.5,108.5C 200.611,109.117 200.944,109.617 201.5,110C 205.44,111.015 209.44,111.515 213.5,111.5C 219.666,112.332 225.333,114.332 230.5,117.5C 234.849,120.341 239.516,122.674 244.5,124.5C 246.629,126.95 249.296,128.617 252.5,129.5C 254.104,130.287 254.771,131.62 254.5,133.5C 254.606,136.615 253.606,139.281 251.5,141.5C 249.218,142.39 246.885,142.556 244.5,142C 240.275,139.607 235.942,137.44 231.5,135.5C 222.058,129.683 211.724,126.017 200.5,124.5C 200.167,124.5 199.833,124.5 199.5,124.5C 183.233,121.149 167.233,122.149 151.5,127.5C 151.167,127.5 150.833,127.5 150.5,127.5C 129.976,133.696 113.309,145.363 100.5,162.5C 95.6593,167.354 91.9927,173.02 89.5,179.5C 87.7742,181.942 86.2742,184.609 85,187.5C 82.4509,193.979 80.6175,200.646 79.5,207.5C 77.9865,213.595 77.3198,219.928 77.5,226.5C 77.5009,231.013 77.8343,235.347 78.5,239.5C 78.6556,245.116 79.6556,250.449 81.5,255.5C 86.1668,272.515 94.6668,287.182 107,299.5C 113.488,293.68 119.988,287.846 126.5,282C 132.964,277.435 139.964,273.935 147.5,271.5C 151.767,270.744 155.767,269.411 159.5,267.5C 170.769,266.033 182.103,265.199 193.5,265C 194.252,264.329 194.586,263.496 194.5,262.5C 197.075,257.255 200.075,252.255 203.5,247.5C 204.833,246.167 206.167,244.833 207.5,243.5C 208.75,243.423 209.583,242.756 210,241.5C 210.414,241.957 210.914,242.291 211.5,242.5C 214.554,238.779 217.888,235.446 221.5,232.5C 221.911,233.262 222.077,234.262 222,235.5C 222.667,234.167 223.333,234.167 224,235.5C 225.507,231.764 226.34,231.764 226.5,235.5C 227.552,235.351 228.552,235.517 229.5,236C 228.641,238.885 226.641,241.385 223.5,243.5C 222.571,244.689 222.238,246.022 222.5,247.5C 216.365,254.138 211.532,261.472 208,269.5C 235.881,278.218 255.714,295.885 267.5,322.5C 277.439,323.201 286.772,326.034 295.5,331C 297.113,333.228 297.78,335.728 297.5,338.5C 296.217,341.943 293.717,343.61 290,343.5C 284.532,341.677 279.032,339.844 273.5,338C 268.877,337.042 264.21,336.375 259.5,336C 255.473,328.784 251.307,321.617 247,314.5C 235.859,298.857 221.025,288.524 202.5,283.5C 186.389,277.913 170.389,278.246 154.5,284.5C 148.57,286.132 143.236,288.798 138.5,292.5C 127.545,298.955 118.712,307.621 112,318.5C 109.491,322.194 107.658,326.194 106.5,330.5C 105.59,332.019 104.757,333.685 104,335.5C 101.943,343.455 100.276,351.455 99,359.5C 93.0222,360.884 87.1889,362.55 81.5,364.5C 74.3559,366.987 68.6892,371.32 64.5,377.5C 61.0031,381.148 58.5031,385.481 57,390.5C 56.18,397.014 56.3467,403.347 57.5,409.5C 61.3473,425.678 71.3473,435.844 87.5,440C 148.001,440.832 208.335,440.665 268.5,439.5C 293.577,435.09 308.243,420.423 312.5,395.5C 313.653,389.347 313.82,383.014 313,376.5C 311.962,372.532 310.462,368.865 308.5,365.5C 305.996,361.064 305.996,356.731 308.5,352.5C 313.031,350.675 316.864,351.675 320,355.5C 334.79,386.659 329.957,414.325 305.5,438.5C 304.957,438.56 304.624,438.893 304.5,439.5C 319.152,440.499 333.818,440.833 348.5,440.5C 353.87,443.314 354.87,447.314 351.5,452.5C 350.942,453.79 349.942,454.623 348.5,455C 261.097,455.83 173.763,455.664 86.5,454.5C 82.6988,451.925 78.3655,450.592 73.5,450.5C 73.1667,450.5 72.8333,450.5 72.5,450.5C 70.9726,447.932 68.6393,446.599 65.5,446.5C 64.7377,444.738 63.4044,443.738 61.5,443.5C 59.4768,440.48 56.8102,438.146 53.5,436.5C 53.5,436.167 53.5,435.833 53.5,435.5C 51.8798,431.566 49.5465,428.233 46.5,425.5C 46.5,425.167 46.5,424.833 46.5,424.5C 46.7709,422.62 46.1042,421.287 44.5,420.5C 43.596,419.791 43.2627,418.791 43.5,417.5C 43.8893,414.447 43.2227,411.78 41.5,409.5C 41.2363,402.11 41.5696,394.777 42.5,387.5C 45.1905,384.453 46.5238,380.787 46.5,376.5C 46.5,375.833 46.8333,375.5 47.5,375.5C 49.2503,374.341 50.2503,372.674 50.5,370.5C 50.7376,368.596 51.7376,367.262 53.5,366.5C 57.8974,362.096 62.5641,358.096 67.5,354.5C 70.8515,354.47 73.5182,353.137 75.5,350.5C 78.0101,350.946 80.0101,350.28 81.5,348.5C 83.7812,348.923 85.4479,348.256 86.5,346.5C 86.2053,344.265 86.5386,342.265 87.5,340.5C 88.1174,340.389 88.6174,340.056 89,339.5C 89.4955,337.527 89.6621,335.527 89.5,333.5C 89.595,331.214 90.2616,329.214 91.5,327.5C 92.1499,327.196 92.8165,326.863 93.5,326.5C 94.8085,322.893 95.8085,319.226 96.5,315.5C 99.3053,313.244 98.972,311.577 95.5,310.5C 94.5,307.5 92.5,305.5 89.5,304.5C 89.5,304.167 89.5,303.833 89.5,303.5C 88.5265,300.865 86.8598,298.865 84.5,297.5C 82.5675,294.634 80.9009,291.634 79.5,288.5C 79.1298,285.733 77.7964,283.733 75.5,282.5C 74.5592,280.95 73.8925,279.284 73.5,277.5C 72.7365,273.863 71.4032,270.53 69.5,267.5C 67.7234,264.495 66.7234,261.162 66.5,257.5C 66.494,252.785 65.994,248.118 65,243.5C 64.6174,242.944 64.1174,242.611 63.5,242.5C 63.271,229.762 63.9377,217.096 65.5,204.5C 67.3084,204.509 68.9751,204.009 70.5,203C 68.1088,201.691 68.1088,200.691 70.5,200C 69.3759,199.161 68.7092,197.994 68.5,196.5C 69.2982,192.511 69.9649,188.511 70.5,184.5C 73.6298,174.901 78.2965,166.234 84.5,158.5C 85.973,157.26 87.6396,156.26 89.5,155.5C 90.086,155.709 90.586,156.043 91,156.5C 91.3114,155.258 90.8114,154.258 89.5,153.5C 97.9193,142.745 107.586,133.412 118.5,125.5C 122.891,122.638 127.558,120.304 132.5,118.5C 134.199,118.66 135.866,118.494 137.5,118C 144.781,114.854 152.115,112.021 159.5,109.5C 159.833,109.5 160.167,109.5 160.5,109.5C 164.182,109.665 167.848,109.499 171.5,109C 172.737,108.768 173.737,108.268 174.5,107.5 Z"/></g>
<g><path style="opacity:0.318" fill="#534b4c" d="M 200.5,108.5 C 205.12,108.74 209.453,109.74 213.5,111.5C 209.44,111.515 205.44,111.015 201.5,110C 200.944,109.617 200.611,109.117 200.5,108.5 Z"/></g>
<g><path style="opacity:0.796" fill="#3e393c" d="M 159.5,109.5 C 152.115,112.021 144.781,114.854 137.5,118C 135.866,118.494 134.199,118.66 132.5,118.5C 140.787,113.738 149.787,110.738 159.5,109.5 Z"/></g>
<g><path style="opacity:0.075" fill="#6f6b6b" d="M 230.5,117.5 C 235.753,118.793 240.419,121.126 244.5,124.5C 239.516,122.674 234.849,120.341 230.5,117.5 Z"/></g>
<g><path style="opacity:1" fill="#ddbd60" d="M 199.5,124.5 C 183.374,124.022 167.374,125.022 151.5,127.5C 167.233,122.149 183.233,121.149 199.5,124.5 Z"/></g>
<g><path style="opacity:1" fill="#f5c943" d="M 199.5,124.5 C 199.833,124.5 200.167,124.5 200.5,124.5C 203.626,125.551 206.626,127.051 209.5,129C 209,129.5 208.5,130 208,130.5C 207.667,140.167 207.333,149.833 207,159.5C 206.333,160.167 205.667,160.833 205,161.5C 204.57,171.127 201.57,179.793 196,187.5C 195.223,191.877 193.723,195.877 191.5,199.5C 186.339,199.09 183.673,201.424 183.5,206.5C 180.234,206.433 178.734,208.099 179,211.5C 174.12,214.048 170.62,217.881 168.5,223C 163.86,223.903 160.36,226.403 158,230.5C 156.644,229.62 155.144,229.286 153.5,229.5C 153.762,230.978 153.429,232.311 152.5,233.5C 150.474,234.37 149.141,235.87 148.5,238C 141.299,239.936 134.633,242.936 128.5,247C 116.13,250.48 103.63,251.313 91,249.5C 90,250.167 89,250.833 88,251.5C 86.6011,248.637 85.6011,245.637 85,242.5C 84.5068,245.675 83.3402,248.341 81.5,250.5C 79.8875,233.234 80.3875,215.901 83,198.5C 85.7531,192.336 87.9198,186.003 89.5,179.5C 91.9927,173.02 95.6593,167.354 100.5,162.5C 105.288,160.107 109.288,156.774 112.5,152.5C 115.473,153.374 116.806,152.04 116.5,148.5C 121.423,148.552 124.756,146.385 126.5,142C 128.025,140.991 129.692,140.491 131.5,140.5C 131.33,139.178 131.663,138.011 132.5,137C 134.844,136.163 136.844,134.829 138.5,133C 143.29,132.572 147.29,130.738 150.5,127.5C 150.833,127.5 151.167,127.5 151.5,127.5C 167.374,125.022 183.374,124.022 199.5,124.5 Z"/></g>
<g><path style="opacity:0.055" fill="#6d6569" d="M 244.5,124.5 C 247.704,125.383 250.371,127.05 252.5,129.5C 249.296,128.617 246.629,126.95 244.5,124.5 Z"/></g>
<g><path style="opacity:0.722" fill="#6c6165" d="M 34.5,132.5 C 30.3927,132.123 26.726,133.123 23.5,135.5C 23.5743,133.589 24.5743,132.422 26.5,132C 29.367,131.199 32.0336,131.366 34.5,132.5 Z"/></g>
<g><path style="opacity:0.322" fill="#776e73" d="M 341.5,135.5 C 339.61,134.03 337.443,133.03 335,132.5C 329.717,134.627 324.55,136.96 319.5,139.5C 324.425,133.713 330.758,131.213 338.5,132C 340.426,132.422 341.426,133.589 341.5,135.5 Z"/></g>
<g><path style="opacity:1" fill="#f8b03d" d="M 200.5,124.5 C 211.724,126.017 222.058,129.683 231.5,135.5C 233.163,137.533 235.163,139.366 237.5,141C 237.167,141.333 236.833,141.667 236.5,142C 242.653,144.665 248.986,145.165 255.5,143.5C 255.833,143.5 256.167,143.5 256.5,143.5C 258.806,145.824 260.806,148.491 262.5,151.5C 262.077,154.108 261.077,156.442 259.5,158.5C 261.636,159.852 261.97,161.518 260.5,163.5C 261.991,165.012 263.824,166.012 266,166.5C 267.985,170.139 270.318,173.473 273,176.5C 276.368,183.904 278.868,190.904 280.5,197.5C 277.612,196.99 275.279,197.656 273.5,199.5C 267.618,200.428 261.784,201.761 256,203.5C 254.893,203.415 253.893,203.081 253,202.5C 249.432,205.291 245.432,208.291 241,211.5C 239.189,212.078 237.355,212.578 235.5,213C 234.111,214.957 232.611,216.79 231,218.5C 229.56,219.148 228.06,219.481 226.5,219.5C 226.5,220.833 226.5,222.167 226.5,223.5C 224.5,223.833 222.5,224.167 220.5,224.5C 220.67,225.822 220.337,226.989 219.5,228C 217.527,228.495 215.527,228.662 213.5,228.5C 213.662,230.527 213.495,232.527 213,234.5C 211.644,235.38 210.144,235.714 208.5,235.5C 208.975,238.885 207.642,241.218 204.5,242.5C 203.691,244.071 203.357,245.738 203.5,247.5C 200.991,248.745 198.325,249.745 195.5,250.5C 195.987,251.446 196.32,252.446 196.5,253.5C 195.2,256.897 193.534,260.064 191.5,263C 179.474,263.257 167.474,263.924 155.5,265C 151.956,267.632 147.956,269.132 143.5,269.5C 137.02,274.404 130.02,278.238 122.5,281C 122.833,281.333 123.167,281.667 123.5,282C 121.278,282.695 119.111,283.528 117,284.5C 114.495,283.845 113.161,282.178 113,279.5C 111.249,281.831 111.415,284.164 113.5,286.5C 112.833,287.167 112.167,287.833 111.5,288.5C 112.246,289.736 112.579,291.07 112.5,292.5C 111.5,292.5 110.5,292.5 109.5,292.5C 109.5,293.5 109.5,294.5 109.5,295.5C 106.5,295.833 105.167,294.5 105.5,291.5C 103.856,291.714 102.356,291.38 101,290.5C 99.7225,287.279 98.8891,283.946 98.5,280.5C 97.5,280.5 96.5,280.5 95.5,280.5C 96.3235,275.555 94.3235,272.888 89.5,272.5C 90.3551,269.514 90.8551,266.514 91,263.5C 89.2933,262.862 87.46,262.862 85.5,263.5C 85.317,261.064 85.9837,258.897 87.5,257C 86.7562,255.961 85.7562,255.461 84.5,255.5C 86.7879,254.926 88.9546,253.926 91,252.5C 92.6877,254.045 94.6877,255.045 97,255.5C 97.7504,254.874 98.5838,254.374 99.5,254C 104.533,253.829 109.533,253.329 114.5,252.5C 116.056,250.299 117.223,250.299 118,252.5C 119.431,249.772 121.431,249.105 124,250.5C 129.932,248.524 135.766,246.357 141.5,244C 150.507,237.202 159.841,231.535 169.5,227C 171.487,225.681 172.654,223.848 173,221.5C 175,220.167 177,218.833 179,217.5C 180.46,215.028 181.46,212.361 182,209.5C 183.444,207.845 185.278,207.178 187.5,207.5C 189.224,205.086 190.558,202.42 191.5,199.5C 193.723,195.877 195.223,191.877 196,187.5C 201.57,179.793 204.57,171.127 205,161.5C 205.667,160.833 206.333,160.167 207,159.5C 207.333,149.833 207.667,140.167 208,130.5C 208.5,130 209,129.5 209.5,129C 206.626,127.051 203.626,125.551 200.5,124.5 Z"/></g>
<g><path style="opacity:0.987" fill="#100d0e" d="M 341.5,135.5 C 343.938,138.224 344.105,141.224 342,144.5C 339.227,147.136 336.06,149.136 332.5,150.5C 328.41,150.197 325.743,151.864 324.5,155.5C 324.158,156.338 323.492,156.672 322.5,156.5C 320.973,156.427 319.973,157.094 319.5,158.5C 309.568,161.067 305.735,157.4 308,147.5C 309.045,146.627 309.878,145.627 310.5,144.5C 313.052,142.057 316.052,140.39 319.5,139.5C 324.55,136.96 329.717,134.627 335,132.5C 337.443,133.03 339.61,134.03 341.5,135.5 Z"/></g>
<g><path style="opacity:0.987" fill="#0c090a" d="M 34.5,132.5 C 34.8333,132.5 35.1667,132.5 35.5,132.5C 37.366,136.007 40.366,138.007 44.5,138.5C 45.6417,140.433 47.3083,141.933 49.5,143C 52.3098,143.906 54.9764,145.073 57.5,146.5C 58.299,149.43 58.6323,152.43 58.5,155.5C 58.5,155.833 58.5,156.167 58.5,156.5C 56.2655,157.447 53.9322,158.114 51.5,158.5C 47.8328,157.166 44.1661,155.832 40.5,154.5C 36.8832,153.358 33.5498,151.692 30.5,149.5C 29.7377,147.738 28.4044,146.738 26.5,146.5C 25.1363,144.809 23.803,143.142 22.5,141.5C 22.2053,139.265 22.5386,137.265 23.5,135.5C 26.726,133.123 30.3927,132.123 34.5,132.5 Z"/></g>
<g><path style="opacity:0.075" fill="#787476" d="M 35.5,132.5 C 38.7089,134.265 41.7089,136.265 44.5,138.5C 40.366,138.007 37.366,136.007 35.5,132.5 Z"/></g>
<g><path style="opacity:0.204" fill="#6b6567" d="M 118.5,125.5 C 107.586,133.412 97.9193,142.745 89.5,153.5C 90.8114,154.258 91.3114,155.258 91,156.5C 90.586,156.043 90.086,155.709 89.5,155.5C 87.6396,156.26 85.973,157.26 84.5,158.5C 85.684,155.139 87.5173,152.139 90,149.5C 98.221,139.762 107.721,131.762 118.5,125.5 Z"/></g>
<g><path style="opacity:0.118" fill="#716b6d" d="M 44.5,138.5 C 48.4469,140.473 52.4469,142.473 56.5,144.5C 57.2975,144.957 57.6309,145.624 57.5,146.5C 54.9764,145.073 52.3098,143.906 49.5,143C 47.3083,141.933 45.6417,140.433 44.5,138.5 Z"/></g>
<g><path style="opacity:0.039" fill="#a69c9f" d="M 22.5,141.5 C 23.803,143.142 25.1363,144.809 26.5,146.5C 23.7026,146.033 22.3692,144.367 22.5,141.5 Z"/></g>
<g><path style="opacity:1" fill="#e2a94f" d="M 231.5,135.5 C 235.942,137.44 240.275,139.607 244.5,142C 246.885,142.556 249.218,142.39 251.5,141.5C 253.483,141.157 254.817,141.824 255.5,143.5C 248.986,145.165 242.653,144.665 236.5,142C 236.833,141.667 237.167,141.333 237.5,141C 235.163,139.366 233.163,137.533 231.5,135.5 Z"/></g>
<g><path style="opacity:0.204" fill="#dab68e" d="M 254.5,133.5 C 255.807,135.223 255.807,137.057 254.5,139C 257.977,142.567 261.644,145.9 265.5,149C 266.448,149.483 267.448,149.649 268.5,149.5C 268.158,150.338 267.492,150.672 266.5,150.5C 263.185,148.192 259.851,145.859 256.5,143.5C 256.167,143.5 255.833,143.5 255.5,143.5C 254.817,141.824 253.483,141.157 251.5,141.5C 253.606,139.281 254.606,136.615 254.5,133.5 Z"/></g>
<g><path style="opacity:0.22" fill="#a09da0" d="M 26.5,146.5 C 28.4044,146.738 29.7377,147.738 30.5,149.5C 28.5956,149.262 27.2623,148.262 26.5,146.5 Z"/></g>
<g><path style="opacity:1" fill="#dcbc50" d="M 150.5,127.5 C 147.29,130.738 143.29,132.572 138.5,133C 136.844,134.829 134.844,136.163 132.5,137C 131.663,138.011 131.33,139.178 131.5,140.5C 129.692,140.491 128.025,140.991 126.5,142C 124.756,146.385 121.423,148.552 116.5,148.5C 116.806,152.04 115.473,153.374 112.5,152.5C 109.288,156.774 105.288,160.107 100.5,162.5C 113.309,145.363 129.976,133.696 150.5,127.5 Z"/></g>
<g><path style="opacity:0.051" fill="#8f8989" d="M 57.5,146.5 C 58.1174,146.611 58.6174,146.944 59,147.5C 59.8007,150.367 59.6341,153.034 58.5,155.5C 58.6323,152.43 58.299,149.43 57.5,146.5 Z"/></g>
<g><path style="opacity:0.063" fill="#a1a0a0" d="M 271.5,149.5 C 275.589,149.588 278.256,151.588 279.5,155.5C 277.07,153.055 274.404,151.055 271.5,149.5 Z"/></g>
<g><path style="opacity:0.983" fill="#0b0b0e" d="M 268.5,149.5 C 269.5,149.5 270.5,149.5 271.5,149.5C 274.404,151.055 277.07,153.055 279.5,155.5C 288.063,167.292 294.563,180.292 299,194.5C 305.016,194.177 311.183,194.51 317.5,195.5C 327.67,197.867 338.004,199.867 348.5,201.5C 353.689,202.432 358.356,204.432 362.5,207.5C 367.333,210.418 372.333,213.084 377.5,215.5C 379.913,217.887 382.58,220.054 385.5,222C 384.483,223.049 384.316,224.216 385,225.5C 385.388,224.572 386.055,223.905 387,223.5C 388.765,224.632 390.598,225.632 392.5,226.5C 397.46,229.792 401.793,233.792 405.5,238.5C 405.5,240.5 406.5,241.5 408.5,241.5C 413.247,247.319 417.247,253.652 420.5,260.5C 423.267,265.797 425.267,271.464 426.5,277.5C 427.689,279.363 429.022,281.03 430.5,282.5C 430.171,285.228 430.837,287.562 432.5,289.5C 432.294,292.495 432.96,295.162 434.5,297.5C 435.434,298.568 435.768,299.901 435.5,301.5C 435.46,304.881 435.793,308.214 436.5,311.5C 441.216,311.846 445.883,312.513 450.5,313.5C 451.78,314.931 453.447,315.598 455.5,315.5C 465.891,319.896 474.891,326.229 482.5,334.5C 482.738,336.404 483.738,337.738 485.5,338.5C 487.262,339.262 488.262,340.596 488.5,342.5C 489.079,345.331 490.412,347.664 492.5,349.5C 492.461,352.089 493.461,354.089 495.5,355.5C 497.006,359.875 498.339,364.209 499.5,368.5C 499.5,377.833 499.5,387.167 499.5,396.5C 498.662,396.842 498.328,397.508 498.5,398.5C 496.72,399.99 496.054,401.99 496.5,404.5C 494.502,412.162 491.168,419.162 486.5,425.5C 482.092,425.062 480.425,427.062 481.5,431.5C 474.42,439.933 465.753,445.933 455.5,449.5C 453.173,449.753 451.173,449.086 449.5,447.5C 450.055,449.393 449.388,451.06 447.5,452.5C 443.736,453.832 439.736,454.665 435.5,455C 414.996,455.829 394.663,455.663 374.5,454.5C 374.027,453.094 373.027,452.427 371.5,452.5C 370.596,451.791 370.263,450.791 370.5,449.5C 370.018,446.169 371.018,443.503 373.5,441.5C 393.961,440.856 414.295,440.189 434.5,439.5C 455.033,435.976 470.2,424.976 480,406.5C 490.472,379.902 485.305,357.068 464.5,338C 460.334,335.083 456.001,332.416 451.5,330C 442.347,327.24 433.18,324.74 424,322.5C 422.797,316.496 421.63,310.496 420.5,304.5C 418.445,289.741 413.111,276.408 404.5,264.5C 386.159,235.384 359.826,217.884 325.5,212C 293.944,207.058 265.278,213.725 239.5,232C 238.29,233.039 237.29,234.206 236.5,235.5C 231.558,239.103 226.892,243.103 222.5,247.5C 222.238,246.022 222.571,244.689 223.5,243.5C 226.641,241.385 228.641,238.885 229.5,236C 228.552,235.517 227.552,235.351 226.5,235.5C 226.34,231.764 225.507,231.764 224,235.5C 223.333,234.167 222.667,234.167 222,235.5C 222.077,234.262 221.911,233.262 221.5,232.5C 217.888,235.446 214.554,238.779 211.5,242.5C 210.914,242.291 210.414,241.957 210,241.5C 209.583,242.756 208.75,243.423 207.5,243.5C 213.186,236.149 219.52,229.482 226.5,223.5C 232.863,218.986 239.53,214.986 246.5,211.5C 248.342,212.075 250.342,211.909 252.5,211C 258.636,206.934 265.303,203.934 272.5,202C 276.466,201.172 280.466,200.672 284.5,200.5C 284.598,194.024 282.931,188.024 279.5,182.5C 279.043,181.702 278.376,181.369 277.5,181.5C 273.775,173.721 269.275,166.388 264,159.5C 263.311,156.067 264.145,153.067 266.5,150.5C 267.492,150.672 268.158,150.338 268.5,149.5 Z"/></g>
<g><path style="opacity:0.416" fill="#7b7679" d="M 310.5,144.5 C 309.878,145.627 309.045,146.627 308,147.5C 305.735,157.4 309.568,161.067 319.5,158.5C 309.616,162.582 305.116,159.249 306,148.5C 306.748,146.249 308.248,144.916 310.5,144.5 Z"/></g>
<g><path style="opacity:0.776" fill="#5c585d" d="M 332.5,150.5 C 330.178,152.664 327.511,154.331 324.5,155.5C 325.743,151.864 328.41,150.197 332.5,150.5 Z"/></g>
<g><path style="opacity:0.004" fill="#e5e5e5" d="M 322.5,156.5 C 322.027,157.906 321.027,158.573 319.5,158.5C 319.973,157.094 320.973,156.427 322.5,156.5 Z"/></g>
<g><path style="opacity:0.265" fill="#797275" d="M 40.5,154.5 C 44.1661,155.832 47.8328,157.166 51.5,158.5C 53.9322,158.114 56.2655,157.447 58.5,156.5C 56.6677,158.656 54.3343,159.99 51.5,160.5C 47.0542,159.78 43.3875,157.78 40.5,154.5 Z"/></g>
<g><path style="opacity:1" fill="#cf9e48" d="M 256.5,143.5 C 259.851,145.859 263.185,148.192 266.5,150.5C 264.145,153.067 263.311,156.067 264,159.5C 269.275,166.388 273.775,173.721 277.5,181.5C 280.26,186.862 282.26,192.528 283.5,198.5C 280.119,198.46 276.786,198.793 273.5,199.5C 275.279,197.656 277.612,196.99 280.5,197.5C 278.868,190.904 276.368,183.904 273,176.5C 270.318,173.473 267.985,170.139 266,166.5C 263.824,166.012 261.991,165.012 260.5,163.5C 261.97,161.518 261.636,159.852 259.5,158.5C 261.077,156.442 262.077,154.108 262.5,151.5C 260.806,148.491 258.806,145.824 256.5,143.5 Z"/></g>
<g><path style="opacity:0.773" fill="#4d494b" d="M 317.5,195.5 C 328.062,195.678 338.396,197.678 348.5,201.5C 338.004,199.867 327.67,197.867 317.5,195.5 Z"/></g>
<g><path style="opacity:1" fill="#e2aa4c" d="M 273.5,199.5 C 264.023,202.33 255.023,206.33 246.5,211.5C 239.53,214.986 232.863,218.986 226.5,223.5C 226.5,222.167 226.5,220.833 226.5,219.5C 228.06,219.481 229.56,219.148 231,218.5C 232.611,216.79 234.111,214.957 235.5,213C 237.355,212.578 239.189,212.078 241,211.5C 245.432,208.291 249.432,205.291 253,202.5C 253.893,203.081 254.893,203.415 256,203.5C 261.784,201.761 267.618,200.428 273.5,199.5 Z"/></g>
<g><path style="opacity:1" fill="#1e0d03" d="M 277.5,181.5 C 278.376,181.369 279.043,181.702 279.5,182.5C 282.931,188.024 284.598,194.024 284.5,200.5C 280.466,200.672 276.466,201.172 272.5,202C 265.303,203.934 258.636,206.934 252.5,211C 250.342,211.909 248.342,212.075 246.5,211.5C 255.023,206.33 264.023,202.33 273.5,199.5C 276.786,198.793 280.119,198.46 283.5,198.5C 282.26,192.528 280.26,186.862 277.5,181.5 Z"/></g>
<g><path style="opacity:0.063" fill="#676063" d="M 362.5,207.5 C 368.228,208.863 373.228,211.53 377.5,215.5C 372.333,213.084 367.333,210.418 362.5,207.5 Z"/></g>
<g><path style="opacity:0.696" fill="#413b3c" d="M 70.5,184.5 C 69.9649,188.511 69.2982,192.511 68.5,196.5C 68.7092,197.994 69.3759,199.161 70.5,200C 68.1088,200.691 68.1088,201.691 70.5,203C 68.9751,204.009 67.3084,204.509 65.5,204.5C 63.9377,217.096 63.271,229.762 63.5,242.5C 60.4779,222.537 62.8112,203.203 70.5,184.5 Z"/></g>
<g><path style="opacity:0.226" fill="#5f585a" d="M 3.5,220.5 C 13.992,219.341 24.6586,219.175 35.5,220C 39.7881,223.771 40.6214,228.271 38,233.5C 37.3292,234.252 36.4959,234.586 35.5,234.5C 35.6663,231.832 36.6663,229.498 38.5,227.5C 37.9661,225.386 36.9661,223.552 35.5,222C 24.9115,220.571 14.2449,220.071 3.5,220.5 Z"/></g>
<g><path style="opacity:0.982" fill="#070404" d="M 3.5,220.5 C 14.2449,220.071 24.9115,220.571 35.5,222C 36.9661,223.552 37.9661,225.386 38.5,227.5C 36.6663,229.498 35.6663,231.832 35.5,234.5C 25.1613,234.666 14.828,234.5 4.5,234C 3.25501,233.209 1.92167,232.709 0.5,232.5C 0.166667,232.5 -0.166667,232.5 -0.5,232.5C -0.5,229.5 -0.5,226.5 -0.5,223.5C 0.236209,221.771 1.56954,220.771 3.5,220.5 Z"/></g>
<g><path style="opacity:0.998" fill="#464144" d="M 377.5,215.5 C 380.378,216.37 383.045,217.703 385.5,219.5C 386.924,221.718 388.924,223.218 391.5,224C 392.252,224.671 392.586,225.504 392.5,226.5C 390.598,225.632 388.765,224.632 387,223.5C 386.055,223.905 385.388,224.572 385,225.5C 384.316,224.216 384.483,223.049 385.5,222C 382.58,220.054 379.913,217.887 377.5,215.5 Z"/></g>
<g><path style="opacity:1" fill="#f7be40" d="M 191.5,199.5 C 190.558,202.42 189.224,205.086 187.5,207.5C 185.278,207.178 183.444,207.845 182,209.5C 181.46,212.361 180.46,215.028 179,217.5C 177,218.833 175,220.167 173,221.5C 172.654,223.848 171.487,225.681 169.5,227C 159.841,231.535 150.507,237.202 141.5,244C 135.766,246.357 129.932,248.524 124,250.5C 121.431,249.105 119.431,249.772 118,252.5C 117.223,250.299 116.056,250.299 114.5,252.5C 109.533,253.329 104.533,253.829 99.5,254C 98.5838,254.374 97.7504,254.874 97,255.5C 94.6877,255.045 92.6877,254.045 91,252.5C 88.9546,253.926 86.7879,254.926 84.5,255.5C 83.5,255.5 82.5,255.5 81.5,255.5C 81.5,253.833 81.5,252.167 81.5,250.5C 83.3402,248.341 84.5068,245.675 85,242.5C 85.6011,245.637 86.6011,248.637 88,251.5C 89,250.833 90,250.167 91,249.5C 103.63,251.313 116.13,250.48 128.5,247C 134.633,242.936 141.299,239.936 148.5,238C 149.141,235.87 150.474,234.37 152.5,233.5C 153.429,232.311 153.762,230.978 153.5,229.5C 155.144,229.286 156.644,229.62 158,230.5C 160.36,226.403 163.86,223.903 168.5,223C 170.62,217.881 174.12,214.048 179,211.5C 178.734,208.099 180.234,206.433 183.5,206.5C 183.673,201.424 186.339,199.09 191.5,199.5 Z"/></g>
<g><path style="opacity:1" fill="#ab9247" d="M 79.5,207.5 C 78.723,218.148 78.3897,228.815 78.5,239.5C 77.8343,235.347 77.5009,231.013 77.5,226.5C 77.3198,219.928 77.9865,213.595 79.5,207.5 Z"/></g>
<g><path style="opacity:1" fill="#e0bf54" d="M 89.5,179.5 C 87.9198,186.003 85.7531,192.336 83,198.5C 80.3875,215.901 79.8875,233.234 81.5,250.5C 81.5,252.167 81.5,253.833 81.5,255.5C 79.6556,250.449 78.6556,245.116 78.5,239.5C 78.3897,228.815 78.723,218.148 79.5,207.5C 80.6175,200.646 82.4509,193.979 85,187.5C 86.2742,184.609 87.7742,181.942 89.5,179.5 Z"/></g>
<g><path style="opacity:1" fill="#dfa84f" d="M 226.5,223.5 C 219.52,229.482 213.186,236.149 207.5,243.5C 206.167,244.833 204.833,246.167 203.5,247.5C 203.357,245.738 203.691,244.071 204.5,242.5C 207.642,241.218 208.975,238.885 208.5,235.5C 210.144,235.714 211.644,235.38 213,234.5C 213.495,232.527 213.662,230.527 213.5,228.5C 215.527,228.662 217.527,228.495 219.5,228C 220.337,226.989 220.67,225.822 220.5,224.5C 222.5,224.167 224.5,223.833 226.5,223.5 Z"/></g>
<g><path style="opacity:0.333" fill="#6c6367" d="M 0.5,232.5 C 1.92167,232.709 3.25501,233.209 4.5,234C 14.828,234.5 25.1613,234.666 35.5,234.5C 35.0825,235.222 34.4158,235.722 33.5,236C 24.1667,236.667 14.8333,236.667 5.5,236C 3.11917,235.777 1.4525,234.61 0.5,232.5 Z"/></g>
<g><path style="opacity:0.133" fill="#ac9aa7" d="M 405.5,238.5 C 406.833,239.167 407.833,240.167 408.5,241.5C 406.5,241.5 405.5,240.5 405.5,238.5 Z"/></g>
<g><path style="opacity:1" fill="#9eebfc" d="M 236.5,235.5 C 236.389,236.117 236.056,236.617 235.5,237C 289.137,237.385 329.304,260.552 356,306.5C 357.162,311.007 358.829,315.34 361,319.5C 363.648,330.423 365.815,341.423 367.5,352.5C 382.214,353.399 395.214,358.399 406.5,367.5C 427.101,387.436 433.767,411.436 426.5,439.5C 409.163,439.333 391.83,439.5 374.5,440C 373.944,440.383 373.611,440.883 373.5,441.5C 371.018,443.503 370.018,446.169 370.5,449.5C 369.739,448.609 368.739,447.942 367.5,447.5C 363.196,448.21 358.863,448.71 354.5,449C 353.837,450.518 352.837,451.685 351.5,452.5C 354.87,447.314 353.87,443.314 348.5,440.5C 334.167,439.833 319.833,439.167 305.5,438.5C 329.957,414.325 334.79,386.659 320,355.5C 316.864,351.675 313.031,350.675 308.5,352.5C 306.184,348.411 303.018,345.078 299,342.5C 298.79,340.942 298.29,339.609 297.5,338.5C 297.78,335.728 297.113,333.228 295.5,331C 286.772,326.034 277.439,323.201 267.5,322.5C 255.714,295.885 235.881,278.218 208,269.5C 211.532,261.472 216.365,254.138 222.5,247.5C 226.892,243.103 231.558,239.103 236.5,235.5 Z"/></g>
<g><path style="opacity:0.361" fill="#544a4b" d="M 63.5,242.5 C 64.1174,242.611 64.6174,242.944 65,243.5C 65.994,248.118 66.494,252.785 66.5,257.5C 64.4214,252.831 63.4214,247.831 63.5,242.5 Z"/></g>
<g><path style="opacity:1" fill="#977135" d="M 194.5,262.5 C 194.586,263.496 194.252,264.329 193.5,265C 182.103,265.199 170.769,266.033 159.5,267.5C 162.577,266.144 165.91,265.311 169.5,265C 177.167,264.667 184.833,264.333 192.5,264C 193.044,263.283 193.711,262.783 194.5,262.5 Z"/></g>
<g><path style="opacity:1" fill="#6f4d24" d="M 159.5,267.5 C 155.767,269.411 151.767,270.744 147.5,271.5C 151.085,269.194 155.085,267.861 159.5,267.5 Z"/></g>
<g><path style="opacity:0.11" fill="#7e777c" d="M 69.5,267.5 C 71.4032,270.53 72.7365,273.863 73.5,277.5C 71.2057,274.63 69.8723,271.297 69.5,267.5 Z"/></g>
<g><path style="opacity:1" fill="#61d8fb" d="M 404.5,264.5 C 404.498,267.826 405.498,270.826 407.5,273.5C 406,275.833 404.5,278.167 403,280.5C 402.586,280.043 402.086,279.709 401.5,279.5C 399.633,281.864 397.633,281.864 395.5,279.5C 391.739,280.012 388.072,280.845 384.5,282C 383.363,287.826 383.363,293.992 384.5,300.5C 385.086,300.291 385.586,299.957 386,299.5C 387.221,303.98 389.054,308.146 391.5,312C 395.304,313.05 399.137,313.884 403,314.5C 404.306,311.388 405.472,308.221 406.5,305C 405.167,300.667 405.167,296.333 406.5,292C 405.423,289.852 404.09,287.852 402.5,286C 403.73,281.761 405.23,281.927 407,286.5C 407.236,288.764 407.736,290.931 408.5,293C 409.167,293.667 409.833,293.667 410.5,293C 411.071,291.795 411.738,290.628 412.5,289.5C 415.189,293.717 417.023,298.383 418,303.5C 418.333,303.167 418.667,302.833 419,302.5C 419.278,303.416 419.778,304.082 420.5,304.5C 421.63,310.496 422.797,316.496 424,322.5C 433.18,324.74 442.347,327.24 451.5,330C 456.001,332.416 460.334,335.083 464.5,338C 485.305,357.068 490.472,379.902 480,406.5C 470.2,424.976 455.033,435.976 434.5,439.5C 431.833,439.5 429.167,439.5 426.5,439.5C 433.767,411.436 427.101,387.436 406.5,367.5C 395.214,358.399 382.214,353.399 367.5,352.5C 365.815,341.423 363.648,330.423 361,319.5C 358.829,315.34 357.162,311.007 356,306.5C 329.304,260.552 289.137,237.385 235.5,237C 236.056,236.617 236.389,236.117 236.5,235.5C 237.29,234.206 238.29,233.039 239.5,232C 265.278,213.725 293.944,207.058 325.5,212C 359.826,217.884 386.159,235.384 404.5,264.5 Z"/></g>
<g><path style="opacity:1" fill="#143242" d="M 319.5,226.5 C 314.489,226.334 309.489,226.501 304.5,227C 302.269,230.659 301.936,234.493 303.5,238.5C 307.16,238.159 310.493,238.825 313.5,240.5C 301.179,241.646 297.846,236.812 303.5,226C 309.016,225.183 314.35,225.349 319.5,226.5 Z"/></g>
<g><path style="opacity:1" fill="#04080d" d="M 319.5,226.5 C 343.948,229.418 364.448,240.085 381,258.5C 381.671,266.159 378.171,269.326 370.5,268C 355.173,251.337 336.173,242.171 313.5,240.5C 310.493,238.825 307.16,238.159 303.5,238.5C 301.936,234.493 302.269,230.659 304.5,227C 309.489,226.501 314.489,226.334 319.5,226.5 Z"/></g>
<g><path style="opacity:0.904" fill="#3c3739" d="M 420.5,260.5 C 424.858,267.227 428.192,274.56 430.5,282.5C 429.022,281.03 427.689,279.363 426.5,277.5C 425.267,271.464 423.267,265.797 420.5,260.5 Z"/></g>
<g><path style="opacity:1" fill="#eaac4c" d="M 203.5,247.5 C 200.075,252.255 197.075,257.255 194.5,262.5C 193.711,262.783 193.044,263.283 192.5,264C 184.833,264.333 177.167,264.667 169.5,265C 165.91,265.311 162.577,266.144 159.5,267.5C 155.085,267.861 151.085,269.194 147.5,271.5C 139.964,273.935 132.964,277.435 126.5,282C 119.988,287.846 113.488,293.68 107,299.5C 94.6668,287.182 86.1668,272.515 81.5,255.5C 82.5,255.5 83.5,255.5 84.5,255.5C 85.7562,255.461 86.7562,255.961 87.5,257C 85.9837,258.897 85.317,261.064 85.5,263.5C 87.46,262.862 89.2933,262.862 91,263.5C 90.8551,266.514 90.3551,269.514 89.5,272.5C 94.3235,272.888 96.3235,275.555 95.5,280.5C 96.5,280.5 97.5,280.5 98.5,280.5C 98.8891,283.946 99.7225,287.279 101,290.5C 102.356,291.38 103.856,291.714 105.5,291.5C 105.167,294.5 106.5,295.833 109.5,295.5C 109.5,294.5 109.5,293.5 109.5,292.5C 110.5,292.5 111.5,292.5 112.5,292.5C 112.579,291.07 112.246,289.736 111.5,288.5C 112.167,287.833 112.833,287.167 113.5,286.5C 111.415,284.164 111.249,281.831 113,279.5C 113.161,282.178 114.495,283.845 117,284.5C 119.111,283.528 121.278,282.695 123.5,282C 123.167,281.667 122.833,281.333 122.5,281C 130.02,278.238 137.02,274.404 143.5,269.5C 147.956,269.132 151.956,267.632 155.5,265C 167.474,263.924 179.474,263.257 191.5,263C 193.534,260.064 195.2,256.897 196.5,253.5C 196.32,252.446 195.987,251.446 195.5,250.5C 198.325,249.745 200.991,248.745 203.5,247.5 Z"/></g>
<g><path style="opacity:1" fill="#65cde9" d="M 404.5,264.5 C 413.111,276.408 418.445,289.741 420.5,304.5C 419.778,304.082 419.278,303.416 419,302.5C 418.667,302.833 418.333,303.167 418,303.5C 417.023,298.383 415.189,293.717 412.5,289.5C 411.738,290.628 411.071,291.795 410.5,293C 409.833,293.667 409.167,293.667 408.5,293C 407.736,290.931 407.236,288.764 407,286.5C 405.23,281.927 403.73,281.761 402.5,286C 404.09,287.852 405.423,289.852 406.5,292C 405.167,296.333 405.167,300.667 406.5,305C 405.472,308.221 404.306,311.388 403,314.5C 399.137,313.884 395.304,313.05 391.5,312C 389.054,308.146 387.221,303.98 386,299.5C 385.586,299.957 385.086,300.291 384.5,300.5C 383.363,293.992 383.363,287.826 384.5,282C 388.072,280.845 391.739,280.012 395.5,279.5C 397.633,281.864 399.633,281.864 401.5,279.5C 402.086,279.709 402.586,280.043 403,280.5C 404.5,278.167 406,275.833 407.5,273.5C 405.498,270.826 404.498,267.826 404.5,264.5 Z"/></g>
<g><path style="opacity:0.271" fill="#766b76" d="M 75.5,282.5 C 77.7964,283.733 79.1298,285.733 79.5,288.5C 77.684,286.882 76.3507,284.882 75.5,282.5 Z"/></g>
<g><path style="opacity:1" fill="#aaafb3" d="M 202.5,283.5 C 186.401,280.638 170.401,280.971 154.5,284.5C 170.389,278.246 186.389,277.913 202.5,283.5 Z"/></g>
<g><path style="opacity:1" fill="#04080e" d="M 388.5,281.5 C 390.857,281.337 393.19,281.503 395.5,282C 400.122,288.25 403.122,295.25 404.5,303C 403.424,309.41 399.757,311.743 393.5,310C 392.299,309.097 391.465,307.931 391,306.5C 389.159,300.312 387.326,294.146 385.5,288C 385.391,285.288 386.391,283.122 388.5,281.5 Z"/></g>
<g><path style="opacity:0.039" fill="#72696a" d="M 430.5,282.5 C 431.924,284.515 432.59,286.848 432.5,289.5C 430.837,287.562 430.171,285.228 430.5,282.5 Z"/></g>
<g><path style="opacity:1" fill="#eef3f6" d="M 268.5,439.5 C 208.335,440.665 148.001,440.832 87.5,440C 71.3473,435.844 61.3473,425.678 57.5,409.5C 57.1707,403.463 57.5041,397.463 58.5,391.5C 59.086,391.709 59.586,392.043 60,392.5C 60.3333,390.167 60.6667,387.833 61,385.5C 61.6689,388.028 62.5022,388.028 63.5,385.5C 63.2907,384.914 62.9574,384.414 62.5,384C 63.3972,381.913 64.0639,379.746 64.5,377.5C 68.6892,371.32 74.3559,366.987 81.5,364.5C 85.023,363.491 88.523,363.491 92,364.5C 94.354,362.16 96.854,361.993 99.5,364C 97.1192,365.247 97.4525,365.58 100.5,365C 101.833,363 101.833,361 100.5,359C 101.471,357.796 102.471,357.296 103.5,357.5C 102.877,353.767 102.543,349.767 102.5,345.5C 103.5,345.5 104.5,345.5 105.5,345.5C 105.489,343.453 105.156,341.453 104.5,339.5C 105.586,336.58 106.252,333.58 106.5,330.5C 107.658,326.194 109.491,322.194 112,318.5C 118.712,307.621 127.545,298.955 138.5,292.5C 140.225,293.278 141.891,293.611 143.5,293.5C 144.192,292.975 144.692,292.308 145,291.5C 158.604,293.54 171.771,297.707 184.5,304C 189.236,307.993 194.069,311.827 199,315.5C 200.972,319.972 204.138,323.305 208.5,325.5C 210.103,328.373 211.436,331.373 212.5,334.5C 213.325,335.386 214.325,335.719 215.5,335.5C 216.398,339.798 217.731,343.965 219.5,348C 224.489,348.749 229.489,349.415 234.5,350C 242.278,353.389 249.945,357.055 257.5,361C 278.335,381.997 283.668,406.497 273.5,434.5C 270.074,434.35 269.741,435.516 272.5,438C 270.942,438.21 269.609,438.71 268.5,439.5 Z"/></g>
<g><path style="opacity:0.049" fill="#767375" d="M 432.5,289.5 C 434.04,291.838 434.706,294.505 434.5,297.5C 432.96,295.162 432.294,292.495 432.5,289.5 Z"/></g>
<g><path style="opacity:0.2" fill="#8f8d8e" d="M 58.5,306.5 C 59.2955,298.384 55.6288,295.051 47.5,296.5C 50.7712,293.953 54.1046,294.12 57.5,297C 59.5919,300.11 59.9252,303.277 58.5,306.5 Z"/></g>
<g><path style="opacity:0.981" fill="#151414" d="M 46.5,296.5 C 46.8333,296.5 47.1667,296.5 47.5,296.5C 55.6288,295.051 59.2955,298.384 58.5,306.5C 58.1412,308.371 57.1412,309.871 55.5,311C 49.0031,314.414 42.6697,318.081 36.5,322C 33.1056,323.684 29.7723,323.851 26.5,322.5C 23.9439,319.332 22.9439,315.666 23.5,311.5C 24.8333,310.833 25.8333,309.833 26.5,308.5C 29.4937,306 32.827,304 36.5,302.5C 40.8429,302.003 44.1763,300.003 46.5,296.5 Z"/></g>
<g><path style="opacity:0.153" fill="#9a9898" d="M 84.5,297.5 C 86.8598,298.865 88.5265,300.865 89.5,303.5C 87.1097,302.109 85.4431,300.109 84.5,297.5 Z"/></g>
<g><path style="opacity:0.4" fill="#757272" d="M 46.5,296.5 C 44.1763,300.003 40.8429,302.003 36.5,302.5C 39.4937,300 42.827,298 46.5,296.5 Z"/></g>
<g><path style="opacity:0.086" fill="#b1b0b0" d="M 89.5,304.5 C 92.5,305.5 94.5,307.5 95.5,310.5C 93.1667,308.833 91.1667,306.833 89.5,304.5 Z"/></g>
<g><path style="opacity:0.047" fill="#a9a9a9" d="M 26.5,308.5 C 25.8333,309.833 24.8333,310.833 23.5,311.5C 23.5,309.5 24.5,308.5 26.5,308.5 Z"/></g>
<g><path style="opacity:0.145" fill="#979394" d="M 95.5,310.5 C 98.972,311.577 99.3053,313.244 96.5,315.5C 96.4142,314.504 96.7476,313.671 97.5,313C 96.6195,312.292 95.9528,311.458 95.5,310.5 Z"/></g>
<g><path style="opacity:0.059" fill="#a3a2a2" d="M 435.5,301.5 C 436.475,304.311 437.142,307.311 437.5,310.5C 442.192,310.425 446.526,311.425 450.5,313.5C 445.883,312.513 441.216,311.846 436.5,311.5C 435.793,308.214 435.46,304.881 435.5,301.5 Z"/></g>
<g><path style="opacity:0.118" fill="#9f9e9f" d="M 23.5,311.5 C 22.9439,315.666 23.9439,319.332 26.5,322.5C 24.5891,322.426 23.4224,321.426 23,319.5C 22.1993,316.633 22.3659,313.966 23.5,311.5 Z"/></g>
<g><path style="opacity:0.067" fill="#929192" d="M 450.5,313.5 C 452.553,313.402 454.22,314.069 455.5,315.5C 453.447,315.598 451.78,314.931 450.5,313.5 Z"/></g>
<g><path style="opacity:0.737" fill="#534a4d" d="M 96.5,315.5 C 95.8085,319.226 94.8085,322.893 93.5,326.5C 92.8165,326.863 92.1499,327.196 91.5,327.5C 92.4025,323.111 94.0692,319.111 96.5,315.5 Z"/></g>
<g><path style="opacity:1" fill="#dce7eb" d="M 202.5,283.5 C 221.025,288.524 235.859,298.857 247,314.5C 251.307,321.617 255.473,328.784 259.5,336C 264.21,336.375 268.877,337.042 273.5,338C 279.032,339.844 284.532,341.677 290,343.5C 293.717,343.61 296.217,341.943 297.5,338.5C 298.29,339.609 298.79,340.942 299,342.5C 303.018,345.078 306.184,348.411 308.5,352.5C 305.996,356.731 305.996,361.064 308.5,365.5C 309.35,369.553 310.516,373.553 312,377.5C 312.499,383.491 312.666,389.491 312.5,395.5C 308.243,420.423 293.577,435.09 268.5,439.5C 269.609,438.71 270.942,438.21 272.5,438C 269.741,435.516 270.074,434.35 273.5,434.5C 283.668,406.497 278.335,381.997 257.5,361C 249.945,357.055 242.278,353.389 234.5,350C 229.489,349.415 224.489,348.749 219.5,348C 217.731,343.965 216.398,339.798 215.5,335.5C 214.325,335.719 213.325,335.386 212.5,334.5C 211.436,331.373 210.103,328.373 208.5,325.5C 204.138,323.305 200.972,319.972 199,315.5C 194.069,311.827 189.236,307.993 184.5,304C 171.771,297.707 158.604,293.54 145,291.5C 144.692,292.308 144.192,292.975 143.5,293.5C 141.891,293.611 140.225,293.278 138.5,292.5C 143.236,288.798 148.57,286.132 154.5,284.5C 170.401,280.971 186.401,280.638 202.5,283.5 Z"/></g>
<g><path style="opacity:0.086" fill="#b9b4b4" d="M 482.5,334.5 C 484.262,335.262 485.262,336.596 485.5,338.5C 483.738,337.738 482.738,336.404 482.5,334.5 Z"/></g>
<g><path style="opacity:0.188" fill="#8f8584" d="M 89.5,333.5 C 89.6621,335.527 89.4955,337.527 89,339.5C 88.6174,340.056 88.1174,340.389 87.5,340.5C 87.4095,337.848 88.0762,335.515 89.5,333.5 Z"/></g>
<g><path style="opacity:0.024" fill="#c4c4c4" d="M 488.5,342.5 C 490.588,344.336 491.921,346.669 492.5,349.5C 490.412,347.664 489.079,345.331 488.5,342.5 Z"/></g>
<g><path style="opacity:0.043" fill="#bdbdbd" d="M 86.5,346.5 C 85.4479,348.256 83.7812,348.923 81.5,348.5C 83.0276,347.691 84.6943,347.024 86.5,346.5 Z"/></g>
<g><path style="opacity:0.31" fill="#746e70" d="M 81.5,348.5 C 80.0101,350.28 78.0101,350.946 75.5,350.5C 77.2143,349.262 79.2143,348.595 81.5,348.5 Z"/></g>
<g><path style="opacity:0.031" fill="#d4d2d4" d="M 492.5,349.5 C 494.008,351.181 495.008,353.181 495.5,355.5C 493.461,354.089 492.461,352.089 492.5,349.5 Z"/></g>
<g><path style="opacity:0.533" fill="#51494c" d="M 75.5,350.5 C 73.5182,353.137 70.8515,354.47 67.5,354.5C 69.5792,352.127 72.2459,350.794 75.5,350.5 Z"/></g>
<g><path style="opacity:1" fill="#cacdd0" d="M 106.5,330.5 C 106.252,333.58 105.586,336.58 104.5,339.5C 105.156,341.453 105.489,343.453 105.5,345.5C 104.5,345.5 103.5,345.5 102.5,345.5C 102.543,349.767 102.877,353.767 103.5,357.5C 102.471,357.296 101.471,357.796 100.5,359C 101.833,361 101.833,363 100.5,365C 97.4525,365.58 97.1192,365.247 99.5,364C 96.854,361.993 94.354,362.16 92,364.5C 88.523,363.491 85.023,363.491 81.5,364.5C 87.1889,362.55 93.0222,360.884 99,359.5C 100.276,351.455 101.943,343.455 104,335.5C 104.757,333.685 105.59,332.019 106.5,330.5 Z"/></g>
<g><path style="opacity:0.149" fill="#817d7e" d="M 67.5,354.5 C 62.5641,358.096 57.8974,362.096 53.5,366.5C 56.6185,360.716 61.2852,356.716 67.5,354.5 Z"/></g>
<g><path style="opacity:1" fill="#999fa2" d="M 308.5,365.5 C 310.462,368.865 311.962,372.532 313,376.5C 313.82,383.014 313.653,389.347 312.5,395.5C 312.666,389.491 312.499,383.491 312,377.5C 310.516,373.553 309.35,369.553 308.5,365.5 Z"/></g>
<g><path style="opacity:0.227" fill="#777575" d="M 50.5,370.5 C 50.2503,372.674 49.2503,374.341 47.5,375.5C 47.2729,373.067 48.2729,371.401 50.5,370.5 Z"/></g>
<g><path style="opacity:0.467" fill="#5f595b" d="M 46.5,376.5 C 46.5238,380.787 45.1905,384.453 42.5,387.5C 43.0653,383.463 44.3987,379.797 46.5,376.5 Z"/></g>
<g><path style="opacity:1" fill="#cacbcd" d="M 64.5,377.5 C 64.0639,379.746 63.3972,381.913 62.5,384C 62.9574,384.414 63.2907,384.914 63.5,385.5C 62.5022,388.028 61.6689,388.028 61,385.5C 60.6667,387.833 60.3333,390.167 60,392.5C 59.586,392.043 59.086,391.709 58.5,391.5C 57.5041,397.463 57.1707,403.463 57.5,409.5C 56.3467,403.347 56.18,397.014 57,390.5C 58.5031,385.481 61.0031,381.148 64.5,377.5 Z"/></g>
<g><path style="opacity:0.18" fill="#6d6b6d" d="M 498.5,398.5 C 498.405,400.786 497.738,402.786 496.5,404.5C 496.054,401.99 496.72,399.99 498.5,398.5 Z"/></g>
<g><path style="opacity:0.129" fill="#918d8d" d="M 41.5,409.5 C 43.2227,411.78 43.8893,414.447 43.5,417.5C 42.469,415.039 41.8023,412.373 41.5,409.5 Z"/></g>
<g><path style="opacity:0.067" fill="#929191" d="M 44.5,420.5 C 46.1042,421.287 46.7709,422.62 46.5,424.5C 45.3263,423.486 44.6596,422.153 44.5,420.5 Z"/></g>
<g><path style="opacity:0.2" fill="#9d9999" d="M 46.5,425.5 C 49.5465,428.233 51.8798,431.566 53.5,435.5C 50.4208,432.743 48.0875,429.41 46.5,425.5 Z"/></g>
<g><path style="opacity:0.651" fill="#4e4c4c" d="M 486.5,425.5 C 485.299,427.909 483.633,429.909 481.5,431.5C 480.425,427.062 482.092,425.062 486.5,425.5 Z"/></g>
<g><path style="opacity:0.082" fill="#b1a9ae" d="M 53.5,436.5 C 56.8102,438.146 59.4768,440.48 61.5,443.5C 58.2157,441.883 55.5491,439.55 53.5,436.5 Z"/></g>
<g><path style="opacity:1" fill="#4f767f" d="M 305.5,438.5 C 319.833,439.167 334.167,439.833 348.5,440.5C 333.818,440.833 319.152,440.499 304.5,439.5C 304.624,438.893 304.957,438.56 305.5,438.5 Z"/></g>
<g><path style="opacity:1" fill="#4e737d" d="M 426.5,439.5 C 429.167,439.5 431.833,439.5 434.5,439.5C 414.295,440.189 393.961,440.856 373.5,441.5C 373.611,440.883 373.944,440.383 374.5,440C 391.83,439.5 409.163,439.333 426.5,439.5 Z"/></g>
<g><path style="opacity:0.118" fill="#aba9ab" d="M 61.5,443.5 C 63.4044,443.738 64.7377,444.738 65.5,446.5C 63.5956,446.262 62.2623,445.262 61.5,443.5 Z"/></g>
<g><path style="opacity:0.42" fill="#706e6f" d="M 65.5,446.5 C 68.6393,446.599 70.9726,447.932 72.5,450.5C 69.6689,449.921 67.3356,448.588 65.5,446.5 Z"/></g>
<g><path style="opacity:0.949" fill="#524f50" d="M 455.5,449.5 C 453.208,451.267 450.542,452.267 447.5,452.5C 449.388,451.06 450.055,449.393 449.5,447.5C 451.173,449.086 453.173,449.753 455.5,449.5 Z"/></g>
<g><path style="opacity:0.365" fill="#656263" d="M 73.5,450.5 C 78.3655,450.592 82.6988,451.925 86.5,454.5C 81.7363,454.231 77.403,452.898 73.5,450.5 Z"/></g>
<g><path style="opacity:0.035" fill="#b4b1b4" d="M 371.5,452.5 C 373.027,452.427 374.027,453.094 374.5,454.5C 372.973,454.573 371.973,453.906 371.5,452.5 Z"/></g>
</svg>
