<?xml version="1.0" standalone="no"?>
<!DOCTYPE svg PUBLIC "-//W3C//DTD SVG 20010904//EN"
 "http://www.w3.org/TR/2001/REC-SVG-20010904/DTD/svg10.dtd">
<svg version="1.0" xmlns="http://www.w3.org/2000/svg"
 width="500.000000pt" height="500.000000pt" viewBox="0 0 500.000000 500.000000"
 preserveAspectRatio="xMidYMid meet">

<g transform="translate(0.000000,500.000000) scale(0.100000,-0.100000)"
fill="#000000" stroke="none">
<path d="M1340 4905 c-60 -19 -110 -62 -140 -121 l-25 -49 3 -357 c3 -373 1
-402 -39 -396 -10 2 -96 80 -191 174 -176 173 -217 203 -293 211 -175 20 -312
-174 -238 -337 13 -28 123 -159 293 -349 152 -170 281 -323 291 -345 17 -38
19 -76 19 -547 0 -521 -1 -529 -39 -529 -9 0 -124 110 -257 244 -133 134 -261
255 -285 269 -96 55 -206 41 -284 -38 -85 -84 -95 -210 -26 -307 17 -24 188
-216 381 -427 l350 -385 0 -297 0 -297 -67 -43 c-141 -91 -230 -195 -460 -539
-115 -173 -215 -325 -222 -337 l-12 -23 2402 0 c1922 0 2400 3 2396 13 -8 20
-407 584 -533 753 -91 122 -231 248 -351 316 -29 17 -53 33 -53 37 0 4 35 48
78 98 43 49 99 117 124 150 l46 59 124 23 c68 13 175 26 238 29 l115 7 0 75 0
75 -95 -3 c-52 -2 -133 -10 -180 -17 -47 -7 -86 -11 -88 -10 -1 1 18 47 42
101 24 55 59 146 77 203 32 101 33 104 84 138 65 42 174 81 254 89 l61 7 0 73
0 74 -29 0 c-47 0 -172 -27 -234 -50 -32 -12 -60 -20 -61 -18 -2 1 2 64 8 138
11 122 15 141 45 196 48 91 150 214 235 285 l75 63 -22 36 c-53 88 -51 86 -83
70 -37 -20 -204 -180 -235 -225 -13 -19 -26 -35 -29 -35 -3 0 -16 44 -28 98
-12 53 -59 211 -104 350 -66 204 -85 252 -99 252 -33 0 -131 -42 -126 -53 28
-73 177 -541 175 -548 -2 -5 -36 15 -76 46 -66 50 -173 115 -214 130 -14 6
-24 -7 -50 -60 -24 -49 -30 -68 -20 -73 175 -100 193 -113 293 -212 l106 -105
6 -65 c4 -36 5 -85 2 -110 -2 -25 -7 -78 -10 -119 -3 -40 -8 -77 -11 -82 -3
-5 -31 26 -63 68 -32 43 -85 103 -118 135 -56 53 -205 158 -224 158 -9 0 -69
-112 -69 -127 0 -4 27 -24 60 -43 71 -40 181 -142 238 -220 23 -31 59 -94 81
-140 l39 -84 -24 -66 c-14 -36 -42 -101 -63 -145 l-38 -80 -19 45 c-45 111
-161 290 -188 290 -6 0 -33 -20 -60 -45 l-48 -44 21 -28 c89 -114 132 -199
166 -325 l18 -67 -34 -43 c-29 -37 -221 -258 -224 -258 -1 0 -26 7 -56 16 -30
9 -99 24 -154 33 l-100 17 -27 92 -27 92 19 109 c33 193 84 344 155 461 19 32
35 60 35 62 0 7 -108 78 -118 78 -15 0 -99 -158 -134 -251 -18 -49 -36 -89
-39 -89 -13 0 -109 553 -109 626 0 60 135 161 279 209 75 26 80 35 58 112 -13
43 -17 48 -43 47 -42 -2 -158 -50 -239 -100 -49 -29 -72 -38 -77 -30 -4 6 -10
77 -14 157 -6 134 -5 147 14 184 55 107 201 278 289 337 18 13 33 26 33 31 0
13 -73 117 -82 117 -19 0 -125 -90 -196 -166 l-74 -79 5 115 c7 173 63 322
165 440 17 21 32 42 32 47 0 5 -22 30 -49 57 l-48 47 -52 -58 c-57 -64 -140
-219 -161 -301 -8 -29 -19 -52 -27 -52 -7 0 -13 4 -13 8 0 28 -238 252 -267
252 -8 0 -83 -102 -83 -113 0 -2 34 -32 75 -66 87 -71 189 -196 240 -292 31
-60 35 -75 35 -143 0 -42 -2 -76 -5 -76 -3 0 -29 18 -58 39 -54 41 -167 104
-203 115 -18 6 -24 0 -37 -31 -8 -21 -18 -52 -21 -70 -7 -31 -6 -32 72 -72 88
-47 173 -117 227 -190 34 -48 36 -54 45 -168 5 -65 12 -137 15 -160 3 -27 1
-43 -6 -43 -6 0 -36 23 -67 51 -64 57 -288 209 -308 209 -11 0 -74 -106 -74
-124 0 -2 29 -21 65 -41 160 -89 403 -315 424 -392 16 -61 53 -304 47 -310 -3
-3 -40 17 -83 44 -101 65 -221 125 -234 118 -16 -10 -61 -106 -56 -119 3 -7
52 -37 108 -67 95 -50 203 -123 288 -196 31 -26 37 -43 82 -213 69 -258 68
-250 35 -250 -85 0 -286 -60 -411 -122 -100 -51 -161 -92 -405 -282 -107 -84
-201 -156 -208 -160 -9 -5 -27 8 -55 40 -100 114 -235 216 -358 268 l-66 28
-7 75 c-3 42 -6 229 -6 415 l0 339 215 212 c233 231 254 260 255 355 0 156
-146 269 -302 232 -47 -12 -64 -25 -159 -117 -84 -82 -113 -104 -131 -101 -23
3 -23 3 -26 180 l-2 176 177 159 c98 88 221 197 273 242 212 185 237 215 247
299 16 141 -92 263 -234 263 -88 1 -127 -24 -284 -177 -75 -74 -141 -134 -145
-134 -34 1 -35 8 -37 626 l-2 609 -28 47 c-34 58 -81 95 -143 114 -56 17 -66
17 -124 -1z m120 -165 c20 -20 20 -33 20 -612 0 -377 4 -607 10 -630 30 -107
153 -166 258 -123 22 10 94 73 178 155 117 116 146 140 170 140 65 0 106 -59
78 -113 -9 -18 -152 -153 -330 -311 -218 -193 -322 -291 -337 -320 -21 -38
-22 -54 -22 -247 l0 -205 28 -43 c33 -50 76 -78 135 -87 73 -11 122 16 234
127 54 54 109 101 122 105 55 14 115 -48 101 -104 -4 -17 -90 -111 -225 -247
-120 -121 -224 -233 -229 -248 -6 -16 -11 -62 -11 -103 l0 -74 -155 0 -155 0
0 -80 0 -80 155 0 155 0 0 -75 0 -74 -77 -3 -78 -3 -3 -77 -3 -78 81 0 80 0 0
-90 0 -91 -52 8 c-29 4 -123 7 -208 7 -134 -1 -168 -5 -253 -28 -53 -14 -99
-26 -102 -26 -2 0 -5 120 -7 268 -3 245 -5 270 -23 304 -11 20 -78 101 -150
180 -419 461 -540 594 -545 598 -89 81 -76 190 24 190 39 0 46 -6 296 -254
140 -140 269 -261 287 -270 62 -31 170 -11 215 40 44 50 48 80 48 369 l0 275
80 0 80 0 0 80 0 80 -80 0 -80 0 0 75 0 74 158 3 157 3 3 78 3 77 -159 0 -159
0 -17 63 c-10 35 -27 80 -39 100 -12 19 -139 167 -282 327 -143 161 -265 302
-272 314 -22 37 -15 75 17 108 53 52 70 42 275 -161 195 -194 216 -207 306
-199 64 7 121 45 148 100 20 43 21 58 21 410 0 354 1 366 21 392 26 33 79 36
109 6z m2196 -3599 c113 -28 246 -87 339 -151 78 -54 205 -172 224 -209 10
-18 9 -18 -62 0 -166 42 -435 79 -578 79 l-69 0 0 -79 0 -78 113 -8 c218 -13
311 -29 587 -96 l165 -40 105 -145 c58 -80 109 -152 113 -160 7 -12 -136 -14
-982 -14 l-989 0 -125 187 c-90 134 -123 191 -116 199 13 16 337 268 350 272
5 2 26 -10 47 -27 120 -94 303 -159 475 -168 l107 -6 0 82 0 81 -52 0 c-138 0
-324 58 -417 129 l-24 18 54 31 c100 57 250 106 384 126 67 10 272 -4 351 -23z
m-2062 -147 c178 -37 351 -131 481 -263 38 -39 67 -71 65 -71 -3 0 -50 16
-105 36 -133 47 -248 72 -372 80 l-103 7 0 -81 0 -82 36 0 c77 0 254 -33 351
-65 123 -41 189 -74 308 -153 91 -60 118 -84 150 -134 l17 -28 -1016 0 -1016
0 129 193 c130 195 221 314 247 324 8 3 40 -8 72 -25 138 -73 304 -112 473
-112 l99 0 0 80 0 80 -77 0 c-43 0 -109 5 -148 10 -77 11 -224 55 -251 75 -16
11 -12 16 41 43 78 39 164 69 245 86 90 20 280 20 374 0z"/>
<path d="M2654 697 c-3 -8 -4 -45 -2 -83 l3 -69 80 0 80 0 0 80 0 80 -78 3
c-59 2 -79 0 -83 -11z"/>
<path d="M3120 470 l0 -80 80 0 80 0 0 80 0 80 -80 0 -80 0 0 -80z"/>
<path d="M3830 486 c0 -35 -3 -71 -6 -80 -5 -14 6 -16 80 -16 l86 0 0 80 0 80
-80 0 -80 0 0 -64z"/>
<path d="M780 470 l0 -80 80 0 80 0 0 80 0 80 -80 0 -80 0 0 -80z"/>
<path d="M1640 390 l0 -80 80 0 80 0 0 80 0 80 -80 0 -80 0 0 -80z"/>
<path d="M2420 4845 l0 -75 80 0 80 0 0 75 0 75 -80 0 -80 0 0 -75z"/>
<path d="M2424 4596 c-3 -7 -4 -42 -2 -77 l3 -64 75 0 75 0 3 78 3 77 -76 0
c-54 0 -77 -4 -81 -14z"/>
<path d="M4610 4375 l0 -75 74 0 c82 0 82 0 85 73 3 73 -1 77 -85 77 l-74 0 0
-75z"/>
<path d="M2455 4291 c-75 -19 -131 -67 -164 -141 -72 -158 66 -341 238 -315
169 25 255 207 165 351 -47 76 -158 125 -239 105z m88 -171 c34 -27 41 -53 23
-88 -34 -65 -124 -52 -142 20 -5 22 0 33 24 58 36 35 60 38 95 10z"/>
<path d="M4610 4065 l0 -75 74 0 c82 0 86 3 86 82 0 65 -4 68 -86 68 l-74 0 0
-75z"/>
<path d="M4632 3821 c-48 -12 -108 -56 -136 -99 -104 -157 4 -356 195 -357 56
0 73 4 115 30 30 19 60 49 79 79 26 42 30 59 30 115 -1 71 -17 115 -64 164
-53 58 -146 86 -219 68z m103 -176 c15 -14 25 -36 25 -51 0 -37 -36 -74 -72
-74 -36 0 -78 40 -78 75 0 14 11 37 25 50 13 14 36 25 50 25 14 0 37 -11 50
-25z"/>
<path d="M80 3675 c0 -85 4 -89 96 -83 l49 3 3 78 3 77 -76 0 -75 0 0 -75z"/>
<path d="M87 3434 c-4 -4 -7 -40 -7 -81 l0 -73 75 0 76 0 -3 78 -3 77 -65 3
c-36 2 -69 0 -73 -4z"/>
<path d="M2270 2110 l0 -80 75 0 75 0 0 80 0 80 -75 0 -75 0 0 -80z"/>
<path d="M2270 1795 l0 -75 75 0 75 0 0 75 0 75 -75 0 -75 0 0 -75z"/>
<path d="M2273 1546 c-62 -20 -96 -49 -128 -108 -41 -75 -41 -157 1 -224 44
-72 100 -107 178 -112 83 -5 129 11 182 64 113 112 83 292 -59 365 -50 26
-122 32 -174 15z m126 -172 c24 -30 26 -43 10 -77 -11 -25 -47 -47 -75 -47
-25 0 -64 47 -64 78 0 67 88 99 129 46z"/>
</g>
</svg>
