<?xml version="1.0" standalone="no"?>
<!DOCTYPE svg PUBLIC "-//W3C//DTD SVG 20010904//EN"
 "http://www.w3.org/TR/2001/REC-SVG-20010904/DTD/svg10.dtd">
<svg version="1.0" xmlns="http://www.w3.org/2000/svg"
 width="500.000000pt" height="500.000000pt" viewBox="0 0 500.000000 500.000000"
 preserveAspectRatio="xMidYMid meet">

<g transform="translate(0.000000,500.000000) scale(0.100000,-0.100000)"
fill="#000000" stroke="none">
<path d="M1605 4990 c-39 -4 -106 -17 -150 -29 -105 -28 -291 -120 -335 -166
l-35 -36 1 -137 c1 -279 79 -469 268 -657 83 -83 117 -109 193 -148 138 -71
217 -89 398 -90 133 -1 161 2 246 25 53 15 126 41 161 57 36 17 68 31 72 31 4
0 5 -53 4 -117 l-3 -117 -105 -12 c-565 -63 -1048 -364 -1342 -836 -190 -306
-292 -684 -275 -1022 14 -266 78 -508 198 -745 88 -174 177 -299 309 -432 327
-328 721 -511 1183 -548 267 -21 657 59 910 185 488 245 839 701 952 1235 106
503 3 1001 -293 1424 -60 85 -82 105 -119 105 -38 0 -73 -29 -73 -62 0 -11 37
-76 82 -142 64 -96 78 -122 64 -124 -9 -2 -147 8 -305 23 l-289 27 -44 -20
c-39 -17 -59 -39 -149 -167 l-104 -148 -223 -98 c-123 -55 -230 -99 -238 -99
-9 0 -64 26 -124 57 l-108 56 -4 56 c-2 31 -2 62 0 69 3 8 42 32 88 54 46 22
93 51 104 65 28 36 44 95 36 135 -7 39 -115 229 -154 270 -33 36 -82 51 -143
46 -43 -4 -76 -23 -252 -139 -243 -160 -235 -154 -258 -204 -16 -35 -19 -68
-19 -277 0 -142 -4 -239 -10 -243 -5 -3 -49 -10 -97 -16 -114 -12 -120 -15
-138 -50 -19 -36 -10 -75 21 -96 20 -13 41 -14 117 -9 160 12 215 36 248 110
16 36 19 69 19 281 l0 240 194 128 c106 70 196 127 199 127 8 0 117 -183 117
-196 0 -5 -40 -28 -90 -52 -76 -36 -93 -48 -115 -85 -22 -38 -25 -55 -25 -136
0 -94 14 -146 48 -184 24 -28 284 -155 329 -163 23 -3 54 0 78 9 85 31 462
200 492 220 18 12 71 81 120 154 58 88 96 135 111 139 26 7 413 -26 408 -35
-2 -3 27 -7 65 -8 39 0 76 -6 83 -13 9 -7 15 -7 18 -1 2 6 18 8 40 5 21 -4 35
-11 32 -16 -3 -5 1 -8 11 -6 12 2 24 -16 46 -72 16 -41 30 -88 31 -105 0 -16
5 -33 10 -36 4 -3 14 -37 22 -76 12 -65 12 -72 -3 -72 -22 0 -218 -36 -266
-49 -22 -6 -121 -25 -220 -42 -276 -47 -263 -42 -387 -167 -118 -120 -138
-159 -118 -230 15 -57 37 -85 128 -158 79 -64 85 -71 140 -181 65 -130 66
-122 -22 -198 l-57 -50 -107 28 c-248 67 -247 68 -395 -106 -114 -133 -136
-168 -137 -215 0 -18 38 -139 85 -268 86 -238 93 -261 76 -250 -5 3 -12 1 -15
-4 -11 -18 -183 -36 -331 -35 -444 3 -848 174 -1165 494 -217 219 -376 517
-441 830 -22 105 -37 437 -22 503 l8 37 42 -54 c70 -89 133 -108 282 -87 87
12 119 77 68 137 -23 27 -24 27 -103 17 -93 -12 -82 -18 -186 105 l-71 83 12
42 c7 23 32 95 57 159 181 471 612 853 1114 987 79 22 259 51 310 51 l30 0 0
-64 0 -63 -63 -7 c-140 -14 -300 -77 -383 -149 -52 -46 -59 -89 -21 -125 32
-31 75 -28 117 7 49 40 123 75 205 97 55 15 104 19 230 19 140 0 169 -3 235
-24 89 -28 143 -54 190 -92 45 -38 91 -39 119 -3 32 41 27 72 -21 117 -75 71
-246 139 -387 153 l-61 7 0 63 0 64 33 0 c61 0 272 -40 372 -71 175 -54 393
-169 535 -283 44 -35 89 -46 117 -28 17 11 34 62 28 83 -14 42 -203 174 -370
257 -181 90 -392 151 -606 175 l-114 13 -3 117 c-1 67 1 117 7 117 5 0 35 -13
66 -30 69 -36 98 -38 130 -5 49 48 29 94 -60 134 l-59 27 87 52 c48 29 91 52
96 52 12 0 373 -169 384 -180 9 -8 -24 -16 -122 -26 -97 -10 -128 -57 -79
-119 21 -28 22 -28 112 -22 299 19 588 230 706 517 55 133 74 231 74 384 l1
138 -43 39 c-62 55 -230 135 -347 165 -123 32 -299 36 -408 10 -259 -62 -473
-233 -588 -469 -26 -54 -35 -58 -49 -21 -25 65 -99 174 -168 246 -183 191
-441 285 -707 258z m59 -148 c8 -13 38 -314 32 -319 -5 -5 -340 184 -374 210
-10 8 -6 14 16 27 45 27 171 68 242 78 36 5 68 10 72 11 4 0 9 -3 12 -7z
m1843 -22 c90 -24 186 -67 179 -79 -9 -14 -376 -224 -382 -218 -5 5 6 148 22
280 l6 49 52 -7 c28 -3 83 -15 123 -25z m-1529 -30 c28 -12 52 -28 52 -34 0
-7 9 -99 20 -206 11 -107 20 -206 20 -221 l0 -27 -104 59 -103 59 -11 118 c-7
64 -15 158 -18 209 l-7 92 49 -13 c27 -7 73 -23 102 -36z m1181 -132 c-10 -95
-18 -187 -18 -205 -1 -29 -8 -35 -106 -92 l-105 -60 0 37 c0 20 9 125 20 232
11 107 20 196 20 197 0 13 187 75 200 67 3 -1 -2 -81 -11 -176z m-904 -80 c61
-81 109 -178 135 -269 24 -87 37 -199 23 -199 -5 0 -46 21 -91 46 -55 31 -84
54 -87 68 -4 23 -35 370 -35 399 0 9 2 17 4 17 2 0 25 -28 51 -62z m531 -141
c-24 -255 -14 -228 -109 -283 -45 -26 -86 -49 -91 -52 -13 -7 -1 122 19 199
22 88 84 212 142 284 36 46 48 56 51 42 2 -10 -3 -96 -12 -190z m-1370 64
c104 -59 190 -113 191 -118 3 -8 -265 -136 -284 -136 -14 1 -53 90 -72 165
-19 75 -36 198 -27 198 2 0 89 -49 192 -109z m2353 35 c-8 -84 -29 -162 -64
-241 l-23 -54 -144 66 c-79 36 -146 68 -150 72 -7 6 83 61 311 188 42 24 76
43 76 43 1 0 -2 -34 -6 -74z m-1817 -341 c21 -11 37 -24 35 -28 -1 -4 -96 -51
-210 -104 l-207 -95 -28 18 c-34 22 -132 114 -132 124 0 4 21 17 48 28 26 12
110 50 186 86 l140 66 65 -37 c36 -21 83 -46 103 -58z m1433 15 c77 -36 155
-73 173 -81 17 -7 32 -17 32 -20 0 -8 -73 -75 -121 -112 l-36 -27 -114 51
c-183 82 -309 142 -309 148 1 13 204 119 219 113 9 -3 79 -35 156 -72z m-1129
-192 l87 -51 -56 -28 c-126 -64 -315 -93 -455 -69 -40 6 -71 14 -69 17 9 8
382 182 394 182 6 1 51 -22 99 -51z m1900 -2143 c8 -57 -10 -287 -31 -392
-113 -553 -520 -1033 -1038 -1224 -44 -16 -83 -26 -87 -22 -12 14 -172 462
-168 472 7 21 172 211 182 211 6 0 70 -16 141 -35 72 -19 141 -35 155 -35 44
1 103 36 184 111 132 123 136 157 37 355 -71 143 -81 156 -203 258 -32 26 -58
51 -58 56 0 5 36 44 80 87 l80 78 333 61 c182 34 344 62 359 63 24 1 27 -3 34
-44z"/>
<path d="M4000 2419 c0 -5 5 -7 10 -4 6 3 10 8 10 11 0 2 -4 4 -10 4 -5 0 -10
-5 -10 -11z"/>
<path d="M1471 1585 c-113 -48 -146 -72 -167 -122 -19 -43 -18 -152 1 -197 17
-41 70 -79 131 -95 50 -13 54 -23 54 -144 0 -100 13 -141 58 -179 35 -29 528
-198 578 -198 36 0 103 30 126 57 18 20 59 106 147 305 60 138 63 165 21 284
-37 108 -61 147 -108 176 -35 22 -50 23 -252 28 l-215 5 -62 48 c-123 95 -156
98 -312 32z m227 -164 c42 -32 92 -63 111 -70 21 -7 111 -11 232 -11 l197 0
26 -78 c14 -42 26 -84 26 -93 0 -13 -42 -114 -125 -296 -17 -40 -34 -63 -44
-63 -30 0 -464 149 -473 162 -4 7 -8 56 -8 108 -1 142 -36 204 -134 232 -57
16 -67 27 -64 62 3 27 10 33 88 67 47 21 86 38 88 38 2 1 38 -25 80 -58z"/>
</g>
</svg>
