<?xml version="1.0" standalone="no"?>
<!DOCTYPE svg PUBLIC "-//W3C//DTD SVG 20010904//EN"
 "http://www.w3.org/TR/2001/REC-SVG-20010904/DTD/svg10.dtd">
<svg version="1.0" xmlns="http://www.w3.org/2000/svg"
 width="500.000000pt" height="500.000000pt" viewBox="0 0 500.000000 500.000000"
 preserveAspectRatio="xMidYMid meet">

<g transform="translate(0.000000,500.000000) scale(0.100000,-0.100000)"
fill="#000000" stroke="none">
<path d="M3969 4990 c-14 -4 -35 -13 -48 -19 -29 -16 -262 -185 -366 -266
-264 -206 -447 -499 -520 -835 -33 -152 -42 -849 -12 -953 14 -52 77 -121 129
-143 37 -16 79 -18 308 -21 146 -2 271 -3 278 -3 9 0 12 -33 12 -133 l0 -133
-52 -34 c-38 -26 -60 -50 -80 -89 l-28 -53 0 -637 c0 -690 1 -705 55 -797 35
-60 107 -127 173 -160 54 -27 64 -29 177 -29 109 0 125 2 177 27 67 31 147
103 183 163 54 93 55 107 55 785 0 377 -4 639 -10 659 -15 53 -59 110 -107
138 l-43 25 0 133 0 133 273 5 c181 3 284 9 309 17 54 19 99 60 133 121 l30
54 0 385 c0 360 -2 392 -23 499 -87 431 -262 686 -686 996 -231 169 -258 183
-317 165z m93 -287 c138 -99 219 -174 297 -271 158 -199 245 -390 286 -626 18
-107 22 -834 5 -867 -10 -18 -23 -19 -200 -19 l-190 0 0 165 c0 90 -5 186 -11
214 -40 190 -251 269 -408 153 -27 -20 -49 -39 -49 -42 2 -21 -4 -30 -14 -24
-7 4 -10 4 -6 0 3 -4 0 -23 -8 -41 -10 -26 -14 -84 -14 -230 l0 -195 -263 0
-264 0 -22 24 -22 24 4 413 c4 407 4 416 29 509 36 131 116 328 129 315 3 -3
6 1 6 8 0 49 214 291 340 385 121 91 260 182 270 178 7 -3 54 -36 105 -73z
m142 -2384 c13 -7 30 -24 36 -38 7 -19 10 -213 8 -646 -3 -616 -3 -620 -25
-661 -25 -48 -83 -101 -129 -120 -44 -19 -146 -18 -192 2 -47 19 -97 67 -125
119 -22 40 -22 46 -25 673 l-3 632 25 25 c25 25 26 25 215 25 120 0 199 -4
215 -11z"/>
<path d="M3970 4583 c-8 -3 -25 -15 -37 -26 l-23 -20 0 -410 0 -409 29 -29
c40 -39 82 -39 122 0 l29 29 0 405 0 405 -24 29 c-24 28 -62 38 -96 26z"/>
<path d="M3965 1158 c-32 -17 -45 -39 -45 -79 0 -71 85 -105 135 -54 41 40 33
105 -16 130 -33 18 -47 18 -74 3z"/>
<path d="M2619 3071 c-15 -5 -55 -25 -90 -44 -118 -66 -236 -81 -410 -51 -194
34 -320 1 -439 -112 -180 -172 -224 -398 -120 -621 l38 -82 -32 -38 c-76 -88
-127 -207 -141 -325 -3 -32 -8 -58 -11 -58 -12 0 -154 115 -154 125 0 7 11 37
24 66 134 294 -55 663 -368 720 -55 10 -84 9 -187 -6 -207 -30 -342 -12 -453
61 -27 19 -59 29 -94 32 -99 8 -162 -60 -177 -193 -8 -73 15 -235 46 -326 67
-198 245 -440 392 -532 221 -140 468 -128 699 35 13 10 24 7 55 -14 85 -56
142 -119 180 -196 l38 -76 3 -182 4 -182 -54 -17 c-97 -32 -167 -76 -234 -148
l-64 -70 -61 27 c-166 75 -334 48 -462 -73 -54 -51 -54 -51 -121 -51 -162 0
-306 -93 -377 -243 -68 -147 -67 -370 3 -444 52 -55 -3 -53 1452 -53 l1341 0
52 24 c70 33 95 81 101 191 9 164 -30 295 -113 384 -90 96 -191 141 -317 141
-67 0 -68 0 -107 43 -49 53 -118 91 -202 113 -85 22 -169 13 -260 -28 l-70
-31 -62 66 c-69 74 -154 130 -235 153 l-53 16 3 387 3 387 37 75 c20 41 48 85
62 98 l25 23 58 -35 c119 -73 293 -100 433 -68 102 24 216 88 293 164 85 85
170 198 219 293 138 263 153 594 29 658 -37 19 -91 27 -122 17z m38 -268 c-14
-207 -80 -352 -247 -542 -103 -116 -216 -171 -348 -171 -69 1 -194 36 -195 55
-1 6 56 51 125 100 70 50 138 101 152 114 54 51 17 141 -57 141 -28 0 -66 -22
-191 -110 -86 -60 -160 -110 -165 -110 -5 0 -19 21 -32 48 -19 39 -23 63 -24
142 0 84 3 102 28 151 54 110 147 188 244 204 26 4 75 0 130 -11 188 -37 394
-15 518 55 28 16 54 29 59 30 5 1 6 -40 3 -96z m-2387 -276 c103 -51 208 -70
335 -63 55 4 118 11 140 16 70 17 161 12 211 -11 110 -52 196 -186 202 -315 4
-69 -17 -166 -37 -178 -4 -3 -41 18 -82 45 -95 65 -114 72 -154 59 -46 -15
-69 -75 -46 -119 6 -10 42 -42 80 -71 39 -30 71 -58 71 -63 0 -15 -103 -56
-168 -66 -138 -22 -276 32 -389 153 -138 148 -221 305 -250 473 -14 87 -12
189 5 181 4 -2 41 -21 82 -41z"/>
</g>
</svg>
