<?xml version="1.0" encoding="UTF-8"?>
<!DOCTYPE svg PUBLIC "-//W3C//DTD SVG 1.1//EN" "http://www.w3.org/Graphics/SVG/1.1/DTD/svg11.dtd">
<svg xmlns="http://www.w3.org/2000/svg" version="1.1" width="500px" height="500px" style="shape-rendering:geometricPrecision; text-rendering:geometricPrecision; image-rendering:optimizeQuality; fill-rule:evenodd; clip-rule:evenodd" xmlns:xlink="http://www.w3.org/1999/xlink">
<g><path style="opacity:0.99" fill="#0a0a0b" d="M 329.5,-0.5 C 338.167,-0.5 346.833,-0.5 355.5,-0.5C 385.932,8.78905 402.099,29.4557 404,61.5C 404.582,135.84 404.582,210.173 404,284.5C 411.355,289.249 418.189,294.583 424.5,300.5C 426.671,305.349 430.005,309.349 434.5,312.5C 436.262,313.262 437.262,314.596 437.5,316.5C 437.427,318.027 438.094,319.027 439.5,319.5C 439.427,321.027 440.094,322.027 441.5,322.5C 442.338,322.842 442.672,323.508 442.5,324.5C 442.427,326.027 443.094,327.027 444.5,327.5C 448.227,332.96 450.893,338.96 452.5,345.5C 452.054,348.01 452.72,350.01 454.5,351.5C 459.413,371.75 459.746,392.083 455.5,412.5C 453.72,413.99 453.054,415.99 453.5,418.5C 452.296,423.895 450.296,428.895 447.5,433.5C 445.896,434.287 445.229,435.62 445.5,437.5C 445.443,438.609 445.11,439.609 444.5,440.5C 442.259,441.3 441.259,442.966 441.5,445.5C 433.583,457.419 423.916,467.752 412.5,476.5C 406.785,479.286 401.452,482.619 396.5,486.5C 395.486,487.674 394.153,488.34 392.5,488.5C 389.925,487.721 387.592,487.887 385.5,489C 386.34,490.666 385.84,490.833 384,489.5C 382.121,491.195 379.954,492.528 377.5,493.5C 374.932,492.727 372.599,492.727 370.5,493.5C 369.146,494.854 367.812,496.188 366.5,497.5C 363.67,497.963 361.003,498.629 358.5,499.5C 348.167,499.5 337.833,499.5 327.5,499.5C 326.791,498.596 325.791,498.263 324.5,498.5C 324.918,497.778 325.584,497.278 326.5,497C 324.417,495.852 322.084,495.685 319.5,496.5C 316.994,496.779 314.994,495.946 313.5,494C 310.518,493.502 307.518,493.335 304.5,493.5C 296.477,491.501 289.144,488.167 282.5,483.5C 282.027,482.094 281.027,481.427 279.5,481.5C 276.883,480.214 274.55,478.547 272.5,476.5C 271.415,474.413 269.749,473.08 267.5,472.5C 266.089,470.086 264.089,468.419 261.5,467.5C 249.979,456.822 241.146,444.155 235,429.5C 233.566,425.594 233.233,421.594 234,417.5C 234.876,415.365 236.376,414.031 238.5,413.5C 242.453,412.087 246.286,412.42 250,414.5C 261.947,444.115 282.781,464.615 312.5,476C 316.453,477.148 320.453,477.982 324.5,478.5C 330.267,479.953 336.267,480.62 342.5,480.5C 346.349,480.499 350.016,480.165 353.5,479.5C 391.915,473.761 418.249,452.761 432.5,416.5C 435.002,411.159 436.835,405.493 438,399.5C 438.667,389.167 438.667,378.833 438,368.5C 437.809,366.292 437.309,364.292 436.5,362.5C 429.197,333.528 412.53,311.861 386.5,297.5C 385.199,296.118 384.366,294.452 384,292.5C 383.833,212.666 383.333,132.999 382.5,53.5C 378.717,34.0507 367.051,22.7173 347.5,19.5C 343.354,18.353 339.02,18.1864 334.5,19C 333.584,19.2784 332.918,19.7784 332.5,20.5C 319.996,23.4887 310.829,30.8221 305,42.5C 304.399,45.6366 303.399,48.6366 302,51.5C 301.667,132.167 301.333,212.833 301,293.5C 299.878,295.624 298.378,297.457 296.5,299C 274.713,310.727 259.546,328.227 251,351.5C 249.348,352.399 247.848,353.399 246.5,354.5C 244.473,354.662 242.473,354.495 240.5,354C 238.922,352.906 237.255,352.072 235.5,351.5C 233.026,347.076 232.859,342.409 235,337.5C 240.367,326.072 247.2,315.738 255.5,306.5C 259.5,303.167 263.167,299.5 266.5,295.5C 271.149,291.697 275.982,288.03 281,284.5C 281.5,213.501 281.667,142.501 281.5,71.5C 282.322,62.9916 282.989,54.325 283.5,45.5C 285.321,36.8611 288.988,29.1945 294.5,22.5C 298.167,19.5 301.5,16.1667 304.5,12.5C 306.296,10.1 308.63,8.43334 311.5,7.5C 313.027,7.57298 314.027,6.90632 314.5,5.5C 319.214,2.74045 324.214,0.740454 329.5,-0.5 Z"/></g>
<g><path style="opacity:0.094" fill="#b0abb0" d="M 314.5,5.5 C 314.027,6.90632 313.027,7.57298 311.5,7.5C 311.973,6.09368 312.973,5.42702 314.5,5.5 Z"/></g>
<g><path style="opacity:0.129" fill="#ada9aa" d="M 304.5,12.5 C 301.5,16.1667 298.167,19.5 294.5,22.5C 296.833,18.1667 300.167,14.8333 304.5,12.5 Z"/></g>
<g><path style="opacity:1" fill="#616d6c" d="M 347.5,19.5 C 342.463,19.4126 337.463,19.746 332.5,20.5C 332.918,19.7784 333.584,19.2784 334.5,19C 339.02,18.1864 343.354,18.353 347.5,19.5 Z"/></g>
<g><path style="opacity:1" fill="#d8f6f4" d="M 347.5,19.5 C 367.051,22.7173 378.717,34.0507 382.5,53.5C 382.167,134.503 382.5,215.503 383.5,296.5C 384.417,297.127 385.417,297.461 386.5,297.5C 412.53,311.861 429.197,333.528 436.5,362.5C 437.444,374.487 437.611,386.487 437,398.5C 434.544,404.283 433.044,410.283 432.5,416.5C 418.249,452.761 391.915,473.761 353.5,479.5C 343.815,479.578 334.148,479.245 324.5,478.5C 320.453,477.982 316.453,477.148 312.5,476C 282.781,464.615 261.947,444.115 250,414.5C 246.286,412.42 242.453,412.087 238.5,413.5C 237.351,408.231 236.517,402.898 236,397.5C 235.52,395.867 234.687,394.534 233.5,393.5C 242.97,393.526 246.804,388.859 245,379.5C 242.665,375.579 239.165,373.579 234.5,373.5C 236.584,367.462 237.584,361.129 237.5,354.5C 240.604,355.775 243.604,355.775 246.5,354.5C 247.848,353.399 249.348,352.399 251,351.5C 259.546,328.227 274.713,310.727 296.5,299C 298.378,297.457 299.878,295.624 301,293.5C 301.333,212.833 301.667,132.167 302,51.5C 303.399,48.6366 304.399,45.6366 305,42.5C 310.829,30.8221 319.996,23.4887 332.5,20.5C 337.463,19.746 342.463,19.4126 347.5,19.5 Z"/></g>
<g><path style="opacity:0.986" fill="#0e0c0d" d="M 142.5,75.5 C 138.122,77.6949 133.455,78.6949 128.5,78.5C 128.5,77.5 128.5,76.5 128.5,75.5C 127.167,75.5 125.833,75.5 124.5,75.5C 123.358,64.5764 123.191,53.5764 124,42.5C 127.702,36.4583 132.869,34.9583 139.5,38C 140.667,39.1667 141.833,40.3333 143,41.5C 145.161,52.9281 144.994,64.2614 142.5,75.5 Z"/></g>
<g><path style="opacity:0.329" fill="#504b4d" d="M 283.5,45.5 C 282.989,54.325 282.322,62.9916 281.5,71.5C 281.334,64.1591 281.5,56.8258 282,49.5C 282.21,47.9419 282.71,46.6085 283.5,45.5 Z"/></g>
<g><path style="opacity:1" fill="#afc3c1" d="M 382.5,53.5 C 383.333,132.999 383.833,212.666 384,292.5C 384.366,294.452 385.199,296.118 386.5,297.5C 385.417,297.461 384.417,297.127 383.5,296.5C 382.5,215.503 382.167,134.503 382.5,53.5 Z"/></g>
<g><path style="opacity:0.979" fill="#0e0d0d" d="M 64.5,86.5 C 66.5,89.1667 68.8333,91.5 71.5,93.5C 71.665,96.8499 71.4983,100.183 71,103.5C 69.8596,105.279 68.693,106.946 67.5,108.5C 64.3962,109.775 61.3962,109.775 58.5,108.5C 57.4154,106.413 55.7488,105.08 53.5,104.5C 51.8333,100.833 49.1667,98.1667 45.5,96.5C 42.6828,93.5743 39.8494,90.5743 37,87.5C 35.0016,76.5005 39.5016,71.6671 50.5,73C 55.6694,77.0032 60.3361,81.5032 64.5,86.5 Z"/></g>
<g><path style="opacity:0.984" fill="#131112" d="M 195.5,93.5 C 198.903,91.1002 201.57,88.1002 203.5,84.5C 205.5,82.8333 207.5,81.1667 209.5,79.5C 211.5,78.1667 213.167,76.5 214.5,74.5C 219.75,71.4278 224.583,72.0945 229,76.5C 231.147,81.3271 230.814,85.9938 228,90.5C 222.527,95.973 217.027,101.473 211.5,107C 206.276,110.372 201.109,110.205 196,106.5C 193.702,102.782 193.035,98.7824 194,94.5C 194.383,93.944 194.883,93.6107 195.5,93.5 Z"/></g>
<g><path style="opacity:0.672" fill="#686265" d="M 124.5,75.5 C 125.833,75.5 127.167,75.5 128.5,75.5C 128.5,76.5 128.5,77.5 128.5,78.5C 133.455,78.6949 138.122,77.6949 142.5,75.5C 138.524,80.5026 133.524,81.6693 127.5,79C 126.29,77.9609 125.29,76.7942 124.5,75.5 Z"/></g>
<g><path style="opacity:0.106" fill="#8b8a8a" d="M 214.5,74.5 C 213.167,76.5 211.5,78.1667 209.5,79.5C 210.167,76.8333 211.833,75.1667 214.5,74.5 Z"/></g>
<g><path style="opacity:1" fill="#070606" d="M 276.5,399.5 C 275.776,391.521 275.442,383.521 275.5,375.5C 278.66,353.513 289.66,336.68 308.5,325C 313.79,321.738 319.457,319.572 325.5,318.5C 328.119,318.232 330.619,318.565 333,319.5C 332.838,243.454 333.671,167.621 335.5,92C 334.748,91.3292 334.414,90.4959 334.5,89.5C 340.97,82.5582 346.804,83.2248 352,91.5C 352.5,166.833 352.667,242.166 352.5,317.5C 383.484,323.399 402.318,341.733 409,372.5C 411.723,398.538 403.223,420.038 383.5,437C 360.76,452.186 336.76,454.519 311.5,444C 294.028,433.699 282.362,418.866 276.5,399.5 Z"/></g>
<g><path style="opacity:0.004" fill="#c9c7c7" d="M 64.5,86.5 C 67.8333,87.8333 70.1667,90.1667 71.5,93.5C 68.8333,91.5 66.5,89.1667 64.5,86.5 Z"/></g>
<g><path style="opacity:0.169" fill="#8e8d8e" d="M 203.5,84.5 C 201.57,88.1002 198.903,91.1002 195.5,93.5C 197.43,89.8998 200.097,86.8998 203.5,84.5 Z"/></g>
<g><path style="opacity:0.204" fill="#424044" d="M 495.5,92.5 C 475.167,92.5 454.833,92.5 434.5,92.5C 436.218,91.776 438.052,91.1094 440,90.5C 458.598,91.1606 477.098,91.8273 495.5,92.5 Z"/></g>
<g><path style="opacity:0.987" fill="#020202" d="M 434.5,92.5 C 454.833,92.5 475.167,92.5 495.5,92.5C 496.833,93.5 498.167,94.5 499.5,95.5C 499.5,99.8333 499.5,104.167 499.5,108.5C 498.5,109.167 497.5,109.833 496.5,110.5C 475.827,111.821 455.16,111.821 434.5,110.5C 435.244,107.05 433.91,105.384 430.5,105.5C 430.14,100.597 431.473,96.2636 434.5,92.5 Z"/></g>
<g><path style="opacity:0.227" fill="#8e8d8d" d="M 45.5,96.5 C 49.1667,98.1667 51.8333,100.833 53.5,104.5C 50.5,102.167 47.8333,99.5 45.5,96.5 Z"/></g>
<g><path style="opacity:0.99" fill="#0c0909" d="M 143.5,96.5 C 149.397,98.1437 155.397,99.8104 161.5,101.5C 176.615,107.546 188.282,117.546 196.5,131.5C 196.427,133.027 197.094,134.027 198.5,134.5C 198.986,136.807 198.986,138.973 198.5,141C 200.133,141.48 201.466,142.313 202.5,143.5C 202.054,146.01 202.72,148.01 204.5,149.5C 204.338,151.527 204.505,153.527 205,155.5C 205.383,156.056 205.883,156.389 206.5,156.5C 207.655,163.987 207.655,171.32 206.5,178.5C 204.556,184.284 203.223,190.284 202.5,196.5C 202.008,198.819 201.008,200.819 199.5,202.5C 197.948,204.133 196.281,204.967 194.5,205C 195.022,205.561 195.355,206.228 195.5,207C 193.287,209.474 191.954,212.307 191.5,215.5C 175.469,235.183 154.803,244.517 129.5,243.5C 121.984,241.674 114.317,240.007 106.5,238.5C 105.209,238.737 104.209,238.404 103.5,237.5C 100.992,235.076 97.9922,233.41 94.5,232.5C 94.5,231.5 94.5,230.5 94.5,229.5C 91.8915,229.6 89.5582,228.933 87.5,227.5C 81.4612,222.628 76.2945,216.961 72,210.5C 70.7452,205.738 71.9119,201.738 75.5,198.5C 79.0779,197.411 82.7446,197.245 86.5,198C 106.957,224.921 132.29,230.587 162.5,215C 169.901,209.72 176.068,203.22 181,195.5C 181.49,194.207 181.657,192.873 181.5,191.5C 184.379,186.683 186.045,181.35 186.5,175.5C 187.65,170.684 187.816,165.684 187,160.5C 186.879,156.958 185.713,153.958 183.5,151.5C 176.172,132.022 162.172,120.188 141.5,116C 125.975,113.793 112.309,117.627 100.5,127.5C 95.3758,130.79 91.0424,134.957 87.5,140C 83.5397,141.757 79.5397,141.923 75.5,140.5C 71.7597,137.401 70.593,133.401 72,128.5C 76.6878,121.313 82.5211,115.313 89.5,110.5C 94.0086,108.081 98.342,105.414 102.5,102.5C 106.325,102.115 109.991,101.115 113.5,99.5C 115.765,101.067 117.099,100.4 117.5,97.5C 122.59,96.0349 127.923,95.3682 133.5,95.5C 137.018,95.5016 140.351,95.8349 143.5,96.5 Z"/></g>
<g><path style="opacity:0.341" fill="#7e7b7c" d="M 71.5,93.5 C 74.1652,97.7796 73.9985,102.113 71,106.5C 69.8873,107.305 68.7206,107.972 67.5,108.5C 68.693,106.946 69.8596,105.279 71,103.5C 71.4983,100.183 71.665,96.8499 71.5,93.5 Z"/></g>
<g><path style="opacity:0.067" fill="#afafaf" d="M 143.5,96.5 C 150.028,96.6295 156.028,98.2961 161.5,101.5C 155.397,99.8104 149.397,98.1437 143.5,96.5 Z"/></g>
<g><path style="opacity:0.337" fill="#5e5859" d="M 117.5,97.5 C 117.099,100.4 115.765,101.067 113.5,99.5C 109.991,101.115 106.325,102.115 102.5,102.5C 107.085,99.8605 112.085,98.1938 117.5,97.5 Z"/></g>
<g><path style="opacity:1" fill="#0d1716" d="M 334.5,89.5 C 334.414,90.4959 334.748,91.3292 335.5,92C 333.671,167.621 332.838,243.454 333,319.5C 330.619,318.565 328.119,318.232 325.5,318.5C 327.607,317.532 329.941,317.198 332.5,317.5C 332.333,242.166 332.5,166.833 333,91.5C 333.278,90.5842 333.778,89.9175 334.5,89.5 Z"/></g>
<g><path style="opacity:0.224" fill="#979696" d="M 53.5,104.5 C 55.7488,105.08 57.4154,106.413 58.5,108.5C 56.2512,107.92 54.5846,106.587 53.5,104.5 Z"/></g>
<g><path style="opacity:0.984" fill="#3f383c" d="M 434.5,92.5 C 431.473,96.2636 430.14,100.597 430.5,105.5C 433.91,105.384 435.244,107.05 434.5,110.5C 455.16,111.821 475.827,111.821 496.5,110.5C 495.378,111.947 493.878,112.947 492,113.5C 473.866,112.379 455.699,112.212 437.5,113C 429.61,110.007 427.11,104.507 430,96.5C 431.307,94.8082 432.807,93.4749 434.5,92.5 Z"/></g>
<g><path style="opacity:0.059" fill="#939292" d="M 102.5,102.5 C 98.342,105.414 94.0086,108.081 89.5,110.5C 92.9879,106.583 97.3212,103.917 102.5,102.5 Z"/></g>
<g><path style="opacity:1" fill="#fdc86b" d="M 181.5,191.5 C 175.255,200.93 167.422,208.93 158,215.5C 138.244,224.535 119.41,223.035 101.5,211C 100.786,207.127 98.4522,204.793 94.5,204C 90.1977,197.142 83.8643,194.309 75.5,195.5C 73.4645,190.393 72.1312,185.06 71.5,179.5C 73.7721,178.559 75.7721,177.226 77.5,175.5C 78.1499,175.196 78.8165,174.863 79.5,174.5C 79.8333,172.833 80.1667,171.167 80.5,169.5C 80.6127,165.753 79.6127,162.42 77.5,159.5C 73.8661,159.843 72.1995,158.177 72.5,154.5C 72.6667,153.167 72.8333,151.833 73,150.5C 74.8119,148.448 76.1452,146.115 77,143.5C 81.1606,142.812 85.3273,141.979 89.5,141C 92,136.5 95.5,133 100,130.5C 100.483,129.552 100.649,128.552 100.5,127.5C 106.499,125.004 112.499,122.171 118.5,119C 127.833,118.333 137.167,118.333 146.5,119C 152.728,120.781 158.395,123.614 163.5,127.5C 164.281,128.729 164.781,130.062 165,131.5C 169.541,134.234 172.374,138.234 173.5,143.5C 176.5,146.001 179.334,148.667 182,151.5C 183.816,157.876 184.983,164.376 185.5,171C 184.598,178.01 183.264,184.843 181.5,191.5 Z"/></g>
<g><path style="opacity:0.035" fill="#bababa" d="M 196.5,131.5 C 197.906,131.973 198.573,132.973 198.5,134.5C 197.094,134.027 196.427,133.027 196.5,131.5 Z"/></g>
<g><path style="opacity:0.031" fill="#c1bbbb" d="M 437.5,136.5 C 435.537,137.82 433.537,139.154 431.5,140.5C 432.392,137.708 434.392,136.375 437.5,136.5 Z"/></g>
<g><path style="opacity:0.979" fill="#0d0c0c" d="M 499.5,140.5 C 499.5,144.833 499.5,149.167 499.5,153.5C 498.078,154.925 496.411,155.925 494.5,156.5C 476.164,156.667 457.83,156.5 439.5,156C 439,155.5 438.5,155 438,154.5C 435.88,155.605 433.713,155.605 431.5,154.5C 430.167,149.833 430.167,145.167 431.5,140.5C 433.537,139.154 435.537,137.82 437.5,136.5C 437.917,135.876 438.584,135.543 439.5,135.5C 457.809,136.308 476.142,136.808 494.5,137C 496.323,137.997 497.99,139.164 499.5,140.5 Z"/></g>
<g><path style="opacity:0.745" fill="#565454" d="M 198.5,134.5 C 200.625,137.088 201.958,140.088 202.5,143.5C 201.466,142.313 200.133,141.48 198.5,141C 198.986,138.973 198.986,136.807 198.5,134.5 Z"/></g>
<g><path style="opacity:1" fill="#e1bb72" d="M 183.5,151.5 C 185.796,159.32 186.796,167.32 186.5,175.5C 186.045,181.35 184.379,186.683 181.5,191.5C 183.264,184.843 184.598,178.01 185.5,171C 184.983,164.376 183.816,157.876 182,151.5C 179.334,148.667 176.5,146.001 173.5,143.5C 172.374,138.234 169.541,134.234 165,131.5C 164.781,130.062 164.281,128.729 163.5,127.5C 158.395,123.614 152.728,120.781 146.5,119C 137.167,118.333 127.833,118.333 118.5,119C 112.499,122.171 106.499,125.004 100.5,127.5C 112.309,117.627 125.975,113.793 141.5,116C 162.172,120.188 176.172,132.022 183.5,151.5 Z"/></g>
<g><path style="opacity:0.502" fill="#deba85" d="M 100.5,127.5 C 100.649,128.552 100.483,129.552 100,130.5C 95.5,133 92,136.5 89.5,141C 85.3273,141.979 81.1606,142.812 77,143.5C 76.1452,146.115 74.8119,148.448 73,150.5C 72.8333,151.833 72.6667,153.167 72.5,154.5C 72.1995,158.177 73.8661,159.843 77.5,159.5C 79.6127,162.42 80.6127,165.753 80.5,169.5C 80.1667,171.167 79.8333,172.833 79.5,174.5C 78.8165,174.863 78.1499,175.196 77.5,175.5C 81.3246,166.49 78.3246,161.157 68.5,159.5C 70.2181,153.02 72.5514,146.686 75.5,140.5C 79.5397,141.923 83.5397,141.757 87.5,140C 91.0424,134.957 95.3758,130.79 100.5,127.5 Z"/></g>
<g><path style="opacity:0.322" fill="#737071" d="M 202.5,143.5 C 203.738,145.214 204.405,147.214 204.5,149.5C 202.72,148.01 202.054,146.01 202.5,143.5 Z"/></g>
<g><path style="opacity:0.349" fill="#6a6066" d="M 431.5,140.5 C 430.167,145.167 430.167,149.833 431.5,154.5C 427.511,149.794 427.511,145.127 431.5,140.5 Z"/></g>
<g><path style="opacity:0.182" fill="#959090" d="M 204.5,149.5 C 205.612,151.599 206.279,153.933 206.5,156.5C 205.883,156.389 205.383,156.056 205,155.5C 204.505,153.527 204.338,151.527 204.5,149.5 Z"/></g>
<g><path style="opacity:0.298" fill="#575457" d="M 431.5,154.5 C 433.713,155.605 435.88,155.605 438,154.5C 438.5,155 439,155.5 439.5,156C 457.83,156.5 476.164,156.667 494.5,156.5C 493.737,157.268 492.737,157.768 491.5,158C 473.167,158.667 454.833,158.667 436.5,158C 434.416,157.303 432.749,156.136 431.5,154.5 Z"/></g>
<g><path style="opacity:0.145" fill="#444044" d="M 7.5,160.5 C 16.9911,159.342 26.6578,159.175 36.5,160C 38.3197,160.2 39.653,161.034 40.5,162.5C 29.8331,160.824 18.8331,160.158 7.5,160.5 Z"/></g>
<g><path style="opacity:0.978" fill="#0e0d0e" d="M 7.5,160.5 C 18.8331,160.158 29.8331,160.824 40.5,162.5C 44.8126,168.483 44.1459,173.983 38.5,179C 26.7176,181.27 15.051,180.936 3.5,178C 1.7518,175.987 0.418466,173.82 -0.5,171.5C -0.5,170.167 -0.5,168.833 -0.5,167.5C 0.907336,163.761 3.574,161.428 7.5,160.5 Z"/></g>
<g><path style="opacity:0.991" fill="#0f0e0e" d="M 264.5,163.5 C 265.45,167.458 265.45,171.458 264.5,175.5C 263.543,178.168 261.543,179.668 258.5,180C 249.5,180.667 240.5,180.667 231.5,180C 229.347,179.901 227.681,179.067 226.5,177.5C 223.835,172.505 223.835,167.505 226.5,162.5C 227.058,161.21 228.058,160.377 229.5,160C 239.833,159.333 250.167,159.333 260.5,160C 262.324,160.66 263.657,161.827 264.5,163.5 Z"/></g>
<g><path style="opacity:0.982" fill="#141110" d="M 68.5,159.5 C 78.3246,161.157 81.3246,166.49 77.5,175.5C 75.7721,177.226 73.7721,178.559 71.5,179.5C 70.1667,179.5 68.8333,179.5 67.5,179.5C 61.7956,178.958 59.129,175.792 59.5,170C 59.4708,163.865 62.4708,160.365 68.5,159.5 Z"/></g>
<g><path style="opacity:1" fill="#866d3f" d="M 183.5,151.5 C 185.713,153.958 186.879,156.958 187,160.5C 187.816,165.684 187.65,170.684 186.5,175.5C 186.796,167.32 185.796,159.32 183.5,151.5 Z"/></g>
<g><path style="opacity:0.376" fill="#524e4f" d="M 226.5,162.5 C 223.835,167.505 223.835,172.505 226.5,177.5C 225.624,177.631 224.957,177.298 224.5,176.5C 221.289,171.111 221.956,166.444 226.5,162.5 Z"/></g>
<g><path style="opacity:0.678" fill="#4f4d4e" d="M 264.5,163.5 C 266.113,165.428 267.113,167.762 267.5,170.5C 267.043,172.598 266.043,174.264 264.5,175.5C 265.45,171.458 265.45,167.458 264.5,163.5 Z"/></g>
<g><path style="opacity:0.141" fill="#6c646a" d="M 206.5,178.5 C 206.717,184.953 205.384,190.953 202.5,196.5C 203.223,190.284 204.556,184.284 206.5,178.5 Z"/></g>
<g><path style="opacity:0.981" fill="#161616" d="M 494.5,182.5 C 494.973,183.906 495.973,184.573 497.5,184.5C 498.167,184.833 498.833,185.167 499.5,185.5C 499.5,189.833 499.5,194.167 499.5,198.5C 497.567,200.596 495.233,202.096 492.5,203C 473.427,203.82 454.427,203.653 435.5,202.5C 435.027,201.094 434.027,200.427 432.5,200.5C 431.094,200.027 430.427,199.027 430.5,197.5C 430.307,193.434 430.64,189.434 431.5,185.5C 432.343,183.827 433.676,182.66 435.5,182C 455.338,181.171 475.004,181.338 494.5,182.5 Z"/></g>
<g><path style="opacity:0.012" fill="#b2b1b2" d="M 494.5,182.5 C 496.027,182.427 497.027,183.094 497.5,184.5C 495.973,184.573 494.973,183.906 494.5,182.5 Z"/></g>
<g><path style="opacity:0.365" fill="#7b7272" d="M 431.5,185.5 C 430.64,189.434 430.307,193.434 430.5,197.5C 427.685,193.24 428.018,189.24 431.5,185.5 Z"/></g>
<g><path style="opacity:0.01" fill="#e4e4e4" d="M 432.5,200.5 C 434.027,200.427 435.027,201.094 435.5,202.5C 433.973,202.573 432.973,201.906 432.5,200.5 Z"/></g>
<g><path style="opacity:0.424" fill="#4f4d4e" d="M 199.5,202.5 C 197.618,207.368 194.952,211.701 191.5,215.5C 191.954,212.307 193.287,209.474 195.5,207C 195.355,206.228 195.022,205.561 194.5,205C 196.281,204.967 197.948,204.133 199.5,202.5 Z"/></g>
<g><path style="opacity:1" fill="#d5b374" d="M 67.5,179.5 C 68.8333,179.5 70.1667,179.5 71.5,179.5C 72.1312,185.06 73.4645,190.393 75.5,195.5C 83.8643,194.309 90.1977,197.142 94.5,204C 98.4522,204.793 100.786,207.127 101.5,211C 119.41,223.035 138.244,224.535 158,215.5C 167.422,208.93 175.255,200.93 181.5,191.5C 181.657,192.873 181.49,194.207 181,195.5C 176.068,203.22 169.901,209.72 162.5,215C 132.29,230.587 106.957,224.921 86.5,198C 82.7446,197.245 79.0779,197.411 75.5,198.5C 72.8273,193.481 70.994,188.148 70,182.5C 69.3021,181.309 68.4687,180.309 67.5,179.5 Z"/></g>
<g><path style="opacity:0.063" fill="#959395" d="M 436.5,227.5 C 455.329,226.338 474.329,226.171 493.5,227C 494.416,227.278 495.082,227.778 495.5,228.5C 475.867,227.536 456.2,227.203 436.5,227.5 Z"/></g>
<g><path style="opacity:0.983" fill="#111111" d="M 436.5,227.5 C 456.2,227.203 475.867,227.536 495.5,228.5C 496.167,229.833 497.167,230.833 498.5,231.5C 498.833,231.5 499.167,231.5 499.5,231.5C 499.5,235.5 499.5,239.5 499.5,243.5C 496.823,246.336 493.49,247.836 489.5,248C 472.5,248.667 455.5,248.667 438.5,248C 436.942,247.79 435.609,247.29 434.5,246.5C 433.5,244.833 432.167,243.5 430.5,242.5C 427.429,237.02 428.429,232.187 433.5,228C 434.448,227.517 435.448,227.351 436.5,227.5 Z"/></g>
<g><path style="opacity:0.004" fill="#b5b4b4" d="M 495.5,228.5 C 497.5,228.5 498.5,229.5 498.5,231.5C 497.167,230.833 496.167,229.833 495.5,228.5 Z"/></g>
<g><path style="opacity:0.341" fill="#7b6e6f" d="M 65.5,230.5 C 62.8333,230.833 60.1667,231.167 57.5,231.5C 60.04,229.587 62.7067,229.254 65.5,230.5 Z"/></g>
<g><path style="opacity:0.341" fill="#5b5959" d="M 87.5,227.5 C 89.5582,228.933 91.8915,229.6 94.5,229.5C 94.5,230.5 94.5,231.5 94.5,232.5C 91.6298,231.567 89.2964,229.9 87.5,227.5 Z"/></g>
<g><path style="opacity:0.98" fill="#0e0c0c" d="M 65.5,230.5 C 67.3548,232.033 69.1881,233.7 71,235.5C 71.4983,238.817 71.665,242.15 71.5,245.5C 71.631,246.239 71.4643,246.906 71,247.5C 65.6787,252.988 60.1787,258.321 54.5,263.5C 47.5346,268.966 41.7012,267.966 37,260.5C 35.2461,254.351 37.0794,249.685 42.5,246.5C 47.8333,241.833 52.8333,236.833 57.5,231.5C 60.1667,231.167 62.8333,230.833 65.5,230.5 Z"/></g>
<g><path style="opacity:0.978" fill="#0f0e0e" d="M 229.5,252.5 C 229.256,256.728 228.256,260.728 226.5,264.5C 221.695,265.982 217.029,265.649 212.5,263.5C 206.509,257.009 200.342,250.675 194,244.5C 192.147,236.023 195.48,231.023 204,229.5C 206.321,229.909 208.487,230.743 210.5,232C 217.428,238.423 223.762,245.256 229.5,252.5 Z"/></g>
<g><path style="opacity:0.039" fill="#b9b5b8" d="M 94.5,232.5 C 97.9922,233.41 100.992,235.076 103.5,237.5C 100.008,236.59 97.0078,234.924 94.5,232.5 Z"/></g>
<g><path style="opacity:0.157" fill="#928f91" d="M 57.5,231.5 C 52.8333,236.833 47.8333,241.833 42.5,246.5C 46.5,240.5 51.5,235.5 57.5,231.5 Z"/></g>
<g><path style="opacity:0.315" fill="#7b7879" d="M 65.5,230.5 C 73.3831,233.255 75.3831,238.255 71.5,245.5C 71.665,242.15 71.4983,238.817 71,235.5C 69.1881,233.7 67.3548,232.033 65.5,230.5 Z"/></g>
<g><path style="opacity:0.416" fill="#797575" d="M 106.5,238.5 C 114.317,240.007 121.984,241.674 129.5,243.5C 121.298,243.728 113.631,242.062 106.5,238.5 Z"/></g>
<g><path style="opacity:0.004" fill="#cbcacb" d="M 430.5,242.5 C 432.167,243.5 433.5,244.833 434.5,246.5C 432.167,246.167 430.833,244.833 430.5,242.5 Z"/></g>
<g><path style="opacity:0.62" fill="#545152" d="M 229.5,252.5 C 230.638,255.304 230.805,258.304 230,261.5C 229.241,263.063 228.074,264.063 226.5,264.5C 228.256,260.728 229.256,256.728 229.5,252.5 Z"/></g>
<g><path style="opacity:0.155" fill="#8a8a8a" d="M 141.5,263.5 C 136.712,259.943 131.712,259.61 126.5,262.5C 129.74,258.484 133.74,257.651 138.5,260C 140.063,260.759 141.063,261.926 141.5,263.5 Z"/></g>
<g><path style="opacity:0.969" fill="#070505" d="M 141.5,263.5 C 142.407,274.469 142.74,285.469 142.5,296.5C 141.08,300.719 138.08,302.719 133.5,302.5C 128.967,302.651 125.8,300.651 124,296.5C 123.333,286.167 123.333,275.833 124,265.5C 124.377,264.058 125.21,263.058 126.5,262.5C 131.712,259.61 136.712,259.943 141.5,263.5 Z"/></g>
<g><path style="opacity:0.304" fill="#646161" d="M 212.5,263.5 C 217.029,265.649 221.695,265.982 226.5,264.5C 221.622,268.56 216.956,268.226 212.5,263.5 Z"/></g>
<g><path style="opacity:0.357" fill="#565253" d="M 141.5,263.5 C 142.222,263.918 142.722,264.584 143,265.5C 143.314,272.017 143.814,278.517 144.5,285C 144.108,289.022 143.442,292.855 142.5,296.5C 142.74,285.469 142.407,274.469 141.5,263.5 Z"/></g>
<g><path style="opacity:0.075" fill="#b7b6b6" d="M 266.5,295.5 C 263.167,299.5 259.5,303.167 255.5,306.5C 258.167,301.833 261.833,298.167 266.5,295.5 Z"/></g>
<g><path style="opacity:0.306" fill="#6e6d6e" d="M 424.5,300.5 C 428.203,304.202 431.537,308.202 434.5,312.5C 430.005,309.349 426.671,305.349 424.5,300.5 Z"/></g>
<g><path style="opacity:0.059" fill="#9f9e9e" d="M 437.5,316.5 C 438.906,316.973 439.573,317.973 439.5,319.5C 438.094,319.027 437.427,318.027 437.5,316.5 Z"/></g>
<g><path style="opacity:0.043" fill="#a1a1a1" d="M 439.5,319.5 C 440.906,319.973 441.573,320.973 441.5,322.5C 440.094,322.027 439.427,321.027 439.5,319.5 Z"/></g>
<g><path style="opacity:0.043" fill="#aaaaaa" d="M 442.5,324.5 C 443.906,324.973 444.573,325.973 444.5,327.5C 443.094,327.027 442.427,326.027 442.5,324.5 Z"/></g>
<g><path style="opacity:1" fill="#fc8e8e" d="M 380.5,355.5 C 380.343,356.873 380.51,358.207 381,359.5C 385.951,366.61 388.451,374.61 388.5,383.5C 387.386,388.753 386.552,394.086 386,399.5C 383.713,402.072 382.547,405.072 382.5,408.5C 373.461,423.361 360.128,431.027 342.5,431.5C 336.465,431.865 330.798,430.865 325.5,428.5C 325.5,427.5 325.5,426.5 325.5,425.5C 323.833,425.5 322.167,425.5 320.5,425.5C 320.334,420.998 318.001,418.331 313.5,417.5C 312.359,416.575 312.359,415.741 313.5,415C 310.028,413.193 307.195,410.693 305,407.5C 304.667,407.833 304.333,408.167 304,408.5C 299.442,401.275 296.942,393.275 296.5,384.5C 296.753,379.476 297.253,374.476 298,369.5C 300.39,366.611 301.557,363.277 301.5,359.5C 307.204,348.98 315.871,341.813 327.5,338C 348.03,333.006 365.53,338.173 380,353.5C 380.464,354.094 380.631,354.761 380.5,355.5 Z"/></g>
<g><path style="opacity:0.212" fill="#868383" d="M 452.5,345.5 C 453.738,347.214 454.405,349.214 454.5,351.5C 452.72,350.01 452.054,348.01 452.5,345.5 Z"/></g>
<g><path style="opacity:1" fill="#7e8685" d="M 235.5,351.5 C 237.255,352.072 238.922,352.906 240.5,354C 242.473,354.495 244.473,354.662 246.5,354.5C 243.604,355.775 240.604,355.775 237.5,354.5C 236.833,353.5 236.167,352.5 235.5,351.5 Z"/></g>
<g><path style="opacity:0.988" fill="#0f0f0f" d="M 234.5,373.5 C 239.165,373.579 242.665,375.579 245,379.5C 246.804,388.859 242.97,393.526 233.5,393.5C 229.5,392.833 227.167,390.5 226.5,386.5C 226.575,383.794 226.908,381.127 227.5,378.5C 228.904,375.623 231.237,373.956 234.5,373.5 Z"/></g>
<g><path style="opacity:1" fill="#e18c8f" d="M 301.5,359.5 C 301.557,363.277 300.39,366.611 298,369.5C 297.253,374.476 296.753,379.476 296.5,384.5C 296.942,393.275 299.442,401.275 304,408.5C 304.333,408.167 304.667,407.833 305,407.5C 307.195,410.693 310.028,413.193 313.5,415C 312.359,415.741 312.359,416.575 313.5,417.5C 318.001,418.331 320.334,420.998 320.5,425.5C 322.167,425.5 323.833,425.5 325.5,425.5C 325.5,426.5 325.5,427.5 325.5,428.5C 305.773,419.73 295.44,404.397 294.5,382.5C 294.53,374.025 296.864,366.358 301.5,359.5 Z"/></g>
<g><path style="opacity:1" fill="#cb8080" d="M 380.5,355.5 C 382.796,357.401 384.629,359.734 386,362.5C 391.882,376.105 391.882,389.772 386,403.5C 385.098,405.431 383.931,407.097 382.5,408.5C 382.547,405.072 383.713,402.072 386,399.5C 386.552,394.086 387.386,388.753 388.5,383.5C 388.451,374.61 385.951,366.61 381,359.5C 380.51,358.207 380.343,356.873 380.5,355.5 Z"/></g>
<g><path style="opacity:0.039" fill="#aaa8aa" d="M 227.5,378.5 C 226.908,381.127 226.575,383.794 226.5,386.5C 225.083,383.66 225.416,380.993 227.5,378.5 Z"/></g>
<g><path style="opacity:1" fill="#9fb0b0" d="M 275.5,375.5 C 275.442,383.521 275.776,391.521 276.5,399.5C 275.176,395.893 274.509,391.893 274.5,387.5C 274.501,383.319 274.834,379.319 275.5,375.5 Z"/></g>
<g><path style="opacity:1" fill="#acbebc" d="M 436.5,362.5 C 437.309,364.292 437.809,366.292 438,368.5C 438.667,378.833 438.667,389.167 438,399.5C 436.835,405.493 435.002,411.159 432.5,416.5C 433.044,410.283 434.544,404.283 437,398.5C 437.611,386.487 437.444,374.487 436.5,362.5 Z"/></g>
<g><path style="opacity:0.149" fill="#908f8f" d="M 455.5,412.5 C 455.405,414.786 454.738,416.786 453.5,418.5C 453.054,415.99 453.72,413.99 455.5,412.5 Z"/></g>
<g><path style="opacity:0.02" fill="#b3b1b1" d="M 447.5,433.5 C 447.34,435.153 446.674,436.486 445.5,437.5C 445.229,435.62 445.896,434.287 447.5,433.5 Z"/></g>
<g><path style="opacity:0.063" fill="#b9b9b9" d="M 444.5,440.5 C 443.737,442.368 442.737,444.035 441.5,445.5C 441.259,442.966 442.259,441.3 444.5,440.5 Z"/></g>
<g><path style="opacity:0.188" fill="#848282" d="M 261.5,467.5 C 264.089,468.419 266.089,470.086 267.5,472.5C 264.911,471.581 262.911,469.914 261.5,467.5 Z"/></g>
<g><path style="opacity:0.247" fill="#7e7c7d" d="M 267.5,472.5 C 269.749,473.08 271.415,474.413 272.5,476.5C 270.251,475.92 268.585,474.587 267.5,472.5 Z"/></g>
<g><path style="opacity:1" fill="#596563" d="M 324.5,478.5 C 334.148,479.245 343.815,479.578 353.5,479.5C 350.016,480.165 346.349,480.499 342.5,480.5C 336.267,480.62 330.267,479.953 324.5,478.5 Z"/></g>
<g><path style="opacity:0.043" fill="#a39e9e" d="M 279.5,481.5 C 281.027,481.427 282.027,482.094 282.5,483.5C 280.973,483.573 279.973,482.906 279.5,481.5 Z"/></g>
<g><path style="opacity:0.059" fill="#a5a3a4" d="M 412.5,476.5 C 407.97,481.013 402.637,484.346 396.5,486.5C 401.452,482.619 406.785,479.286 412.5,476.5 Z"/></g>
<g><path style="opacity:0.714" fill="#575253" d="M 392.5,488.5 C 384.46,493.019 375.793,496.019 366.5,497.5C 367.812,496.188 369.146,494.854 370.5,493.5C 372.599,492.727 374.932,492.727 377.5,493.5C 379.954,492.528 382.121,491.195 384,489.5C 385.84,490.833 386.34,490.666 385.5,489C 387.592,487.887 389.925,487.721 392.5,488.5 Z"/></g>
<g><path style="opacity:0.429" fill="#3c3439" d="M 304.5,493.5 C 307.518,493.335 310.518,493.502 313.5,494C 314.994,495.946 316.994,496.779 319.5,496.5C 322.084,495.685 324.417,495.852 326.5,497C 325.584,497.278 324.918,497.778 324.5,498.5C 317.417,498.063 310.75,496.396 304.5,493.5 Z"/></g>
</svg>
