<?xml version="1.0" standalone="no"?>
<!DOCTYPE svg PUBLIC "-//W3C//DTD SVG 20010904//EN"
 "http://www.w3.org/TR/2001/REC-SVG-20010904/DTD/svg10.dtd">
<svg version="1.0" xmlns="http://www.w3.org/2000/svg"
 width="500.000000pt" height="500.000000pt" viewBox="0 0 500.000000 500.000000"
 preserveAspectRatio="xMidYMid meet">

<g transform="translate(0.000000,500.000000) scale(0.100000,-0.100000)"
fill="#000000" stroke="none">
<path d="M2130 4831 c-74 -23 -138 -81 -159 -144 -11 -34 -15 -36 -89 -52
-274 -61 -560 -212 -760 -400 -190 -179 -314 -361 -412 -605 l-47 -115 -96 -6
c-122 -7 -173 -35 -221 -119 l-31 -55 1 -283 2 -283 28 -57 c40 -78 88 -111
187 -125 44 -6 78 -16 81 -24 9 -22 8 -315 -1 -322 -4 -5 -42 -14 -83 -21
-161 -27 -234 -96 -288 -271 -100 -324 -16 -865 183 -1184 52 -84 147 -178
207 -205 59 -27 114 -25 307 11 179 33 230 51 278 101 35 36 90 141 100 188 6
35 28 50 71 50 27 0 41 -19 197 -255 188 -286 258 -365 375 -422 134 -65 158
-68 540 -68 387 1 413 4 545 73 121 64 178 128 368 414 157 238 173 258 200
258 42 0 65 -16 72 -52 21 -97 94 -202 164 -237 20 -10 92 -28 161 -40 69 -12
147 -26 173 -32 121 -23 192 -2 286 86 327 310 446 1217 195 1494 -49 55 -78
69 -188 90 l-91 18 -3 149 c-1 82 0 159 2 170 5 18 16 23 67 28 69 8 136 36
167 69 11 12 31 42 44 67 23 44 23 51 23 330 l0 285 -31 55 c-22 38 -46 64
-79 85 -41 26 -58 30 -141 33 -53 3 -97 9 -102 16 -4 6 -16 36 -26 66 -33 97
-113 254 -187 366 -90 136 -283 331 -414 420 -169 115 -402 218 -586 259 -77
17 -77 17 -94 61 -21 56 -91 118 -150 133 -50 13 -704 14 -745 2z m-158 -438
l21 -23 506 0 c504 0 505 0 528 22 15 14 23 33 23 56 l0 35 43 -7 c64 -10 211
-63 313 -112 88 -42 232 -130 261 -160 8 -8 18 -14 23 -14 23 0 192 -184 298
-325 75 -99 198 -367 185 -402 -4 -10 -2 -14 5 -9 6 4 11 -1 11 -11 0 -10 10
-58 22 -108 18 -77 21 -122 23 -305 0 -118 -3 -335 -8 -482 l-8 -268 -47 0
c-75 0 -155 -44 -234 -130 l-68 -73 -63 11 c-91 17 -124 15 -182 -12 -125 -58
-236 -267 -279 -526 -14 -78 -16 -137 -12 -249 5 -157 22 -228 72 -303 l24
-36 -39 -56 c-22 -32 -40 -59 -40 -62 0 -3 -30 -49 -67 -102 -37 -53 -89 -130
-115 -170 -64 -96 -118 -154 -135 -148 -8 3 -12 2 -9 -3 8 -13 -21 -34 -35
-25 -7 4 -9 3 -6 -3 7 -11 -21 -26 -93 -51 -56 -19 -572 -29 -699 -14 -88 11
-218 65 -214 89 2 7 -3 10 -11 7 -15 -6 -81 69 -143 161 -22 33 -86 128 -141
211 -56 83 -102 157 -102 163 0 7 11 31 24 54 53 93 61 138 61 337 0 145 -5
202 -19 265 -55 233 -158 409 -270 461 -57 27 -91 29 -183 13 -67 -12 -100 -1
-89 28 3 8 2 12 -2 10 -4 -3 -29 17 -57 44 -66 65 -153 109 -215 109 l-48 0
-8 268 c-13 384 -11 665 5 736 7 33 14 69 16 80 4 35 34 138 56 196 26 69 126
263 148 287 9 10 28 36 43 58 44 65 169 200 184 199 8 -1 11 2 9 7 -8 12 34
51 46 44 5 -4 8 -1 7 5 -4 16 155 126 262 182 101 52 228 102 325 127 l70 17
3 -35 c2 -20 13 -46 24 -58z m-1085 -2305 c44 -26 117 -126 162 -222 108 -227
158 -481 148 -739 -10 -247 -59 -362 -164 -385 -24 -6 -43 -8 -43 -6 0 2 9 37
20 77 11 39 26 131 32 203 29 336 -84 784 -258 1018 -24 33 -42 61 -39 64 9 9
71 19 90 15 11 -3 34 -14 52 -25z m3362 13 c10 -7 5 -20 -27 -59 -218 -277
-331 -872 -232 -1230 11 -39 20 -74 20 -76 0 -2 -19 0 -42 6 -106 23 -155 138
-165 385 -7 170 6 289 52 468 60 234 153 412 259 493 30 23 107 31 135 13z
m-3649 -108 c155 -160 257 -454 276 -793 9 -166 -20 -401 -46 -385 -6 3 -7 -1
-4 -9 7 -18 -14 -59 -26 -51 -6 3 -7 0 -4 -8 8 -21 -34 -47 -73 -47 -24 0 -43
10 -76 43 -58 56 -88 97 -80 110 3 5 1 7 -4 4 -6 -4 -13 0 -17 8 -4 11 1 15
17 15 25 1 66 33 92 73 9 15 21 25 25 22 4 -3 7 1 7 8 -1 6 7 48 17 91 15 64
18 101 13 190 -17 299 -156 546 -307 546 -14 0 -29 3 -32 6 -7 6 20 111 35
139 6 11 12 25 12 30 1 6 7 9 14 7 7 -1 9 2 6 8 -12 20 26 50 64 50 30 0 44
-9 91 -57z m3950 25 c17 -17 28 -38 25 -45 -2 -8 -1 -12 4 -9 5 3 16 -22 25
-57 10 -34 19 -69 22 -78 4 -13 -6 -17 -47 -22 -69 -8 -119 -45 -169 -121
-148 -225 -175 -625 -52 -751 37 -37 64 -56 83 -58 17 -1 18 -3 2 -27 -182
-286 -327 -147 -318 305 4 182 33 371 72 465 3 8 7 17 8 20 31 123 144 315
222 379 49 41 84 40 123 -1z m-4093 -432 c49 -72 84 -193 90 -312 6 -112 -1
-182 -22 -210 -13 -18 -14 -18 -33 -1 -35 32 -81 132 -102 220 -37 154 -23
369 23 354 7 -2 27 -25 44 -51z m4160 13 c19 -55 16 -223 -7 -316 -30 -126
-99 -247 -129 -229 -32 20 -42 210 -17 326 27 127 98 268 129 257 7 -2 17 -19
24 -38z"/>
<path d="M2420 3945 l0 -275 80 0 80 0 0 275 0 275 -80 0 -80 0 0 -275z"/>
<path d="M1365 3755 c-72 -15 -225 -74 -225 -86 0 -5 -6 -9 -12 -9 -20 0 -126
-108 -169 -172 -87 -127 -99 -190 -100 -498 0 -263 4 -296 49 -390 30 -62 140
-179 189 -200 17 -8 29 -18 26 -24 -3 -5 -2 -6 4 -3 5 3 38 -3 72 -13 154 -48
346 -8 461 96 23 21 44 33 51 28 7 -4 9 -3 6 3 -4 6 5 19 19 29 15 11 31 24
38 29 11 10 125 104 156 128 8 7 54 45 101 84 48 40 89 70 93 68 3 -3 4 -2 1
1 -7 10 87 84 98 77 6 -3 7 -1 4 4 -4 6 5 18 19 28 71 46 146 152 169 240 46
178 -21 363 -169 464 -53 36 -146 68 -221 75 -33 4 -100 11 -150 16 -396 45
-416 46 -510 25z m430 -180 c132 -14 258 -30 280 -36 56 -16 107 -55 147 -113
31 -46 33 -54 33 -136 0 -143 20 -121 -540 -577 -110 -90 -220 -173 -245 -185
-35 -17 -64 -22 -130 -22 -79 -1 -89 2 -150 35 -76 42 -133 109 -155 183 -21
70 -21 448 0 529 22 86 61 154 121 214 90 90 243 148 359 137 22 -2 148 -15
280 -29z"/>
<path d="M3390 3759 c-66 -8 -193 -22 -377 -39 -227 -22 -366 -122 -422 -304
-48 -157 -11 -308 107 -433 22 -23 37 -45 33 -49 -3 -4 -1 -4 5 -1 13 7 86
-46 79 -57 -3 -3 -2 -4 1 -1 6 4 54 -32 134 -102 45 -39 181 -149 310 -251 19
-15 48 -40 64 -56 17 -16 59 -44 93 -63 188 -104 413 -80 569 60 67 61 100
111 130 196 24 68 25 81 25 329 0 199 -3 270 -15 314 -49 184 -182 337 -356
412 -118 50 -233 64 -380 45z m274 -181 c119 -39 214 -121 267 -232 44 -93 51
-144 47 -388 -3 -252 -9 -276 -90 -358 -61 -64 -136 -95 -228 -95 -99 0 -153
26 -294 141 -539 441 -570 468 -598 523 -51 100 -33 223 43 299 57 58 97 72
272 93 441 52 471 53 581 17z"/>
<path d="M2420 2733 l0 -163 80 0 80 0 0 164 0 165 -80 -2 -80 -2 0 -162z"/>
<path d="M2330 2410 c-231 -60 -417 -229 -502 -457 l-32 -88 -4 -351 c-4 -401
0 -429 72 -579 71 -145 193 -262 348 -335 186 -87 430 -78 622 23 77 40 185
134 245 212 33 44 77 133 103 211 22 67 23 79 23 439 0 280 -3 380 -13 410
-74 224 -192 368 -376 459 -154 76 -330 96 -486 56z m90 -740 c0 -90 -3 -120
-13 -120 -22 0 -91 -41 -128 -77 -61 -58 -83 -115 -87 -219 l-4 -90 -90 -53
c-49 -29 -95 -50 -102 -48 -34 13 -48 227 -21 326 39 148 139 271 280 344 45
24 125 52 158 56 4 1 7 -53 7 -119z m270 88 c156 -52 291 -201 336 -371 25
-96 11 -311 -21 -323 -6 -3 -52 19 -102 47 l-91 52 -4 91 c-2 73 -8 101 -28
140 -31 60 -104 128 -159 146 l-41 13 0 119 0 118 28 -6 c15 -4 52 -15 82 -26z
m-139 -363 c15 -4 42 -22 60 -41 32 -33 34 -39 34 -104 0 -67 -2 -71 -36 -106
-115 -115 -292 -10 -255 152 13 59 102 120 156 108 8 -2 27 -6 41 -9z m-228
-403 c59 -40 99 -52 178 -52 74 0 134 18 186 57 17 12 35 23 39 23 12 0 194
-104 194 -111 0 -18 -124 -118 -181 -146 -89 -43 -159 -56 -270 -51 -104 6
-161 22 -247 73 -52 30 -142 109 -142 124 0 7 181 111 193 111 5 0 27 -13 50
-28z"/>
</g>
</svg>
