<?xml version="1.0" standalone="no"?>
<!DOCTYPE svg PUBLIC "-//W3C//DTD SVG 20010904//EN"
 "http://www.w3.org/TR/2001/REC-SVG-20010904/DTD/svg10.dtd">
<svg version="1.0" xmlns="http://www.w3.org/2000/svg"
 width="500.000000pt" height="500.000000pt" viewBox="0 0 500.000000 500.000000"
 preserveAspectRatio="xMidYMid meet">

<g transform="translate(0.000000,500.000000) scale(0.100000,-0.100000)"
fill="#000000" stroke="none">
<path d="M950 4990 c-302 -30 -602 -211 -767 -463 -204 -312 -234 -695 -80
-1021 24 -51 125 -212 228 -363 101 -150 193 -287 203 -306 l19 -33 -48 -82
c-70 -121 -85 -169 -85 -262 0 -116 26 -178 109 -260 62 -61 80 -72 291 -169
309 -143 354 -164 690 -323 650 -308 686 -322 797 -299 168 33 245 112 333
338 l31 82 207 66 c114 36 466 151 782 255 l574 190 151 -99 c82 -55 200 -129
260 -166 107 -65 111 -67 168 -63 63 5 92 22 140 80 19 24 31 52 34 80 3 24
-18 228 -46 453 -28 226 -55 462 -61 525 -6 63 -16 130 -21 148 -32 101 -156
159 -252 118 -30 -13 -116 -97 -323 -315 -49 -52 -96 -102 -106 -112 -18 -19
-27 -19 -258 1 -128 12 -467 36 -635 45 -60 4 -113 10 -117 13 -3 4 70 196
163 427 93 231 169 427 169 435 0 33 -36 63 -124 104 -50 24 -183 87 -296 141
-113 53 -222 104 -242 112 -21 8 -38 19 -38 23 0 4 41 93 91 198 106 223 107
231 23 271 -78 38 -259 97 -384 125 -308 68 -579 54 -793 -42 l-62 -28 -110
51 c-129 61 -212 91 -304 109 -89 18 -220 25 -311 16z m123 -167 c-7 -2 -19
-2 -25 0 -7 3 -2 5 12 5 14 0 19 -2 13 -5z m-178 -21 c-3 -3 -11 0 -18 7 -9
10 -8 11 6 5 10 -3 15 -9 12 -12z m292 12 c-3 -3 -12 -4 -19 -1 -8 3 -5 6 6 6
11 1 17 -2 13 -5z m61 -11 c-10 -2 -26 -2 -35 0 -10 3 -2 5 17 5 19 0 27 -2
18 -5z m-231 -9 c-3 -3 -12 -4 -19 -1 -8 3 -5 6 6 6 11 1 17 -2 13 -5z m213
-30 c0 -2 -9 0 -20 6 -11 6 -20 13 -20 16 0 2 9 0 20 -6 11 -6 20 -13 20 -16z
m-315 6 c-3 -5 -12 -10 -18 -10 -7 0 -6 4 3 10 19 12 23 12 15 0z m215 -5 c9
-10 9 -15 1 -15 -6 0 -11 4 -11 9 0 5 -8 12 -17 14 -15 4 -15 5 -2 6 9 0 22
-6 29 -14z m-133 -11 c-3 -3 -12 -4 -19 -1 -8 3 -5 6 6 6 11 1 17 -2 13 -5z
m249 -43 c-9 -10 -16 -23 -16 -29 0 -7 -4 -12 -10 -12 -16 0 -12 15 10 35 11
10 20 25 21 34 0 11 2 12 6 3 3 -7 -2 -21 -11 -31z m-218 22 c-10 -2 -26 -2
-35 0 -10 3 -2 5 17 5 19 0 27 -2 18 -5z m1379 1 c-3 -3 -12 -4 -19 -1 -8 3
-5 6 6 6 11 1 17 -2 13 -5z m-1707 -14 c0 -5 -5 -10 -11 -10 -5 0 -7 5 -4 10
3 6 8 10 11 10 2 0 4 -4 4 -10z m195 -8 c-3 -3 -11 0 -18 7 -9 10 -8 11 6 5
10 -3 15 -9 12 -12z m1088 11 c-7 -2 -21 -2 -30 0 -10 3 -4 5 12 5 17 0 24 -2
18 -5z m-1313 -25 c10 -3 6 -6 -11 -10 -22 -4 -25 -2 -21 14 3 11 8 15 11 10
3 -5 13 -11 21 -14z m1340 12 c0 -5 -15 -9 -32 -9 l-33 1 30 8 c17 4 31 8 33
9 1 0 2 -3 2 -9z m444 1 c15 -6 16 -10 7 -16 -7 -4 -16 -3 -20 3 -3 5 -15 12
-26 15 l-20 5 20 0 c11 0 29 -3 39 -7z m69 2 c-7 -2 -21 -2 -30 0 -10 3 -4 5
12 5 17 0 24 -2 18 -5z m-1486 -9 c-3 -3 -12 -4 -19 -1 -8 3 -5 6 6 6 11 1 17
-2 13 -5z m-456 -31 c-12 -20 -14 -14 -5 12 4 9 9 14 11 11 3 -2 0 -13 -6 -23z
m359 17 c12 -8 11 -10 -7 -10 -13 0 -23 5 -23 10 0 13 11 13 30 0z m-135 -10
c-3 -5 -12 -10 -18 -10 -7 0 -6 4 3 10 19 12 23 12 15 0z m388 3 c-7 -2 -21
-2 -30 0 -10 3 -4 5 12 5 17 0 24 -2 18 -5z m927 -2 c0 -5 -19 -7 -42 -4 -41
5 -42 5 -23 -12 l20 -17 -20 7 c-11 4 -29 10 -39 13 -20 5 -20 5 0 13 27 11
104 11 104 0z m-1563 -15 c0 -8 -5 -14 -11 -13 -6 1 -10 -4 -8 -11 1 -8 -2
-11 -8 -7 -19 11 -32 -6 -18 -23 11 -15 11 -15 -2 -5 -19 14 -46 1 -35 -17 6
-9 4 -11 -5 -5 -9 5 -10 2 -5 -14 3 -12 3 -21 -2 -20 -18 3 -33 -1 -33 -10 0
-4 12 -7 26 -5 14 1 23 0 20 -4 -4 -3 -22 -6 -40 -7 -26 0 -34 3 -33 16 1 9 7
15 14 12 8 -3 12 1 10 8 -2 8 -2 11 0 7 8 -14 25 -9 20 5 -3 8 11 27 30 43 19
16 44 37 56 47 24 21 24 21 24 3z m128 4 c3 -5 2 -10 -4 -10 -5 0 -13 5 -16
10 -3 6 -2 10 4 10 5 0 13 -4 16 -10z m55 2 c-8 -4 -15 -13 -15 -21 0 -8 -7
-16 -15 -18 -13 -4 -13 -3 0 7 12 9 13 12 1 17 -11 5 -11 7 0 14 8 5 21 8 29
8 13 0 13 -1 0 -7z m127 2 c-3 -3 -12 -4 -19 -1 -8 3 -5 6 6 6 11 1 17 -2 13
-5z m1810 0 c-3 -3 -12 -4 -19 -1 -8 3 -5 6 6 6 11 1 17 -2 13 -5z m48 -15 c4
-6 14 -8 22 -4 13 4 14 3 3 -10 -11 -14 -14 -13 -25 1 -7 11 -17 14 -25 9 -9
-5 -11 -4 -6 3 9 15 23 15 31 1z m-1938 -5 c-3 -3 -12 -4 -19 -1 -8 3 -5 6 6
6 11 1 17 -2 13 -5z m1347 -6 c21 1 20 -1 -13 -18 -19 -10 -22 -10 -16 1 6 8
4 11 -7 7 -9 -4 -15 0 -15 8 0 10 6 12 16 8 9 -4 24 -6 35 -6z m-1424 -31 c0
-10 -90 -49 -102 -45 -7 3 6 11 30 18 23 7 42 17 42 22 0 4 7 8 15 8 8 0 15
-2 15 -3z m1251 -108 c129 -61 281 -133 339 -159 122 -55 359 -166 580 -272
85 -40 219 -103 298 -138 117 -54 141 -68 138 -83 -11 -48 -740 -1857 -748
-1857 -5 0 -122 53 -261 119 -139 65 -324 152 -412 194 -88 41 -196 91 -240
112 -44 21 -122 57 -174 81 -103 49 -141 54 -171 24 -27 -27 -30 -80 -7 -109
7 -8 59 -37 117 -64 58 -27 148 -70 200 -94 52 -25 133 -62 180 -83 164 -74
625 -295 647 -311 13 -9 21 -18 19 -20 -2 -2 -6 -24 -9 -49 -3 -25 -12 -61
-21 -80 -13 -29 -14 -31 -10 -7 4 15 2 27 -3 27 -5 0 -9 10 -10 21 -2 20 -1
20 11 3 12 -16 14 -12 21 35 8 59 2 74 -15 39 -7 -12 -30 -39 -51 -59 l-38
-36 32 -12 32 -11 -30 5 c-16 3 -37 7 -45 9 -8 2 -26 -2 -40 -9 -14 -7 -43
-16 -65 -20 -22 -4 -46 -11 -52 -17 -9 -7 -13 -7 -13 1 0 6 -11 11 -25 11 -30
0 -83 20 -194 72 -46 21 -90 37 -98 34 -8 -3 -12 -2 -9 3 8 12 -61 44 -77 35
-6 -4 -8 -3 -4 2 9 10 -130 77 -144 68 -5 -3 -9 -1 -9 5 0 10 -91 56 -330 168
-92 43 -142 65 -148 64 -1 -1 -19 8 -39 19 -22 12 -46 17 -60 14 -17 -5 -22
-3 -18 8 7 19 -99 71 -128 63 -15 -4 -18 -3 -9 3 11 7 10 11 -5 17 -10 5 -21
7 -25 7 -5 -1 -8 3 -8 9 0 7 -9 9 -21 6 -12 -3 -18 -3 -14 1 4 4 -44 32 -107
62 l-113 55 -3 45 c-2 37 6 62 42 138 25 51 51 95 59 98 12 4 43 -9 253 -106
45 -21 91 -41 102 -44 25 -8 77 16 86 39 10 27 6 69 -8 88 -7 9 -87 51 -176
92 -90 42 -167 78 -172 81 -10 6 -5 14 267 514 103 190 215 397 250 460 443
820 432 800 444 800 4 0 113 -50 242 -111z m366 74 c-2 -2 -16 3 -30 10 -15 8
-24 17 -21 20 4 3 17 -1 30 -10 14 -9 23 -17 21 -20z m-1750 10 c-9 -2 -15 -9
-12 -14 4 -5 -5 -9 -19 -9 -14 0 -26 5 -26 11 0 5 4 8 8 5 4 -2 14 -1 22 5 8
5 22 8 30 8 11 -1 10 -3 -3 -6z m1693 -4 c12 -9 12 -10 -3 -5 -10 3 -28 1 -40
-5 -21 -10 -21 -10 -3 5 23 19 26 19 46 5z m104 -4 c-4 -8 -13 -15 -21 -15
-13 0 -13 3 -3 15 7 8 16 15 21 15 5 0 6 -7 3 -15z m359 0 c-3 -9 -8 -14 -10
-11 -3 3 -2 9 2 15 9 16 15 13 8 -4z m-336 -27 c-3 -8 -6 -5 -6 6 -1 11 2 17
5 13 3 -3 4 -12 1 -19z m353 14 c0 -5 -7 -17 -15 -28 -14 -18 -14 -17 -4 9 12
27 19 34 19 19z m-2142 -15 c15 6 15 5 3 -10 -14 -18 -36 -24 -26 -7 3 6 2 10
-4 10 -5 0 -12 -6 -14 -12 -4 -8 -6 -7 -6 4 -1 17 22 31 27 17 2 -4 11 -5 20
-2z m-73 -17 c3 -5 -1 -10 -9 -10 -9 0 -16 5 -16 10 0 6 4 10 9 10 6 0 13 -4
16 -10z m1795 6 c0 -2 -7 -7 -16 -10 -8 -3 -12 -2 -9 4 6 10 25 14 25 6z
m-1149 -35 c74 -19 174 -59 217 -87 l23 -15 -24 -42 c-14 -23 -145 -265 -292
-537 -250 -464 -289 -530 -298 -519 -29 33 -257 389 -278 433 -106 226 -34
511 166 663 144 110 318 147 486 104z m-787 -12 c-3 -5 -10 -7 -15 -3 -5 3 -7
10 -3 15 3 5 10 7 15 3 5 -3 7 -10 3 -15z m100 6 c-10 -8 -26 -14 -34 -15 -8
0 -4 6 10 14 34 19 48 20 24 1z m66 0 c-7 -9 -15 -13 -19 -10 -3 3 1 10 9 15
21 14 24 12 10 -5z m2120 -16 c0 -10 5 -19 11 -19 5 0 7 -5 4 -11 -9 -14 -14
-8 -25 30 -5 19 -5 29 1 26 5 -4 9 -15 9 -26z m30 11 c0 -11 -2 -20 -4 -20 -2
0 -6 9 -9 20 -3 11 -1 20 4 20 5 0 9 -9 9 -20z m-260 -10 c-8 -5 -19 -10 -25
-10 -5 0 -3 5 5 10 8 5 20 10 25 10 6 0 3 -5 -5 -10z m-2074 -32 c4 -7 3 -8
-4 -4 -7 4 -12 2 -12 -5 0 -7 -3 -10 -6 -6 -6 5 3 27 11 27 2 0 7 -5 11 -12z
m64 -3 c0 -8 -4 -15 -10 -15 -5 0 -7 7 -4 15 4 8 8 15 10 15 2 0 4 -7 4 -15z
m54 -13 c3 -5 -1 -9 -9 -9 -8 0 -12 4 -9 9 3 4 7 8 9 8 2 0 6 -4 9 -8z m2096
-12 c8 -5 11 -10 5 -10 -5 0 -17 5 -25 10 -8 5 -10 10 -5 10 6 0 17 -5 25 -10z
m82 -24 c-9 -19 -20 -32 -25 -29 -5 3 -5 8 1 12 5 3 12 16 16 29 4 12 11 22
15 22 5 0 2 -16 -7 -34z m-2232 15 c-8 -6 -14 -24 -13 -47 1 -25 -2 -33 -8
-23 -13 21 -11 67 4 72 21 9 33 7 17 -2z m11 -34 c-10 -9 -11 -8 -5 6 3 10 9
15 12 12 3 -3 0 -11 -7 -18z m-142 -9 c-5 -10 -11 -18 -12 -18 -2 0 -3 8 -3
18 0 10 6 19 13 19 8 0 9 -6 2 -19z m2 -41 c-10 -9 -11 -8 -5 6 3 10 9 15 12
12 3 -3 0 -11 -7 -18z m99 3 c6 -11 8 -20 6 -20 -3 0 -10 9 -16 20 -6 11 -8
20 -6 20 3 0 10 -9 16 -20z m-120 -35 c0 -4 -6 -5 -14 -2 -9 4 -17 -1 -19 -11
-3 -11 -5 -7 -6 9 0 14 2 28 5 32 7 6 34 -17 34 -28z m91 -52 c-8 -15 -10 -15
-11 -2 0 17 10 32 18 25 2 -3 -1 -13 -7 -23z m-54 -15 c-3 -8 -6 -5 -6 6 -1
11 2 17 5 13 3 -3 4 -12 1 -19z m-99 -53 c-3 -3 -9 2 -12 12 -6 14 -5 15 5 6
7 -7 10 -15 7 -18z m-18 -32 c0 -20 -3 -24 -11 -16 -7 7 -9 19 -6 27 10 24 17
19 17 -11z m-10 -68 c0 -5 -5 -3 -10 5 -5 8 -10 20 -10 25 0 6 5 3 10 -5 5 -8
10 -19 10 -25z m17 3 c-3 -7 -5 -2 -5 12 0 14 2 19 5 13 2 -7 2 -19 0 -25z
m110 -35 c-3 -10 -5 -2 -5 17 0 19 2 27 5 18 2 -10 2 -26 0 -35z m-100 -5 c-3
-8 -6 -5 -6 6 -1 11 2 17 5 13 3 -3 4 -12 1 -19z m-40 -30 c-3 -7 -5 -2 -5 12
0 14 2 19 5 13 2 -7 2 -19 0 -25z m36 -72 c-6 -41 -17 -37 -26 9 -4 17 -4 24
-1 18 8 -19 24 -16 24 4 0 9 2 14 5 12 2 -3 2 -22 -2 -43z m-36 -83 c-3 -10
-5 -4 -5 12 0 17 2 24 5 18 2 -7 2 -21 0 -30z m140 15 c-3 -8 -6 -5 -6 6 -1
11 2 17 5 13 3 -3 4 -12 1 -19z m-110 -30 c-3 -8 -6 -5 -6 6 -1 11 2 17 5 13
3 -3 4 -12 1 -19z m123 -61 c0 -7 -4 -6 -10 3 -7 11 -10 11 -10 2 0 -7 -5 -10
-11 -6 -8 4 -7 9 2 15 15 9 29 3 29 -14z m20 -72 c4 3 6 -4 3 -15 -8 -28 -22
-35 -16 -8 4 19 3 21 -7 8 -10 -13 -11 -12 -6 3 3 10 7 31 8 45 1 23 2 22 5
-6 2 -18 8 -30 13 -27z m-117 -12 c-3 -7 -9 -10 -14 -7 -14 8 -11 21 5 21 8 0
12 -6 9 -14z m102 -53 c3 -5 1 -10 -4 -10 -6 0 -11 5 -11 10 0 6 2 10 4 10 3
0 8 -4 11 -10z m-52 -25 c-3 -9 -8 -14 -10 -11 -3 3 -2 9 2 15 9 16 15 13 8
-4z m131 -21 c3 -8 2 -12 -4 -9 -6 3 -10 10 -10 16 0 14 7 11 14 -7z m-155
-37 c0 -21 -1 -21 -9 -2 -12 28 -12 37 0 30 6 -3 10 -16 9 -28z m26 23 c3 -5
1 -10 -4 -10 -6 0 -11 5 -11 10 0 6 2 10 4 10 3 0 8 -4 11 -10z m140 -30 c2
-4 -7 -6 -21 -4 -35 3 -41 12 -9 12 14 0 27 -4 30 -8z m-65 -4 c0 -11 -19 -15
-25 -6 -3 5 1 10 9 10 9 0 16 -2 16 -4z m-56 -22 c3 -8 2 -13 -3 -10 -5 3 -12
-1 -15 -10 -4 -9 -9 -14 -12 -11 -4 4 16 47 22 47 1 0 5 -7 8 -16z m116 -29
c0 -5 -5 -3 -10 5 -5 8 -10 20 -10 25 0 6 5 3 10 -5 5 -8 10 -19 10 -25z m60
-22 c0 -7 5 -13 10 -13 6 0 10 -4 10 -10 0 -23 -17 -7 -38 38 -20 42 -20 44
-2 22 11 -14 20 -31 20 -37z m-86 31 c9 -24 2 -26 -12 -4 -7 11 -8 20 -3 20 5
0 12 -7 15 -16z m-73 -44 c0 8 6 3 12 -11 7 -14 18 -33 25 -42 8 -9 12 -22 9
-29 -3 -8 -9 -1 -16 15 -6 16 -15 26 -20 23 -4 -3 -13 6 -20 20 -13 30 -14 45
-1 24 9 -13 10 -13 11 0z m44 0 c-3 -5 -1 -19 5 -30 6 -11 8 -20 6 -20 -10 0
-27 41 -21 50 3 6 8 10 11 10 3 0 2 -4 -1 -10z m109 -26 c3 -8 2 -12 -4 -9 -6
3 -10 10 -10 16 0 14 7 11 14 -7z m-44 -15 c0 -6 -4 -7 -10 -4 -5 3 -10 11
-10 16 0 6 5 7 10 4 6 -3 10 -11 10 -16z m-30 -19 c0 -5 -5 -10 -11 -10 -5 0
-7 5 -4 10 3 6 8 10 11 10 2 0 4 -4 4 -10z m45 -20 c-10 -11 -20 -18 -23 -15
-7 6 18 35 31 35 5 0 2 -9 -8 -20z m-58 -25 c-4 -8 -2 -17 3 -20 6 -4 10 -1
10 5 0 6 5 8 11 4 8 -5 8 -8 0 -14 -7 -4 -9 -15 -5 -26 5 -13 1 -11 -14 8 -19
22 -22 58 -5 58 3 0 3 -7 0 -15z m4311 -98 c6 -7 22 -118 36 -247 14 -129 42
-369 61 -533 36 -302 36 -327 1 -327 -6 0 -117 69 -246 153 l-234 152 -23 180
c-13 99 -22 192 -21 207 4 33 371 428 398 428 10 0 22 -6 28 -13z m-1323 -404
c-27 -5 -28 -6 -10 -13 14 -6 15 -9 4 -9 -8 -1 -23 5 -32 12 -15 10 -11 12 25
13 30 1 34 0 13 -3z m212 -9 c-3 -3 -12 -4 -19 -1 -8 3 -5 6 6 6 11 1 17 -2
13 -5z m-59 -11 c-10 -2 -26 -2 -35 0 -10 3 -2 5 17 5 19 0 27 -2 18 -5z m149
1 c-3 -3 -12 -4 -19 -1 -8 3 -5 6 6 6 11 1 17 -2 13 -5z m-214 -11 c-7 -2 -19
-2 -25 0 -7 3 -2 5 12 5 14 0 19 -2 13 -5z m-55 -10 c-10 -2 -28 -2 -40 0 -13
2 -5 4 17 4 22 1 32 -1 23 -4z m115 0 c-7 -2 -19 -2 -25 0 -7 3 -2 5 12 5 14
0 19 -2 13 -5z m140 0 c-7 -2 -19 -2 -25 0 -7 3 -2 5 12 5 14 0 19 -2 13 -5z
m102 -3 c13 -6 5 -7 -25 -3 -25 3 -47 7 -49 9 -9 8 55 2 74 -6z m130 0 c3 -5
1 -10 -4 -10 -6 0 -11 5 -11 10 0 6 2 10 4 10 3 0 8 -4 11 -10z m-543 -19 c4
-3 -15 -6 -41 -6 -35 0 -47 4 -44 13 5 12 69 8 85 -7z m83 9 c-3 -5 -14 -10
-23 -9 -14 0 -13 2 3 9 27 11 27 11 20 0z m159 1 c4 -5 -3 -7 -14 -4 -23 6
-26 13 -6 13 8 0 17 -4 20 -9z m481 -1 c-3 -5 -14 -10 -23 -9 -14 0 -13 2 3 9
27 11 27 11 20 0z m-522 -17 c-7 -2 -21 -2 -30 0 -10 3 -4 5 12 5 17 0 24 -2
18 -5z m430 0 c-7 -2 -19 -2 -25 0 -7 3 -2 5 12 5 14 0 19 -2 13 -5z m-520
-10 c-7 -2 -19 -2 -25 0 -7 3 -2 5 12 5 14 0 19 -2 13 -5z m437 3 c0 -2 -9 -6
-20 -9 -11 -3 -20 -1 -20 4 0 5 9 9 20 9 11 0 20 -2 20 -4z m-327 -13 c-13 -2
-35 -2 -50 0 -16 2 -5 4 22 4 28 0 40 -2 28 -4z m534 -35 c-3 -8 -6 -5 -6 6
-1 11 2 17 5 13 3 -3 4 -12 1 -19z m-427 2 c0 -5 -2 -10 -4 -10 -3 0 -8 5 -11
10 -3 6 -1 10 4 10 6 0 11 -4 11 -10z m39 -40 c0 -9 -4 -8 -9 5 -5 11 -9 27
-9 35 0 9 4 8 9 -5 5 -11 9 -27 9 -35z m0 -64 c2 -25 -18 13 -23 44 l-6 35 14
-35 c8 -19 15 -39 15 -44z m392 30 c10 -10 16 -23 13 -28 -4 -6 -12 1 -18 14
-6 12 -17 24 -24 24 -7 1 -17 2 -23 3 -5 0 -7 6 -3 12 4 8 9 7 15 -2 7 -11 9
-9 10 6 0 14 2 16 6 5 3 -8 14 -23 24 -34z m-412 -59 c1 -5 -3 -5 -9 -2 -5 3
-10 16 -9 28 0 21 1 21 9 2 5 -11 9 -24 9 -28z m414 0 c6 -15 -29 -21 -38 -6
-3 5 1 6 9 3 9 -3 16 -1 16 5 0 15 7 14 13 -2z m-890 -44 c-7 -2 -19 -2 -25 0
-7 3 -2 5 12 5 14 0 19 -2 13 -5z m914 -15 c-3 -8 -6 -5 -6 6 -1 11 2 17 5 13
3 -3 4 -12 1 -19z m-682 -7 c26 -6 31 -9 15 -9 -14 -1 -43 3 -65 7 -26 6 -31
9 -15 9 14 1 43 -3 65 -7z m82 -7 c-3 -3 -12 -4 -19 -1 -8 3 -5 6 6 6 11 1 17
-2 13 -5z m-270 -10 c-3 -3 -12 -4 -19 -1 -8 3 -5 6 6 6 11 1 17 -2 13 -5z
m807 -39 c-7 -16 -24 -21 -24 -6 0 8 7 13 27 20 1 1 0 -6 -3 -14z m76 5 c0 -5
-2 -10 -4 -10 -3 0 -8 5 -11 10 -3 6 -1 10 4 10 6 0 11 -4 11 -10z m-127 -7
c-7 -2 -19 -2 -25 0 -7 3 -2 5 12 5 14 0 19 -2 13 -5z m-12 -28 c-18 -8 -38
-15 -45 -15 -19 0 38 28 59 29 13 0 8 -5 -14 -14z m-51 -25 c18 -12 2 -12 -25
0 -13 6 -15 9 -5 9 8 0 22 -4 30 -9z m-213 -6 c-3 -3 -12 -4 -19 -1 -8 3 -5 6
6 6 11 1 17 -2 13 -5z m88 -4 c-3 -5 -12 -10 -18 -10 -7 0 -6 4 3 10 19 12 23
12 15 0z m65 -5 c0 -8 -4 -15 -10 -15 -5 0 -10 7 -10 15 0 8 5 15 10 15 6 0
10 -7 10 -15z m-677 -10 c-3 -9 -8 -14 -10 -11 -3 3 -2 9 2 15 9 16 15 13 8
-4z m642 -5 c3 -5 1 -10 -4 -10 -6 0 -11 5 -11 10 0 6 2 10 4 10 3 0 8 -4 11
-10z m-118 -6 c-3 -3 -12 -4 -19 -1 -8 3 -5 6 6 6 11 1 17 -2 13 -5z m86 -11
c-7 -2 -19 -2 -25 0 -7 3 -2 5 12 5 14 0 19 -2 13 -5z m-3223 -23 c-13 -9 -7
-14 12 -11 4 0 5 -6 1 -14 -5 -13 -7 -13 -19 2 -18 24 -17 33 4 33 14 0 15 -2
2 -10z m2665 -22 c5 4 5 1 1 -6 -6 -10 -11 -10 -22 -1 -8 6 -14 14 -14 16 0 3
6 0 13 -6 8 -6 18 -7 22 -3z m292 6 c-3 -3 -12 -4 -19 -1 -8 3 -5 6 6 6 11 1
17 -2 13 -5z m13 -24 c-12 -8 -12 -10 -1 -10 8 0 12 -3 8 -6 -3 -4 -13 -4 -22
0 -20 7 -10 26 13 26 15 0 15 -2 2 -10z m-2850 -8 c0 -5 -7 -9 -15 -9 -8 0
-12 4 -9 9 3 4 9 8 15 8 5 0 9 -4 9 -8z m2897 2 c-3 -3 -12 -4 -19 -1 -8 3 -5
6 6 6 11 1 17 -2 13 -5z m-317 -14 c0 -5 -2 -10 -4 -10 -3 0 -8 5 -11 10 -3 6
-1 10 4 10 6 0 11 -4 11 -10z m-2597 -17 c-7 -2 -19 -2 -25 0 -7 3 -2 5 12 5
14 0 19 -2 13 -5z m51 -5 c-5 -7 0 -9 14 -6 15 4 19 2 15 -8 -4 -10 -10 -11
-24 -3 -20 10 -26 29 -8 29 5 0 7 -5 3 -12z m-24 -12 c0 -2 -7 -7 -16 -10 -8
-3 -12 -2 -9 4 6 10 25 14 25 6z m2703 -3 c-7 -2 -19 -2 -25 0 -7 3 -2 5 12 5
14 0 19 -2 13 -5z m-2688 -23 c3 -6 -1 -7 -9 -4 -18 7 -21 14 -7 14 6 0 13 -4
16 -10z m72 4 c-3 -3 -12 -4 -19 -1 -8 3 -5 6 6 6 11 1 17 -2 13 -5z m18 -44
c3 -6 -1 -7 -9 -4 -18 7 -21 14 -7 14 6 0 13 -4 16 -10z m65 6 c0 -2 -7 -7
-16 -10 -8 -3 -12 -2 -9 4 6 10 25 14 25 6z m90 -46 c8 -5 11 -10 5 -10 -5 0
-17 5 -25 10 -8 5 -10 10 -5 10 6 0 17 -5 25 -10z m26 -19 c-6 -9 -46 -22 -46
-15 0 3 10 9 23 14 29 11 29 11 23 1z m34 -25 c0 -3 -4 -8 -10 -11 -5 -3 -10
-1 -10 4 0 6 5 11 10 11 6 0 10 -2 10 -4z m60 -16 c-8 -6 -11 -10 -5 -10 5 0
4 -5 -2 -11 -8 -8 -16 -8 -30 0 -14 8 -14 11 -3 11 13 0 13 1 0 11 -12 8 -10
9 7 4 12 -3 24 -1 28 5 4 6 10 9 13 5 4 -3 0 -10 -8 -15z m60 -10 c8 -5 11
-10 5 -10 -5 0 -17 5 -25 10 -8 5 -10 10 -5 10 6 0 17 -5 25 -10z m47 -6 c-3
-3 -12 -4 -19 -1 -8 3 -5 6 6 6 11 1 17 -2 13 -5z m-77 -15 c-11 -8 -8 -9 15
-5 25 5 27 4 12 -5 -21 -12 -51 -4 -42 11 3 5 12 10 18 10 7 0 6 -4 -3 -11z
m135 -17 c-3 -3 -11 0 -18 7 -9 10 -8 11 6 5 10 -3 15 -9 12 -12z m42 -8 c-3
-3 -12 -4 -19 -1 -8 3 -5 6 6 6 11 1 17 -2 13 -5z m-17 -19 c0 -2 -14 -3 -31
-3 -17 1 -25 4 -18 8 10 7 49 2 49 -5z m50 -15 c0 -5 -5 -10 -11 -10 -5 0 -7
5 -4 10 3 6 8 10 11 10 2 0 4 -4 4 -10z m-90 -10 c8 -5 11 -10 5 -10 -5 0 -17
5 -25 10 -8 5 -10 10 -5 10 6 0 17 -5 25 -10z m75 -20 c3 -6 -1 -7 -9 -4 -18
7 -21 14 -7 14 6 0 13 -4 16 -10z m40 0 c3 -5 1 -10 -4 -10 -6 0 -11 5 -11 10
0 6 2 10 4 10 3 0 8 -4 11 -10z m110 -28 c-3 -3 -11 0 -18 7 -9 10 -8 11 6 5
10 -3 15 -9 12 -12z m-6 -21 c15 -10 25 -42 13 -40 -4 0 -16 4 -27 9 -14 6
-15 9 -5 10 12 0 11 4 -4 15 -22 17 -2 21 23 6z m71 -11 c0 -5 -4 -10 -10 -10
-5 0 -10 5 -10 10 0 6 5 10 10 10 6 0 10 -4 10 -10z m28 -52 c8 -21 7 -25 -4
-21 -8 3 -11 9 -8 14 3 5 3 9 0 9 -2 0 -13 3 -23 6 -15 5 -15 4 -3 -5 10 -7
11 -11 3 -11 -7 0 -17 8 -22 19 -9 16 -6 18 18 17 21 -1 31 -8 39 -28z m71
-44 c13 -12 -8 -10 -29 2 l-25 15 25 -7 c14 -3 27 -8 29 -10z m126 -4 c13 -6
15 -9 5 -9 -8 0 -22 4 -30 9 -18 12 -2 12 25 0z m695 -11 c0 -6 -4 -7 -10 -4
-5 3 -10 11 -10 16 0 6 5 7 10 4 6 -3 10 -11 10 -16z m-735 -19 c-8 -13 1 -13
27 1 16 8 19 8 13 -1 -5 -9 -1 -10 16 -6 l24 7 -23 -13 c-16 -10 -19 -17 -11
-25 6 -6 -9 -1 -33 10 -33 16 -40 24 -29 29 22 9 23 9 16 -2z m90 -30 c3 -6
-1 -7 -9 -4 -18 7 -21 14 -7 14 6 0 13 -4 16 -10z m628 -5 c-3 -9 -8 -14 -10
-11 -3 3 -2 9 2 15 9 16 15 13 8 -4z m-527 -67 c-23 -13 -40 0 -25 18 9 11 15
12 26 2 12 -10 12 -13 -1 -20z m102 23 c11 -6 10 -10 -4 -15 -9 -3 -19 -4 -22
-1 -3 3 1 5 9 5 11 0 11 2 -1 10 -8 5 -10 10 -5 10 6 0 16 -4 23 -9z m241 -15
c-2 -2 -22 -6 -44 -9 -27 -4 -35 -3 -25 3 14 9 79 15 69 6z m-314 -16 c-3 -5
-12 -10 -18 -10 -7 0 -6 4 3 10 19 12 23 12 15 0z m130 -10 c3 -5 2 -10 -4
-10 -5 0 -13 5 -16 10 -3 6 -2 10 4 10 5 0 13 -4 16 -10z m-51 -11 c24 -11 27
-29 5 -29 -6 0 -8 4 -5 9 4 5 -6 14 -21 19 -16 6 -23 11 -16 11 7 1 23 -4 37
-10z m209 4 c-7 -2 -21 -2 -30 0 -10 3 -4 5 12 5 17 0 24 -2 18 -5z m52 -33
c13 -6 15 -9 5 -9 -8 0 -22 4 -30 9 -18 12 -2 12 25 0z m65 -22 c0 -5 -7 -3
-15 6 -8 8 -15 18 -15 22 0 3 7 1 15 -6 8 -7 15 -17 15 -22z m-250 1 c-12 -9
-11 -10 6 -6 12 2 21 -1 21 -8 0 -10 -7 -10 -29 -3 -39 14 -45 28 -11 28 23 0
25 -2 13 -11z m70 -9 c0 -5 -4 -10 -9 -10 -6 0 -13 5 -16 10 -3 6 1 10 9 10 9
0 16 -4 16 -10z m76 -19 c-3 -5 -16 -11 -28 -14 -22 -6 -22 -5 -4 8 22 17 40
20 32 6z"/>
<path d="M2931 3773 c-24 -21 -132 -275 -133 -316 -2 -66 85 -102 130 -54 36
38 134 294 127 328 -12 54 -81 77 -124 42z"/>
<path d="M2707 3218 c-17 -15 -47 -78 -91 -188 -35 -91 -106 -266 -156 -390
-51 -124 -96 -238 -101 -254 -19 -63 50 -122 108 -93 35 19 21 -12 209 454 92
230 154 396 154 416 0 64 -76 98 -123 55z"/>
<path d="M4397 1911 c-26 -31 -236 -397 -289 -503 -61 -123 -45 -285 39 -390
48 -59 77 -82 150 -116 50 -23 70 -27 153 -27 76 0 107 5 152 23 83 34 150 99
195 189 33 67 37 83 37 156 1 76 -2 88 -41 168 -49 103 -245 450 -280 497 -33
43 -80 45 -116 3z m163 -391 c77 -136 100 -184 95 -201 -5 -14 -4 -19 4 -15
16 10 18 -48 6 -122 -8 -42 -76 -118 -124 -138 -39 -16 -119 -16 -166 1 -43
15 -75 38 -75 53 0 7 -4 11 -10 7 -5 -3 -17 6 -26 20 -13 19 -14 28 -5 39 13
16 -1 32 -19 21 -11 -7 -6 119 7 151 14 37 198 363 204 364 4 0 53 -81 109
-180z"/>
<path d="M4250 1254 c0 -8 5 -12 10 -9 6 4 8 11 5 16 -9 14 -15 11 -15 -7z"/>
<path d="M4605 1240 c-3 -5 -1 -10 4 -10 6 0 11 5 11 10 0 6 -2 10 -4 10 -3 0
-8 -4 -11 -10z"/>
<path d="M4630 1188 c0 -4 7 -8 15 -8 8 0 15 4 15 8 0 5 -7 9 -15 9 -8 0 -15
-4 -15 -9z"/>
<path d="M4265 1150 c-3 -5 -1 -10 4 -10 6 0 11 5 11 10 0 6 -2 10 -4 10 -3 0
-8 -4 -11 -10z"/>
<path d="M4470 1060 c-9 -6 -10 -10 -3 -10 6 0 15 5 18 10 8 12 4 12 -15 0z"/>
<path d="M3272 1530 c-23 -22 -203 -319 -260 -431 -29 -56 -34 -77 -34 -132 0
-128 58 -225 171 -285 152 -82 324 -55 434 68 55 61 81 132 81 218 0 54 -6 74
-41 140 -65 126 -234 406 -255 425 -27 23 -69 22 -96 -3z m80 -262 c14 -24 51
-88 82 -142 l58 -99 -19 -26 c-47 -64 -159 -89 -238 -52 -42 19 -90 64 -84 78
12 30 165 283 170 283 4 0 18 -19 31 -42z"/>
<path d="M3917 918 c-22 -8 -50 -47 -133 -186 -58 -98 -122 -211 -142 -251
-34 -69 -37 -82 -36 -155 0 -66 5 -90 26 -131 48 -94 145 -163 261 -186 101
-21 235 27 311 111 78 86 106 206 73 305 -9 25 -75 145 -147 265 -140 233
-153 248 -213 228z m98 -343 c17 -27 49 -78 69 -113 l38 -63 -23 -26 c-31 -32
-87 -61 -136 -69 -48 -7 -127 23 -168 66 l-27 28 29 47 c15 25 33 54 38 64 6
9 32 54 60 99 l49 81 20 -32 c11 -18 34 -54 51 -82z"/>
</g>
</svg>
