<?xml version="1.0" encoding="UTF-8"?>
<!DOCTYPE svg PUBLIC "-//W3C//DTD SVG 1.1//EN" "http://www.w3.org/Graphics/SVG/1.1/DTD/svg11.dtd">
<svg xmlns="http://www.w3.org/2000/svg" version="1.1" width="500px" height="500px" style="shape-rendering:geometricPrecision; text-rendering:geometricPrecision; image-rendering:optimizeQuality; fill-rule:evenodd; clip-rule:evenodd" xmlns:xlink="http://www.w3.org/1999/xlink">
<g><path style="opacity:0.992" fill="#0c0808" d="M 220.5,-0.5 C 240.167,-0.5 259.833,-0.5 279.5,-0.5C 288.688,1.04724 297.688,3.38057 306.5,6.5C 311.382,9.46387 316.715,11.4639 322.5,12.5C 324.181,14.0075 326.181,15.0075 328.5,15.5C 364.453,31.7867 392.12,57.12 411.5,91.5C 411.427,93.0269 412.094,94.0269 413.5,94.5C 419.852,106.208 424.852,118.541 428.5,131.5C 428.923,136.54 430.256,141.207 432.5,145.5C 434.092,152.385 435.259,159.385 436,166.5C 436.5,260.166 436.667,353.833 436.5,447.5C 441.179,447.334 445.845,447.501 450.5,448C 451.942,448.377 452.942,449.21 453.5,450.5C 453.427,452.027 454.094,453.027 455.5,453.5C 456.66,466.327 456.827,479.327 456,492.5C 453.914,496.445 450.747,498.779 446.5,499.5C 315.5,499.5 184.5,499.5 53.5,499.5C 51.1898,498.675 49.1898,497.342 47.5,495.5C 47.573,493.973 46.9063,492.973 45.5,492.5C 44.3398,479.673 44.1731,466.673 45,453.5C 46.1667,451 48,449.167 50.5,448C 55.1548,447.501 59.8215,447.334 64.5,447.5C 64.0215,351.145 64.5215,254.812 66,158.5C 70.8538,126.977 82.6872,98.4765 101.5,73C 105.157,71.3533 108.823,71.1867 112.5,72.5C 113.833,73.8333 115.167,75.1667 116.5,76.5C 117.555,79.0728 117.722,81.7395 117,84.5C 107.06,98.0485 99.5602,112.715 94.5,128.5C 89.4795,140.912 86.4795,153.912 85.5,167.5C 84.5024,190.994 84.1691,214.661 84.5,238.5C 136.5,238.5 188.5,238.5 240.5,238.5C 240.5,165.167 240.5,91.8333 240.5,18.5C 216.41,18.9788 194.076,25.3121 173.5,37.5C 168.302,39.9305 163.302,42.5972 158.5,45.5C 149.732,45.0486 146.065,40.382 147.5,31.5C 148.591,28.5722 150.591,26.4055 153.5,25C 158.91,21.6284 164.577,18.7951 170.5,16.5C 172.819,16.0075 174.819,15.0075 176.5,13.5C 178.553,13.5979 180.22,12.9313 181.5,11.5C 183.38,11.7709 184.713,11.1042 185.5,9.5C 190.079,9.52966 194.079,8.19632 197.5,5.5C 205.055,3.02808 212.721,1.02808 220.5,-0.5 Z"/></g>
<g><path style="opacity:0.255" fill="#727272" d="M 197.5,5.5 C 194.079,8.19632 190.079,9.52966 185.5,9.5C 189.216,7.59468 193.216,6.26135 197.5,5.5 Z"/></g>
<g><path style="opacity:0.122" fill="#b7b7b7" d="M 306.5,6.5 C 312.129,7.92903 317.463,9.92903 322.5,12.5C 316.715,11.4639 311.382,9.46387 306.5,6.5 Z"/></g>
<g><path style="opacity:0.067" fill="#afafaf" d="M 185.5,9.5 C 184.713,11.1042 183.38,11.7709 181.5,11.5C 182.514,10.3263 183.847,9.6596 185.5,9.5 Z"/></g>
<g><path style="opacity:0.063" fill="#a8a8a8" d="M 181.5,11.5 C 180.22,12.9313 178.553,13.5979 176.5,13.5C 177.78,12.0687 179.447,11.4021 181.5,11.5 Z"/></g>
<g><path style="opacity:0.031" fill="#b3b3b3" d="M 176.5,13.5 C 174.819,15.0075 172.819,16.0075 170.5,16.5C 171.911,14.461 173.911,13.461 176.5,13.5 Z"/></g>
<g><path style="opacity:0.043" fill="#bcbcbc" d="M 322.5,12.5 C 325.089,12.461 327.089,13.461 328.5,15.5C 326.181,15.0075 324.181,14.0075 322.5,12.5 Z"/></g>
<g><path style="opacity:1" fill="#cc8b6a" d="M 261.5,19.5 C 264.833,19.5 268.167,19.5 271.5,19.5C 281.934,20.3447 291.934,22.678 301.5,26.5C 299.143,26.6633 296.81,26.4966 294.5,26C 292.87,24.7869 291.036,23.9536 289,23.5C 283.187,24.5375 277.354,24.5375 271.5,23.5C 271.5,22.5 271.5,21.5 271.5,20.5C 268.5,20.5 265.5,20.5 262.5,20.5C 262.377,92.2381 262.543,163.905 263,235.5C 313.095,236.497 363.262,236.831 413.5,236.5C 363.098,237.832 312.598,237.832 262,236.5C 261.5,164.167 261.333,91.8341 261.5,19.5 Z"/></g>
<g><path style="opacity:1" fill="#49241c" d="M 271.5,19.5 C 268.167,19.5 264.833,19.5 261.5,19.5C 260.501,92.3314 260.167,165.331 260.5,238.5C 259.501,165.335 259.167,92.0019 259.5,18.5C 263.702,18.1832 267.702,18.5166 271.5,19.5 Z"/></g>
<g><path style="opacity:1" fill="#bf8c75" d="M 85.5,167.5 C 85.1726,190.742 85.5059,213.908 86.5,237C 137.499,237.5 188.499,237.667 239.5,237.5C 239.833,165.331 239.499,93.3314 238.5,21.5C 229.811,21.3819 221.477,22.8819 213.5,26C 210.167,26.3333 206.833,26.6667 203.5,27C 193.561,30.8151 183.561,34.3151 173.5,37.5C 194.076,25.3121 216.41,18.9788 240.5,18.5C 240.5,91.8333 240.5,165.167 240.5,238.5C 188.5,238.5 136.5,238.5 84.5,238.5C 84.1691,214.661 84.5024,190.994 85.5,167.5 Z"/></g>
<g><path style="opacity:1" fill="#c68664" d="M 302.5,26.5 C 311.71,29.7698 320.71,33.6032 329.5,38C 335.07,41.2751 340.403,44.7751 345.5,48.5C 340.039,46.8532 334.872,44.5199 330,41.5C 327.201,42.237 327.034,43.0703 329.5,44C 327.22,44.2326 325.22,45.066 323.5,46.5C 327.231,48.6933 330.897,50.86 334.5,53C 340.512,54.1834 344.512,57.6834 346.5,63.5C 334.956,54.8923 322.622,47.5589 309.5,41.5C 313.073,41.9588 316.073,40.9588 318.5,38.5C 320.271,39.0354 320.604,39.8687 319.5,41C 321.699,42.5834 324.032,42.7501 326.5,41.5C 326.67,40.1779 326.337,39.0113 325.5,38C 319.924,35.8788 314.591,33.2121 309.5,30C 306.408,30.1072 304.075,28.9406 302.5,26.5 Z"/></g>
<g><path style="opacity:1" fill="#d78c62" d="M 238.5,21.5 C 237.84,23.3437 236.84,25.0104 235.5,26.5C 235.453,28.0004 236.119,29.0004 237.5,29.5C 238.833,98.1667 238.833,166.833 237.5,235.5C 187.541,236.662 137.541,236.828 87.5,236C 86.3395,212.239 86.1728,188.406 87,164.5C 87.8812,160.681 89.2146,157.014 91,153.5C 91.0353,144.964 92.202,136.631 94.5,128.5C 99.5602,112.715 107.06,98.0485 117,84.5C 117.722,81.7395 117.555,79.0728 116.5,76.5C 116.261,74.5328 116.594,72.6995 117.5,71C 122.202,70.8283 126.868,70.3283 131.5,69.5C 132.85,68.0499 134.516,67.3832 136.5,67.5C 136.334,62.4889 136.501,57.4889 137,52.5C 139.024,50.6419 141.191,48.9752 143.5,47.5C 144.386,46.675 144.719,45.675 144.5,44.5C 148.401,44.2453 152.068,44.9119 155.5,46.5C 156.726,46.4805 157.726,46.1471 158.5,45.5C 163.302,42.5972 168.302,39.9305 173.5,37.5C 183.561,34.3151 193.561,30.8151 203.5,27C 206.833,26.6667 210.167,26.3333 213.5,26C 221.477,22.8819 229.811,21.3819 238.5,21.5 Z"/></g>
<g><path style="opacity:1" fill="#180402" d="M 222.5,226.5 C 181.81,226.811 141.143,226.477 100.5,225.5C 100.167,224.5 99.5,223.833 98.5,223.5C 98.5,223.167 98.5,222.833 98.5,222.5C 101.668,223.864 105.001,224.697 108.5,225C 144.167,225.667 179.833,225.667 215.5,225C 218.762,224.655 221.595,223.488 224,221.5C 224.333,221.833 224.667,222.167 225,222.5C 225.29,220.956 225.956,219.623 227,218.5C 227.667,161.5 227.667,104.5 227,47.5C 226.128,43.3334 224.961,39.3334 223.5,35.5C 221.116,35.5567 218.782,35.2234 216.5,34.5C 212.264,35.976 207.93,36.976 203.5,37.5C 209.69,34.1732 216.357,33.0066 223.5,34C 225.57,34.9476 227.07,36.4476 228,38.5C 228.667,99.5 228.667,160.5 228,221.5C 226.188,223.3 224.355,224.967 222.5,226.5 Z"/></g>
<g><path style="opacity:1" fill="#030203" d="M 98.5,222.5 C 97.9101,221.234 97.4101,219.901 97,218.5C 96.5001,202.17 96.3334,185.837 96.5,169.5C 104.43,111.609 134.43,69.6092 186.5,43.5C 192.022,41.1038 197.688,39.1038 203.5,37.5C 207.93,36.976 212.264,35.976 216.5,34.5C 218.782,35.2234 221.116,35.5567 223.5,35.5C 224.961,39.3334 226.128,43.3334 227,47.5C 227.667,104.5 227.667,161.5 227,218.5C 225.956,219.623 225.29,220.956 225,222.5C 224.667,222.167 224.333,221.833 224,221.5C 221.595,223.488 218.762,224.655 215.5,225C 179.833,225.667 144.167,225.667 108.5,225C 105.001,224.697 101.668,223.864 98.5,222.5 Z"/></g>
<g><path style="opacity:1" fill="#b47d68" d="M 98.5,223.5 C 99.5,223.833 100.167,224.5 100.5,225.5C 100.918,226.222 101.584,226.722 102.5,227C 142.669,227.831 182.669,227.665 222.5,226.5C 224.355,224.967 226.188,223.3 228,221.5C 228.667,160.5 228.667,99.5 228,38.5C 227.07,36.4476 225.57,34.9476 223.5,34C 216.357,33.0066 209.69,34.1732 203.5,37.5C 197.688,39.1038 192.022,41.1038 186.5,43.5C 187.626,41.5475 189.292,40.0475 191.5,39C 198.5,36.6667 205.5,34.3333 212.5,32C 221.547,29.3216 227.713,32.155 231,40.5C 231.015,101.867 230.349,163.201 229,224.5C 227.786,226.049 226.286,227.215 224.5,228C 182.835,228.5 141.168,228.667 99.5,228.5C 99.3713,226.784 99.038,225.117 98.5,223.5 Z"/></g>
<g><path style="opacity:0.977" fill="#151212" d="M 131.5,51.5 C 134.533,53.403 135.866,56.2363 135.5,60C 133.907,67.477 129.241,70.477 121.5,69C 120.468,67.3732 119.134,66.2066 117.5,65.5C 114.454,58.8602 116.12,53.6935 122.5,50C 125.167,49.3333 127.833,49.3333 130.5,50C 131.056,50.3826 131.389,50.8826 131.5,51.5 Z"/></g>
<g><path style="opacity:1" fill="#8ee9ee" d="M 203.5,58.5 C 204.833,58.5 206.167,58.5 207.5,58.5C 207.833,107.171 207.5,155.838 206.5,204.5C 205.692,204.808 205.025,205.308 204.5,206C 175.502,206.5 146.502,206.667 117.5,206.5C 117.388,189.456 118.221,172.456 120,155.5C 122.506,149.805 124.006,143.805 124.5,137.5C 136.659,105.164 157.992,80.6641 188.5,64C 193.634,62.3236 198.634,60.4903 203.5,58.5 Z"/></g>
<g><path style="opacity:1" fill="#9edcdf" d="M 124.5,137.5 C 124.006,143.805 122.506,149.805 120,155.5C 118.221,172.456 117.388,189.456 117.5,206.5C 146.502,206.667 175.502,206.5 204.5,206C 205.025,205.308 205.692,204.808 206.5,204.5C 207.5,155.838 207.833,107.171 207.5,58.5C 206.167,58.5 204.833,58.5 203.5,58.5C 204.736,56.9572 206.402,55.9572 208.5,55.5C 209.5,106.162 209.833,156.829 209.5,207.5C 178.167,207.5 146.833,207.5 115.5,207.5C 114.928,190.75 115.761,174.084 118,157.5C 119.5,150.502 121.667,143.835 124.5,137.5 Z"/></g>
<g><path style="opacity:0.988" fill="#b88771" d="M 147.5,31.5 C 146.065,40.382 149.732,45.0486 158.5,45.5C 157.726,46.1471 156.726,46.4805 155.5,46.5C 152.068,44.9119 148.401,44.2453 144.5,44.5C 144.719,45.675 144.386,46.675 143.5,47.5C 141.191,48.9752 139.024,50.6419 137,52.5C 136.501,57.4889 136.334,62.4889 136.5,67.5C 134.516,67.3832 132.85,68.0499 131.5,69.5C 126.868,70.3283 122.202,70.8283 117.5,71C 116.594,72.6995 116.261,74.5328 116.5,76.5C 115.167,75.1667 113.833,73.8333 112.5,72.5C 114.811,71.0859 116.811,69.2526 118.5,67C 117.944,66.6174 117.611,66.1174 117.5,65.5C 119.134,66.2066 120.468,67.3732 121.5,69C 129.241,70.477 133.907,67.477 135.5,60C 135.866,56.2363 134.533,53.403 131.5,51.5C 132.552,51.6495 133.552,51.4828 134.5,51C 138.383,47.4496 142.549,44.2829 147,41.5C 146.307,38.0515 146.473,34.7181 147.5,31.5 Z"/></g>
<g><path style="opacity:1" fill="#bd8164" d="M 356.5,57.5 C 374.873,71.8748 389.207,89.5415 399.5,110.5C 395.225,106.658 391.891,101.991 389.5,96.5C 386.047,94.928 384.047,92.2613 383.5,88.5C 382.675,87.6143 381.675,87.281 380.5,87.5C 380.736,84.7743 379.903,82.441 378,80.5C 376.598,82.9734 375.098,82.9734 373.5,80.5C 373.833,79.8333 374.167,79.1667 374.5,78.5C 373.194,77.0878 372.36,75.4211 372,73.5C 368.118,69.3789 363.785,65.7123 359,62.5C 358.215,60.751 357.382,59.0843 356.5,57.5 Z"/></g>
<g><path style="opacity:0.051" fill="#c0c0c0" d="M 411.5,91.5 C 412.906,91.9731 413.573,92.9731 413.5,94.5C 412.094,94.0269 411.427,93.0269 411.5,91.5 Z"/></g>
<g><path style="opacity:0.071" fill="#6a6a6a" d="M 428.5,131.5 C 430.434,135.888 431.767,140.555 432.5,145.5C 430.256,141.207 428.923,136.54 428.5,131.5 Z"/></g>
<g><path style="opacity:1" fill="#ca886b" d="M 399.5,111.5 C 408.234,129.053 413.567,147.72 415.5,167.5C 415.831,190.339 415.497,213.006 414.5,235.5C 414.667,211.498 414.5,187.498 414,163.5C 412.124,158.462 410.124,153.462 408,148.5C 408.128,145.514 408.128,142.514 408,139.5C 405.259,130.111 402.425,120.778 399.5,111.5 Z"/></g>
<g><path style="opacity:1" fill="#d88c62" d="M 301.5,26.5 C 301.833,26.5 302.167,26.5 302.5,26.5C 304.075,28.9406 306.408,30.1072 309.5,30C 314.591,33.2121 319.924,35.8788 325.5,38C 326.337,39.0113 326.67,40.1779 326.5,41.5C 324.032,42.7501 321.699,42.5834 319.5,41C 320.604,39.8687 320.271,39.0354 318.5,38.5C 316.073,40.9588 313.073,41.9588 309.5,41.5C 300.473,37.825 291.139,35.1583 281.5,33.5C 276.952,33.2686 273.952,35.2686 272.5,39.5C 271.18,100.687 271.18,162.02 272.5,223.5C 273.219,225.888 274.885,227.388 277.5,228C 318.5,228.667 359.5,228.667 400.5,228C 402.552,227.07 404.052,225.57 405,223.5C 405.829,205.329 405.662,187.329 404.5,169.5C 402.835,160.84 401.168,152.173 399.5,143.5C 399.664,140.813 399.497,138.146 399,135.5C 392.95,117.958 384.284,101.958 373,87.5C 371.871,85.8588 370.371,84.8588 368.5,84.5C 361.799,76.798 354.466,69.798 346.5,63.5C 344.512,57.6834 340.512,54.1834 334.5,53C 330.897,50.86 327.231,48.6933 323.5,46.5C 325.22,45.066 327.22,44.2326 329.5,44C 327.034,43.0703 327.201,42.237 330,41.5C 334.872,44.5199 340.039,46.8532 345.5,48.5C 349.482,51.1518 353.149,54.1518 356.5,57.5C 357.382,59.0843 358.215,60.751 359,62.5C 363.785,65.7123 368.118,69.3789 372,73.5C 372.36,75.4211 373.194,77.0878 374.5,78.5C 374.167,79.1667 373.833,79.8333 373.5,80.5C 375.098,82.9734 376.598,82.9734 378,80.5C 379.903,82.441 380.736,84.7743 380.5,87.5C 381.675,87.281 382.675,87.6143 383.5,88.5C 384.047,92.2613 386.047,94.928 389.5,96.5C 391.891,101.991 395.225,106.658 399.5,110.5C 399.5,110.833 399.5,111.167 399.5,111.5C 402.425,120.778 405.259,130.111 408,139.5C 408.128,142.514 408.128,145.514 408,148.5C 410.124,153.462 412.124,158.462 414,163.5C 414.5,187.498 414.667,211.498 414.5,235.5C 414.5,236.167 414.167,236.5 413.5,236.5C 363.262,236.831 313.095,236.497 263,235.5C 262.543,163.905 262.377,92.2381 262.5,20.5C 265.5,20.5 268.5,20.5 271.5,20.5C 271.5,21.5 271.5,22.5 271.5,23.5C 277.354,24.5375 283.187,24.5375 289,23.5C 291.036,23.9536 292.87,24.7869 294.5,26C 296.81,26.4966 299.143,26.6633 301.5,26.5 Z"/></g>
<g><path style="opacity:1" fill="#b17e63" d="M 368.5,84.5 C 370.371,84.8588 371.871,85.8588 373,87.5C 384.284,101.958 392.95,117.958 399,135.5C 399.497,138.146 399.664,140.813 399.5,143.5C 397.46,139.868 396.293,135.868 396,131.5C 391.802,123.769 388.136,115.769 385,107.5C 379.981,99.4513 374.481,91.7847 368.5,84.5 Z"/></g>
<g><path style="opacity:1" fill="#674439" d="M 272.5,39.5 C 272.333,99.1676 272.5,158.834 273,218.5C 273.133,221.404 274.3,223.738 276.5,225.5C 274.938,225.267 273.605,224.6 272.5,223.5C 271.18,162.02 271.18,100.687 272.5,39.5 Z"/></g>
<g><path style="opacity:1" fill="#040203" d="M 309.5,41.5 C 322.622,47.5589 334.956,54.8923 346.5,63.5C 354.466,69.798 361.799,76.798 368.5,84.5C 374.481,91.7847 379.981,99.4513 385,107.5C 388.136,115.769 391.802,123.769 396,131.5C 396.293,135.868 397.46,139.868 399.5,143.5C 401.168,152.173 402.835,160.84 404.5,169.5C 404.667,185.837 404.5,202.17 404,218.5C 403.424,222.566 401.257,225.233 397.5,226.5C 357.143,226.81 316.809,226.477 276.5,225.5C 274.3,223.738 273.133,221.404 273,218.5C 272.5,158.834 272.333,99.1676 272.5,39.5C 273.952,35.2686 276.952,33.2686 281.5,33.5C 291.139,35.1583 300.473,37.825 309.5,41.5 Z"/></g>
<g><path style="opacity:1" fill="#8eeaee" d="M 327.5,74.5 C 350.184,89.5239 366.184,109.857 375.5,135.5C 374.89,140.655 376.056,145.322 379,149.5C 379.664,153.696 379.497,157.862 378.5,162C 378.891,165.177 380.057,168.01 382,170.5C 382.5,181.495 382.667,192.495 382.5,203.5C 352.833,204.833 323.167,204.833 293.5,203.5C 293.333,155.832 293.5,108.166 294,60.5C 294.308,59.6919 294.808,59.0253 295.5,58.5C 299.924,60.6431 304.257,62.9765 308.5,65.5C 306.879,68.2709 304.712,68.9376 302,67.5C 298.894,69.9412 298.728,72.6079 301.5,75.5C 303.179,73.8955 305.179,73.2289 307.5,73.5C 307.5,74.8333 307.5,76.1667 307.5,77.5C 310.114,77.7229 311.781,76.5562 312.5,74C 314.664,73.0857 316.664,71.919 318.5,70.5C 321.404,72.12 324.404,73.4533 327.5,74.5 Z"/></g>
<g><path style="opacity:1" fill="#050b0c" d="M 335.5,133.5 C 345.768,132.718 349.935,137.384 348,147.5C 341.476,155.022 334.643,162.189 327.5,169C 315.362,175.225 309.862,171.392 311,157.5C 319.062,149.27 327.228,141.27 335.5,133.5 Z"/></g>
<g><path style="opacity:1" fill="#72a1a2" d="M 382.5,157.5 C 383.639,161.301 384.472,165.301 385,169.5C 385.827,182.34 385.66,195.007 384.5,207.5C 384.906,190.773 384.239,174.107 382.5,157.5 Z"/></g>
<g><path style="opacity:1" fill="#98e5e6" d="M 327.5,74.5 C 324.404,73.4533 321.404,72.12 318.5,70.5C 316.664,71.919 314.664,73.0857 312.5,74C 311.781,76.5562 310.114,77.7229 307.5,77.5C 307.5,76.1667 307.5,74.8333 307.5,73.5C 305.179,73.2289 303.179,73.8955 301.5,75.5C 298.728,72.6079 298.894,69.9412 302,67.5C 304.712,68.9376 306.879,68.2709 308.5,65.5C 304.257,62.9765 299.924,60.6431 295.5,58.5C 294.808,59.0253 294.308,59.6919 294,60.5C 293.5,108.166 293.333,155.832 293.5,203.5C 323.167,204.833 352.833,204.833 382.5,203.5C 382.667,192.495 382.5,181.495 382,170.5C 380.057,168.01 378.891,165.177 378.5,162C 379.497,157.862 379.664,153.696 379,149.5C 376.056,145.322 374.89,140.655 375.5,135.5C 379.009,142.364 381.342,149.698 382.5,157.5C 384.239,174.107 384.906,190.773 384.5,207.5C 353.5,207.5 322.5,207.5 291.5,207.5C 291.5,157.167 291.5,106.833 291.5,56.5C 304.881,59.8572 316.881,65.8572 327.5,74.5 Z"/></g>
<g><path style="opacity:1" fill="#cf8d6d" d="M 238.5,21.5 C 239.499,93.3314 239.833,165.331 239.5,237.5C 188.499,237.667 137.499,237.5 86.5,237C 85.5059,213.908 85.1726,190.742 85.5,167.5C 86.4795,153.912 89.4795,140.912 94.5,128.5C 92.202,136.631 91.0353,144.964 91,153.5C 89.2146,157.014 87.8812,160.681 87,164.5C 86.1728,188.406 86.3395,212.239 87.5,236C 137.541,236.828 187.541,236.662 237.5,235.5C 238.833,166.833 238.833,98.1667 237.5,29.5C 236.119,29.0004 235.453,28.0004 235.5,26.5C 236.84,25.0104 237.84,23.3437 238.5,21.5 Z"/></g>
<g><path style="opacity:1" fill="#674333" d="M 100.5,225.5 C 141.143,226.477 181.81,226.811 222.5,226.5C 182.669,227.665 142.669,227.831 102.5,227C 101.584,226.722 100.918,226.222 100.5,225.5 Z"/></g>
<g><path style="opacity:1" fill="#8a614e" d="M 96.5,169.5 C 96.3334,185.837 96.5001,202.17 97,218.5C 97.4101,219.901 97.9101,221.234 98.5,222.5C 98.5,222.833 98.5,223.167 98.5,223.5C 97.0337,222.653 96.2004,221.32 96,219.5C 95.1717,202.662 95.3384,185.995 96.5,169.5 Z"/></g>
<g><path style="opacity:1" fill="#060a0b" d="M 172.5,133.5 C 182.285,133.6 185.951,138.266 183.5,147.5C 175.641,156.526 166.974,164.693 157.5,172C 152.446,173.143 148.779,171.31 146.5,166.5C 145.348,163.894 145.182,161.227 146,158.5C 153.768,148.894 162.602,140.561 172.5,133.5 Z"/></g>
<g><path style="opacity:1" fill="#c4907c" d="M 261.5,19.5 C 261.333,91.8341 261.5,164.167 262,236.5C 312.598,237.832 363.098,237.832 413.5,236.5C 414.167,236.5 414.5,236.167 414.5,235.5C 415.497,213.006 415.831,190.339 415.5,167.5C 416.498,190.994 416.831,214.661 416.5,238.5C 364.5,238.5 312.5,238.5 260.5,238.5C 260.167,165.331 260.501,92.3314 261.5,19.5 Z"/></g>
<g><path style="opacity:1" fill="#c28b72" d="M 404.5,169.5 C 405.662,187.329 405.829,205.329 405,223.5C 404.052,225.57 402.552,227.07 400.5,228C 359.5,228.667 318.5,228.667 277.5,228C 274.885,227.388 273.219,225.888 272.5,223.5C 273.605,224.6 274.938,225.267 276.5,225.5C 276.918,226.222 277.584,226.722 278.5,227C 318.335,227.831 358.002,227.665 397.5,226.5C 401.257,225.233 403.424,222.566 404,218.5C 404.5,202.17 404.667,185.837 404.5,169.5 Z"/></g>
<g><path style="opacity:1" fill="#664233" d="M 276.5,225.5 C 316.809,226.477 357.143,226.81 397.5,226.5C 358.002,227.665 318.335,227.831 278.5,227C 277.584,226.722 276.918,226.222 276.5,225.5 Z"/></g>
<g><path style="opacity:1" fill="#1f0f09" d="M 416.5,447.5 C 416.082,448.222 415.416,448.722 414.5,449C 401.494,449.367 388.494,449.867 375.5,450.5C 337.067,449.19 298.734,449.19 260.5,450.5C 258.03,447.115 257.03,443.282 257.5,439C 258.494,378.439 258.828,317.939 258.5,257.5C 311.167,256.833 363.833,256.167 416.5,255.5C 417.086,255.709 417.586,256.043 418,256.5C 418.273,258.101 418.773,259.601 419.5,261C 419.169,323.438 418.169,385.604 416.5,447.5 Z"/></g>
<g><path style="opacity:1" fill="#c4917c" d="M 416.5,447.5 C 364.5,447.5 312.5,447.5 260.5,447.5C 260.5,384.5 260.5,321.5 260.5,258.5C 312.5,258.5 364.5,258.5 416.5,258.5C 416.5,321.5 416.5,384.5 416.5,447.5 Z"/></g>
<g><path style="opacity:1" fill="#d18f6c" d="M 414.5,260.5 C 364.499,260.333 314.499,260.5 264.5,261C 264,261.5 263.5,262 263,262.5C 262.169,323.404 262.336,384.237 263.5,445C 313.874,445.824 364.208,445.657 414.5,444.5C 414.389,445.117 414.056,445.617 413.5,446C 362.834,446.5 312.168,446.667 261.5,446.5C 261.333,384.832 261.5,323.166 262,261.5C 262.5,261 263,260.5 263.5,260C 314.002,259.168 364.335,259.335 414.5,260.5 Z"/></g>
<g><path style="opacity:1" fill="#d98c61" d="M 414.5,260.5 C 415.833,321.833 415.833,383.167 414.5,444.5C 364.208,445.657 313.874,445.824 263.5,445C 262.336,384.237 262.169,323.404 263,262.5C 263.5,262 264,261.5 264.5,261C 314.499,260.5 364.499,260.333 414.5,260.5 Z"/></g>
<g><path style="opacity:1" fill="#d08d6e" d="M 279.5,436.5 C 296.503,436.667 313.503,436.5 330.5,436C 334.276,434.395 336.276,431.562 336.5,427.5C 337.338,427.158 337.672,426.492 337.5,425.5C 340.5,425.5 343.5,425.5 346.5,425.5C 346.5,426.833 346.5,428.167 346.5,429.5C 346.002,434.954 348.502,437.954 354,438.5C 361.139,438.69 365.972,435.523 368.5,429C 373.5,428.333 378.5,428.333 383.5,429C 384.691,429.698 385.691,430.531 386.5,431.5C 392.083,436.818 397.75,436.818 403.5,431.5C 404.117,431.389 404.617,431.056 405,430.5C 405.832,379.332 405.665,328.332 404.5,277.5C 403.772,274.707 402.105,272.707 399.5,271.5C 399.082,270.778 398.416,270.278 397.5,270C 357.5,269.333 317.5,269.333 277.5,270C 275.21,271.777 273.543,273.944 272.5,276.5C 271.172,327.433 271.172,378.433 272.5,429.5C 273.524,430.852 274.524,432.185 275.5,433.5C 273.61,433.703 272.11,433.037 271,431.5C 270.667,428.833 270.333,426.167 270,423.5C 269.167,372.83 269.333,322.163 270.5,271.5C 272.046,270.316 273.713,269.316 275.5,268.5C 317.4,267.831 359.234,267.164 401,266.5C 402.833,271.053 405.333,275.053 408.5,278.5C 407.824,329.836 407.158,381.169 406.5,432.5C 404.022,433.195 402.022,434.695 400.5,437C 398.833,437.167 397.167,437.333 395.5,437.5C 387.596,434.834 379.43,432.834 371,431.5C 368.523,431.756 366.856,433.089 366,435.5C 365.689,436.742 366.189,437.742 367.5,438.5C 361.624,438.58 355.624,438.913 349.5,439.5C 346.5,439.333 343.5,439.167 340.5,439C 342.833,438.667 345.167,438.333 347.5,438C 345.503,435.508 344.503,432.675 344.5,429.5C 341.477,429.105 340.477,430.105 341.5,432.5C 337.586,433.81 333.92,435.643 330.5,438C 313.833,438.667 297.167,438.667 280.5,438C 279.944,437.617 279.611,437.117 279.5,436.5 Z"/></g>
<g><path style="opacity:1" fill="#946a5c" d="M 404.5,277.5 C 405.665,328.332 405.832,379.332 405,430.5C 404.617,431.056 404.117,431.389 403.5,431.5C 404.491,380.209 404.824,328.875 404.5,277.5 Z"/></g>
<g><path style="opacity:1" fill="#271714" d="M 396.5,271.5 C 358.499,271.333 320.499,271.5 282.5,272C 276.998,273.838 274.165,277.671 274,283.5C 273.333,330.5 273.333,377.5 274,424.5C 275.495,426.11 275.661,427.776 274.5,429.5C 276.167,430.833 277.833,432.167 279.5,433.5C 294.489,434.666 309.489,434.833 324.5,434C 326.577,433.808 328.577,433.308 330.5,432.5C 329.617,430.52 329.783,428.52 331,426.5C 332.204,427.471 332.704,428.471 332.5,429.5C 333.86,428.82 335.193,428.153 336.5,427.5C 336.276,431.562 334.276,434.395 330.5,436C 313.503,436.5 296.503,436.667 279.5,436.5C 277.878,435.878 276.545,434.878 275.5,433.5C 274.524,432.185 273.524,430.852 272.5,429.5C 271.172,378.433 271.172,327.433 272.5,276.5C 274.63,274.873 276.63,273.04 278.5,271C 318.002,270.169 357.335,270.335 396.5,271.5 Z"/></g>
<g><path style="opacity:1" fill="#030303" d="M 396.5,271.5 C 397.5,271.5 398.5,271.5 399.5,271.5C 402.105,272.707 403.772,274.707 404.5,277.5C 404.824,328.875 404.491,380.209 403.5,431.5C 397.75,436.818 392.083,436.818 386.5,431.5C 386.483,429.435 386.15,427.435 385.5,425.5C 385.5,380.167 385.5,334.833 385.5,289.5C 379.158,289.334 372.825,289.5 366.5,290C 361.63,294.702 356.963,299.535 352.5,304.5C 341.005,315.827 329.339,326.994 317.5,338C 315.167,338.667 312.833,338.667 310.5,338C 304.457,334.161 302.957,328.994 306,322.5C 316.833,311.667 327.667,300.833 338.5,290C 322.837,289.5 307.17,289.333 291.5,289.5C 291.5,331.833 291.5,374.167 291.5,416.5C 304.504,416.333 317.504,416.5 330.5,417C 334.494,418.492 336.828,421.325 337.5,425.5C 337.672,426.492 337.338,427.158 336.5,427.5C 335.193,428.153 333.86,428.82 332.5,429.5C 332.704,428.471 332.204,427.471 331,426.5C 329.783,428.52 329.617,430.52 330.5,432.5C 328.577,433.308 326.577,433.808 324.5,434C 309.489,434.833 294.489,434.666 279.5,433.5C 277.833,432.167 276.167,430.833 274.5,429.5C 275.661,427.776 275.495,426.11 274,424.5C 273.333,377.5 273.333,330.5 274,283.5C 274.165,277.671 276.998,273.838 282.5,272C 320.499,271.5 358.499,271.333 396.5,271.5 Z"/></g>
<g><path style="opacity:1" fill="#6f493c" d="M 399.5,271.5 C 398.5,271.5 397.5,271.5 396.5,271.5C 357.335,270.335 318.002,270.169 278.5,271C 276.63,273.04 274.63,274.873 272.5,276.5C 273.543,273.944 275.21,271.777 277.5,270C 317.5,269.333 357.5,269.333 397.5,270C 398.416,270.278 399.082,270.778 399.5,271.5 Z"/></g>
<g><path style="opacity:1" fill="#8eeaef" d="M 352.5,304.5 C 354.805,303.213 357.138,301.88 359.5,300.5C 361.227,297.487 363.56,295.154 366.5,293.5C 371.792,292.505 377.125,292.172 382.5,292.5C 382.5,336.167 382.5,379.833 382.5,423.5C 377.5,423.5 372.5,423.5 367.5,423.5C 366.663,417.764 363.33,415.43 357.5,416.5C 351.106,416.232 347.439,419.232 346.5,425.5C 343.5,425.5 340.5,425.5 337.5,425.5C 336.828,421.325 334.494,418.492 330.5,417C 317.504,416.5 304.504,416.333 291.5,416.5C 291.5,374.167 291.5,331.833 291.5,289.5C 307.17,289.333 322.837,289.5 338.5,290C 327.667,300.833 316.833,311.667 306,322.5C 302.957,328.994 304.457,334.161 310.5,338C 312.833,338.667 315.167,338.667 317.5,338C 329.339,326.994 341.005,315.827 352.5,304.5 Z"/></g>
<g><path style="opacity:1" fill="#94d8d9" d="M 385.5,425.5 C 378.833,426.833 372.167,426.833 365.5,425.5C 364.896,420.603 362.229,417.603 357.5,416.5C 363.33,415.43 366.663,417.764 367.5,423.5C 372.5,423.5 377.5,423.5 382.5,423.5C 382.5,379.833 382.5,336.167 382.5,292.5C 377.125,292.172 371.792,292.505 366.5,293.5C 363.56,295.154 361.227,297.487 359.5,300.5C 357.138,301.88 354.805,303.213 352.5,304.5C 356.963,299.535 361.63,294.702 366.5,290C 372.825,289.5 379.158,289.334 385.5,289.5C 385.5,334.833 385.5,380.167 385.5,425.5 Z"/></g>
<g><path style="opacity:1" fill="#0a0708" d="M 357.5,416.5 C 362.229,417.603 364.896,420.603 365.5,425.5C 364.054,434.427 359.054,437.26 350.5,434C 348.93,432.603 347.596,431.103 346.5,429.5C 346.5,428.167 346.5,426.833 346.5,425.5C 347.439,419.232 351.106,416.232 357.5,416.5 Z"/></g>
<g><path style="opacity:1" fill="#ba886b" d="M 365.5,425.5 C 372.167,426.833 378.833,426.833 385.5,425.5C 386.15,427.435 386.483,429.435 386.5,431.5C 385.691,430.531 384.691,429.698 383.5,429C 378.5,428.333 373.5,428.333 368.5,429C 365.972,435.523 361.139,438.69 354,438.5C 348.502,437.954 346.002,434.954 346.5,429.5C 347.596,431.103 348.93,432.603 350.5,434C 359.054,437.26 364.054,434.427 365.5,425.5 Z"/></g>
<g><path style="opacity:1" fill="#c4927e" d="M 84.5,258.5 C 136.5,258.5 188.5,258.5 240.5,258.5C 240.5,321.5 240.5,384.5 240.5,447.5C 188.5,447.5 136.5,447.5 84.5,447.5C 84.5,384.5 84.5,321.5 84.5,258.5 Z"/></g>
<g><path style="opacity:1" fill="#d98c65" d="M 238.5,260.5 C 239.499,321.998 239.832,383.664 239.5,445.5C 188.19,446.482 136.856,446.815 85.5,446.5C 85.3333,384.832 85.5,323.166 86,261.5C 86.5,261 87,260.5 87.5,260C 138.002,259.168 188.335,259.335 238.5,260.5 Z"/></g>
<g><path style="opacity:1" fill="#8a6050" d="M 95.5,276.5 C 95.8333,276.5 96.1667,276.5 96.5,276.5C 96.1757,328.209 96.509,379.875 97.5,431.5C 96.8826,431.389 96.3826,431.056 96,430.5C 95.5,379.168 95.3333,327.834 95.5,276.5 Z"/></g>
<g><path style="opacity:1" fill="#b57d64" d="M 103.5,268.5 C 144.168,268.333 184.835,268.5 225.5,269C 227,270.5 228.5,272 230,273.5C 231.658,326.417 231.991,379.417 231,432.5C 227.993,436.252 224.16,438.252 219.5,438.5C 180.323,438.165 141.323,437.165 102.5,435.5C 142.835,435.667 183.168,435.5 223.5,435C 224.705,433.624 226.038,432.458 227.5,431.5C 228.117,431.389 228.617,431.056 229,430.5C 229.832,379.332 229.665,328.332 228.5,277.5C 228.672,276.508 228.338,275.842 227.5,275.5C 227.084,273.248 225.751,271.748 223.5,271C 182.833,270.333 142.167,270.333 101.5,271C 99.2611,272.31 97.5944,274.143 96.5,276.5C 96.1667,276.5 95.8333,276.5 95.5,276.5C 95.8333,271.5 98.5,268.833 103.5,268.5 Z"/></g>
<g><path style="opacity:1" fill="#71493c" d="M 228.5,277.5 C 229.665,328.332 229.832,379.332 229,430.5C 228.617,431.056 228.117,431.389 227.5,431.5C 228.491,380.209 228.824,328.875 228.5,277.5 Z"/></g>
<g><path style="opacity:1" fill="#d88c5f" d="M 238.5,260.5 C 238.666,266.176 238.499,271.843 238,277.5C 237.867,274.586 236.7,272.253 234.5,270.5C 233.328,270.919 232.328,271.585 231.5,272.5C 232.747,274.323 233.414,276.323 233.5,278.5C 236.243,278.077 237.576,279.244 237.5,282C 237.204,283.888 236.704,285.722 236,287.5C 235.816,333.014 235.316,378.514 234.5,424C 234.734,427.609 235.734,430.943 237.5,434C 236.339,436.593 234.339,438.259 231.5,439C 233.677,440.202 236.011,440.702 238.5,440.5C 238.5,441.5 238.5,442.5 238.5,443.5C 188.183,444.81 137.85,444.81 87.5,443.5C 88.3797,432.777 93.0464,430.777 101.5,437.5C 140.828,438.5 180.161,438.833 219.5,438.5C 224.16,438.252 227.993,436.252 231,432.5C 231.991,379.417 231.658,326.417 230,273.5C 228.5,272 227,270.5 225.5,269C 184.835,268.5 144.168,268.333 103.5,268.5C 105.969,267.683 108.635,267.183 111.5,267C 109.941,266.02 108.274,265.187 106.5,264.5C 146.512,263.184 186.512,263.184 226.5,264.5C 233.349,262.262 233.016,261.095 225.5,261C 229.821,260.501 234.154,260.334 238.5,260.5 Z"/></g>
<g><path style="opacity:1" fill="#180201" d="M 227.5,275.5 C 225.394,275.321 223.728,274.321 222.5,272.5C 184.171,271.333 145.838,271.167 107.5,272C 104.879,273.595 102.213,275.095 99.5,276.5C 99,277.5 98.5,278.5 98,279.5C 97.3333,327.833 97.3333,376.167 98,424.5C 98.3951,427.207 98.8951,429.873 99.5,432.5C 98.8333,432.167 98.1667,431.833 97.5,431.5C 96.509,379.875 96.1757,328.209 96.5,276.5C 97.5944,274.143 99.2611,272.31 101.5,271C 142.167,270.333 182.833,270.333 223.5,271C 225.751,271.748 227.084,273.248 227.5,275.5 Z"/></g>
<g><path style="opacity:1" fill="#020203" d="M 227.5,275.5 C 228.338,275.842 228.672,276.508 228.5,277.5C 228.824,328.875 228.491,380.209 227.5,431.5C 226.038,432.458 224.705,433.624 223.5,435C 183.168,435.5 142.835,435.667 102.5,435.5C 101.167,434.833 100.167,433.833 99.5,432.5C 98.8951,429.873 98.3951,427.207 98,424.5C 97.3333,376.167 97.3333,327.833 98,279.5C 98.5,278.5 99,277.5 99.5,276.5C 102.213,275.095 104.879,273.595 107.5,272C 145.838,271.167 184.171,271.333 222.5,272.5C 223.728,274.321 225.394,275.321 227.5,275.5 Z"/></g>
<g><path style="opacity:1" fill="#9dcfd1" d="M 168.5,410.5 C 168.579,411.93 168.246,413.264 167.5,414.5C 181.15,415.499 194.817,415.833 208.5,415.5C 208.5,373.833 208.5,332.167 208.5,290.5C 177.926,290.171 147.426,290.504 117,291.5C 116.5,333.165 116.333,374.832 116.5,416.5C 115.501,374.337 115.168,332.003 115.5,289.5C 146.833,289.5 178.167,289.5 209.5,289.5C 209.5,331.833 209.5,374.167 209.5,416.5C 193.83,416.667 178.163,416.5 162.5,416C 164.37,413.96 166.37,412.127 168.5,410.5 Z"/></g>
<g><path style="opacity:1" fill="#8eeaef" d="M 168.5,410.5 C 177.707,401.055 186.707,391.388 195.5,381.5C 197.49,373.976 194.657,369.31 187,367.5C 184.456,367.384 182.289,368.217 180.5,370C 165.167,385.333 149.833,400.667 134.5,416C 128.509,416.499 122.509,416.666 116.5,416.5C 116.333,374.832 116.5,333.165 117,291.5C 147.426,290.504 177.926,290.171 208.5,290.5C 208.5,332.167 208.5,373.833 208.5,415.5C 194.817,415.833 181.15,415.499 167.5,414.5C 168.246,413.264 168.579,411.93 168.5,410.5 Z"/></g>
<g><path style="opacity:0.027" fill="#c3c1c1" d="M 453.5,450.5 C 454.906,450.973 455.573,451.973 455.5,453.5C 454.094,453.027 453.427,452.027 453.5,450.5 Z"/></g>
<g><path style="opacity:1" fill="#1c0604" d="M 64.5,467.5 C 64.5,471.5 64.5,475.5 64.5,479.5C 188.334,479.833 312.001,479.5 435.5,478.5C 436.482,475.038 436.815,471.371 436.5,467.5C 312.833,467.5 189.167,467.5 65.5,467.5C 65.9175,466.778 66.5842,466.278 67.5,466C 191.166,465.5 314.833,465.333 438.5,465.5C 439.074,470.648 438.407,475.482 436.5,480C 317.833,480.333 199.167,480.667 80.5,481C 76.2467,481.2 72.08,481.7 68,482.5C 66.6667,481.833 65.3333,481.167 64,480.5C 63.1864,475.98 63.353,471.646 64.5,467.5 Z"/></g>
<g><path style="opacity:1" fill="#533224" d="M 64.5,467.5 C 64.8333,467.5 65.1667,467.5 65.5,467.5C 64.9197,471.649 65.5864,475.316 67.5,478.5C 69.1667,478.5 70.8333,478.5 72.5,478.5C 193.5,478.5 314.5,478.5 435.5,478.5C 312.001,479.5 188.334,479.833 64.5,479.5C 64.5,475.5 64.5,471.5 64.5,467.5 Z"/></g>
<g><path style="opacity:1" fill="#986350" d="M 65.5,467.5 C 189.167,467.5 312.833,467.5 436.5,467.5C 436.815,471.371 436.482,475.038 435.5,478.5C 314.5,478.5 193.5,478.5 72.5,478.5C 192.666,477.667 312.999,477.167 433.5,477C 434.814,474.395 434.814,471.895 433.5,469.5C 433.167,469.5 432.833,469.5 432.5,469.5C 310.668,468.5 188.668,468.167 66.5,468.5C 66.1984,471.059 66.5318,473.393 67.5,475.5C 67.5,475.833 67.5,476.167 67.5,476.5C 67.5,477.167 67.5,477.833 67.5,478.5C 65.5864,475.316 64.9197,471.649 65.5,467.5 Z"/></g>
<g><path style="opacity:1" fill="#a75d45" d="M 433.5,469.5 C 434.814,471.895 434.814,474.395 433.5,477C 312.999,477.167 192.666,477.667 72.5,478.5C 70.8333,478.5 69.1667,478.5 67.5,478.5C 67.5,477.833 67.5,477.167 67.5,476.5C 70.4534,476.85 72.7867,475.85 74.5,473.5C 75.0577,474.79 76.0577,475.623 77.5,476C 195.903,476.831 314.236,476.664 432.5,475.5C 433.461,473.735 433.795,471.735 433.5,469.5 Z"/></g>
<g><path style="opacity:1" fill="#b25a3d" d="M 432.5,475.5 C 314.236,476.664 195.903,476.831 77.5,476C 76.0577,475.623 75.0577,474.79 74.5,473.5C 75.0483,470.916 76.715,469.916 79.5,470.5C 79.5,471.5 79.5,472.5 79.5,473.5C 196.737,473.832 313.904,473.499 431,472.5C 432.039,473.244 432.539,474.244 432.5,475.5 Z"/></g>
<g><path style="opacity:1" fill="#ab5f39" d="M 432.5,469.5 C 432.833,469.5 433.167,469.5 433.5,469.5C 433.795,471.735 433.461,473.735 432.5,475.5C 432.539,474.244 432.039,473.244 431,472.5C 313.904,473.499 196.737,473.832 79.5,473.5C 79.5,472.5 79.5,471.5 79.5,470.5C 76.715,469.916 75.0483,470.916 74.5,473.5C 72.7867,475.85 70.4534,476.85 67.5,476.5C 67.5,476.167 67.5,475.833 67.5,475.5C 67.5,473.5 67.5,471.5 67.5,469.5C 189.167,469.5 310.833,469.5 432.5,469.5 Z"/></g>
<g><path style="opacity:1" fill="#a56148" d="M 432.5,469.5 C 310.833,469.5 189.167,469.5 67.5,469.5C 67.5,471.5 67.5,473.5 67.5,475.5C 66.5318,473.393 66.1984,471.059 66.5,468.5C 188.668,468.167 310.668,468.5 432.5,469.5 Z"/></g>
<g><path style="opacity:0.024" fill="#d0d0d0" d="M 45.5,492.5 C 46.9063,492.973 47.573,493.973 47.5,495.5C 46.0937,495.027 45.427,494.027 45.5,492.5 Z"/></g>
</svg>
